solid OpenSCAD_Model
  facet normal 0.740935 0.671577 0
    outer loop
      vertex 11.5952 9.5159 6
      vertex 10.6066 10.6066 0
      vertex 10.6066 10.6066 6
    endloop
  endfacet
  facet normal 0.740935 0.671577 0
    outer loop
      vertex 10.6066 10.6066 0
      vertex 11.5952 9.5159 6
      vertex 11.5952 9.5159 0
    endloop
  endfacet
  facet normal 0.989176 0.146737 0
    outer loop
      vertex 14.9278 1.47026 6
      vertex 14.7118 2.92635 0
      vertex 14.7118 2.92635 6
    endloop
  endfacet
  facet normal 0.989176 0.146737 0
    outer loop
      vertex 14.7118 2.92635 0
      vertex 14.9278 1.47026 6
      vertex 14.9278 1.47026 0
    endloop
  endfacet
  facet normal 0.998796 0.0490479 0
    outer loop
      vertex 15 0 6
      vertex 14.9278 1.47026 0
      vertex 14.9278 1.47026 6
    endloop
  endfacet
  facet normal 0.998796 0.0490479 0
    outer loop
      vertex 14.9278 1.47026 0
      vertex 15 0 6
      vertex 15 0 0
    endloop
  endfacet
  facet normal 0.970027 0.242996 0
    outer loop
      vertex 14.7118 2.92635 6
      vertex 14.3541 4.35427 0
      vertex 14.3541 4.35427 6
    endloop
  endfacet
  facet normal 0.970027 0.242996 0
    outer loop
      vertex 14.3541 4.35427 0
      vertex 14.7118 2.92635 6
      vertex 14.7118 2.92635 0
    endloop
  endfacet
  facet normal 0.336883 -0.941547 0
    outer loop
      vertex 4.35427 -14.3541 0
      vertex 5.74025 -13.8582 6
      vertex 4.35427 -14.3541 6
    endloop
  endfacet
  facet normal 0.336883 -0.941547 0
    outer loop
      vertex 5.74025 -13.8582 6
      vertex 4.35427 -14.3541 0
      vertex 5.74025 -13.8582 0
    endloop
  endfacet
  facet normal 0.857721 0.514116 0
    outer loop
      vertex 13.2288 7.07095 6
      vertex 12.472 8.33355 0
      vertex 12.472 8.33355 6
    endloop
  endfacet
  facet normal 0.857721 0.514116 0
    outer loop
      vertex 12.472 8.33355 0
      vertex 13.2288 7.07095 6
      vertex 13.2288 7.07095 0
    endloop
  endfacet
  facet normal 0.941547 0.336883 0
    outer loop
      vertex 14.3541 4.35427 6
      vertex 13.8582 5.74025 0
      vertex 13.8582 5.74025 6
    endloop
  endfacet
  facet normal 0.941547 0.336883 0
    outer loop
      vertex 13.8582 5.74025 0
      vertex 14.3541 4.35427 6
      vertex 14.3541 4.35427 0
    endloop
  endfacet
  facet normal 0.242996 0.970027 -0
    outer loop
      vertex 4.35427 14.3541 0
      vertex 2.92635 14.7118 6
      vertex 4.35427 14.3541 6
    endloop
  endfacet
  facet normal 0.242996 0.970027 0
    outer loop
      vertex 2.92635 14.7118 6
      vertex 4.35427 14.3541 0
      vertex 2.92635 14.7118 0
    endloop
  endfacet
  facet normal -0.740935 0.671577 0
    outer loop
      vertex -11.5952 9.5159 0
      vertex -10.6066 10.6066 6
      vertex -10.6066 10.6066 0
    endloop
  endfacet
  facet normal -0.740935 0.671577 0
    outer loop
      vertex -10.6066 10.6066 6
      vertex -11.5952 9.5159 0
      vertex -11.5952 9.5159 6
    endloop
  endfacet
  facet normal 0.0490479 -0.998796 0
    outer loop
      vertex 0 -15 0
      vertex 1.47026 -14.9278 6
      vertex 0 -15 6
    endloop
  endfacet
  facet normal 0.0490479 -0.998796 0
    outer loop
      vertex 1.47026 -14.9278 6
      vertex 0 -15 0
      vertex 1.47026 -14.9278 0
    endloop
  endfacet
  facet normal 0.427569 0.903983 -0
    outer loop
      vertex 7.07095 13.2288 0
      vertex 5.74025 13.8582 6
      vertex 7.07095 13.2288 6
    endloop
  endfacet
  facet normal 0.427569 0.903983 0
    outer loop
      vertex 5.74025 13.8582 6
      vertex 7.07095 13.2288 0
      vertex 5.74025 13.8582 0
    endloop
  endfacet
  facet normal 0.671577 0.740935 -0
    outer loop
      vertex 10.6066 10.6066 0
      vertex 9.5159 11.5952 6
      vertex 10.6066 10.6066 6
    endloop
  endfacet
  facet normal 0.671577 0.740935 0
    outer loop
      vertex 9.5159 11.5952 6
      vertex 10.6066 10.6066 0
      vertex 9.5159 11.5952 0
    endloop
  endfacet
  facet normal -0.59566 -0.803237 0
    outer loop
      vertex -9.5159 -11.5952 0
      vertex -8.33355 -12.472 6
      vertex -9.5159 -11.5952 6
    endloop
  endfacet
  facet normal -0.59566 -0.803237 -0
    outer loop
      vertex -8.33355 -12.472 6
      vertex -9.5159 -11.5952 0
      vertex -8.33355 -12.472 0
    endloop
  endfacet
  facet normal 0.242996 -0.970027 0
    outer loop
      vertex 2.92635 -14.7118 0
      vertex 4.35427 -14.3541 6
      vertex 2.92635 -14.7118 6
    endloop
  endfacet
  facet normal 0.242996 -0.970027 0
    outer loop
      vertex 4.35427 -14.3541 6
      vertex 2.92635 -14.7118 0
      vertex 4.35427 -14.3541 0
    endloop
  endfacet
  facet normal 0.989176 -0.146737 0
    outer loop
      vertex 14.7118 -2.92635 6
      vertex 14.9278 -1.47026 0
      vertex 14.9278 -1.47026 6
    endloop
  endfacet
  facet normal 0.989176 -0.146737 0
    outer loop
      vertex 14.9278 -1.47026 0
      vertex 14.7118 -2.92635 6
      vertex 14.7118 -2.92635 0
    endloop
  endfacet
  facet normal 0.514116 -0.857721 0
    outer loop
      vertex 7.07095 -13.2288 0
      vertex 8.33355 -12.472 6
      vertex 7.07095 -13.2288 6
    endloop
  endfacet
  facet normal 0.514116 -0.857721 0
    outer loop
      vertex 8.33355 -12.472 6
      vertex 7.07095 -13.2288 0
      vertex 8.33355 -12.472 0
    endloop
  endfacet
  facet normal -0.242996 -0.970027 0
    outer loop
      vertex -4.35427 -14.3541 0
      vertex -2.92635 -14.7118 6
      vertex -4.35427 -14.3541 6
    endloop
  endfacet
  facet normal -0.242996 -0.970027 -0
    outer loop
      vertex -2.92635 -14.7118 6
      vertex -4.35427 -14.3541 0
      vertex -2.92635 -14.7118 0
    endloop
  endfacet
  facet normal -0.59566 0.803237 0
    outer loop
      vertex -8.33355 12.472 0
      vertex -9.5159 11.5952 6
      vertex -8.33355 12.472 6
    endloop
  endfacet
  facet normal -0.59566 0.803237 0
    outer loop
      vertex -9.5159 11.5952 6
      vertex -8.33355 12.472 0
      vertex -9.5159 11.5952 0
    endloop
  endfacet
  facet normal -0.998796 -0.0490479 0
    outer loop
      vertex -14.9278 -1.47026 0
      vertex -15 0 6
      vertex -15 0 0
    endloop
  endfacet
  facet normal -0.998796 -0.0490479 0
    outer loop
      vertex -15 0 6
      vertex -14.9278 -1.47026 0
      vertex -14.9278 -1.47026 6
    endloop
  endfacet
  facet normal -0.970027 -0.242996 0
    outer loop
      vertex -14.3541 -4.35427 0
      vertex -14.7118 -2.92635 6
      vertex -14.7118 -2.92635 0
    endloop
  endfacet
  facet normal -0.970027 -0.242996 0
    outer loop
      vertex -14.7118 -2.92635 6
      vertex -14.3541 -4.35427 0
      vertex -14.3541 -4.35427 6
    endloop
  endfacet
  facet normal 0.970027 -0.242996 0
    outer loop
      vertex 14.3541 -4.35427 6
      vertex 14.7118 -2.92635 0
      vertex 14.7118 -2.92635 6
    endloop
  endfacet
  facet normal 0.970027 -0.242996 0
    outer loop
      vertex 14.7118 -2.92635 0
      vertex 14.3541 -4.35427 6
      vertex 14.3541 -4.35427 0
    endloop
  endfacet
  facet normal -0.514116 0.857721 0
    outer loop
      vertex -7.07095 13.2288 0
      vertex -8.33355 12.472 6
      vertex -7.07095 13.2288 6
    endloop
  endfacet
  facet normal -0.514116 0.857721 0
    outer loop
      vertex -8.33355 12.472 6
      vertex -7.07095 13.2288 0
      vertex -8.33355 12.472 0
    endloop
  endfacet
  facet normal 0.59566 0.803237 -0
    outer loop
      vertex 9.5159 11.5952 0
      vertex 8.33355 12.472 6
      vertex 9.5159 11.5952 6
    endloop
  endfacet
  facet normal 0.59566 0.803237 0
    outer loop
      vertex 8.33355 12.472 6
      vertex 9.5159 11.5952 0
      vertex 8.33355 12.472 0
    endloop
  endfacet
  facet normal -0.903983 -0.427569 0
    outer loop
      vertex -13.2288 -7.07095 0
      vertex -13.8582 -5.74025 6
      vertex -13.8582 -5.74025 0
    endloop
  endfacet
  facet normal -0.903983 -0.427569 0
    outer loop
      vertex -13.8582 -5.74025 6
      vertex -13.2288 -7.07095 0
      vertex -13.2288 -7.07095 6
    endloop
  endfacet
  facet normal 0.941547 -0.336883 0
    outer loop
      vertex 13.8582 -5.74025 6
      vertex 14.3541 -4.35427 0
      vertex 14.3541 -4.35427 6
    endloop
  endfacet
  facet normal 0.941547 -0.336883 0
    outer loop
      vertex 14.3541 -4.35427 0
      vertex 13.8582 -5.74025 6
      vertex 13.8582 -5.74025 0
    endloop
  endfacet
  facet normal 0.146737 0.989176 -0
    outer loop
      vertex 2.92635 14.7118 0
      vertex 1.47026 14.9278 6
      vertex 2.92635 14.7118 6
    endloop
  endfacet
  facet normal 0.146737 0.989176 0
    outer loop
      vertex 1.47026 14.9278 6
      vertex 2.92635 14.7118 0
      vertex 1.47026 14.9278 0
    endloop
  endfacet
  facet normal -0.427569 0.903983 0
    outer loop
      vertex -5.74025 13.8582 0
      vertex -7.07095 13.2288 6
      vertex -5.74025 13.8582 6
    endloop
  endfacet
  facet normal -0.427569 0.903983 0
    outer loop
      vertex -7.07095 13.2288 6
      vertex -5.74025 13.8582 0
      vertex -7.07095 13.2288 0
    endloop
  endfacet
  facet normal 0.514116 0.857721 -0
    outer loop
      vertex 8.33355 12.472 0
      vertex 7.07095 13.2288 6
      vertex 8.33355 12.472 6
    endloop
  endfacet
  facet normal 0.514116 0.857721 0
    outer loop
      vertex 7.07095 13.2288 6
      vertex 8.33355 12.472 0
      vertex 7.07095 13.2288 0
    endloop
  endfacet
  facet normal 0.427569 -0.903983 0
    outer loop
      vertex 5.74025 -13.8582 0
      vertex 7.07095 -13.2288 6
      vertex 5.74025 -13.8582 6
    endloop
  endfacet
  facet normal 0.427569 -0.903983 0
    outer loop
      vertex 7.07095 -13.2288 6
      vertex 5.74025 -13.8582 0
      vertex 7.07095 -13.2288 0
    endloop
  endfacet
  facet normal -0.941547 -0.336883 0
    outer loop
      vertex -13.8582 -5.74025 0
      vertex -14.3541 -4.35427 6
      vertex -14.3541 -4.35427 0
    endloop
  endfacet
  facet normal -0.941547 -0.336883 0
    outer loop
      vertex -14.3541 -4.35427 6
      vertex -13.8582 -5.74025 0
      vertex -13.8582 -5.74025 6
    endloop
  endfacet
  facet normal 0.857721 -0.514116 0
    outer loop
      vertex 12.472 -8.33355 6
      vertex 13.2288 -7.07095 0
      vertex 13.2288 -7.07095 6
    endloop
  endfacet
  facet normal 0.857721 -0.514116 0
    outer loop
      vertex 13.2288 -7.07095 0
      vertex 12.472 -8.33355 6
      vertex 12.472 -8.33355 0
    endloop
  endfacet
  facet normal 0.903983 -0.427569 0
    outer loop
      vertex 13.2288 -7.07095 6
      vertex 13.8582 -5.74025 0
      vertex 13.8582 -5.74025 6
    endloop
  endfacet
  facet normal 0.903983 -0.427569 0
    outer loop
      vertex 13.8582 -5.74025 0
      vertex 13.2288 -7.07095 6
      vertex 13.2288 -7.07095 0
    endloop
  endfacet
  facet normal 0.998796 -0.0490479 0
    outer loop
      vertex 14.9278 -1.47026 6
      vertex 15 0 0
      vertex 15 0 6
    endloop
  endfacet
  facet normal 0.998796 -0.0490479 0
    outer loop
      vertex 15 0 0
      vertex 14.9278 -1.47026 6
      vertex 14.9278 -1.47026 0
    endloop
  endfacet
  facet normal -0.146737 0.989176 0
    outer loop
      vertex -1.47026 14.9278 0
      vertex -2.92635 14.7118 6
      vertex -1.47026 14.9278 6
    endloop
  endfacet
  facet normal -0.146737 0.989176 0
    outer loop
      vertex -2.92635 14.7118 6
      vertex -1.47026 14.9278 0
      vertex -2.92635 14.7118 0
    endloop
  endfacet
  facet normal 0.146737 -0.989176 0
    outer loop
      vertex 1.47026 -14.9278 0
      vertex 2.92635 -14.7118 6
      vertex 1.47026 -14.9278 6
    endloop
  endfacet
  facet normal 0.146737 -0.989176 0
    outer loop
      vertex 2.92635 -14.7118 6
      vertex 1.47026 -14.9278 0
      vertex 2.92635 -14.7118 0
    endloop
  endfacet
  facet normal 0.740935 -0.671577 0
    outer loop
      vertex 10.6066 -10.6066 6
      vertex 11.5952 -9.5159 0
      vertex 11.5952 -9.5159 6
    endloop
  endfacet
  facet normal 0.740935 -0.671577 0
    outer loop
      vertex 11.5952 -9.5159 0
      vertex 10.6066 -10.6066 6
      vertex 10.6066 -10.6066 0
    endloop
  endfacet
  facet normal 0.803237 -0.59566 0
    outer loop
      vertex 11.5952 -9.5159 6
      vertex 12.472 -8.33355 0
      vertex 12.472 -8.33355 6
    endloop
  endfacet
  facet normal 0.803237 -0.59566 0
    outer loop
      vertex 12.472 -8.33355 0
      vertex 11.5952 -9.5159 6
      vertex 11.5952 -9.5159 0
    endloop
  endfacet
  facet normal -0.242996 0.970027 0
    outer loop
      vertex -2.92635 14.7118 0
      vertex -4.35427 14.3541 6
      vertex -2.92635 14.7118 6
    endloop
  endfacet
  facet normal -0.242996 0.970027 0
    outer loop
      vertex -4.35427 14.3541 6
      vertex -2.92635 14.7118 0
      vertex -4.35427 14.3541 0
    endloop
  endfacet
  facet normal 0.803237 0.59566 0
    outer loop
      vertex 12.472 8.33355 6
      vertex 11.5952 9.5159 0
      vertex 11.5952 9.5159 6
    endloop
  endfacet
  facet normal 0.803237 0.59566 0
    outer loop
      vertex 11.5952 9.5159 0
      vertex 12.472 8.33355 6
      vertex 12.472 8.33355 0
    endloop
  endfacet
  facet normal 0.0490479 0.998796 -0
    outer loop
      vertex 1.47026 14.9278 0
      vertex 0 15 6
      vertex 1.47026 14.9278 6
    endloop
  endfacet
  facet normal 0.0490479 0.998796 0
    outer loop
      vertex 0 15 6
      vertex 1.47026 14.9278 0
      vertex 0 15 0
    endloop
  endfacet
  facet normal 0.903983 0.427569 0
    outer loop
      vertex 13.8582 5.74025 6
      vertex 13.2288 7.07095 0
      vertex 13.2288 7.07095 6
    endloop
  endfacet
  facet normal 0.903983 0.427569 0
    outer loop
      vertex 13.2288 7.07095 0
      vertex 13.8582 5.74025 6
      vertex 13.8582 5.74025 0
    endloop
  endfacet
  facet normal -0.857721 0.514116 0
    outer loop
      vertex -13.2288 7.07095 0
      vertex -12.472 8.33355 6
      vertex -12.472 8.33355 0
    endloop
  endfacet
  facet normal -0.857721 0.514116 0
    outer loop
      vertex -12.472 8.33355 6
      vertex -13.2288 7.07095 0
      vertex -13.2288 7.07095 6
    endloop
  endfacet
  facet normal -0.671577 0.740935 0
    outer loop
      vertex -9.5159 11.5952 0
      vertex -10.6066 10.6066 6
      vertex -9.5159 11.5952 6
    endloop
  endfacet
  facet normal -0.671577 0.740935 0
    outer loop
      vertex -10.6066 10.6066 6
      vertex -9.5159 11.5952 0
      vertex -10.6066 10.6066 0
    endloop
  endfacet
  facet normal -0.857721 -0.514116 0
    outer loop
      vertex -12.472 -8.33355 0
      vertex -13.2288 -7.07095 6
      vertex -13.2288 -7.07095 0
    endloop
  endfacet
  facet normal -0.857721 -0.514116 0
    outer loop
      vertex -13.2288 -7.07095 6
      vertex -12.472 -8.33355 0
      vertex -12.472 -8.33355 6
    endloop
  endfacet
  facet normal -0.427569 -0.903983 0
    outer loop
      vertex -7.07095 -13.2288 0
      vertex -5.74025 -13.8582 6
      vertex -7.07095 -13.2288 6
    endloop
  endfacet
  facet normal -0.427569 -0.903983 -0
    outer loop
      vertex -5.74025 -13.8582 6
      vertex -7.07095 -13.2288 0
      vertex -5.74025 -13.8582 0
    endloop
  endfacet
  facet normal -0.740935 -0.671577 0
    outer loop
      vertex -10.6066 -10.6066 0
      vertex -11.5952 -9.5159 6
      vertex -11.5952 -9.5159 0
    endloop
  endfacet
  facet normal -0.740935 -0.671577 0
    outer loop
      vertex -11.5952 -9.5159 6
      vertex -10.6066 -10.6066 0
      vertex -10.6066 -10.6066 6
    endloop
  endfacet
  facet normal -0.336883 0.941547 0
    outer loop
      vertex -4.35427 14.3541 0
      vertex -5.74025 13.8582 6
      vertex -4.35427 14.3541 6
    endloop
  endfacet
  facet normal -0.336883 0.941547 0
    outer loop
      vertex -5.74025 13.8582 6
      vertex -4.35427 14.3541 0
      vertex -5.74025 13.8582 0
    endloop
  endfacet
  facet normal -0.514116 -0.857721 0
    outer loop
      vertex -8.33355 -12.472 0
      vertex -7.07095 -13.2288 6
      vertex -8.33355 -12.472 6
    endloop
  endfacet
  facet normal -0.514116 -0.857721 -0
    outer loop
      vertex -7.07095 -13.2288 6
      vertex -8.33355 -12.472 0
      vertex -7.07095 -13.2288 0
    endloop
  endfacet
  facet normal 0.59566 -0.803237 0
    outer loop
      vertex 8.33355 -12.472 0
      vertex 9.5159 -11.5952 6
      vertex 8.33355 -12.472 6
    endloop
  endfacet
  facet normal 0.59566 -0.803237 0
    outer loop
      vertex 9.5159 -11.5952 6
      vertex 8.33355 -12.472 0
      vertex 9.5159 -11.5952 0
    endloop
  endfacet
  facet normal -0.0490479 0.998796 0
    outer loop
      vertex 0 15 0
      vertex -1.47026 14.9278 6
      vertex 0 15 6
    endloop
  endfacet
  facet normal -0.0490479 0.998796 0
    outer loop
      vertex -1.47026 14.9278 6
      vertex 0 15 0
      vertex -1.47026 14.9278 0
    endloop
  endfacet
  facet normal -0.970027 0.242996 0
    outer loop
      vertex -14.7118 2.92635 0
      vertex -14.3541 4.35427 6
      vertex -14.3541 4.35427 0
    endloop
  endfacet
  facet normal -0.970027 0.242996 0
    outer loop
      vertex -14.3541 4.35427 6
      vertex -14.7118 2.92635 0
      vertex -14.7118 2.92635 6
    endloop
  endfacet
  facet normal -0.941547 0.336883 0
    outer loop
      vertex -14.3541 4.35427 0
      vertex -13.8582 5.74025 6
      vertex -13.8582 5.74025 0
    endloop
  endfacet
  facet normal -0.941547 0.336883 0
    outer loop
      vertex -13.8582 5.74025 6
      vertex -14.3541 4.35427 0
      vertex -14.3541 4.35427 6
    endloop
  endfacet
  facet normal 0.336883 0.941547 -0
    outer loop
      vertex 5.74025 13.8582 0
      vertex 4.35427 14.3541 6
      vertex 5.74025 13.8582 6
    endloop
  endfacet
  facet normal 0.336883 0.941547 0
    outer loop
      vertex 4.35427 14.3541 6
      vertex 5.74025 13.8582 0
      vertex 4.35427 14.3541 0
    endloop
  endfacet
  facet normal -0.803237 -0.59566 0
    outer loop
      vertex -11.5952 -9.5159 0
      vertex -12.472 -8.33355 6
      vertex -12.472 -8.33355 0
    endloop
  endfacet
  facet normal -0.803237 -0.59566 0
    outer loop
      vertex -12.472 -8.33355 6
      vertex -11.5952 -9.5159 0
      vertex -11.5952 -9.5159 6
    endloop
  endfacet
  facet normal -0.989176 -0.146737 0
    outer loop
      vertex -14.7118 -2.92635 0
      vertex -14.9278 -1.47026 6
      vertex -14.9278 -1.47026 0
    endloop
  endfacet
  facet normal -0.989176 -0.146737 0
    outer loop
      vertex -14.9278 -1.47026 6
      vertex -14.7118 -2.92635 0
      vertex -14.7118 -2.92635 6
    endloop
  endfacet
  facet normal -0.903983 0.427569 0
    outer loop
      vertex -13.8582 5.74025 0
      vertex -13.2288 7.07095 6
      vertex -13.2288 7.07095 0
    endloop
  endfacet
  facet normal -0.903983 0.427569 0
    outer loop
      vertex -13.2288 7.07095 6
      vertex -13.8582 5.74025 0
      vertex -13.8582 5.74025 6
    endloop
  endfacet
  facet normal 0 0 -1
    outer loop
      vertex 4.3 0 0
      vertex 15 0 0
      vertex 14.9278 -1.47026 0
    endloop
  endfacet
  facet normal 0 0 -1
    outer loop
      vertex 4.27929 -0.421474 0
      vertex 14.9278 -1.47026 0
      vertex 14.7118 -2.92635 0
    endloop
  endfacet
  facet normal 0 0 -1
    outer loop
      vertex 15 0 0
      vertex 4.3 0 0
      vertex 14.9278 1.47026 0
    endloop
  endfacet
  facet normal 0 0 -1
    outer loop
      vertex 4.21738 -0.838888 0
      vertex 14.7118 -2.92635 0
      vertex 14.3541 -4.35427 0
    endloop
  endfacet
  facet normal 0 0 -1
    outer loop
      vertex 4.27929 0.421474 0
      vertex 14.9278 1.47026 0
      vertex 4.3 0 0
    endloop
  endfacet
  facet normal 0 0 -1
    outer loop
      vertex 4.11484 -1.24822 0
      vertex 14.3541 -4.35427 0
      vertex 13.8582 -5.74025 0
    endloop
  endfacet
  facet normal -0 0 -1
    outer loop
      vertex 14.9278 1.47026 0
      vertex 4.27929 0.421474 0
      vertex 14.7118 2.92635 0
    endloop
  endfacet
  facet normal 0 0 -1
    outer loop
      vertex 3.97268 -1.64554 0
      vertex 13.8582 -5.74025 0
      vertex 13.2288 -7.07095 0
    endloop
  endfacet
  facet normal 0 0 -1
    outer loop
      vertex 4.21738 0.838888 0
      vertex 14.7118 2.92635 0
      vertex 4.27929 0.421474 0
    endloop
  endfacet
  facet normal 0 0 -1
    outer loop
      vertex 3.79226 -2.02701 0
      vertex 13.2288 -7.07095 0
      vertex 12.472 -8.33355 0
    endloop
  endfacet
  facet normal -0 0 -1
    outer loop
      vertex 14.7118 2.92635 0
      vertex 4.21738 0.838888 0
      vertex 14.3541 4.35427 0
    endloop
  endfacet
  facet normal 0 0 -1
    outer loop
      vertex 3.57532 -2.38895 0
      vertex 12.472 -8.33355 0
      vertex 11.5952 -9.5159 0
    endloop
  endfacet
  facet normal 0 0 -1
    outer loop
      vertex 4.11484 1.24822 0
      vertex 14.3541 4.35427 0
      vertex 4.21738 0.838888 0
    endloop
  endfacet
  facet normal 0 0 -1
    outer loop
      vertex 3.32394 -2.72789 0
      vertex 11.5952 -9.5159 0
      vertex 10.6066 -10.6066 0
    endloop
  endfacet
  facet normal -0 0 -1
    outer loop
      vertex 14.3541 4.35427 0
      vertex 4.11484 1.24822 0
      vertex 13.8582 5.74025 0
    endloop
  endfacet
  facet normal 0 0 -1
    outer loop
      vertex 3.04056 -3.04056 0
      vertex 10.6066 -10.6066 0
      vertex 9.5159 -11.5952 0
    endloop
  endfacet
  facet normal 0 0 -1
    outer loop
      vertex 3.97268 1.64554 0
      vertex 13.8582 5.74025 0
      vertex 4.11484 1.24822 0
    endloop
  endfacet
  facet normal 0 0 -1
    outer loop
      vertex 2.72789 -3.32394 0
      vertex 9.5159 -11.5952 0
      vertex 8.33355 -12.472 0
    endloop
  endfacet
  facet normal -0 0 -1
    outer loop
      vertex 13.8582 5.74025 0
      vertex 3.97268 1.64554 0
      vertex 13.2288 7.07095 0
    endloop
  endfacet
  facet normal 0 0 -1
    outer loop
      vertex 2.38895 -3.57532 0
      vertex 8.33355 -12.472 0
      vertex 7.07095 -13.2288 0
    endloop
  endfacet
  facet normal 0 0 -1
    outer loop
      vertex 3.79226 2.02701 0
      vertex 13.2288 7.07095 0
      vertex 3.97268 1.64554 0
    endloop
  endfacet
  facet normal 0 0 -1
    outer loop
      vertex 2.02701 -3.79226 0
      vertex 7.07095 -13.2288 0
      vertex 5.74025 -13.8582 0
    endloop
  endfacet
  facet normal -0 0 -1
    outer loop
      vertex 13.2288 7.07095 0
      vertex 3.79226 2.02701 0
      vertex 12.472 8.33355 0
    endloop
  endfacet
  facet normal 0 0 -1
    outer loop
      vertex 1.64554 -3.97268 0
      vertex 5.74025 -13.8582 0
      vertex 4.35427 -14.3541 0
    endloop
  endfacet
  facet normal 0 0 -1
    outer loop
      vertex 3.57532 2.38895 0
      vertex 12.472 8.33355 0
      vertex 3.79226 2.02701 0
    endloop
  endfacet
  facet normal -0 0 -1
    outer loop
      vertex 12.472 8.33355 0
      vertex 3.57532 2.38895 0
      vertex 11.5952 9.5159 0
    endloop
  endfacet
  facet normal 0 0 -1
    outer loop
      vertex 14.9278 -1.47026 0
      vertex 4.27929 -0.421474 0
      vertex 4.3 0 0
    endloop
  endfacet
  facet normal 0 0 -1
    outer loop
      vertex 14.7118 -2.92635 0
      vertex 4.21738 -0.838888 0
      vertex 4.27929 -0.421474 0
    endloop
  endfacet
  facet normal 0 0 -1
    outer loop
      vertex 14.3541 -4.35427 0
      vertex 4.11484 -1.24822 0
      vertex 4.21738 -0.838888 0
    endloop
  endfacet
  facet normal 0 0 -1
    outer loop
      vertex 13.8582 -5.74025 0
      vertex 3.97268 -1.64554 0
      vertex 4.11484 -1.24822 0
    endloop
  endfacet
  facet normal 0 0 -1
    outer loop
      vertex 13.2288 -7.07095 0
      vertex 3.79226 -2.02701 0
      vertex 3.97268 -1.64554 0
    endloop
  endfacet
  facet normal 0 0 -1
    outer loop
      vertex 12.472 -8.33355 0
      vertex 3.57532 -2.38895 0
      vertex 3.79226 -2.02701 0
    endloop
  endfacet
  facet normal 0 0 -1
    outer loop
      vertex 11.5952 -9.5159 0
      vertex 3.32394 -2.72789 0
      vertex 3.57532 -2.38895 0
    endloop
  endfacet
  facet normal 0 0 -1
    outer loop
      vertex 10.6066 -10.6066 0
      vertex 3.04056 -3.04056 0
      vertex 3.32394 -2.72789 0
    endloop
  endfacet
  facet normal 0 0 -1
    outer loop
      vertex 1.24822 -4.11484 0
      vertex 4.35427 -14.3541 0
      vertex 2.92635 -14.7118 0
    endloop
  endfacet
  facet normal 0 0 -1
    outer loop
      vertex 9.5159 -11.5952 0
      vertex 2.72789 -3.32394 0
      vertex 3.04056 -3.04056 0
    endloop
  endfacet
  facet normal 0 0 -1
    outer loop
      vertex 8.33355 -12.472 0
      vertex 2.38895 -3.57532 0
      vertex 2.72789 -3.32394 0
    endloop
  endfacet
  facet normal 0 0 -1
    outer loop
      vertex 7.07095 -13.2288 0
      vertex 2.02701 -3.79226 0
      vertex 2.38895 -3.57532 0
    endloop
  endfacet
  facet normal 0 0 -1
    outer loop
      vertex 5.74025 -13.8582 0
      vertex 1.64554 -3.97268 0
      vertex 2.02701 -3.79226 0
    endloop
  endfacet
  facet normal 0 0 -1
    outer loop
      vertex 0.838888 -4.21738 0
      vertex 2.92635 -14.7118 0
      vertex 1.47026 -14.9278 0
    endloop
  endfacet
  facet normal 0 0 -1
    outer loop
      vertex 4.35427 -14.3541 0
      vertex 1.24822 -4.11484 0
      vertex 1.64554 -3.97268 0
    endloop
  endfacet
  facet normal 0 0 -1
    outer loop
      vertex 2.92635 -14.7118 0
      vertex 0.838888 -4.21738 0
      vertex 1.24822 -4.11484 0
    endloop
  endfacet
  facet normal 0 0 -1
    outer loop
      vertex 1.47026 -14.9278 0
      vertex 0.421474 -4.27929 0
      vertex 0.838888 -4.21738 0
    endloop
  endfacet
  facet normal 0 0 -1
    outer loop
      vertex 0 -15 0
      vertex 0.421474 -4.27929 0
      vertex 1.47026 -14.9278 0
    endloop
  endfacet
  facet normal 0 0 -1
    outer loop
      vertex 0 -15 0
      vertex 0 -4.3 0
      vertex 0.421474 -4.27929 0
    endloop
  endfacet
  facet normal 0 0 -1
    outer loop
      vertex 0 -15 0
      vertex -0.421474 -4.27929 0
      vertex 0 -4.3 0
    endloop
  endfacet
  facet normal 0 0 -1
    outer loop
      vertex -1.47026 -14.9278 0
      vertex -0.421474 -4.27929 0
      vertex 0 -15 0
    endloop
  endfacet
  facet normal -0 0 -1
    outer loop
      vertex -0.421474 -4.27929 0
      vertex -1.47026 -14.9278 0
      vertex -0.838888 -4.21738 0
    endloop
  endfacet
  facet normal 0 0 -1
    outer loop
      vertex -2.92635 -14.7118 0
      vertex -0.838888 -4.21738 0
      vertex -1.47026 -14.9278 0
    endloop
  endfacet
  facet normal -0 0 -1
    outer loop
      vertex -0.838888 -4.21738 0
      vertex -2.92635 -14.7118 0
      vertex -1.24822 -4.11484 0
    endloop
  endfacet
  facet normal 0 0 -1
    outer loop
      vertex -4.35427 -14.3541 0
      vertex -1.24822 -4.11484 0
      vertex -2.92635 -14.7118 0
    endloop
  endfacet
  facet normal -0 0 -1
    outer loop
      vertex -1.24822 -4.11484 0
      vertex -4.35427 -14.3541 0
      vertex -1.64554 -3.97268 0
    endloop
  endfacet
  facet normal 0 0 -1
    outer loop
      vertex -5.74025 -13.8582 0
      vertex -1.64554 -3.97268 0
      vertex -4.35427 -14.3541 0
    endloop
  endfacet
  facet normal -0 0 -1
    outer loop
      vertex -1.64554 -3.97268 0
      vertex -5.74025 -13.8582 0
      vertex -2.02701 -3.79226 0
    endloop
  endfacet
  facet normal 0 0 -1
    outer loop
      vertex -7.07095 -13.2288 0
      vertex -2.02701 -3.79226 0
      vertex -5.74025 -13.8582 0
    endloop
  endfacet
  facet normal -0 0 -1
    outer loop
      vertex -2.02701 -3.79226 0
      vertex -7.07095 -13.2288 0
      vertex -2.38895 -3.57532 0
    endloop
  endfacet
  facet normal 0 0 -1
    outer loop
      vertex -8.33355 -12.472 0
      vertex -2.38895 -3.57532 0
      vertex -7.07095 -13.2288 0
    endloop
  endfacet
  facet normal -0 0 -1
    outer loop
      vertex -2.38895 -3.57532 0
      vertex -8.33355 -12.472 0
      vertex -2.72789 -3.32394 0
    endloop
  endfacet
  facet normal 0 0 -1
    outer loop
      vertex -9.5159 -11.5952 0
      vertex -2.72789 -3.32394 0
      vertex -8.33355 -12.472 0
    endloop
  endfacet
  facet normal -0 0 -1
    outer loop
      vertex -2.72789 -3.32394 0
      vertex -9.5159 -11.5952 0
      vertex -3.04056 -3.04056 0
    endloop
  endfacet
  facet normal 0 0 -1
    outer loop
      vertex -10.6066 -10.6066 0
      vertex -3.04056 -3.04056 0
      vertex -9.5159 -11.5952 0
    endloop
  endfacet
  facet normal -0 0 -1
    outer loop
      vertex -3.04056 -3.04056 0
      vertex -10.6066 -10.6066 0
      vertex -3.32394 -2.72789 0
    endloop
  endfacet
  facet normal -0 0 -1
    outer loop
      vertex -3.32394 -2.72789 0
      vertex -11.5952 -9.5159 0
      vertex -3.57532 -2.38895 0
    endloop
  endfacet
  facet normal 0 0 -1
    outer loop
      vertex -11.5952 -9.5159 0
      vertex -3.32394 -2.72789 0
      vertex -10.6066 -10.6066 0
    endloop
  endfacet
  facet normal 0 0 -1
    outer loop
      vertex 3.32394 2.72789 0
      vertex 11.5952 9.5159 0
      vertex 3.57532 2.38895 0
    endloop
  endfacet
  facet normal -0 0 -1
    outer loop
      vertex 11.5952 9.5159 0
      vertex 3.32394 2.72789 0
      vertex 10.6066 10.6066 0
    endloop
  endfacet
  facet normal 0 0 -1
    outer loop
      vertex 3.04056 3.04056 0
      vertex 10.6066 10.6066 0
      vertex 3.32394 2.72789 0
    endloop
  endfacet
  facet normal -0 0 -1
    outer loop
      vertex 10.6066 10.6066 0
      vertex 3.04056 3.04056 0
      vertex 9.5159 11.5952 0
    endloop
  endfacet
  facet normal 0 0 -1
    outer loop
      vertex 2.72789 3.32394 0
      vertex 9.5159 11.5952 0
      vertex 3.04056 3.04056 0
    endloop
  endfacet
  facet normal -0 0 -1
    outer loop
      vertex 9.5159 11.5952 0
      vertex 2.72789 3.32394 0
      vertex 8.33355 12.472 0
    endloop
  endfacet
  facet normal 0 0 -1
    outer loop
      vertex 2.38895 3.57532 0
      vertex 8.33355 12.472 0
      vertex 2.72789 3.32394 0
    endloop
  endfacet
  facet normal -0 0 -1
    outer loop
      vertex 8.33355 12.472 0
      vertex 2.38895 3.57532 0
      vertex 7.07095 13.2288 0
    endloop
  endfacet
  facet normal 0 0 -1
    outer loop
      vertex 2.02701 3.79226 0
      vertex 7.07095 13.2288 0
      vertex 2.38895 3.57532 0
    endloop
  endfacet
  facet normal -0 0 -1
    outer loop
      vertex 7.07095 13.2288 0
      vertex 2.02701 3.79226 0
      vertex 5.74025 13.8582 0
    endloop
  endfacet
  facet normal 0 0 -1
    outer loop
      vertex 1.64554 3.97268 0
      vertex 5.74025 13.8582 0
      vertex 2.02701 3.79226 0
    endloop
  endfacet
  facet normal -0 0 -1
    outer loop
      vertex 5.74025 13.8582 0
      vertex 1.64554 3.97268 0
      vertex 4.35427 14.3541 0
    endloop
  endfacet
  facet normal 0 0 -1
    outer loop
      vertex 1.24822 4.11484 0
      vertex 4.35427 14.3541 0
      vertex 1.64554 3.97268 0
    endloop
  endfacet
  facet normal -0 0 -1
    outer loop
      vertex 4.35427 14.3541 0
      vertex 1.24822 4.11484 0
      vertex 2.92635 14.7118 0
    endloop
  endfacet
  facet normal 0 0 -1
    outer loop
      vertex 0.838888 4.21738 0
      vertex 2.92635 14.7118 0
      vertex 1.24822 4.11484 0
    endloop
  endfacet
  facet normal -0 0 -1
    outer loop
      vertex 2.92635 14.7118 0
      vertex 0.838888 4.21738 0
      vertex 1.47026 14.9278 0
    endloop
  endfacet
  facet normal 0 0 -1
    outer loop
      vertex 0.421474 4.27929 0
      vertex 1.47026 14.9278 0
      vertex 0.838888 4.21738 0
    endloop
  endfacet
  facet normal 0 0 -1
    outer loop
      vertex 0 4.3 0
      vertex 1.47026 14.9278 0
      vertex 0.421474 4.27929 0
    endloop
  endfacet
  facet normal 0 0 -1
    outer loop
      vertex 0 4.3 0
      vertex 0 15 0
      vertex 1.47026 14.9278 0
    endloop
  endfacet
  facet normal 0 0 -1
    outer loop
      vertex -0.421474 4.27929 0
      vertex 0 15 0
      vertex 0 4.3 0
    endloop
  endfacet
  facet normal 0 0 -1
    outer loop
      vertex -1.47026 14.9278 0
      vertex -0.421474 4.27929 0
      vertex -0.838888 4.21738 0
    endloop
  endfacet
  facet normal 0 0 -1
    outer loop
      vertex -2.92635 14.7118 0
      vertex -0.838888 4.21738 0
      vertex -1.24822 4.11484 0
    endloop
  endfacet
  facet normal 0 0 -1
    outer loop
      vertex -0.421474 4.27929 0
      vertex -1.47026 14.9278 0
      vertex 0 15 0
    endloop
  endfacet
  facet normal 0 0 -1
    outer loop
      vertex -4.35427 14.3541 0
      vertex -1.24822 4.11484 0
      vertex -1.64554 3.97268 0
    endloop
  endfacet
  facet normal 0 0 -1
    outer loop
      vertex -5.74025 13.8582 0
      vertex -1.64554 3.97268 0
      vertex -2.02701 3.79226 0
    endloop
  endfacet
  facet normal 0 0 -1
    outer loop
      vertex -7.07095 13.2288 0
      vertex -2.02701 3.79226 0
      vertex -2.38895 3.57532 0
    endloop
  endfacet
  facet normal 0 0 -1
    outer loop
      vertex -8.33355 12.472 0
      vertex -2.38895 3.57532 0
      vertex -2.72789 3.32394 0
    endloop
  endfacet
  facet normal 0 0 -1
    outer loop
      vertex -0.838888 4.21738 0
      vertex -2.92635 14.7118 0
      vertex -1.47026 14.9278 0
    endloop
  endfacet
  facet normal 0 0 -1
    outer loop
      vertex -9.5159 11.5952 0
      vertex -2.72789 3.32394 0
      vertex -3.04056 3.04056 0
    endloop
  endfacet
  facet normal 0 0 -1
    outer loop
      vertex -10.6066 10.6066 0
      vertex -3.04056 3.04056 0
      vertex -3.32394 2.72789 0
    endloop
  endfacet
  facet normal 0 0 -1
    outer loop
      vertex -11.5952 9.5159 0
      vertex -3.32394 2.72789 0
      vertex -3.57532 2.38895 0
    endloop
  endfacet
  facet normal 0 0 -1
    outer loop
      vertex -12.472 8.33355 0
      vertex -3.57532 2.38895 0
      vertex -3.79226 2.02701 0
    endloop
  endfacet
  facet normal 0 0 -1
    outer loop
      vertex -13.2288 7.07095 0
      vertex -3.79226 2.02701 0
      vertex -3.97268 1.64554 0
    endloop
  endfacet
  facet normal 0 0 -1
    outer loop
      vertex -13.8582 5.74025 0
      vertex -3.97268 1.64554 0
      vertex -4.11484 1.24822 0
    endloop
  endfacet
  facet normal 0 0 -1
    outer loop
      vertex -14.3541 4.35427 0
      vertex -4.11484 1.24822 0
      vertex -4.21738 0.838888 0
    endloop
  endfacet
  facet normal 0 0 -1
    outer loop
      vertex -14.7118 2.92635 0
      vertex -4.21738 0.838888 0
      vertex -4.27929 0.421474 0
    endloop
  endfacet
  facet normal 0 0 -1
    outer loop
      vertex -1.24822 4.11484 0
      vertex -4.35427 14.3541 0
      vertex -2.92635 14.7118 0
    endloop
  endfacet
  facet normal 0 0 -1
    outer loop
      vertex -14.9278 1.47026 0
      vertex -4.27929 0.421474 0
      vertex -4.3 0 0
    endloop
  endfacet
  facet normal 0 0 -1
    outer loop
      vertex -12.472 -8.33355 0
      vertex -3.57532 -2.38895 0
      vertex -11.5952 -9.5159 0
    endloop
  endfacet
  facet normal -0 0 -1
    outer loop
      vertex -3.57532 -2.38895 0
      vertex -12.472 -8.33355 0
      vertex -3.79226 -2.02701 0
    endloop
  endfacet
  facet normal 0 0 -1
    outer loop
      vertex -1.64554 3.97268 0
      vertex -5.74025 13.8582 0
      vertex -4.35427 14.3541 0
    endloop
  endfacet
  facet normal 0 0 -1
    outer loop
      vertex -13.2288 -7.07095 0
      vertex -3.79226 -2.02701 0
      vertex -12.472 -8.33355 0
    endloop
  endfacet
  facet normal 0 0 -1
    outer loop
      vertex -2.02701 3.79226 0
      vertex -7.07095 13.2288 0
      vertex -5.74025 13.8582 0
    endloop
  endfacet
  facet normal -0 0 -1
    outer loop
      vertex -3.79226 -2.02701 0
      vertex -13.2288 -7.07095 0
      vertex -3.97268 -1.64554 0
    endloop
  endfacet
  facet normal 0 0 -1
    outer loop
      vertex -2.38895 3.57532 0
      vertex -8.33355 12.472 0
      vertex -7.07095 13.2288 0
    endloop
  endfacet
  facet normal 0 0 -1
    outer loop
      vertex -13.8582 -5.74025 0
      vertex -3.97268 -1.64554 0
      vertex -13.2288 -7.07095 0
    endloop
  endfacet
  facet normal 0 0 -1
    outer loop
      vertex -2.72789 3.32394 0
      vertex -9.5159 11.5952 0
      vertex -8.33355 12.472 0
    endloop
  endfacet
  facet normal -0 0 -1
    outer loop
      vertex -3.97268 -1.64554 0
      vertex -13.8582 -5.74025 0
      vertex -4.11484 -1.24822 0
    endloop
  endfacet
  facet normal 0 0 -1
    outer loop
      vertex -3.04056 3.04056 0
      vertex -10.6066 10.6066 0
      vertex -9.5159 11.5952 0
    endloop
  endfacet
  facet normal 0 0 -1
    outer loop
      vertex -14.3541 -4.35427 0
      vertex -4.11484 -1.24822 0
      vertex -13.8582 -5.74025 0
    endloop
  endfacet
  facet normal 0 0 -1
    outer loop
      vertex -3.32394 2.72789 0
      vertex -11.5952 9.5159 0
      vertex -10.6066 10.6066 0
    endloop
  endfacet
  facet normal -0 0 -1
    outer loop
      vertex -4.11484 -1.24822 0
      vertex -14.3541 -4.35427 0
      vertex -4.21738 -0.838888 0
    endloop
  endfacet
  facet normal 0 0 -1
    outer loop
      vertex -3.57532 2.38895 0
      vertex -12.472 8.33355 0
      vertex -11.5952 9.5159 0
    endloop
  endfacet
  facet normal 0 0 -1
    outer loop
      vertex -14.7118 -2.92635 0
      vertex -4.21738 -0.838888 0
      vertex -14.3541 -4.35427 0
    endloop
  endfacet
  facet normal 0 0 -1
    outer loop
      vertex -3.79226 2.02701 0
      vertex -13.2288 7.07095 0
      vertex -12.472 8.33355 0
    endloop
  endfacet
  facet normal -0 0 -1
    outer loop
      vertex -4.21738 -0.838888 0
      vertex -14.7118 -2.92635 0
      vertex -4.27929 -0.421474 0
    endloop
  endfacet
  facet normal 0 0 -1
    outer loop
      vertex -3.97268 1.64554 0
      vertex -13.8582 5.74025 0
      vertex -13.2288 7.07095 0
    endloop
  endfacet
  facet normal 0 0 -1
    outer loop
      vertex -14.9278 -1.47026 0
      vertex -4.27929 -0.421474 0
      vertex -14.7118 -2.92635 0
    endloop
  endfacet
  facet normal 0 0 -1
    outer loop
      vertex -4.11484 1.24822 0
      vertex -14.3541 4.35427 0
      vertex -13.8582 5.74025 0
    endloop
  endfacet
  facet normal -0 0 -1
    outer loop
      vertex -4.27929 -0.421474 0
      vertex -14.9278 -1.47026 0
      vertex -4.3 0 0
    endloop
  endfacet
  facet normal 0 0 -1
    outer loop
      vertex -4.21738 0.838888 0
      vertex -14.7118 2.92635 0
      vertex -14.3541 4.35427 0
    endloop
  endfacet
  facet normal 0 0 -1
    outer loop
      vertex -15 0 0
      vertex -4.3 0 0
      vertex -14.9278 -1.47026 0
    endloop
  endfacet
  facet normal 0 0 -1
    outer loop
      vertex -4.27929 0.421474 0
      vertex -14.9278 1.47026 0
      vertex -14.7118 2.92635 0
    endloop
  endfacet
  facet normal 0 0 -1
    outer loop
      vertex -4.3 0 0
      vertex -15 0 0
      vertex -14.9278 1.47026 0
    endloop
  endfacet
  facet normal -0.671577 -0.740935 0
    outer loop
      vertex -10.6066 -10.6066 0
      vertex -9.5159 -11.5952 6
      vertex -10.6066 -10.6066 6
    endloop
  endfacet
  facet normal -0.671577 -0.740935 -0
    outer loop
      vertex -9.5159 -11.5952 6
      vertex -10.6066 -10.6066 0
      vertex -9.5159 -11.5952 0
    endloop
  endfacet
  facet normal -0.803237 0.59566 0
    outer loop
      vertex -12.472 8.33355 0
      vertex -11.5952 9.5159 6
      vertex -11.5952 9.5159 0
    endloop
  endfacet
  facet normal -0.803237 0.59566 0
    outer loop
      vertex -11.5952 9.5159 6
      vertex -12.472 8.33355 0
      vertex -12.472 8.33355 6
    endloop
  endfacet
  facet normal -0.0490479 -0.998796 0
    outer loop
      vertex -1.47026 -14.9278 0
      vertex 0 -15 6
      vertex -1.47026 -14.9278 6
    endloop
  endfacet
  facet normal -0.0490479 -0.998796 -0
    outer loop
      vertex 0 -15 6
      vertex -1.47026 -14.9278 0
      vertex 0 -15 0
    endloop
  endfacet
  facet normal -0.146737 -0.989176 0
    outer loop
      vertex -2.92635 -14.7118 0
      vertex -1.47026 -14.9278 6
      vertex -2.92635 -14.7118 6
    endloop
  endfacet
  facet normal -0.146737 -0.989176 -0
    outer loop
      vertex -1.47026 -14.9278 6
      vertex -2.92635 -14.7118 0
      vertex -1.47026 -14.9278 0
    endloop
  endfacet
  facet normal -0.989176 0.146737 0
    outer loop
      vertex -14.9278 1.47026 0
      vertex -14.7118 2.92635 6
      vertex -14.7118 2.92635 0
    endloop
  endfacet
  facet normal -0.989176 0.146737 0
    outer loop
      vertex -14.7118 2.92635 6
      vertex -14.9278 1.47026 0
      vertex -14.9278 1.47026 6
    endloop
  endfacet
  facet normal -0.998796 0.0490479 0
    outer loop
      vertex -15 0 0
      vertex -14.9278 1.47026 6
      vertex -14.9278 1.47026 0
    endloop
  endfacet
  facet normal -0.998796 0.0490479 0
    outer loop
      vertex -14.9278 1.47026 6
      vertex -15 0 0
      vertex -15 0 6
    endloop
  endfacet
  facet normal -0.336883 -0.941547 0
    outer loop
      vertex -5.74025 -13.8582 0
      vertex -4.35427 -14.3541 6
      vertex -5.74025 -13.8582 6
    endloop
  endfacet
  facet normal -0.336883 -0.941547 -0
    outer loop
      vertex -4.35427 -14.3541 6
      vertex -5.74025 -13.8582 0
      vertex -4.35427 -14.3541 0
    endloop
  endfacet
  facet normal 0.671577 -0.740935 0
    outer loop
      vertex 9.5159 -11.5952 0
      vertex 10.6066 -10.6066 6
      vertex 9.5159 -11.5952 6
    endloop
  endfacet
  facet normal 0.671577 -0.740935 0
    outer loop
      vertex 10.6066 -10.6066 6
      vertex 9.5159 -11.5952 0
      vertex 10.6066 -10.6066 0
    endloop
  endfacet
  facet normal 0 0 1
    outer loop
      vertex 4.3 0 6
      vertex 15 0 6
      vertex 14.9278 1.47026 6
    endloop
  endfacet
  facet normal 0 0 1
    outer loop
      vertex 4.27929 0.421474 6
      vertex 14.9278 1.47026 6
      vertex 14.7118 2.92635 6
    endloop
  endfacet
  facet normal 0 0 1
    outer loop
      vertex 15 0 6
      vertex 4.3 0 6
      vertex 14.9278 -1.47026 6
    endloop
  endfacet
  facet normal 0 0 1
    outer loop
      vertex 4.21738 0.838888 6
      vertex 14.7118 2.92635 6
      vertex 14.3541 4.35427 6
    endloop
  endfacet
  facet normal -0 0 1
    outer loop
      vertex 4.27929 -0.421474 6
      vertex 14.9278 -1.47026 6
      vertex 4.3 0 6
    endloop
  endfacet
  facet normal 0 0 1
    outer loop
      vertex 4.11484 1.24822 6
      vertex 14.3541 4.35427 6
      vertex 13.8582 5.74025 6
    endloop
  endfacet
  facet normal 0 0 1
    outer loop
      vertex 14.9278 -1.47026 6
      vertex 4.27929 -0.421474 6
      vertex 14.7118 -2.92635 6
    endloop
  endfacet
  facet normal 0 0 1
    outer loop
      vertex 3.97268 1.64554 6
      vertex 13.8582 5.74025 6
      vertex 13.2288 7.07095 6
    endloop
  endfacet
  facet normal -0 0 1
    outer loop
      vertex 4.21738 -0.838888 6
      vertex 14.7118 -2.92635 6
      vertex 4.27929 -0.421474 6
    endloop
  endfacet
  facet normal 0 0 1
    outer loop
      vertex 3.79226 2.02701 6
      vertex 13.2288 7.07095 6
      vertex 12.472 8.33355 6
    endloop
  endfacet
  facet normal 0 0 1
    outer loop
      vertex 14.7118 -2.92635 6
      vertex 4.21738 -0.838888 6
      vertex 14.3541 -4.35427 6
    endloop
  endfacet
  facet normal 0 0 1
    outer loop
      vertex 3.57532 2.38895 6
      vertex 12.472 8.33355 6
      vertex 11.5952 9.5159 6
    endloop
  endfacet
  facet normal -0 0 1
    outer loop
      vertex 4.11484 -1.24822 6
      vertex 14.3541 -4.35427 6
      vertex 4.21738 -0.838888 6
    endloop
  endfacet
  facet normal 0 0 1
    outer loop
      vertex 3.32394 2.72789 6
      vertex 11.5952 9.5159 6
      vertex 10.6066 10.6066 6
    endloop
  endfacet
  facet normal 0 0 1
    outer loop
      vertex 14.3541 -4.35427 6
      vertex 4.11484 -1.24822 6
      vertex 13.8582 -5.74025 6
    endloop
  endfacet
  facet normal 0 0 1
    outer loop
      vertex 3.04056 3.04056 6
      vertex 10.6066 10.6066 6
      vertex 9.5159 11.5952 6
    endloop
  endfacet
  facet normal -0 0 1
    outer loop
      vertex 3.97268 -1.64554 6
      vertex 13.8582 -5.74025 6
      vertex 4.11484 -1.24822 6
    endloop
  endfacet
  facet normal 0 0 1
    outer loop
      vertex 2.72789 3.32394 6
      vertex 9.5159 11.5952 6
      vertex 8.33355 12.472 6
    endloop
  endfacet
  facet normal 0 0 1
    outer loop
      vertex 13.8582 -5.74025 6
      vertex 3.97268 -1.64554 6
      vertex 13.2288 -7.07095 6
    endloop
  endfacet
  facet normal 0 0 1
    outer loop
      vertex 2.38895 3.57532 6
      vertex 8.33355 12.472 6
      vertex 7.07095 13.2288 6
    endloop
  endfacet
  facet normal -0 0 1
    outer loop
      vertex 3.79226 -2.02701 6
      vertex 13.2288 -7.07095 6
      vertex 3.97268 -1.64554 6
    endloop
  endfacet
  facet normal 0 0 1
    outer loop
      vertex 2.02701 3.79226 6
      vertex 7.07095 13.2288 6
      vertex 5.74025 13.8582 6
    endloop
  endfacet
  facet normal 0 0 1
    outer loop
      vertex 13.2288 -7.07095 6
      vertex 3.79226 -2.02701 6
      vertex 12.472 -8.33355 6
    endloop
  endfacet
  facet normal 0 0 1
    outer loop
      vertex 1.64554 3.97268 6
      vertex 5.74025 13.8582 6
      vertex 4.35427 14.3541 6
    endloop
  endfacet
  facet normal -0 0 1
    outer loop
      vertex 3.57532 -2.38895 6
      vertex 12.472 -8.33355 6
      vertex 3.79226 -2.02701 6
    endloop
  endfacet
  facet normal 0 0 1
    outer loop
      vertex 12.472 -8.33355 6
      vertex 3.57532 -2.38895 6
      vertex 11.5952 -9.5159 6
    endloop
  endfacet
  facet normal 0 0 1
    outer loop
      vertex 14.9278 1.47026 6
      vertex 4.27929 0.421474 6
      vertex 4.3 0 6
    endloop
  endfacet
  facet normal 0 0 1
    outer loop
      vertex 14.7118 2.92635 6
      vertex 4.21738 0.838888 6
      vertex 4.27929 0.421474 6
    endloop
  endfacet
  facet normal 0 0 1
    outer loop
      vertex 14.3541 4.35427 6
      vertex 4.11484 1.24822 6
      vertex 4.21738 0.838888 6
    endloop
  endfacet
  facet normal 0 0 1
    outer loop
      vertex 13.8582 5.74025 6
      vertex 3.97268 1.64554 6
      vertex 4.11484 1.24822 6
    endloop
  endfacet
  facet normal 0 0 1
    outer loop
      vertex 13.2288 7.07095 6
      vertex 3.79226 2.02701 6
      vertex 3.97268 1.64554 6
    endloop
  endfacet
  facet normal 0 0 1
    outer loop
      vertex 12.472 8.33355 6
      vertex 3.57532 2.38895 6
      vertex 3.79226 2.02701 6
    endloop
  endfacet
  facet normal 0 0 1
    outer loop
      vertex 11.5952 9.5159 6
      vertex 3.32394 2.72789 6
      vertex 3.57532 2.38895 6
    endloop
  endfacet
  facet normal 0 0 1
    outer loop
      vertex 10.6066 10.6066 6
      vertex 3.04056 3.04056 6
      vertex 3.32394 2.72789 6
    endloop
  endfacet
  facet normal 0 0 1
    outer loop
      vertex 1.24822 4.11484 6
      vertex 4.35427 14.3541 6
      vertex 2.92635 14.7118 6
    endloop
  endfacet
  facet normal 0 0 1
    outer loop
      vertex 9.5159 11.5952 6
      vertex 2.72789 3.32394 6
      vertex 3.04056 3.04056 6
    endloop
  endfacet
  facet normal 0 0 1
    outer loop
      vertex 8.33355 12.472 6
      vertex 2.38895 3.57532 6
      vertex 2.72789 3.32394 6
    endloop
  endfacet
  facet normal 0 0 1
    outer loop
      vertex 7.07095 13.2288 6
      vertex 2.02701 3.79226 6
      vertex 2.38895 3.57532 6
    endloop
  endfacet
  facet normal 0 0 1
    outer loop
      vertex 5.74025 13.8582 6
      vertex 1.64554 3.97268 6
      vertex 2.02701 3.79226 6
    endloop
  endfacet
  facet normal 0 0 1
    outer loop
      vertex 0.838888 4.21738 6
      vertex 2.92635 14.7118 6
      vertex 1.47026 14.9278 6
    endloop
  endfacet
  facet normal 0 0 1
    outer loop
      vertex 4.35427 14.3541 6
      vertex 1.24822 4.11484 6
      vertex 1.64554 3.97268 6
    endloop
  endfacet
  facet normal 0 0 1
    outer loop
      vertex 2.92635 14.7118 6
      vertex 0.838888 4.21738 6
      vertex 1.24822 4.11484 6
    endloop
  endfacet
  facet normal 0 0 1
    outer loop
      vertex 1.47026 14.9278 6
      vertex 0.421474 4.27929 6
      vertex 0.838888 4.21738 6
    endloop
  endfacet
  facet normal 0 0 1
    outer loop
      vertex 0 15 6
      vertex 0.421474 4.27929 6
      vertex 1.47026 14.9278 6
    endloop
  endfacet
  facet normal 0 0 1
    outer loop
      vertex 0 15 6
      vertex 0 4.3 6
      vertex 0.421474 4.27929 6
    endloop
  endfacet
  facet normal 0 0 1
    outer loop
      vertex 0 15 6
      vertex -0.421474 4.27929 6
      vertex 0 4.3 6
    endloop
  endfacet
  facet normal -0 0 1
    outer loop
      vertex -1.47026 14.9278 6
      vertex -0.421474 4.27929 6
      vertex 0 15 6
    endloop
  endfacet
  facet normal 0 0 1
    outer loop
      vertex -0.421474 4.27929 6
      vertex -1.47026 14.9278 6
      vertex -0.838888 4.21738 6
    endloop
  endfacet
  facet normal -0 0 1
    outer loop
      vertex -2.92635 14.7118 6
      vertex -0.838888 4.21738 6
      vertex -1.47026 14.9278 6
    endloop
  endfacet
  facet normal 0 0 1
    outer loop
      vertex -0.838888 4.21738 6
      vertex -2.92635 14.7118 6
      vertex -1.24822 4.11484 6
    endloop
  endfacet
  facet normal -0 0 1
    outer loop
      vertex -4.35427 14.3541 6
      vertex -1.24822 4.11484 6
      vertex -2.92635 14.7118 6
    endloop
  endfacet
  facet normal 0 0 1
    outer loop
      vertex -1.24822 4.11484 6
      vertex -4.35427 14.3541 6
      vertex -1.64554 3.97268 6
    endloop
  endfacet
  facet normal -0 0 1
    outer loop
      vertex -5.74025 13.8582 6
      vertex -1.64554 3.97268 6
      vertex -4.35427 14.3541 6
    endloop
  endfacet
  facet normal 0 0 1
    outer loop
      vertex -1.64554 3.97268 6
      vertex -5.74025 13.8582 6
      vertex -2.02701 3.79226 6
    endloop
  endfacet
  facet normal -0 0 1
    outer loop
      vertex -7.07095 13.2288 6
      vertex -2.02701 3.79226 6
      vertex -5.74025 13.8582 6
    endloop
  endfacet
  facet normal 0 0 1
    outer loop
      vertex -2.02701 3.79226 6
      vertex -7.07095 13.2288 6
      vertex -2.38895 3.57532 6
    endloop
  endfacet
  facet normal -0 0 1
    outer loop
      vertex -8.33355 12.472 6
      vertex -2.38895 3.57532 6
      vertex -7.07095 13.2288 6
    endloop
  endfacet
  facet normal 0 0 1
    outer loop
      vertex -2.38895 3.57532 6
      vertex -8.33355 12.472 6
      vertex -2.72789 3.32394 6
    endloop
  endfacet
  facet normal -0 0 1
    outer loop
      vertex -9.5159 11.5952 6
      vertex -2.72789 3.32394 6
      vertex -8.33355 12.472 6
    endloop
  endfacet
  facet normal 0 0 1
    outer loop
      vertex -2.72789 3.32394 6
      vertex -9.5159 11.5952 6
      vertex -3.04056 3.04056 6
    endloop
  endfacet
  facet normal -0 0 1
    outer loop
      vertex -10.6066 10.6066 6
      vertex -3.04056 3.04056 6
      vertex -9.5159 11.5952 6
    endloop
  endfacet
  facet normal 0 0 1
    outer loop
      vertex -3.04056 3.04056 6
      vertex -10.6066 10.6066 6
      vertex -3.32394 2.72789 6
    endloop
  endfacet
  facet normal 0 0 1
    outer loop
      vertex -3.32394 2.72789 6
      vertex -11.5952 9.5159 6
      vertex -3.57532 2.38895 6
    endloop
  endfacet
  facet normal -0 0 1
    outer loop
      vertex -11.5952 9.5159 6
      vertex -3.32394 2.72789 6
      vertex -10.6066 10.6066 6
    endloop
  endfacet
  facet normal -0 0 1
    outer loop
      vertex 3.32394 -2.72789 6
      vertex 11.5952 -9.5159 6
      vertex 3.57532 -2.38895 6
    endloop
  endfacet
  facet normal 0 0 1
    outer loop
      vertex 11.5952 -9.5159 6
      vertex 3.32394 -2.72789 6
      vertex 10.6066 -10.6066 6
    endloop
  endfacet
  facet normal -0 0 1
    outer loop
      vertex 3.04056 -3.04056 6
      vertex 10.6066 -10.6066 6
      vertex 3.32394 -2.72789 6
    endloop
  endfacet
  facet normal 0 0 1
    outer loop
      vertex 10.6066 -10.6066 6
      vertex 3.04056 -3.04056 6
      vertex 9.5159 -11.5952 6
    endloop
  endfacet
  facet normal -0 0 1
    outer loop
      vertex 2.72789 -3.32394 6
      vertex 9.5159 -11.5952 6
      vertex 3.04056 -3.04056 6
    endloop
  endfacet
  facet normal 0 0 1
    outer loop
      vertex 9.5159 -11.5952 6
      vertex 2.72789 -3.32394 6
      vertex 8.33355 -12.472 6
    endloop
  endfacet
  facet normal -0 0 1
    outer loop
      vertex 2.38895 -3.57532 6
      vertex 8.33355 -12.472 6
      vertex 2.72789 -3.32394 6
    endloop
  endfacet
  facet normal 0 0 1
    outer loop
      vertex 8.33355 -12.472 6
      vertex 2.38895 -3.57532 6
      vertex 7.07095 -13.2288 6
    endloop
  endfacet
  facet normal -0 0 1
    outer loop
      vertex 2.02701 -3.79226 6
      vertex 7.07095 -13.2288 6
      vertex 2.38895 -3.57532 6
    endloop
  endfacet
  facet normal 0 0 1
    outer loop
      vertex 7.07095 -13.2288 6
      vertex 2.02701 -3.79226 6
      vertex 5.74025 -13.8582 6
    endloop
  endfacet
  facet normal -0 0 1
    outer loop
      vertex 1.64554 -3.97268 6
      vertex 5.74025 -13.8582 6
      vertex 2.02701 -3.79226 6
    endloop
  endfacet
  facet normal 0 0 1
    outer loop
      vertex 5.74025 -13.8582 6
      vertex 1.64554 -3.97268 6
      vertex 4.35427 -14.3541 6
    endloop
  endfacet
  facet normal -0 0 1
    outer loop
      vertex 1.24822 -4.11484 6
      vertex 4.35427 -14.3541 6
      vertex 1.64554 -3.97268 6
    endloop
  endfacet
  facet normal 0 0 1
    outer loop
      vertex 4.35427 -14.3541 6
      vertex 1.24822 -4.11484 6
      vertex 2.92635 -14.7118 6
    endloop
  endfacet
  facet normal -0 0 1
    outer loop
      vertex 0.838888 -4.21738 6
      vertex 2.92635 -14.7118 6
      vertex 1.24822 -4.11484 6
    endloop
  endfacet
  facet normal 0 0 1
    outer loop
      vertex 2.92635 -14.7118 6
      vertex 0.838888 -4.21738 6
      vertex 1.47026 -14.9278 6
    endloop
  endfacet
  facet normal -0 0 1
    outer loop
      vertex 0.421474 -4.27929 6
      vertex 1.47026 -14.9278 6
      vertex 0.838888 -4.21738 6
    endloop
  endfacet
  facet normal -0 0 1
    outer loop
      vertex 0 -4.3 6
      vertex 1.47026 -14.9278 6
      vertex 0.421474 -4.27929 6
    endloop
  endfacet
  facet normal 0 0 1
    outer loop
      vertex 0 -4.3 6
      vertex 0 -15 6
      vertex 1.47026 -14.9278 6
    endloop
  endfacet
  facet normal 0 0 1
    outer loop
      vertex -0.421474 -4.27929 6
      vertex 0 -15 6
      vertex 0 -4.3 6
    endloop
  endfacet
  facet normal 0 0 1
    outer loop
      vertex -1.47026 -14.9278 6
      vertex -0.421474 -4.27929 6
      vertex -0.838888 -4.21738 6
    endloop
  endfacet
  facet normal 0 0 1
    outer loop
      vertex -2.92635 -14.7118 6
      vertex -0.838888 -4.21738 6
      vertex -1.24822 -4.11484 6
    endloop
  endfacet
  facet normal 0 0 1
    outer loop
      vertex -0.421474 -4.27929 6
      vertex -1.47026 -14.9278 6
      vertex 0 -15 6
    endloop
  endfacet
  facet normal 0 0 1
    outer loop
      vertex -4.35427 -14.3541 6
      vertex -1.24822 -4.11484 6
      vertex -1.64554 -3.97268 6
    endloop
  endfacet
  facet normal 0 0 1
    outer loop
      vertex -5.74025 -13.8582 6
      vertex -1.64554 -3.97268 6
      vertex -2.02701 -3.79226 6
    endloop
  endfacet
  facet normal 0 0 1
    outer loop
      vertex -7.07095 -13.2288 6
      vertex -2.02701 -3.79226 6
      vertex -2.38895 -3.57532 6
    endloop
  endfacet
  facet normal 0 0 1
    outer loop
      vertex -8.33355 -12.472 6
      vertex -2.38895 -3.57532 6
      vertex -2.72789 -3.32394 6
    endloop
  endfacet
  facet normal 0 0 1
    outer loop
      vertex -0.838888 -4.21738 6
      vertex -2.92635 -14.7118 6
      vertex -1.47026 -14.9278 6
    endloop
  endfacet
  facet normal 0 0 1
    outer loop
      vertex -9.5159 -11.5952 6
      vertex -2.72789 -3.32394 6
      vertex -3.04056 -3.04056 6
    endloop
  endfacet
  facet normal 0 0 1
    outer loop
      vertex -10.6066 -10.6066 6
      vertex -3.04056 -3.04056 6
      vertex -3.32394 -2.72789 6
    endloop
  endfacet
  facet normal 0 0 1
    outer loop
      vertex -11.5952 -9.5159 6
      vertex -3.32394 -2.72789 6
      vertex -3.57532 -2.38895 6
    endloop
  endfacet
  facet normal 0 0 1
    outer loop
      vertex -12.472 -8.33355 6
      vertex -3.57532 -2.38895 6
      vertex -3.79226 -2.02701 6
    endloop
  endfacet
  facet normal 0 0 1
    outer loop
      vertex -13.2288 -7.07095 6
      vertex -3.79226 -2.02701 6
      vertex -3.97268 -1.64554 6
    endloop
  endfacet
  facet normal 0 0 1
    outer loop
      vertex -13.8582 -5.74025 6
      vertex -3.97268 -1.64554 6
      vertex -4.11484 -1.24822 6
    endloop
  endfacet
  facet normal 0 0 1
    outer loop
      vertex -14.3541 -4.35427 6
      vertex -4.11484 -1.24822 6
      vertex -4.21738 -0.838888 6
    endloop
  endfacet
  facet normal 0 0 1
    outer loop
      vertex -14.7118 -2.92635 6
      vertex -4.21738 -0.838888 6
      vertex -4.27929 -0.421474 6
    endloop
  endfacet
  facet normal 0 0 1
    outer loop
      vertex -1.24822 -4.11484 6
      vertex -4.35427 -14.3541 6
      vertex -2.92635 -14.7118 6
    endloop
  endfacet
  facet normal 0 0 1
    outer loop
      vertex -14.9278 -1.47026 6
      vertex -4.27929 -0.421474 6
      vertex -4.3 0 6
    endloop
  endfacet
  facet normal -0 0 1
    outer loop
      vertex -12.472 8.33355 6
      vertex -3.57532 2.38895 6
      vertex -11.5952 9.5159 6
    endloop
  endfacet
  facet normal 0 0 1
    outer loop
      vertex -3.57532 2.38895 6
      vertex -12.472 8.33355 6
      vertex -3.79226 2.02701 6
    endloop
  endfacet
  facet normal 0 0 1
    outer loop
      vertex -1.64554 -3.97268 6
      vertex -5.74025 -13.8582 6
      vertex -4.35427 -14.3541 6
    endloop
  endfacet
  facet normal -0 0 1
    outer loop
      vertex -13.2288 7.07095 6
      vertex -3.79226 2.02701 6
      vertex -12.472 8.33355 6
    endloop
  endfacet
  facet normal 0 0 1
    outer loop
      vertex -2.02701 -3.79226 6
      vertex -7.07095 -13.2288 6
      vertex -5.74025 -13.8582 6
    endloop
  endfacet
  facet normal 0 0 1
    outer loop
      vertex -3.79226 2.02701 6
      vertex -13.2288 7.07095 6
      vertex -3.97268 1.64554 6
    endloop
  endfacet
  facet normal 0 0 1
    outer loop
      vertex -2.38895 -3.57532 6
      vertex -8.33355 -12.472 6
      vertex -7.07095 -13.2288 6
    endloop
  endfacet
  facet normal -0 0 1
    outer loop
      vertex -13.8582 5.74025 6
      vertex -3.97268 1.64554 6
      vertex -13.2288 7.07095 6
    endloop
  endfacet
  facet normal 0 0 1
    outer loop
      vertex -2.72789 -3.32394 6
      vertex -9.5159 -11.5952 6
      vertex -8.33355 -12.472 6
    endloop
  endfacet
  facet normal 0 0 1
    outer loop
      vertex -3.97268 1.64554 6
      vertex -13.8582 5.74025 6
      vertex -4.11484 1.24822 6
    endloop
  endfacet
  facet normal 0 0 1
    outer loop
      vertex -3.04056 -3.04056 6
      vertex -10.6066 -10.6066 6
      vertex -9.5159 -11.5952 6
    endloop
  endfacet
  facet normal -0 0 1
    outer loop
      vertex -14.3541 4.35427 6
      vertex -4.11484 1.24822 6
      vertex -13.8582 5.74025 6
    endloop
  endfacet
  facet normal 0 0 1
    outer loop
      vertex -3.32394 -2.72789 6
      vertex -11.5952 -9.5159 6
      vertex -10.6066 -10.6066 6
    endloop
  endfacet
  facet normal 0 0 1
    outer loop
      vertex -4.11484 1.24822 6
      vertex -14.3541 4.35427 6
      vertex -4.21738 0.838888 6
    endloop
  endfacet
  facet normal 0 0 1
    outer loop
      vertex -3.57532 -2.38895 6
      vertex -12.472 -8.33355 6
      vertex -11.5952 -9.5159 6
    endloop
  endfacet
  facet normal -0 0 1
    outer loop
      vertex -14.7118 2.92635 6
      vertex -4.21738 0.838888 6
      vertex -14.3541 4.35427 6
    endloop
  endfacet
  facet normal 0 0 1
    outer loop
      vertex -3.79226 -2.02701 6
      vertex -13.2288 -7.07095 6
      vertex -12.472 -8.33355 6
    endloop
  endfacet
  facet normal 0 0 1
    outer loop
      vertex -4.21738 0.838888 6
      vertex -14.7118 2.92635 6
      vertex -4.27929 0.421474 6
    endloop
  endfacet
  facet normal 0 0 1
    outer loop
      vertex -3.97268 -1.64554 6
      vertex -13.8582 -5.74025 6
      vertex -13.2288 -7.07095 6
    endloop
  endfacet
  facet normal -0 0 1
    outer loop
      vertex -14.9278 1.47026 6
      vertex -4.27929 0.421474 6
      vertex -14.7118 2.92635 6
    endloop
  endfacet
  facet normal 0 0 1
    outer loop
      vertex -4.11484 -1.24822 6
      vertex -14.3541 -4.35427 6
      vertex -13.8582 -5.74025 6
    endloop
  endfacet
  facet normal 0 0 1
    outer loop
      vertex -4.27929 0.421474 6
      vertex -14.9278 1.47026 6
      vertex -4.3 0 6
    endloop
  endfacet
  facet normal 0 0 1
    outer loop
      vertex -4.21738 -0.838888 6
      vertex -14.7118 -2.92635 6
      vertex -14.3541 -4.35427 6
    endloop
  endfacet
  facet normal 0 0 1
    outer loop
      vertex -15 0 6
      vertex -4.3 0 6
      vertex -14.9278 1.47026 6
    endloop
  endfacet
  facet normal 0 0 1
    outer loop
      vertex -4.27929 -0.421474 6
      vertex -14.9278 -1.47026 6
      vertex -14.7118 -2.92635 6
    endloop
  endfacet
  facet normal 0 0 1
    outer loop
      vertex -4.3 0 6
      vertex -15 0 6
      vertex -14.9278 -1.47026 6
    endloop
  endfacet
  facet normal 0.803202 -0.595707 0
    outer loop
      vertex -3.57532 2.38895 6
      vertex -3.32394 2.72789 0
      vertex -3.32394 2.72789 6
    endloop
  endfacet
  facet normal 0.803202 -0.595707 0
    outer loop
      vertex -3.32394 2.72789 0
      vertex -3.57532 2.38895 6
      vertex -3.57532 2.38895 0
    endloop
  endfacet
  facet normal -0.989179 -0.146713 0
    outer loop
      vertex 4.27929 0.421474 0
      vertex 4.21738 0.838888 6
      vertex 4.21738 0.838888 0
    endloop
  endfacet
  facet normal -0.989179 -0.146713 0
    outer loop
      vertex 4.21738 0.838888 6
      vertex 4.27929 0.421474 0
      vertex 4.27929 0.421474 6
    endloop
  endfacet
  facet normal -0.998795 -0.0490779 0
    outer loop
      vertex 4.3 0 0
      vertex 4.27929 0.421474 6
      vertex 4.27929 0.421474 0
    endloop
  endfacet
  facet normal -0.998795 -0.0490779 0
    outer loop
      vertex 4.27929 0.421474 6
      vertex 4.3 0 0
      vertex 4.3 0 6
    endloop
  endfacet
  facet normal -0.970027 -0.242997 0
    outer loop
      vertex 4.21738 0.838888 0
      vertex 4.11484 1.24822 6
      vertex 4.11484 1.24822 0
    endloop
  endfacet
  facet normal -0.970027 -0.242997 0
    outer loop
      vertex 4.11484 1.24822 6
      vertex 4.21738 0.838888 0
      vertex 4.21738 0.838888 6
    endloop
  endfacet
  facet normal 0.941547 -0.336883 0
    outer loop
      vertex -4.11484 1.24822 6
      vertex -3.97268 1.64554 0
      vertex -3.97268 1.64554 6
    endloop
  endfacet
  facet normal 0.941547 -0.336883 0
    outer loop
      vertex -3.97268 1.64554 0
      vertex -4.11484 1.24822 6
      vertex -4.11484 1.24822 0
    endloop
  endfacet
  facet normal -0.803202 -0.595707 0
    outer loop
      vertex 3.57532 2.38895 0
      vertex 3.32394 2.72789 6
      vertex 3.32394 2.72789 0
    endloop
  endfacet
  facet normal -0.803202 -0.595707 0
    outer loop
      vertex 3.32394 2.72789 6
      vertex 3.57532 2.38895 0
      vertex 3.57532 2.38895 6
    endloop
  endfacet
  facet normal -0.595707 -0.803202 0
    outer loop
      vertex 2.38895 3.57532 0
      vertex 2.72789 3.32394 6
      vertex 2.38895 3.57532 6
    endloop
  endfacet
  facet normal -0.595707 -0.803202 -0
    outer loop
      vertex 2.72789 3.32394 6
      vertex 2.38895 3.57532 0
      vertex 2.72789 3.32394 0
    endloop
  endfacet
  facet normal -0.671549 -0.74096 0
    outer loop
      vertex 2.72789 3.32394 0
      vertex 3.04056 3.04056 6
      vertex 2.72789 3.32394 6
    endloop
  endfacet
  facet normal -0.671549 -0.74096 -0
    outer loop
      vertex 3.04056 3.04056 6
      vertex 2.72789 3.32394 0
      vertex 3.04056 3.04056 0
    endloop
  endfacet
  facet normal -0.998795 0.0490779 0
    outer loop
      vertex 4.27929 -0.421474 0
      vertex 4.3 0 6
      vertex 4.3 0 0
    endloop
  endfacet
  facet normal -0.998795 0.0490779 0
    outer loop
      vertex 4.3 0 6
      vertex 4.27929 -0.421474 0
      vertex 4.27929 -0.421474 6
    endloop
  endfacet
  facet normal -0.74096 0.671549 0
    outer loop
      vertex 3.04056 -3.04056 0
      vertex 3.32394 -2.72789 6
      vertex 3.32394 -2.72789 0
    endloop
  endfacet
  facet normal -0.74096 0.671549 0
    outer loop
      vertex 3.32394 -2.72789 6
      vertex 3.04056 -3.04056 0
      vertex 3.04056 -3.04056 6
    endloop
  endfacet
  facet normal 0.970027 -0.242997 0
    outer loop
      vertex -4.21738 0.838888 6
      vertex -4.11484 1.24822 0
      vertex -4.11484 1.24822 6
    endloop
  endfacet
  facet normal 0.970027 -0.242997 0
    outer loop
      vertex -4.11484 1.24822 0
      vertex -4.21738 0.838888 6
      vertex -4.21738 0.838888 0
    endloop
  endfacet
  facet normal 0.242997 0.970027 -0
    outer loop
      vertex -0.838888 -4.21738 0
      vertex -1.24822 -4.11484 6
      vertex -0.838888 -4.21738 6
    endloop
  endfacet
  facet normal 0.242997 0.970027 0
    outer loop
      vertex -1.24822 -4.11484 6
      vertex -0.838888 -4.21738 0
      vertex -1.24822 -4.11484 0
    endloop
  endfacet
  facet normal -0.427551 -0.903991 0
    outer loop
      vertex 1.64554 3.97268 0
      vertex 2.02701 3.79226 6
      vertex 1.64554 3.97268 6
    endloop
  endfacet
  facet normal -0.427551 -0.903991 -0
    outer loop
      vertex 2.02701 3.79226 6
      vertex 1.64554 3.97268 0
      vertex 2.02701 3.79226 0
    endloop
  endfacet
  facet normal -0.857727 0.514105 0
    outer loop
      vertex 3.57532 -2.38895 0
      vertex 3.79226 -2.02701 6
      vertex 3.79226 -2.02701 0
    endloop
  endfacet
  facet normal -0.857727 0.514105 0
    outer loop
      vertex 3.79226 -2.02701 6
      vertex 3.57532 -2.38895 0
      vertex 3.57532 -2.38895 6
    endloop
  endfacet
  facet normal -0.146713 -0.989179 0
    outer loop
      vertex 0.421474 4.27929 0
      vertex 0.838888 4.21738 6
      vertex 0.421474 4.27929 6
    endloop
  endfacet
  facet normal -0.146713 -0.989179 -0
    outer loop
      vertex 0.838888 4.21738 6
      vertex 0.421474 4.27929 0
      vertex 0.838888 4.21738 0
    endloop
  endfacet
  facet normal 0.427551 -0.903991 0
    outer loop
      vertex -2.02701 3.79226 0
      vertex -1.64554 3.97268 6
      vertex -2.02701 3.79226 6
    endloop
  endfacet
  facet normal 0.427551 -0.903991 0
    outer loop
      vertex -1.64554 3.97268 6
      vertex -2.02701 3.79226 0
      vertex -1.64554 3.97268 0
    endloop
  endfacet
  facet normal -0.336883 0.941547 0
    outer loop
      vertex 1.64554 -3.97268 0
      vertex 1.24822 -4.11484 6
      vertex 1.64554 -3.97268 6
    endloop
  endfacet
  facet normal -0.336883 0.941547 0
    outer loop
      vertex 1.24822 -4.11484 6
      vertex 1.64554 -3.97268 0
      vertex 1.24822 -4.11484 0
    endloop
  endfacet
  facet normal 0.989179 0.146713 0
    outer loop
      vertex -4.21738 -0.838888 6
      vertex -4.27929 -0.421474 0
      vertex -4.27929 -0.421474 6
    endloop
  endfacet
  facet normal 0.989179 0.146713 0
    outer loop
      vertex -4.27929 -0.421474 0
      vertex -4.21738 -0.838888 6
      vertex -4.21738 -0.838888 0
    endloop
  endfacet
  facet normal 0.336883 0.941547 -0
    outer loop
      vertex -1.24822 -4.11484 0
      vertex -1.64554 -3.97268 6
      vertex -1.24822 -4.11484 6
    endloop
  endfacet
  facet normal 0.336883 0.941547 0
    outer loop
      vertex -1.64554 -3.97268 6
      vertex -1.24822 -4.11484 0
      vertex -1.64554 -3.97268 0
    endloop
  endfacet
  facet normal -0.427551 0.903991 0
    outer loop
      vertex 2.02701 -3.79226 0
      vertex 1.64554 -3.97268 6
      vertex 2.02701 -3.79226 6
    endloop
  endfacet
  facet normal -0.427551 0.903991 0
    outer loop
      vertex 1.64554 -3.97268 6
      vertex 2.02701 -3.79226 0
      vertex 1.64554 -3.97268 0
    endloop
  endfacet
  facet normal -0.336883 -0.941547 0
    outer loop
      vertex 1.24822 4.11484 0
      vertex 1.64554 3.97268 6
      vertex 1.24822 4.11484 6
    endloop
  endfacet
  facet normal -0.336883 -0.941547 -0
    outer loop
      vertex 1.64554 3.97268 6
      vertex 1.24822 4.11484 0
      vertex 1.64554 3.97268 0
    endloop
  endfacet
  facet normal 0.857727 -0.514105 0
    outer loop
      vertex -3.79226 2.02701 6
      vertex -3.57532 2.38895 0
      vertex -3.57532 2.38895 6
    endloop
  endfacet
  facet normal 0.857727 -0.514105 0
    outer loop
      vertex -3.57532 2.38895 0
      vertex -3.79226 2.02701 6
      vertex -3.79226 2.02701 0
    endloop
  endfacet
  facet normal 0.514105 -0.857727 0
    outer loop
      vertex -2.38895 3.57532 0
      vertex -2.02701 3.79226 6
      vertex -2.38895 3.57532 6
    endloop
  endfacet
  facet normal 0.514105 -0.857727 0
    outer loop
      vertex -2.02701 3.79226 6
      vertex -2.38895 3.57532 0
      vertex -2.02701 3.79226 0
    endloop
  endfacet
  facet normal 0.336883 -0.941547 0
    outer loop
      vertex -1.64554 3.97268 0
      vertex -1.24822 4.11484 6
      vertex -1.64554 3.97268 6
    endloop
  endfacet
  facet normal 0.336883 -0.941547 0
    outer loop
      vertex -1.24822 4.11484 6
      vertex -1.64554 3.97268 0
      vertex -1.24822 4.11484 0
    endloop
  endfacet
  facet normal 0.242997 -0.970027 0
    outer loop
      vertex -1.24822 4.11484 0
      vertex -0.838888 4.21738 6
      vertex -1.24822 4.11484 6
    endloop
  endfacet
  facet normal 0.242997 -0.970027 0
    outer loop
      vertex -0.838888 4.21738 6
      vertex -1.24822 4.11484 0
      vertex -0.838888 4.21738 0
    endloop
  endfacet
  facet normal -0.970027 0.242997 0
    outer loop
      vertex 4.11484 -1.24822 0
      vertex 4.21738 -0.838888 6
      vertex 4.21738 -0.838888 0
    endloop
  endfacet
  facet normal -0.970027 0.242997 0
    outer loop
      vertex 4.21738 -0.838888 6
      vertex 4.11484 -1.24822 0
      vertex 4.11484 -1.24822 6
    endloop
  endfacet
  facet normal -0.903991 -0.427551 0
    outer loop
      vertex 3.97268 1.64554 0
      vertex 3.79226 2.02701 6
      vertex 3.79226 2.02701 0
    endloop
  endfacet
  facet normal -0.903991 -0.427551 0
    outer loop
      vertex 3.79226 2.02701 6
      vertex 3.97268 1.64554 0
      vertex 3.97268 1.64554 6
    endloop
  endfacet
  facet normal 0.146713 -0.989179 0
    outer loop
      vertex -0.838888 4.21738 0
      vertex -0.421474 4.27929 6
      vertex -0.838888 4.21738 6
    endloop
  endfacet
  facet normal 0.146713 -0.989179 0
    outer loop
      vertex -0.421474 4.27929 6
      vertex -0.838888 4.21738 0
      vertex -0.421474 4.27929 0
    endloop
  endfacet
  facet normal 0.941547 0.336883 0
    outer loop
      vertex -3.97268 -1.64554 6
      vertex -4.11484 -1.24822 0
      vertex -4.11484 -1.24822 6
    endloop
  endfacet
  facet normal 0.941547 0.336883 0
    outer loop
      vertex -4.11484 -1.24822 0
      vertex -3.97268 -1.64554 6
      vertex -3.97268 -1.64554 0
    endloop
  endfacet
  facet normal 0.514105 0.857727 -0
    outer loop
      vertex -2.02701 -3.79226 0
      vertex -2.38895 -3.57532 6
      vertex -2.02701 -3.79226 6
    endloop
  endfacet
  facet normal 0.514105 0.857727 0
    outer loop
      vertex -2.38895 -3.57532 6
      vertex -2.02701 -3.79226 0
      vertex -2.38895 -3.57532 0
    endloop
  endfacet
  facet normal 0.970027 0.242997 0
    outer loop
      vertex -4.11484 -1.24822 6
      vertex -4.21738 -0.838888 0
      vertex -4.21738 -0.838888 6
    endloop
  endfacet
  facet normal 0.970027 0.242997 0
    outer loop
      vertex -4.21738 -0.838888 0
      vertex -4.11484 -1.24822 6
      vertex -4.11484 -1.24822 0
    endloop
  endfacet
  facet normal 0.595707 -0.803202 0
    outer loop
      vertex -2.72789 3.32394 0
      vertex -2.38895 3.57532 6
      vertex -2.72789 3.32394 6
    endloop
  endfacet
  facet normal 0.595707 -0.803202 0
    outer loop
      vertex -2.38895 3.57532 6
      vertex -2.72789 3.32394 0
      vertex -2.38895 3.57532 0
    endloop
  endfacet
  facet normal -0.803202 0.595707 0
    outer loop
      vertex 3.32394 -2.72789 0
      vertex 3.57532 -2.38895 6
      vertex 3.57532 -2.38895 0
    endloop
  endfacet
  facet normal -0.803202 0.595707 0
    outer loop
      vertex 3.57532 -2.38895 6
      vertex 3.32394 -2.72789 0
      vertex 3.32394 -2.72789 6
    endloop
  endfacet
  facet normal -0.941547 -0.336883 0
    outer loop
      vertex 4.11484 1.24822 0
      vertex 3.97268 1.64554 6
      vertex 3.97268 1.64554 0
    endloop
  endfacet
  facet normal -0.941547 -0.336883 0
    outer loop
      vertex 3.97268 1.64554 6
      vertex 4.11484 1.24822 0
      vertex 4.11484 1.24822 6
    endloop
  endfacet
  facet normal -0.242997 -0.970027 0
    outer loop
      vertex 0.838888 4.21738 0
      vertex 1.24822 4.11484 6
      vertex 0.838888 4.21738 6
    endloop
  endfacet
  facet normal -0.242997 -0.970027 -0
    outer loop
      vertex 1.24822 4.11484 6
      vertex 0.838888 4.21738 0
      vertex 1.24822 4.11484 0
    endloop
  endfacet
  facet normal -0.903991 0.427551 0
    outer loop
      vertex 3.79226 -2.02701 0
      vertex 3.97268 -1.64554 6
      vertex 3.97268 -1.64554 0
    endloop
  endfacet
  facet normal -0.903991 0.427551 0
    outer loop
      vertex 3.97268 -1.64554 6
      vertex 3.79226 -2.02701 0
      vertex 3.79226 -2.02701 6
    endloop
  endfacet
  facet normal 0.146713 0.989179 -0
    outer loop
      vertex -0.421474 -4.27929 0
      vertex -0.838888 -4.21738 6
      vertex -0.421474 -4.27929 6
    endloop
  endfacet
  facet normal 0.146713 0.989179 0
    outer loop
      vertex -0.838888 -4.21738 6
      vertex -0.421474 -4.27929 0
      vertex -0.838888 -4.21738 0
    endloop
  endfacet
  facet normal -0.514105 -0.857727 0
    outer loop
      vertex 2.02701 3.79226 0
      vertex 2.38895 3.57532 6
      vertex 2.02701 3.79226 6
    endloop
  endfacet
  facet normal -0.514105 -0.857727 -0
    outer loop
      vertex 2.38895 3.57532 6
      vertex 2.02701 3.79226 0
      vertex 2.38895 3.57532 0
    endloop
  endfacet
  facet normal 0.857727 0.514105 0
    outer loop
      vertex -3.57532 -2.38895 6
      vertex -3.79226 -2.02701 0
      vertex -3.79226 -2.02701 6
    endloop
  endfacet
  facet normal 0.857727 0.514105 0
    outer loop
      vertex -3.79226 -2.02701 0
      vertex -3.57532 -2.38895 6
      vertex -3.57532 -2.38895 0
    endloop
  endfacet
  facet normal -0.74096 -0.671549 0
    outer loop
      vertex 3.32394 2.72789 0
      vertex 3.04056 3.04056 6
      vertex 3.04056 3.04056 0
    endloop
  endfacet
  facet normal -0.74096 -0.671549 0
    outer loop
      vertex 3.04056 3.04056 6
      vertex 3.32394 2.72789 0
      vertex 3.32394 2.72789 6
    endloop
  endfacet
  facet normal 0.0490779 -0.998795 0
    outer loop
      vertex -0.421474 4.27929 0
      vertex 0 4.3 6
      vertex -0.421474 4.27929 6
    endloop
  endfacet
  facet normal 0.0490779 -0.998795 0
    outer loop
      vertex 0 4.3 6
      vertex -0.421474 4.27929 0
      vertex 0 4.3 0
    endloop
  endfacet
  facet normal 0.74096 -0.671549 0
    outer loop
      vertex -3.32394 2.72789 6
      vertex -3.04056 3.04056 0
      vertex -3.04056 3.04056 6
    endloop
  endfacet
  facet normal 0.74096 -0.671549 0
    outer loop
      vertex -3.04056 3.04056 0
      vertex -3.32394 2.72789 6
      vertex -3.32394 2.72789 0
    endloop
  endfacet
  facet normal -0.989179 0.146713 0
    outer loop
      vertex 4.21738 -0.838888 0
      vertex 4.27929 -0.421474 6
      vertex 4.27929 -0.421474 0
    endloop
  endfacet
  facet normal -0.989179 0.146713 0
    outer loop
      vertex 4.27929 -0.421474 6
      vertex 4.21738 -0.838888 0
      vertex 4.21738 -0.838888 6
    endloop
  endfacet
  facet normal 0.903991 0.427551 0
    outer loop
      vertex -3.79226 -2.02701 6
      vertex -3.97268 -1.64554 0
      vertex -3.97268 -1.64554 6
    endloop
  endfacet
  facet normal 0.903991 0.427551 0
    outer loop
      vertex -3.97268 -1.64554 0
      vertex -3.79226 -2.02701 6
      vertex -3.79226 -2.02701 0
    endloop
  endfacet
  facet normal 0.803202 0.595707 0
    outer loop
      vertex -3.32394 -2.72789 6
      vertex -3.57532 -2.38895 0
      vertex -3.57532 -2.38895 6
    endloop
  endfacet
  facet normal 0.803202 0.595707 0
    outer loop
      vertex -3.57532 -2.38895 0
      vertex -3.32394 -2.72789 6
      vertex -3.32394 -2.72789 0
    endloop
  endfacet
  facet normal -0.857727 -0.514105 0
    outer loop
      vertex 3.79226 2.02701 0
      vertex 3.57532 2.38895 6
      vertex 3.57532 2.38895 0
    endloop
  endfacet
  facet normal -0.857727 -0.514105 0
    outer loop
      vertex 3.57532 2.38895 6
      vertex 3.79226 2.02701 0
      vertex 3.79226 2.02701 6
    endloop
  endfacet
  facet normal 0.0490779 0.998795 -0
    outer loop
      vertex 0 -4.3 0
      vertex -0.421474 -4.27929 6
      vertex 0 -4.3 6
    endloop
  endfacet
  facet normal 0.0490779 0.998795 0
    outer loop
      vertex -0.421474 -4.27929 6
      vertex 0 -4.3 0
      vertex -0.421474 -4.27929 0
    endloop
  endfacet
  facet normal 0.74096 0.671549 0
    outer loop
      vertex -3.04056 -3.04056 6
      vertex -3.32394 -2.72789 0
      vertex -3.32394 -2.72789 6
    endloop
  endfacet
  facet normal 0.74096 0.671549 0
    outer loop
      vertex -3.32394 -2.72789 0
      vertex -3.04056 -3.04056 6
      vertex -3.04056 -3.04056 0
    endloop
  endfacet
  facet normal 0.671549 -0.74096 0
    outer loop
      vertex -3.04056 3.04056 0
      vertex -2.72789 3.32394 6
      vertex -3.04056 3.04056 6
    endloop
  endfacet
  facet normal 0.671549 -0.74096 0
    outer loop
      vertex -2.72789 3.32394 6
      vertex -3.04056 3.04056 0
      vertex -2.72789 3.32394 0
    endloop
  endfacet
  facet normal -0.146713 0.989179 0
    outer loop
      vertex 0.838888 -4.21738 0
      vertex 0.421474 -4.27929 6
      vertex 0.838888 -4.21738 6
    endloop
  endfacet
  facet normal -0.146713 0.989179 0
    outer loop
      vertex 0.421474 -4.27929 6
      vertex 0.838888 -4.21738 0
      vertex 0.421474 -4.27929 0
    endloop
  endfacet
  facet normal -0.242997 0.970027 0
    outer loop
      vertex 1.24822 -4.11484 0
      vertex 0.838888 -4.21738 6
      vertex 1.24822 -4.11484 6
    endloop
  endfacet
  facet normal -0.242997 0.970027 0
    outer loop
      vertex 0.838888 -4.21738 6
      vertex 1.24822 -4.11484 0
      vertex 0.838888 -4.21738 0
    endloop
  endfacet
  facet normal 0.595707 0.803202 -0
    outer loop
      vertex -2.38895 -3.57532 0
      vertex -2.72789 -3.32394 6
      vertex -2.38895 -3.57532 6
    endloop
  endfacet
  facet normal 0.595707 0.803202 0
    outer loop
      vertex -2.72789 -3.32394 6
      vertex -2.38895 -3.57532 0
      vertex -2.72789 -3.32394 0
    endloop
  endfacet
  facet normal 0.671549 0.74096 -0
    outer loop
      vertex -2.72789 -3.32394 0
      vertex -3.04056 -3.04056 6
      vertex -2.72789 -3.32394 6
    endloop
  endfacet
  facet normal 0.671549 0.74096 0
    outer loop
      vertex -3.04056 -3.04056 6
      vertex -2.72789 -3.32394 0
      vertex -3.04056 -3.04056 0
    endloop
  endfacet
  facet normal -0.671549 0.74096 0
    outer loop
      vertex 3.04056 -3.04056 0
      vertex 2.72789 -3.32394 6
      vertex 3.04056 -3.04056 6
    endloop
  endfacet
  facet normal -0.671549 0.74096 0
    outer loop
      vertex 2.72789 -3.32394 6
      vertex 3.04056 -3.04056 0
      vertex 2.72789 -3.32394 0
    endloop
  endfacet
  facet normal 0.903991 -0.427551 0
    outer loop
      vertex -3.97268 1.64554 6
      vertex -3.79226 2.02701 0
      vertex -3.79226 2.02701 6
    endloop
  endfacet
  facet normal 0.903991 -0.427551 0
    outer loop
      vertex -3.79226 2.02701 0
      vertex -3.97268 1.64554 6
      vertex -3.97268 1.64554 0
    endloop
  endfacet
  facet normal -0.0490779 0.998795 0
    outer loop
      vertex 0.421474 -4.27929 0
      vertex 0 -4.3 6
      vertex 0.421474 -4.27929 6
    endloop
  endfacet
  facet normal -0.0490779 0.998795 0
    outer loop
      vertex 0 -4.3 6
      vertex 0.421474 -4.27929 0
      vertex 0 -4.3 0
    endloop
  endfacet
  facet normal -0.0490779 -0.998795 0
    outer loop
      vertex 0 4.3 0
      vertex 0.421474 4.27929 6
      vertex 0 4.3 6
    endloop
  endfacet
  facet normal -0.0490779 -0.998795 -0
    outer loop
      vertex 0.421474 4.27929 6
      vertex 0 4.3 0
      vertex 0.421474 4.27929 0
    endloop
  endfacet
  facet normal 0.998795 0.0490779 0
    outer loop
      vertex -4.27929 -0.421474 6
      vertex -4.3 0 0
      vertex -4.3 0 6
    endloop
  endfacet
  facet normal 0.998795 0.0490779 0
    outer loop
      vertex -4.3 0 0
      vertex -4.27929 -0.421474 6
      vertex -4.27929 -0.421474 0
    endloop
  endfacet
  facet normal -0.941547 0.336883 0
    outer loop
      vertex 3.97268 -1.64554 0
      vertex 4.11484 -1.24822 6
      vertex 4.11484 -1.24822 0
    endloop
  endfacet
  facet normal -0.941547 0.336883 0
    outer loop
      vertex 4.11484 -1.24822 6
      vertex 3.97268 -1.64554 0
      vertex 3.97268 -1.64554 6
    endloop
  endfacet
  facet normal -0.595707 0.803202 0
    outer loop
      vertex 2.72789 -3.32394 0
      vertex 2.38895 -3.57532 6
      vertex 2.72789 -3.32394 6
    endloop
  endfacet
  facet normal -0.595707 0.803202 0
    outer loop
      vertex 2.38895 -3.57532 6
      vertex 2.72789 -3.32394 0
      vertex 2.38895 -3.57532 0
    endloop
  endfacet
  facet normal -0.514105 0.857727 0
    outer loop
      vertex 2.38895 -3.57532 0
      vertex 2.02701 -3.79226 6
      vertex 2.38895 -3.57532 6
    endloop
  endfacet
  facet normal -0.514105 0.857727 0
    outer loop
      vertex 2.02701 -3.79226 6
      vertex 2.38895 -3.57532 0
      vertex 2.02701 -3.79226 0
    endloop
  endfacet
  facet normal 0.989179 -0.146713 0
    outer loop
      vertex -4.27929 0.421474 6
      vertex -4.21738 0.838888 0
      vertex -4.21738 0.838888 6
    endloop
  endfacet
  facet normal 0.989179 -0.146713 0
    outer loop
      vertex -4.21738 0.838888 0
      vertex -4.27929 0.421474 6
      vertex -4.27929 0.421474 0
    endloop
  endfacet
  facet normal 0.998795 -0.0490779 0
    outer loop
      vertex -4.3 0 6
      vertex -4.27929 0.421474 0
      vertex -4.27929 0.421474 6
    endloop
  endfacet
  facet normal 0.998795 -0.0490779 0
    outer loop
      vertex -4.27929 0.421474 0
      vertex -4.3 0 6
      vertex -4.3 0 0
    endloop
  endfacet
  facet normal 0.427551 0.903991 -0
    outer loop
      vertex -1.64554 -3.97268 0
      vertex -2.02701 -3.79226 6
      vertex -1.64554 -3.97268 6
    endloop
  endfacet
  facet normal 0.427551 0.903991 0
    outer loop
      vertex -2.02701 -3.79226 6
      vertex -1.64554 -3.97268 0
      vertex -2.02701 -3.79226 0
    endloop
  endfacet
endsolid OpenSCAD_Model
