solid OpenSCAD_Model
  facet normal -0.989184 0.146678 0
    outer loop
      vertex -7.33266 -0.331653 0
      vertex -7.30819 -0.166629 2.5
      vertex -7.30819 -0.166629 0
    endloop
  endfacet
  facet normal -0.989184 0.146678 0
    outer loop
      vertex -7.30819 -0.166629 2.5
      vertex -7.33266 -0.331653 0
      vertex -7.33266 -0.331653 2.5
    endloop
  endfacet
  facet normal -0.998794 0.0490918 0
    outer loop
      vertex -7.30819 -0.166629 0
      vertex -7.3 0 2.5
      vertex -7.3 0 0
    endloop
  endfacet
  facet normal -0.998794 0.0490918 0
    outer loop
      vertex -7.3 0 2.5
      vertex -7.30819 -0.166629 0
      vertex -7.30819 -0.166629 2.5
    endloop
  endfacet
  facet normal -0.970026 0.243 0
    outer loop
      vertex -7.3732 -0.493484 0
      vertex -7.33266 -0.331653 2.5
      vertex -7.33266 -0.331653 0
    endloop
  endfacet
  facet normal -0.970026 0.243 0
    outer loop
      vertex -7.33266 -0.331653 2.5
      vertex -7.3732 -0.493484 0
      vertex -7.3732 -0.493484 2.5
    endloop
  endfacet
  facet normal -0.427494 -0.904018 0
    outer loop
      vertex -8.34944 1.57059 0
      vertex -8.19862 1.49927 2.5
      vertex -8.34944 1.57059 2.5
    endloop
  endfacet
  facet normal -0.427494 -0.904018 -0
    outer loop
      vertex -8.19862 1.49927 2.5
      vertex -8.34944 1.57059 0
      vertex -8.19862 1.49927 0
    endloop
  endfacet
  facet normal 0.0490916 0.998794 -0
    outer loop
      vertex -9 -1.7 0
      vertex -9.16663 -1.69181 2.5
      vertex -9 -1.7 2.5
    endloop
  endfacet
  facet normal 0.0490916 0.998794 0
    outer loop
      vertex -9.16663 -1.69181 2.5
      vertex -9 -1.7 0
      vertex -9.16663 -1.69181 0
    endloop
  endfacet
  facet normal 0.427517 0.904007 -0
    outer loop
      vertex -9.65056 -1.57059 0
      vertex -9.80137 -1.49927 2.5
      vertex -9.65056 -1.57059 2.5
    endloop
  endfacet
  facet normal 0.427517 0.904007 0
    outer loop
      vertex -9.80137 -1.49927 2.5
      vertex -9.65056 -1.57059 0
      vertex -9.80137 -1.49927 0
    endloop
  endfacet
  facet normal -0.740932 0.67158 0
    outer loop
      vertex -7.79792 -1.20208 0
      vertex -7.68588 -1.07847 2.5
      vertex -7.68588 -1.07847 0
    endloop
  endfacet
  facet normal -0.740932 0.67158 0
    outer loop
      vertex -7.68588 -1.07847 2.5
      vertex -7.79792 -1.20208 0
      vertex -7.79792 -1.20208 2.5
    endloop
  endfacet
  facet normal 0.14674 -0.989175 0
    outer loop
      vertex -9.33165 1.66733 0
      vertex -9.16663 1.69181 2.5
      vertex -9.33165 1.66733 2.5
    endloop
  endfacet
  facet normal 0.14674 -0.989175 0
    outer loop
      vertex -9.16663 1.69181 2.5
      vertex -9.33165 1.66733 0
      vertex -9.16663 1.69181 0
    endloop
  endfacet
  facet normal -0.427494 0.904018 0
    outer loop
      vertex -8.19862 -1.49927 0
      vertex -8.34944 -1.57059 2.5
      vertex -8.19862 -1.49927 2.5
    endloop
  endfacet
  facet normal -0.427494 0.904018 0
    outer loop
      vertex -8.34944 -1.57059 2.5
      vertex -8.19862 -1.49927 0
      vertex -8.34944 -1.57059 0
    endloop
  endfacet
  facet normal 0.14674 0.989175 -0
    outer loop
      vertex -9.16663 -1.69181 0
      vertex -9.33165 -1.66733 2.5
      vertex -9.16663 -1.69181 2.5
    endloop
  endfacet
  facet normal 0.14674 0.989175 0
    outer loop
      vertex -9.33165 -1.66733 2.5
      vertex -9.16663 -1.69181 0
      vertex -9.33165 -1.66733 0
    endloop
  endfacet
  facet normal -0.242945 -0.97004 0
    outer loop
      vertex -8.66835 1.66733 0
      vertex -8.50652 1.6268 2.5
      vertex -8.66835 1.66733 2.5
    endloop
  endfacet
  facet normal -0.242945 -0.97004 -0
    outer loop
      vertex -8.50652 1.6268 2.5
      vertex -8.66835 1.66733 0
      vertex -8.50652 1.6268 0
    endloop
  endfacet
  facet normal 0.595609 0.803275 -0
    outer loop
      vertex -9.94447 -1.4135 0
      vertex -10.0785 -1.31412 2.5
      vertex -9.94447 -1.4135 2.5
    endloop
  endfacet
  facet normal 0.595609 0.803275 0
    outer loop
      vertex -10.0785 -1.31412 2.5
      vertex -9.94447 -1.4135 0
      vertex -10.0785 -1.31412 0
    endloop
  endfacet
  facet normal 0.904057 0.427412 0
    outer loop
      vertex -10.4993 -0.801374 2.5
      vertex -10.5706 -0.650561 0
      vertex -10.5706 -0.650561 2.5
    endloop
  endfacet
  facet normal 0.904057 0.427412 0
    outer loop
      vertex -10.5706 -0.650561 0
      vertex -10.4993 -0.801374 2.5
      vertex -10.4993 -0.801374 0
    endloop
  endfacet
  facet normal 0.427517 -0.904007 0
    outer loop
      vertex -9.80137 1.49927 0
      vertex -9.65056 1.57059 2.5
      vertex -9.80137 1.49927 2.5
    endloop
  endfacet
  facet normal 0.427517 -0.904007 0
    outer loop
      vertex -9.65056 1.57059 2.5
      vertex -9.80137 1.49927 0
      vertex -9.65056 1.57059 0
    endloop
  endfacet
  facet normal -0.336921 -0.941533 0
    outer loop
      vertex -8.50652 1.6268 0
      vertex -8.34944 1.57059 2.5
      vertex -8.50652 1.6268 2.5
    endloop
  endfacet
  facet normal -0.336921 -0.941533 -0
    outer loop
      vertex -8.34944 1.57059 2.5
      vertex -8.50652 1.6268 0
      vertex -8.34944 1.57059 0
    endloop
  endfacet
  facet normal 0.595609 -0.803275 0
    outer loop
      vertex -10.0785 1.31412 0
      vertex -9.94447 1.4135 2.5
      vertex -10.0785 1.31412 2.5
    endloop
  endfacet
  facet normal 0.595609 -0.803275 0
    outer loop
      vertex -9.94447 1.4135 2.5
      vertex -10.0785 1.31412 0
      vertex -9.94447 1.4135 0
    endloop
  endfacet
  facet normal 0.904057 -0.427412 0
    outer loop
      vertex -10.5706 0.650561 2.5
      vertex -10.4993 0.801374 0
      vertex -10.4993 0.801374 2.5
    endloop
  endfacet
  facet normal 0.904057 -0.427412 0
    outer loop
      vertex -10.4993 0.801374 0
      vertex -10.5706 0.650561 2.5
      vertex -10.5706 0.650561 0
    endloop
  endfacet
  facet normal -0.514125 0.857715 0
    outer loop
      vertex -8.05553 -1.4135 0
      vertex -8.19862 -1.49927 2.5
      vertex -8.05553 -1.4135 2.5
    endloop
  endfacet
  facet normal -0.514125 0.857715 0
    outer loop
      vertex -8.19862 -1.49927 2.5
      vertex -8.05553 -1.4135 0
      vertex -8.19862 -1.49927 0
    endloop
  endfacet
  facet normal -0.595695 -0.803211 0
    outer loop
      vertex -8.05553 1.4135 0
      vertex -7.92153 1.31412 2.5
      vertex -8.05553 1.4135 2.5
    endloop
  endfacet
  facet normal -0.595695 -0.803211 -0
    outer loop
      vertex -7.92153 1.31412 2.5
      vertex -8.05553 1.4135 0
      vertex -7.92153 1.31412 0
    endloop
  endfacet
  facet normal 0.998791 -0.0491516 0
    outer loop
      vertex -10.7 0 2.5
      vertex -10.6918 0.166629 0
      vertex -10.6918 0.166629 2.5
    endloop
  endfacet
  facet normal 0.998791 -0.0491516 0
    outer loop
      vertex -10.6918 0.166629 0
      vertex -10.7 0 2.5
      vertex -10.7 0 0
    endloop
  endfacet
  facet normal -0.595695 0.803211 0
    outer loop
      vertex -7.92153 -1.31412 0
      vertex -8.05553 -1.4135 2.5
      vertex -7.92153 -1.31412 2.5
    endloop
  endfacet
  facet normal -0.595695 0.803211 0
    outer loop
      vertex -8.05553 -1.4135 2.5
      vertex -7.92153 -1.31412 0
      vertex -8.05553 -1.4135 0
    endloop
  endfacet
  facet normal -0.970026 -0.243 0
    outer loop
      vertex -7.33266 0.331653 0
      vertex -7.3732 0.493484 2.5
      vertex -7.3732 0.493484 0
    endloop
  endfacet
  facet normal -0.970026 -0.243 0
    outer loop
      vertex -7.3732 0.493484 2.5
      vertex -7.33266 0.331653 0
      vertex -7.33266 0.331653 2.5
    endloop
  endfacet
  facet normal 0.94155 -0.336874 0
    outer loop
      vertex -10.6268 0.493484 2.5
      vertex -10.5706 0.650561 0
      vertex -10.5706 0.650561 2.5
    endloop
  endfacet
  facet normal 0.94155 -0.336874 0
    outer loop
      vertex -10.5706 0.650561 0
      vertex -10.6268 0.493484 2.5
      vertex -10.6268 0.493484 0
    endloop
  endfacet
  facet normal -0.242945 0.97004 0
    outer loop
      vertex -8.50652 -1.6268 0
      vertex -8.66835 -1.66733 2.5
      vertex -8.50652 -1.6268 2.5
    endloop
  endfacet
  facet normal -0.242945 0.97004 0
    outer loop
      vertex -8.66835 -1.66733 2.5
      vertex -8.50652 -1.6268 0
      vertex -8.66835 -1.66733 0
    endloop
  endfacet
  facet normal 0.741051 0.671448 0
    outer loop
      vertex -10.2021 -1.20208 2.5
      vertex -10.3141 -1.07847 0
      vertex -10.3141 -1.07847 2.5
    endloop
  endfacet
  facet normal 0.741051 0.671448 0
    outer loop
      vertex -10.3141 -1.07847 0
      vertex -10.2021 -1.20208 2.5
      vertex -10.2021 -1.20208 0
    endloop
  endfacet
  facet normal -0.0490916 -0.998794 0
    outer loop
      vertex -9 1.7 0
      vertex -8.83337 1.69181 2.5
      vertex -9 1.7 2.5
    endloop
  endfacet
  facet normal -0.0490916 -0.998794 -0
    outer loop
      vertex -8.83337 1.69181 2.5
      vertex -9 1.7 0
      vertex -8.83337 1.69181 0
    endloop
  endfacet
  facet normal -0.803215 0.595689 0
    outer loop
      vertex -7.68588 -1.07847 0
      vertex -7.5865 -0.944468 2.5
      vertex -7.5865 -0.944468 0
    endloop
  endfacet
  facet normal -0.803215 0.595689 0
    outer loop
      vertex -7.5865 -0.944468 2.5
      vertex -7.68588 -1.07847 0
      vertex -7.68588 -1.07847 2.5
    endloop
  endfacet
  facet normal 0.970083 -0.242774 0
    outer loop
      vertex -10.6673 0.331653 2.5
      vertex -10.6268 0.493484 0
      vertex -10.6268 0.493484 2.5
    endloop
  endfacet
  facet normal 0.970083 -0.242774 0
    outer loop
      vertex -10.6268 0.493484 0
      vertex -10.6673 0.331653 2.5
      vertex -10.6673 0.331653 0
    endloop
  endfacet
  facet normal -0.989184 -0.146678 0
    outer loop
      vertex -7.30819 0.166629 0
      vertex -7.33266 0.331653 2.5
      vertex -7.33266 0.331653 0
    endloop
  endfacet
  facet normal -0.989184 -0.146678 0
    outer loop
      vertex -7.33266 0.331653 2.5
      vertex -7.30819 0.166629 0
      vertex -7.30819 0.166629 2.5
    endloop
  endfacet
  facet normal -0.514125 -0.857715 0
    outer loop
      vertex -8.19862 1.49927 0
      vertex -8.05553 1.4135 2.5
      vertex -8.19862 1.49927 2.5
    endloop
  endfacet
  facet normal -0.514125 -0.857715 -0
    outer loop
      vertex -8.05553 1.4135 2.5
      vertex -8.19862 1.49927 0
      vertex -8.05553 1.4135 0
    endloop
  endfacet
  facet normal 0.94155 0.336874 0
    outer loop
      vertex -10.5706 -0.650561 2.5
      vertex -10.6268 -0.493484 0
      vertex -10.6268 -0.493484 2.5
    endloop
  endfacet
  facet normal 0.94155 0.336874 0
    outer loop
      vertex -10.6268 -0.493484 0
      vertex -10.5706 -0.650561 2.5
      vertex -10.5706 -0.650561 0
    endloop
  endfacet
  facet normal -0.67158 0.740932 0
    outer loop
      vertex -7.79792 -1.20208 0
      vertex -7.92153 -1.31412 2.5
      vertex -7.79792 -1.20208 2.5
    endloop
  endfacet
  facet normal -0.67158 0.740932 0
    outer loop
      vertex -7.92153 -1.31412 2.5
      vertex -7.79792 -1.20208 0
      vertex -7.92153 -1.31412 0
    endloop
  endfacet
  facet normal 0.989158 0.146854 0
    outer loop
      vertex -10.6673 -0.331653 2.5
      vertex -10.6918 -0.166629 0
      vertex -10.6918 -0.166629 2.5
    endloop
  endfacet
  facet normal 0.989158 0.146854 0
    outer loop
      vertex -10.6918 -0.166629 0
      vertex -10.6673 -0.331653 2.5
      vertex -10.6673 -0.331653 0
    endloop
  endfacet
  facet normal -0.903988 -0.427559 0
    outer loop
      vertex -7.4294 0.650561 0
      vertex -7.50073 0.801374 2.5
      vertex -7.50073 0.801374 0
    endloop
  endfacet
  facet normal -0.903988 -0.427559 0
    outer loop
      vertex -7.50073 0.801374 2.5
      vertex -7.4294 0.650561 0
      vertex -7.4294 0.650561 2.5
    endloop
  endfacet
  facet normal -0.336921 0.941533 0
    outer loop
      vertex -8.34944 -1.57059 0
      vertex -8.50652 -1.6268 2.5
      vertex -8.34944 -1.57059 2.5
    endloop
  endfacet
  facet normal -0.336921 0.941533 0
    outer loop
      vertex -8.50652 -1.6268 2.5
      vertex -8.34944 -1.57059 0
      vertex -8.50652 -1.6268 0
    endloop
  endfacet
  facet normal -0.998794 -0.0490918 0
    outer loop
      vertex -7.3 0 0
      vertex -7.30819 0.166629 2.5
      vertex -7.30819 0.166629 0
    endloop
  endfacet
  facet normal -0.998794 -0.0490918 0
    outer loop
      vertex -7.30819 0.166629 2.5
      vertex -7.3 0 0
      vertex -7.3 0 2.5
    endloop
  endfacet
  facet normal -0.14674 -0.989175 0
    outer loop
      vertex -8.83337 1.69181 0
      vertex -8.66835 1.66733 2.5
      vertex -8.83337 1.69181 2.5
    endloop
  endfacet
  facet normal -0.14674 -0.989175 -0
    outer loop
      vertex -8.66835 1.66733 2.5
      vertex -8.83337 1.69181 0
      vertex -8.66835 1.66733 0
    endloop
  endfacet
  facet normal -0.94155 0.336874 0
    outer loop
      vertex -7.4294 -0.650561 0
      vertex -7.3732 -0.493484 2.5
      vertex -7.3732 -0.493484 0
    endloop
  endfacet
  facet normal -0.94155 0.336874 0
    outer loop
      vertex -7.3732 -0.493484 2.5
      vertex -7.4294 -0.650561 0
      vertex -7.4294 -0.650561 2.5
    endloop
  endfacet
  facet normal -0.803215 -0.595689 0
    outer loop
      vertex -7.5865 0.944468 0
      vertex -7.68588 1.07847 2.5
      vertex -7.68588 1.07847 0
    endloop
  endfacet
  facet normal -0.803215 -0.595689 0
    outer loop
      vertex -7.68588 1.07847 2.5
      vertex -7.5865 0.944468 0
      vertex -7.5865 0.944468 2.5
    endloop
  endfacet
  facet normal -0.857721 -0.514115 0
    outer loop
      vertex -7.50073 0.801374 0
      vertex -7.5865 0.944468 2.5
      vertex -7.5865 0.944468 0
    endloop
  endfacet
  facet normal -0.857721 -0.514115 0
    outer loop
      vertex -7.5865 0.944468 2.5
      vertex -7.50073 0.801374 0
      vertex -7.50073 0.801374 2.5
    endloop
  endfacet
  facet normal 0.242945 0.97004 -0
    outer loop
      vertex -9.33165 -1.66733 0
      vertex -9.49348 -1.6268 2.5
      vertex -9.33165 -1.66733 2.5
    endloop
  endfacet
  facet normal 0.242945 0.97004 0
    outer loop
      vertex -9.49348 -1.6268 2.5
      vertex -9.33165 -1.66733 0
      vertex -9.49348 -1.6268 0
    endloop
  endfacet
  facet normal -0.94155 -0.336874 0
    outer loop
      vertex -7.3732 0.493484 0
      vertex -7.4294 0.650561 2.5
      vertex -7.4294 0.650561 0
    endloop
  endfacet
  facet normal -0.94155 -0.336874 0
    outer loop
      vertex -7.4294 0.650561 2.5
      vertex -7.3732 0.493484 0
      vertex -7.3732 0.493484 2.5
    endloop
  endfacet
  facet normal -0.0490916 0.998794 0
    outer loop
      vertex -8.83337 -1.69181 0
      vertex -9 -1.7 2.5
      vertex -8.83337 -1.69181 2.5
    endloop
  endfacet
  facet normal -0.0490916 0.998794 0
    outer loop
      vertex -9 -1.7 2.5
      vertex -8.83337 -1.69181 0
      vertex -9 -1.7 0
    endloop
  endfacet
  facet normal 0.514099 0.857731 -0
    outer loop
      vertex -9.80137 -1.49927 0
      vertex -9.94447 -1.4135 2.5
      vertex -9.80137 -1.49927 2.5
    endloop
  endfacet
  facet normal 0.514099 0.857731 0
    outer loop
      vertex -9.94447 -1.4135 2.5
      vertex -9.80137 -1.49927 0
      vertex -9.94447 -1.4135 0
    endloop
  endfacet
  facet normal -0.903988 0.427559 0
    outer loop
      vertex -7.50073 -0.801374 0
      vertex -7.4294 -0.650561 2.5
      vertex -7.4294 -0.650561 0
    endloop
  endfacet
  facet normal -0.903988 0.427559 0
    outer loop
      vertex -7.4294 -0.650561 2.5
      vertex -7.50073 -0.801374 0
      vertex -7.50073 -0.801374 2.5
    endloop
  endfacet
  facet normal -0.14674 0.989175 0
    outer loop
      vertex -8.66835 -1.66733 0
      vertex -8.83337 -1.69181 2.5
      vertex -8.66835 -1.66733 2.5
    endloop
  endfacet
  facet normal -0.14674 0.989175 0
    outer loop
      vertex -8.83337 -1.69181 2.5
      vertex -8.66835 -1.66733 0
      vertex -8.83337 -1.69181 0
    endloop
  endfacet
  facet normal 0.242945 -0.97004 0
    outer loop
      vertex -9.49348 1.6268 0
      vertex -9.33165 1.66733 2.5
      vertex -9.49348 1.6268 2.5
    endloop
  endfacet
  facet normal 0.242945 -0.97004 0
    outer loop
      vertex -9.33165 1.66733 2.5
      vertex -9.49348 1.6268 0
      vertex -9.33165 1.66733 0
    endloop
  endfacet
  facet normal 0.857642 -0.514247 0
    outer loop
      vertex -10.4993 0.801374 2.5
      vertex -10.4135 0.944468 0
      vertex -10.4135 0.944468 2.5
    endloop
  endfacet
  facet normal 0.857642 -0.514247 0
    outer loop
      vertex -10.4135 0.944468 0
      vertex -10.4993 0.801374 2.5
      vertex -10.4993 0.801374 0
    endloop
  endfacet
  facet normal -0.857721 0.514115 0
    outer loop
      vertex -7.5865 -0.944468 0
      vertex -7.50073 -0.801374 2.5
      vertex -7.50073 -0.801374 0
    endloop
  endfacet
  facet normal -0.857721 0.514115 0
    outer loop
      vertex -7.50073 -0.801374 2.5
      vertex -7.5865 -0.944468 0
      vertex -7.5865 -0.944468 2.5
    endloop
  endfacet
  facet normal 0.336921 0.941533 -0
    outer loop
      vertex -9.49348 -1.6268 0
      vertex -9.65056 -1.57059 2.5
      vertex -9.49348 -1.6268 2.5
    endloop
  endfacet
  facet normal 0.336921 0.941533 0
    outer loop
      vertex -9.65056 -1.57059 2.5
      vertex -9.49348 -1.6268 0
      vertex -9.65056 -1.57059 0
    endloop
  endfacet
  facet normal 0.741051 -0.671448 0
    outer loop
      vertex -10.3141 1.07847 2.5
      vertex -10.2021 1.20208 0
      vertex -10.2021 1.20208 2.5
    endloop
  endfacet
  facet normal 0.741051 -0.671448 0
    outer loop
      vertex -10.2021 1.20208 0
      vertex -10.3141 1.07847 2.5
      vertex -10.3141 1.07847 0
    endloop
  endfacet
  facet normal 0.67161 0.740905 -0
    outer loop
      vertex -10.0785 -1.31412 0
      vertex -10.2021 -1.20208 2.5
      vertex -10.0785 -1.31412 2.5
    endloop
  endfacet
  facet normal 0.67161 0.740905 0
    outer loop
      vertex -10.2021 -1.20208 2.5
      vertex -10.0785 -1.31412 0
      vertex -10.2021 -1.20208 0
    endloop
  endfacet
  facet normal 0.514099 -0.857731 0
    outer loop
      vertex -9.94447 1.4135 0
      vertex -9.80137 1.49927 2.5
      vertex -9.94447 1.4135 2.5
    endloop
  endfacet
  facet normal 0.514099 -0.857731 0
    outer loop
      vertex -9.80137 1.49927 2.5
      vertex -9.94447 1.4135 0
      vertex -9.80137 1.49927 0
    endloop
  endfacet
  facet normal 0.970083 0.242774 0
    outer loop
      vertex -10.6268 -0.493484 2.5
      vertex -10.6673 -0.331653 0
      vertex -10.6673 -0.331653 2.5
    endloop
  endfacet
  facet normal 0.970083 0.242774 0
    outer loop
      vertex -10.6673 -0.331653 0
      vertex -10.6268 -0.493484 2.5
      vertex -10.6268 -0.493484 0
    endloop
  endfacet
  facet normal 0.803158 -0.595766 0
    outer loop
      vertex -10.4135 0.944468 2.5
      vertex -10.3141 1.07847 0
      vertex -10.3141 1.07847 2.5
    endloop
  endfacet
  facet normal 0.803158 -0.595766 0
    outer loop
      vertex -10.3141 1.07847 0
      vertex -10.4135 0.944468 2.5
      vertex -10.4135 0.944468 0
    endloop
  endfacet
  facet normal 0.989158 -0.146854 0
    outer loop
      vertex -10.6918 0.166629 2.5
      vertex -10.6673 0.331653 0
      vertex -10.6673 0.331653 2.5
    endloop
  endfacet
  facet normal 0.989158 -0.146854 0
    outer loop
      vertex -10.6673 0.331653 0
      vertex -10.6918 0.166629 2.5
      vertex -10.6918 0.166629 0
    endloop
  endfacet
  facet normal 0.67161 -0.740905 0
    outer loop
      vertex -10.2021 1.20208 0
      vertex -10.0785 1.31412 2.5
      vertex -10.2021 1.20208 2.5
    endloop
  endfacet
  facet normal 0.67161 -0.740905 0
    outer loop
      vertex -10.0785 1.31412 2.5
      vertex -10.2021 1.20208 0
      vertex -10.0785 1.31412 0
    endloop
  endfacet
  facet normal 0.803158 0.595766 0
    outer loop
      vertex -10.3141 -1.07847 2.5
      vertex -10.4135 -0.944468 0
      vertex -10.4135 -0.944468 2.5
    endloop
  endfacet
  facet normal 0.803158 0.595766 0
    outer loop
      vertex -10.4135 -0.944468 0
      vertex -10.3141 -1.07847 2.5
      vertex -10.3141 -1.07847 0
    endloop
  endfacet
  facet normal 0.857642 0.514247 0
    outer loop
      vertex -10.4135 -0.944468 2.5
      vertex -10.4993 -0.801374 0
      vertex -10.4993 -0.801374 2.5
    endloop
  endfacet
  facet normal 0.857642 0.514247 0
    outer loop
      vertex -10.4993 -0.801374 0
      vertex -10.4135 -0.944468 2.5
      vertex -10.4135 -0.944468 0
    endloop
  endfacet
  facet normal 0.0490916 -0.998794 0
    outer loop
      vertex -9.16663 1.69181 0
      vertex -9 1.7 2.5
      vertex -9.16663 1.69181 2.5
    endloop
  endfacet
  facet normal 0.0490916 -0.998794 0
    outer loop
      vertex -9 1.7 2.5
      vertex -9.16663 1.69181 0
      vertex -9 1.7 0
    endloop
  endfacet
  facet normal 0.998791 0.0491516 0
    outer loop
      vertex -10.6918 -0.166629 2.5
      vertex -10.7 0 0
      vertex -10.7 0 2.5
    endloop
  endfacet
  facet normal 0.998791 0.0491516 0
    outer loop
      vertex -10.7 0 0
      vertex -10.6918 -0.166629 2.5
      vertex -10.6918 -0.166629 0
    endloop
  endfacet
  facet normal 0.336921 -0.941533 0
    outer loop
      vertex -9.65056 1.57059 0
      vertex -9.49348 1.6268 2.5
      vertex -9.65056 1.57059 2.5
    endloop
  endfacet
  facet normal 0.336921 -0.941533 0
    outer loop
      vertex -9.49348 1.6268 2.5
      vertex -9.65056 1.57059 0
      vertex -9.49348 1.6268 0
    endloop
  endfacet
  facet normal -0.740932 -0.67158 0
    outer loop
      vertex -7.68588 1.07847 0
      vertex -7.79792 1.20208 2.5
      vertex -7.79792 1.20208 0
    endloop
  endfacet
  facet normal -0.740932 -0.67158 0
    outer loop
      vertex -7.79792 1.20208 2.5
      vertex -7.68588 1.07847 0
      vertex -7.68588 1.07847 2.5
    endloop
  endfacet
  facet normal -0.67158 -0.740932 0
    outer loop
      vertex -7.92153 1.31412 0
      vertex -7.79792 1.20208 2.5
      vertex -7.92153 1.31412 2.5
    endloop
  endfacet
  facet normal -0.67158 -0.740932 -0
    outer loop
      vertex -7.79792 1.20208 2.5
      vertex -7.92153 1.31412 0
      vertex -7.79792 1.20208 0
    endloop
  endfacet
  facet normal -0.989158 0.146854 0
    outer loop
      vertex 10.6673 -0.331653 0
      vertex 10.6918 -0.166629 2.5
      vertex 10.6918 -0.166629 0
    endloop
  endfacet
  facet normal -0.989158 0.146854 0
    outer loop
      vertex 10.6918 -0.166629 2.5
      vertex 10.6673 -0.331653 0
      vertex 10.6673 -0.331653 2.5
    endloop
  endfacet
  facet normal -0.998791 0.0491516 0
    outer loop
      vertex 10.6918 -0.166629 0
      vertex 10.7 0 2.5
      vertex 10.7 0 0
    endloop
  endfacet
  facet normal -0.998791 0.0491516 0
    outer loop
      vertex 10.7 0 2.5
      vertex 10.6918 -0.166629 0
      vertex 10.6918 -0.166629 2.5
    endloop
  endfacet
  facet normal -0.970083 0.242774 0
    outer loop
      vertex 10.6268 -0.493484 0
      vertex 10.6673 -0.331653 2.5
      vertex 10.6673 -0.331653 0
    endloop
  endfacet
  facet normal -0.970083 0.242774 0
    outer loop
      vertex 10.6673 -0.331653 2.5
      vertex 10.6268 -0.493484 0
      vertex 10.6268 -0.493484 2.5
    endloop
  endfacet
  facet normal -0.427517 -0.904007 0
    outer loop
      vertex 9.65056 1.57059 0
      vertex 9.80137 1.49927 2.5
      vertex 9.65056 1.57059 2.5
    endloop
  endfacet
  facet normal -0.427517 -0.904007 -0
    outer loop
      vertex 9.80137 1.49927 2.5
      vertex 9.65056 1.57059 0
      vertex 9.80137 1.49927 0
    endloop
  endfacet
  facet normal 0.0490916 0.998794 -0
    outer loop
      vertex 9 -1.7 0
      vertex 8.83337 -1.69181 2.5
      vertex 9 -1.7 2.5
    endloop
  endfacet
  facet normal 0.0490916 0.998794 0
    outer loop
      vertex 8.83337 -1.69181 2.5
      vertex 9 -1.7 0
      vertex 8.83337 -1.69181 0
    endloop
  endfacet
  facet normal 0.427494 0.904018 -0
    outer loop
      vertex 8.34944 -1.57059 0
      vertex 8.19862 -1.49927 2.5
      vertex 8.34944 -1.57059 2.5
    endloop
  endfacet
  facet normal 0.427494 0.904018 0
    outer loop
      vertex 8.19862 -1.49927 2.5
      vertex 8.34944 -1.57059 0
      vertex 8.19862 -1.49927 0
    endloop
  endfacet
  facet normal -0.741051 0.671448 0
    outer loop
      vertex 10.2021 -1.20208 0
      vertex 10.3141 -1.07847 2.5
      vertex 10.3141 -1.07847 0
    endloop
  endfacet
  facet normal -0.741051 0.671448 0
    outer loop
      vertex 10.3141 -1.07847 2.5
      vertex 10.2021 -1.20208 0
      vertex 10.2021 -1.20208 2.5
    endloop
  endfacet
  facet normal 0.14674 -0.989175 0
    outer loop
      vertex 8.66835 1.66733 0
      vertex 8.83337 1.69181 2.5
      vertex 8.66835 1.66733 2.5
    endloop
  endfacet
  facet normal 0.14674 -0.989175 0
    outer loop
      vertex 8.83337 1.69181 2.5
      vertex 8.66835 1.66733 0
      vertex 8.83337 1.69181 0
    endloop
  endfacet
  facet normal -0.427517 0.904007 0
    outer loop
      vertex 9.80137 -1.49927 0
      vertex 9.65056 -1.57059 2.5
      vertex 9.80137 -1.49927 2.5
    endloop
  endfacet
  facet normal -0.427517 0.904007 0
    outer loop
      vertex 9.65056 -1.57059 2.5
      vertex 9.80137 -1.49927 0
      vertex 9.65056 -1.57059 0
    endloop
  endfacet
  facet normal 0.14674 0.989175 -0
    outer loop
      vertex 8.83337 -1.69181 0
      vertex 8.66835 -1.66733 2.5
      vertex 8.83337 -1.69181 2.5
    endloop
  endfacet
  facet normal 0.14674 0.989175 0
    outer loop
      vertex 8.66835 -1.66733 2.5
      vertex 8.83337 -1.69181 0
      vertex 8.66835 -1.66733 0
    endloop
  endfacet
  facet normal -0.242945 -0.97004 0
    outer loop
      vertex 9.33165 1.66733 0
      vertex 9.49348 1.6268 2.5
      vertex 9.33165 1.66733 2.5
    endloop
  endfacet
  facet normal -0.242945 -0.97004 -0
    outer loop
      vertex 9.49348 1.6268 2.5
      vertex 9.33165 1.66733 0
      vertex 9.49348 1.6268 0
    endloop
  endfacet
  facet normal 0.595695 0.803211 -0
    outer loop
      vertex 8.05553 -1.4135 0
      vertex 7.92153 -1.31412 2.5
      vertex 8.05553 -1.4135 2.5
    endloop
  endfacet
  facet normal 0.595695 0.803211 0
    outer loop
      vertex 7.92153 -1.31412 2.5
      vertex 8.05553 -1.4135 0
      vertex 7.92153 -1.31412 0
    endloop
  endfacet
  facet normal 0.903988 0.427559 0
    outer loop
      vertex 7.50073 -0.801374 2.5
      vertex 7.4294 -0.650561 0
      vertex 7.4294 -0.650561 2.5
    endloop
  endfacet
  facet normal 0.903988 0.427559 0
    outer loop
      vertex 7.4294 -0.650561 0
      vertex 7.50073 -0.801374 2.5
      vertex 7.50073 -0.801374 0
    endloop
  endfacet
  facet normal 0.427494 -0.904018 0
    outer loop
      vertex 8.19862 1.49927 0
      vertex 8.34944 1.57059 2.5
      vertex 8.19862 1.49927 2.5
    endloop
  endfacet
  facet normal 0.427494 -0.904018 0
    outer loop
      vertex 8.34944 1.57059 2.5
      vertex 8.19862 1.49927 0
      vertex 8.34944 1.57059 0
    endloop
  endfacet
  facet normal -0.336921 -0.941533 0
    outer loop
      vertex 9.49348 1.6268 0
      vertex 9.65056 1.57059 2.5
      vertex 9.49348 1.6268 2.5
    endloop
  endfacet
  facet normal -0.336921 -0.941533 -0
    outer loop
      vertex 9.65056 1.57059 2.5
      vertex 9.49348 1.6268 0
      vertex 9.65056 1.57059 0
    endloop
  endfacet
  facet normal 0.595695 -0.803211 0
    outer loop
      vertex 7.92153 1.31412 0
      vertex 8.05553 1.4135 2.5
      vertex 7.92153 1.31412 2.5
    endloop
  endfacet
  facet normal 0.595695 -0.803211 0
    outer loop
      vertex 8.05553 1.4135 2.5
      vertex 7.92153 1.31412 0
      vertex 8.05553 1.4135 0
    endloop
  endfacet
  facet normal 0.903988 -0.427559 0
    outer loop
      vertex 7.4294 0.650561 2.5
      vertex 7.50073 0.801374 0
      vertex 7.50073 0.801374 2.5
    endloop
  endfacet
  facet normal 0.903988 -0.427559 0
    outer loop
      vertex 7.50073 0.801374 0
      vertex 7.4294 0.650561 2.5
      vertex 7.4294 0.650561 0
    endloop
  endfacet
  facet normal -0.514099 0.857731 0
    outer loop
      vertex 9.94447 -1.4135 0
      vertex 9.80137 -1.49927 2.5
      vertex 9.94447 -1.4135 2.5
    endloop
  endfacet
  facet normal -0.514099 0.857731 0
    outer loop
      vertex 9.80137 -1.49927 2.5
      vertex 9.94447 -1.4135 0
      vertex 9.80137 -1.49927 0
    endloop
  endfacet
  facet normal 0.998794 -0.0490918 0
    outer loop
      vertex 7.3 0 2.5
      vertex 7.30819 0.166629 0
      vertex 7.30819 0.166629 2.5
    endloop
  endfacet
  facet normal 0.998794 -0.0490918 0
    outer loop
      vertex 7.30819 0.166629 0
      vertex 7.3 0 2.5
      vertex 7.3 0 0
    endloop
  endfacet
  facet normal -0.595609 0.803275 0
    outer loop
      vertex 10.0785 -1.31412 0
      vertex 9.94447 -1.4135 2.5
      vertex 10.0785 -1.31412 2.5
    endloop
  endfacet
  facet normal -0.595609 0.803275 0
    outer loop
      vertex 9.94447 -1.4135 2.5
      vertex 10.0785 -1.31412 0
      vertex 9.94447 -1.4135 0
    endloop
  endfacet
  facet normal -0.970083 -0.242774 0
    outer loop
      vertex 10.6673 0.331653 0
      vertex 10.6268 0.493484 2.5
      vertex 10.6268 0.493484 0
    endloop
  endfacet
  facet normal -0.970083 -0.242774 0
    outer loop
      vertex 10.6268 0.493484 2.5
      vertex 10.6673 0.331653 0
      vertex 10.6673 0.331653 2.5
    endloop
  endfacet
  facet normal 0.94155 -0.336874 0
    outer loop
      vertex 7.3732 0.493484 2.5
      vertex 7.4294 0.650561 0
      vertex 7.4294 0.650561 2.5
    endloop
  endfacet
  facet normal 0.94155 -0.336874 0
    outer loop
      vertex 7.4294 0.650561 0
      vertex 7.3732 0.493484 2.5
      vertex 7.3732 0.493484 0
    endloop
  endfacet
  facet normal -0.242945 0.97004 0
    outer loop
      vertex 9.49348 -1.6268 0
      vertex 9.33165 -1.66733 2.5
      vertex 9.49348 -1.6268 2.5
    endloop
  endfacet
  facet normal -0.242945 0.97004 0
    outer loop
      vertex 9.33165 -1.66733 2.5
      vertex 9.49348 -1.6268 0
      vertex 9.33165 -1.66733 0
    endloop
  endfacet
  facet normal 0.740932 0.67158 0
    outer loop
      vertex 7.79792 -1.20208 2.5
      vertex 7.68588 -1.07847 0
      vertex 7.68588 -1.07847 2.5
    endloop
  endfacet
  facet normal 0.740932 0.67158 0
    outer loop
      vertex 7.68588 -1.07847 0
      vertex 7.79792 -1.20208 2.5
      vertex 7.79792 -1.20208 0
    endloop
  endfacet
  facet normal -0.0490916 -0.998794 0
    outer loop
      vertex 9 1.7 0
      vertex 9.16663 1.69181 2.5
      vertex 9 1.7 2.5
    endloop
  endfacet
  facet normal -0.0490916 -0.998794 -0
    outer loop
      vertex 9.16663 1.69181 2.5
      vertex 9 1.7 0
      vertex 9.16663 1.69181 0
    endloop
  endfacet
  facet normal -0.803158 0.595766 0
    outer loop
      vertex 10.3141 -1.07847 0
      vertex 10.4135 -0.944468 2.5
      vertex 10.4135 -0.944468 0
    endloop
  endfacet
  facet normal -0.803158 0.595766 0
    outer loop
      vertex 10.4135 -0.944468 2.5
      vertex 10.3141 -1.07847 0
      vertex 10.3141 -1.07847 2.5
    endloop
  endfacet
  facet normal 0.970026 -0.243 0
    outer loop
      vertex 7.33266 0.331653 2.5
      vertex 7.3732 0.493484 0
      vertex 7.3732 0.493484 2.5
    endloop
  endfacet
  facet normal 0.970026 -0.243 0
    outer loop
      vertex 7.3732 0.493484 0
      vertex 7.33266 0.331653 2.5
      vertex 7.33266 0.331653 0
    endloop
  endfacet
  facet normal -0.989158 -0.146854 0
    outer loop
      vertex 10.6918 0.166629 0
      vertex 10.6673 0.331653 2.5
      vertex 10.6673 0.331653 0
    endloop
  endfacet
  facet normal -0.989158 -0.146854 0
    outer loop
      vertex 10.6673 0.331653 2.5
      vertex 10.6918 0.166629 0
      vertex 10.6918 0.166629 2.5
    endloop
  endfacet
  facet normal -0.514099 -0.857731 0
    outer loop
      vertex 9.80137 1.49927 0
      vertex 9.94447 1.4135 2.5
      vertex 9.80137 1.49927 2.5
    endloop
  endfacet
  facet normal -0.514099 -0.857731 -0
    outer loop
      vertex 9.94447 1.4135 2.5
      vertex 9.80137 1.49927 0
      vertex 9.94447 1.4135 0
    endloop
  endfacet
  facet normal 0.94155 0.336874 0
    outer loop
      vertex 7.4294 -0.650561 2.5
      vertex 7.3732 -0.493484 0
      vertex 7.3732 -0.493484 2.5
    endloop
  endfacet
  facet normal 0.94155 0.336874 0
    outer loop
      vertex 7.3732 -0.493484 0
      vertex 7.4294 -0.650561 2.5
      vertex 7.4294 -0.650561 0
    endloop
  endfacet
  facet normal 0.989184 0.146678 0
    outer loop
      vertex 7.33266 -0.331653 2.5
      vertex 7.30819 -0.166629 0
      vertex 7.30819 -0.166629 2.5
    endloop
  endfacet
  facet normal 0.989184 0.146678 0
    outer loop
      vertex 7.30819 -0.166629 0
      vertex 7.33266 -0.331653 2.5
      vertex 7.33266 -0.331653 0
    endloop
  endfacet
  facet normal -0.904057 -0.427412 0
    outer loop
      vertex 10.5706 0.650561 0
      vertex 10.4993 0.801374 2.5
      vertex 10.4993 0.801374 0
    endloop
  endfacet
  facet normal -0.904057 -0.427412 0
    outer loop
      vertex 10.4993 0.801374 2.5
      vertex 10.5706 0.650561 0
      vertex 10.5706 0.650561 2.5
    endloop
  endfacet
  facet normal -0.336921 0.941533 0
    outer loop
      vertex 9.65056 -1.57059 0
      vertex 9.49348 -1.6268 2.5
      vertex 9.65056 -1.57059 2.5
    endloop
  endfacet
  facet normal -0.336921 0.941533 0
    outer loop
      vertex 9.49348 -1.6268 2.5
      vertex 9.65056 -1.57059 0
      vertex 9.49348 -1.6268 0
    endloop
  endfacet
  facet normal -0.998791 -0.0491516 0
    outer loop
      vertex 10.7 0 0
      vertex 10.6918 0.166629 2.5
      vertex 10.6918 0.166629 0
    endloop
  endfacet
  facet normal -0.998791 -0.0491516 0
    outer loop
      vertex 10.6918 0.166629 2.5
      vertex 10.7 0 0
      vertex 10.7 0 2.5
    endloop
  endfacet
  facet normal -0.14674 -0.989175 0
    outer loop
      vertex 9.16663 1.69181 0
      vertex 9.33165 1.66733 2.5
      vertex 9.16663 1.69181 2.5
    endloop
  endfacet
  facet normal -0.14674 -0.989175 -0
    outer loop
      vertex 9.33165 1.66733 2.5
      vertex 9.16663 1.69181 0
      vertex 9.33165 1.66733 0
    endloop
  endfacet
  facet normal -0.94155 0.336874 0
    outer loop
      vertex 10.5706 -0.650561 0
      vertex 10.6268 -0.493484 2.5
      vertex 10.6268 -0.493484 0
    endloop
  endfacet
  facet normal -0.94155 0.336874 0
    outer loop
      vertex 10.6268 -0.493484 2.5
      vertex 10.5706 -0.650561 0
      vertex 10.5706 -0.650561 2.5
    endloop
  endfacet
  facet normal -0.803158 -0.595766 0
    outer loop
      vertex 10.4135 0.944468 0
      vertex 10.3141 1.07847 2.5
      vertex 10.3141 1.07847 0
    endloop
  endfacet
  facet normal -0.803158 -0.595766 0
    outer loop
      vertex 10.3141 1.07847 2.5
      vertex 10.4135 0.944468 0
      vertex 10.4135 0.944468 2.5
    endloop
  endfacet
  facet normal -0.857642 -0.514247 0
    outer loop
      vertex 10.4993 0.801374 0
      vertex 10.4135 0.944468 2.5
      vertex 10.4135 0.944468 0
    endloop
  endfacet
  facet normal -0.857642 -0.514247 0
    outer loop
      vertex 10.4135 0.944468 2.5
      vertex 10.4993 0.801374 0
      vertex 10.4993 0.801374 2.5
    endloop
  endfacet
  facet normal 0.242945 0.97004 -0
    outer loop
      vertex 8.66835 -1.66733 0
      vertex 8.50652 -1.6268 2.5
      vertex 8.66835 -1.66733 2.5
    endloop
  endfacet
  facet normal 0.242945 0.97004 0
    outer loop
      vertex 8.50652 -1.6268 2.5
      vertex 8.66835 -1.66733 0
      vertex 8.50652 -1.6268 0
    endloop
  endfacet
  facet normal -0.94155 -0.336874 0
    outer loop
      vertex 10.6268 0.493484 0
      vertex 10.5706 0.650561 2.5
      vertex 10.5706 0.650561 0
    endloop
  endfacet
  facet normal -0.94155 -0.336874 0
    outer loop
      vertex 10.5706 0.650561 2.5
      vertex 10.6268 0.493484 0
      vertex 10.6268 0.493484 2.5
    endloop
  endfacet
  facet normal -0.0490916 0.998794 0
    outer loop
      vertex 9.16663 -1.69181 0
      vertex 9 -1.7 2.5
      vertex 9.16663 -1.69181 2.5
    endloop
  endfacet
  facet normal -0.0490916 0.998794 0
    outer loop
      vertex 9 -1.7 2.5
      vertex 9.16663 -1.69181 0
      vertex 9 -1.7 0
    endloop
  endfacet
  facet normal 0.514125 0.857715 -0
    outer loop
      vertex 8.19862 -1.49927 0
      vertex 8.05553 -1.4135 2.5
      vertex 8.19862 -1.49927 2.5
    endloop
  endfacet
  facet normal 0.514125 0.857715 0
    outer loop
      vertex 8.05553 -1.4135 2.5
      vertex 8.19862 -1.49927 0
      vertex 8.05553 -1.4135 0
    endloop
  endfacet
  facet normal -0.904057 0.427412 0
    outer loop
      vertex 10.4993 -0.801374 0
      vertex 10.5706 -0.650561 2.5
      vertex 10.5706 -0.650561 0
    endloop
  endfacet
  facet normal -0.904057 0.427412 0
    outer loop
      vertex 10.5706 -0.650561 2.5
      vertex 10.4993 -0.801374 0
      vertex 10.4993 -0.801374 2.5
    endloop
  endfacet
  facet normal -0.14674 0.989175 0
    outer loop
      vertex 9.33165 -1.66733 0
      vertex 9.16663 -1.69181 2.5
      vertex 9.33165 -1.66733 2.5
    endloop
  endfacet
  facet normal -0.14674 0.989175 0
    outer loop
      vertex 9.16663 -1.69181 2.5
      vertex 9.33165 -1.66733 0
      vertex 9.16663 -1.69181 0
    endloop
  endfacet
  facet normal 0.242945 -0.97004 0
    outer loop
      vertex 8.50652 1.6268 0
      vertex 8.66835 1.66733 2.5
      vertex 8.50652 1.6268 2.5
    endloop
  endfacet
  facet normal 0.242945 -0.97004 0
    outer loop
      vertex 8.66835 1.66733 2.5
      vertex 8.50652 1.6268 0
      vertex 8.66835 1.66733 0
    endloop
  endfacet
  facet normal 0.857721 -0.514115 0
    outer loop
      vertex 7.50073 0.801374 2.5
      vertex 7.5865 0.944468 0
      vertex 7.5865 0.944468 2.5
    endloop
  endfacet
  facet normal 0.857721 -0.514115 0
    outer loop
      vertex 7.5865 0.944468 0
      vertex 7.50073 0.801374 2.5
      vertex 7.50073 0.801374 0
    endloop
  endfacet
  facet normal -0.857642 0.514247 0
    outer loop
      vertex 10.4135 -0.944468 0
      vertex 10.4993 -0.801374 2.5
      vertex 10.4993 -0.801374 0
    endloop
  endfacet
  facet normal -0.857642 0.514247 0
    outer loop
      vertex 10.4993 -0.801374 2.5
      vertex 10.4135 -0.944468 0
      vertex 10.4135 -0.944468 2.5
    endloop
  endfacet
  facet normal 0.336921 0.941533 -0
    outer loop
      vertex 8.50652 -1.6268 0
      vertex 8.34944 -1.57059 2.5
      vertex 8.50652 -1.6268 2.5
    endloop
  endfacet
  facet normal 0.336921 0.941533 0
    outer loop
      vertex 8.34944 -1.57059 2.5
      vertex 8.50652 -1.6268 0
      vertex 8.34944 -1.57059 0
    endloop
  endfacet
  facet normal 0.740932 -0.67158 0
    outer loop
      vertex 7.68588 1.07847 2.5
      vertex 7.79792 1.20208 0
      vertex 7.79792 1.20208 2.5
    endloop
  endfacet
  facet normal 0.740932 -0.67158 0
    outer loop
      vertex 7.79792 1.20208 0
      vertex 7.68588 1.07847 2.5
      vertex 7.68588 1.07847 0
    endloop
  endfacet
  facet normal 0.67158 0.740932 -0
    outer loop
      vertex 7.92153 -1.31412 0
      vertex 7.79792 -1.20208 2.5
      vertex 7.92153 -1.31412 2.5
    endloop
  endfacet
  facet normal 0.67158 0.740932 0
    outer loop
      vertex 7.79792 -1.20208 2.5
      vertex 7.92153 -1.31412 0
      vertex 7.79792 -1.20208 0
    endloop
  endfacet
  facet normal 0.514125 -0.857715 0
    outer loop
      vertex 8.05553 1.4135 0
      vertex 8.19862 1.49927 2.5
      vertex 8.05553 1.4135 2.5
    endloop
  endfacet
  facet normal 0.514125 -0.857715 0
    outer loop
      vertex 8.19862 1.49927 2.5
      vertex 8.05553 1.4135 0
      vertex 8.19862 1.49927 0
    endloop
  endfacet
  facet normal 0.970026 0.243 0
    outer loop
      vertex 7.3732 -0.493484 2.5
      vertex 7.33266 -0.331653 0
      vertex 7.33266 -0.331653 2.5
    endloop
  endfacet
  facet normal 0.970026 0.243 0
    outer loop
      vertex 7.33266 -0.331653 0
      vertex 7.3732 -0.493484 2.5
      vertex 7.3732 -0.493484 0
    endloop
  endfacet
  facet normal -0.67161 0.740905 0
    outer loop
      vertex 10.2021 -1.20208 0
      vertex 10.0785 -1.31412 2.5
      vertex 10.2021 -1.20208 2.5
    endloop
  endfacet
  facet normal -0.67161 0.740905 0
    outer loop
      vertex 10.0785 -1.31412 2.5
      vertex 10.2021 -1.20208 0
      vertex 10.0785 -1.31412 0
    endloop
  endfacet
  facet normal 0.803215 -0.595689 0
    outer loop
      vertex 7.5865 0.944468 2.5
      vertex 7.68588 1.07847 0
      vertex 7.68588 1.07847 2.5
    endloop
  endfacet
  facet normal 0.803215 -0.595689 0
    outer loop
      vertex 7.68588 1.07847 0
      vertex 7.5865 0.944468 2.5
      vertex 7.5865 0.944468 0
    endloop
  endfacet
  facet normal 0.989184 -0.146678 0
    outer loop
      vertex 7.30819 0.166629 2.5
      vertex 7.33266 0.331653 0
      vertex 7.33266 0.331653 2.5
    endloop
  endfacet
  facet normal 0.989184 -0.146678 0
    outer loop
      vertex 7.33266 0.331653 0
      vertex 7.30819 0.166629 2.5
      vertex 7.30819 0.166629 0
    endloop
  endfacet
  facet normal -0.595609 -0.803275 0
    outer loop
      vertex 9.94447 1.4135 0
      vertex 10.0785 1.31412 2.5
      vertex 9.94447 1.4135 2.5
    endloop
  endfacet
  facet normal -0.595609 -0.803275 -0
    outer loop
      vertex 10.0785 1.31412 2.5
      vertex 9.94447 1.4135 0
      vertex 10.0785 1.31412 0
    endloop
  endfacet
  facet normal 0.67158 -0.740932 0
    outer loop
      vertex 7.79792 1.20208 0
      vertex 7.92153 1.31412 2.5
      vertex 7.79792 1.20208 2.5
    endloop
  endfacet
  facet normal 0.67158 -0.740932 0
    outer loop
      vertex 7.92153 1.31412 2.5
      vertex 7.79792 1.20208 0
      vertex 7.92153 1.31412 0
    endloop
  endfacet
  facet normal 0.803215 0.595689 0
    outer loop
      vertex 7.68588 -1.07847 2.5
      vertex 7.5865 -0.944468 0
      vertex 7.5865 -0.944468 2.5
    endloop
  endfacet
  facet normal 0.803215 0.595689 0
    outer loop
      vertex 7.5865 -0.944468 0
      vertex 7.68588 -1.07847 2.5
      vertex 7.68588 -1.07847 0
    endloop
  endfacet
  facet normal 0.857721 0.514115 0
    outer loop
      vertex 7.5865 -0.944468 2.5
      vertex 7.50073 -0.801374 0
      vertex 7.50073 -0.801374 2.5
    endloop
  endfacet
  facet normal 0.857721 0.514115 0
    outer loop
      vertex 7.50073 -0.801374 0
      vertex 7.5865 -0.944468 2.5
      vertex 7.5865 -0.944468 0
    endloop
  endfacet
  facet normal 0.0490916 -0.998794 0
    outer loop
      vertex 8.83337 1.69181 0
      vertex 9 1.7 2.5
      vertex 8.83337 1.69181 2.5
    endloop
  endfacet
  facet normal 0.0490916 -0.998794 0
    outer loop
      vertex 9 1.7 2.5
      vertex 8.83337 1.69181 0
      vertex 9 1.7 0
    endloop
  endfacet
  facet normal 0.998794 0.0490918 0
    outer loop
      vertex 7.30819 -0.166629 2.5
      vertex 7.3 0 0
      vertex 7.3 0 2.5
    endloop
  endfacet
  facet normal 0.998794 0.0490918 0
    outer loop
      vertex 7.3 0 0
      vertex 7.30819 -0.166629 2.5
      vertex 7.30819 -0.166629 0
    endloop
  endfacet
  facet normal 0.336921 -0.941533 0
    outer loop
      vertex 8.34944 1.57059 0
      vertex 8.50652 1.6268 2.5
      vertex 8.34944 1.57059 2.5
    endloop
  endfacet
  facet normal 0.336921 -0.941533 0
    outer loop
      vertex 8.50652 1.6268 2.5
      vertex 8.34944 1.57059 0
      vertex 8.50652 1.6268 0
    endloop
  endfacet
  facet normal -0.741051 -0.671448 0
    outer loop
      vertex 10.3141 1.07847 0
      vertex 10.2021 1.20208 2.5
      vertex 10.2021 1.20208 0
    endloop
  endfacet
  facet normal -0.741051 -0.671448 0
    outer loop
      vertex 10.2021 1.20208 2.5
      vertex 10.3141 1.07847 0
      vertex 10.3141 1.07847 2.5
    endloop
  endfacet
  facet normal -0.67161 -0.740905 0
    outer loop
      vertex 10.0785 1.31412 0
      vertex 10.2021 1.20208 2.5
      vertex 10.0785 1.31412 2.5
    endloop
  endfacet
  facet normal -0.67161 -0.740905 -0
    outer loop
      vertex 10.2021 1.20208 2.5
      vertex 10.0785 1.31412 0
      vertex 10.2021 1.20208 0
    endloop
  endfacet
  facet normal 1 -0 0
    outer loop
      vertex 11 -6 2.5
      vertex 11 6 0
      vertex 11 6 2.5
    endloop
  endfacet
  facet normal 1 0 0
    outer loop
      vertex 11 6 0
      vertex 11 -6 2.5
      vertex 11 -6 0
    endloop
  endfacet
  facet normal 0 1 -0
    outer loop
      vertex 11 6 0
      vertex -11 6 2.5
      vertex 11 6 2.5
    endloop
  endfacet
  facet normal 0 1 0
    outer loop
      vertex -11 6 2.5
      vertex 11 6 0
      vertex -11 6 0
    endloop
  endfacet
  facet normal 0 -1 0
    outer loop
      vertex -11 -6 0
      vertex 11 -6 2.5
      vertex -11 -6 2.5
    endloop
  endfacet
  facet normal 0 -1 -0
    outer loop
      vertex 11 -6 2.5
      vertex -11 -6 0
      vertex 11 -6 0
    endloop
  endfacet
  facet normal -1 0 0
    outer loop
      vertex -11 -6 0
      vertex -11 6 2.5
      vertex -11 6 0
    endloop
  endfacet
  facet normal -1 -0 0
    outer loop
      vertex -11 6 2.5
      vertex -11 -6 0
      vertex -11 -6 2.5
    endloop
  endfacet
  facet normal 0 0 -1
    outer loop
      vertex 11 -6 0
      vertex 10.7 0 0
      vertex 11 6 0
    endloop
  endfacet
  facet normal 0 0 -1
    outer loop
      vertex 11 -6 0
      vertex 10.6918 -0.166629 0
      vertex 10.7 0 0
    endloop
  endfacet
  facet normal 0 0 -1
    outer loop
      vertex 11 -6 0
      vertex 10.6673 -0.331653 0
      vertex 10.6918 -0.166629 0
    endloop
  endfacet
  facet normal 0 0 -1
    outer loop
      vertex 11 -6 0
      vertex 10.6268 -0.493484 0
      vertex 10.6673 -0.331653 0
    endloop
  endfacet
  facet normal 0 0 -1
    outer loop
      vertex 11 -6 0
      vertex 10.5706 -0.650561 0
      vertex 10.6268 -0.493484 0
    endloop
  endfacet
  facet normal 0 0 -1
    outer loop
      vertex 11 -6 0
      vertex 10.4993 -0.801374 0
      vertex 10.5706 -0.650561 0
    endloop
  endfacet
  facet normal 0 0 -1
    outer loop
      vertex 11 -6 0
      vertex 10.4135 -0.944468 0
      vertex 10.4993 -0.801374 0
    endloop
  endfacet
  facet normal 0 0 -1
    outer loop
      vertex 11 -6 0
      vertex 10.3141 -1.07847 0
      vertex 10.4135 -0.944468 0
    endloop
  endfacet
  facet normal 0 0 -1
    outer loop
      vertex 11 -6 0
      vertex 10.2021 -1.20208 0
      vertex 10.3141 -1.07847 0
    endloop
  endfacet
  facet normal 0 0 -1
    outer loop
      vertex 11 -6 0
      vertex 10.0785 -1.31412 0
      vertex 10.2021 -1.20208 0
    endloop
  endfacet
  facet normal 0 0 -1
    outer loop
      vertex 11 -6 0
      vertex 9.94447 -1.4135 0
      vertex 10.0785 -1.31412 0
    endloop
  endfacet
  facet normal 0 0 -1
    outer loop
      vertex 11 -6 0
      vertex 9.80137 -1.49927 0
      vertex 9.94447 -1.4135 0
    endloop
  endfacet
  facet normal 0 0 -1
    outer loop
      vertex 11 -6 0
      vertex 9.65056 -1.57059 0
      vertex 9.80137 -1.49927 0
    endloop
  endfacet
  facet normal 0 0 -1
    outer loop
      vertex 11 -6 0
      vertex 9.49348 -1.6268 0
      vertex 9.65056 -1.57059 0
    endloop
  endfacet
  facet normal 0 0 -1
    outer loop
      vertex 11 -6 0
      vertex 9.33165 -1.66733 0
      vertex 9.49348 -1.6268 0
    endloop
  endfacet
  facet normal 0 0 -1
    outer loop
      vertex 11 -6 0
      vertex 9.16663 -1.69181 0
      vertex 9.33165 -1.66733 0
    endloop
  endfacet
  facet normal 0 0 -1
    outer loop
      vertex 11 -6 0
      vertex 9 -1.7 0
      vertex 9.16663 -1.69181 0
    endloop
  endfacet
  facet normal 0 0 -1
    outer loop
      vertex 11 -6 0
      vertex 8.83337 -1.69181 0
      vertex 9 -1.7 0
    endloop
  endfacet
  facet normal 0 0 -1
    outer loop
      vertex 11 -6 0
      vertex 8.66835 -1.66733 0
      vertex 8.83337 -1.69181 0
    endloop
  endfacet
  facet normal 0 0 -1
    outer loop
      vertex 11 -6 0
      vertex 8.50652 -1.6268 0
      vertex 8.66835 -1.66733 0
    endloop
  endfacet
  facet normal 0 0 -1
    outer loop
      vertex 11 -6 0
      vertex 8.34944 -1.57059 0
      vertex 8.50652 -1.6268 0
    endloop
  endfacet
  facet normal 0 0 -1
    outer loop
      vertex 11 -6 0
      vertex 8.19862 -1.49927 0
      vertex 8.34944 -1.57059 0
    endloop
  endfacet
  facet normal 0 0 -1
    outer loop
      vertex 11 -6 0
      vertex 8.05553 -1.4135 0
      vertex 8.19862 -1.49927 0
    endloop
  endfacet
  facet normal 0 0 -1
    outer loop
      vertex 11 -6 0
      vertex 7.92153 -1.31412 0
      vertex 8.05553 -1.4135 0
    endloop
  endfacet
  facet normal 0 0 -1
    outer loop
      vertex 11 -6 0
      vertex 7.79792 -1.20208 0
      vertex 7.92153 -1.31412 0
    endloop
  endfacet
  facet normal 0 0 -1
    outer loop
      vertex -7.79792 -1.20208 0
      vertex 7.79792 -1.20208 0
      vertex 11 -6 0
    endloop
  endfacet
  facet normal 0 0 -1
    outer loop
      vertex 7.79792 -1.20208 0
      vertex -7.79792 -1.20208 0
      vertex 7.68588 -1.07847 0
    endloop
  endfacet
  facet normal 0 0 -1
    outer loop
      vertex 7.30819 -0.166629 0
      vertex -7.3 0 0
      vertex 7.3 0 0
    endloop
  endfacet
  facet normal 0 0 -1
    outer loop
      vertex -7.30819 -0.166629 0
      vertex 7.30819 -0.166629 0
      vertex 7.33266 -0.331653 0
    endloop
  endfacet
  facet normal 0 0 -1
    outer loop
      vertex -7.33266 -0.331653 0
      vertex 7.33266 -0.331653 0
      vertex 7.3732 -0.493484 0
    endloop
  endfacet
  facet normal 0 0 -1
    outer loop
      vertex -7.3732 -0.493484 0
      vertex 7.3732 -0.493484 0
      vertex 7.4294 -0.650561 0
    endloop
  endfacet
  facet normal 0 0 -1
    outer loop
      vertex -7.4294 -0.650561 0
      vertex 7.4294 -0.650561 0
      vertex 7.50073 -0.801374 0
    endloop
  endfacet
  facet normal 0 0 -1
    outer loop
      vertex -7.50073 -0.801374 0
      vertex 7.50073 -0.801374 0
      vertex 7.5865 -0.944468 0
    endloop
  endfacet
  facet normal 0 -0 -1
    outer loop
      vertex -7.68588 -1.07847 0
      vertex 7.68588 -1.07847 0
      vertex -7.79792 -1.20208 0
    endloop
  endfacet
  facet normal 0 0 -1
    outer loop
      vertex 7.30819 -0.166629 0
      vertex -7.30819 -0.166629 0
      vertex -7.3 0 0
    endloop
  endfacet
  facet normal 0 0 -1
    outer loop
      vertex 7.33266 -0.331653 0
      vertex -7.33266 -0.331653 0
      vertex -7.30819 -0.166629 0
    endloop
  endfacet
  facet normal 0 0 -1
    outer loop
      vertex 7.3732 -0.493484 0
      vertex -7.3732 -0.493484 0
      vertex -7.33266 -0.331653 0
    endloop
  endfacet
  facet normal 0 0 -1
    outer loop
      vertex 7.4294 -0.650561 0
      vertex -7.4294 -0.650561 0
      vertex -7.3732 -0.493484 0
    endloop
  endfacet
  facet normal 0 0 -1
    outer loop
      vertex 7.50073 -0.801374 0
      vertex -7.50073 -0.801374 0
      vertex -7.4294 -0.650561 0
    endloop
  endfacet
  facet normal 0 0 -1
    outer loop
      vertex 7.5865 -0.944468 0
      vertex -7.5865 -0.944468 0
      vertex -7.50073 -0.801374 0
    endloop
  endfacet
  facet normal -0 0 -1
    outer loop
      vertex 7.5865 -0.944468 0
      vertex -7.68588 -1.07847 0
      vertex -7.5865 -0.944468 0
    endloop
  endfacet
  facet normal 0 0 -1
    outer loop
      vertex 7.68588 -1.07847 0
      vertex -7.68588 -1.07847 0
      vertex 7.5865 -0.944468 0
    endloop
  endfacet
  facet normal 0 0 -1
    outer loop
      vertex 11 -6 0
      vertex -7.92153 -1.31412 0
      vertex -7.79792 -1.20208 0
    endloop
  endfacet
  facet normal 0 0 -1
    outer loop
      vertex -11 -6 0
      vertex -7.92153 -1.31412 0
      vertex 11 -6 0
    endloop
  endfacet
  facet normal 0 0 -1
    outer loop
      vertex -7.92153 -1.31412 0
      vertex -11 -6 0
      vertex -8.05553 -1.4135 0
    endloop
  endfacet
  facet normal 0 0 -1
    outer loop
      vertex -8.05553 -1.4135 0
      vertex -11 -6 0
      vertex -8.19862 -1.49927 0
    endloop
  endfacet
  facet normal 0 0 -1
    outer loop
      vertex -8.19862 -1.49927 0
      vertex -11 -6 0
      vertex -8.34944 -1.57059 0
    endloop
  endfacet
  facet normal 0 0 -1
    outer loop
      vertex -8.34944 -1.57059 0
      vertex -11 -6 0
      vertex -8.50652 -1.6268 0
    endloop
  endfacet
  facet normal 0 0 -1
    outer loop
      vertex -8.50652 -1.6268 0
      vertex -11 -6 0
      vertex -8.66835 -1.66733 0
    endloop
  endfacet
  facet normal 0 0 -1
    outer loop
      vertex -8.66835 -1.66733 0
      vertex -11 -6 0
      vertex -8.83337 -1.69181 0
    endloop
  endfacet
  facet normal 0 0 -1
    outer loop
      vertex -8.83337 -1.69181 0
      vertex -11 -6 0
      vertex -9 -1.7 0
    endloop
  endfacet
  facet normal -0 0 -1
    outer loop
      vertex -9 -1.7 0
      vertex -11 -6 0
      vertex -9.16663 -1.69181 0
    endloop
  endfacet
  facet normal -0 0 -1
    outer loop
      vertex -10.6918 -0.166629 0
      vertex -11 -6 0
      vertex -10.7 0 0
    endloop
  endfacet
  facet normal -0 0 -1
    outer loop
      vertex -10.6673 -0.331653 0
      vertex -11 -6 0
      vertex -10.6918 -0.166629 0
    endloop
  endfacet
  facet normal -0 0 -1
    outer loop
      vertex -10.6268 -0.493484 0
      vertex -11 -6 0
      vertex -10.6673 -0.331653 0
    endloop
  endfacet
  facet normal -0 0 -1
    outer loop
      vertex -10.5706 -0.650561 0
      vertex -11 -6 0
      vertex -10.6268 -0.493484 0
    endloop
  endfacet
  facet normal -0 0 -1
    outer loop
      vertex -10.4993 -0.801374 0
      vertex -11 -6 0
      vertex -10.5706 -0.650561 0
    endloop
  endfacet
  facet normal -0 0 -1
    outer loop
      vertex -10.4135 -0.944468 0
      vertex -11 -6 0
      vertex -10.4993 -0.801374 0
    endloop
  endfacet
  facet normal -0 0 -1
    outer loop
      vertex -10.3141 -1.07847 0
      vertex -11 -6 0
      vertex -10.4135 -0.944468 0
    endloop
  endfacet
  facet normal -0 0 -1
    outer loop
      vertex -10.2021 -1.20208 0
      vertex -11 -6 0
      vertex -10.3141 -1.07847 0
    endloop
  endfacet
  facet normal -0 0 -1
    outer loop
      vertex -10.0785 -1.31412 0
      vertex -11 -6 0
      vertex -10.2021 -1.20208 0
    endloop
  endfacet
  facet normal -0 0 -1
    outer loop
      vertex -9.94447 -1.4135 0
      vertex -11 -6 0
      vertex -10.0785 -1.31412 0
    endloop
  endfacet
  facet normal -0 0 -1
    outer loop
      vertex -9.80137 -1.49927 0
      vertex -11 -6 0
      vertex -9.94447 -1.4135 0
    endloop
  endfacet
  facet normal -0 0 -1
    outer loop
      vertex -9.65056 -1.57059 0
      vertex -11 -6 0
      vertex -9.80137 -1.49927 0
    endloop
  endfacet
  facet normal -0 0 -1
    outer loop
      vertex -9.49348 -1.6268 0
      vertex -11 -6 0
      vertex -9.65056 -1.57059 0
    endloop
  endfacet
  facet normal -0 0 -1
    outer loop
      vertex -9.33165 -1.66733 0
      vertex -11 -6 0
      vertex -9.49348 -1.6268 0
    endloop
  endfacet
  facet normal -0 0 -1
    outer loop
      vertex -9.16663 -1.69181 0
      vertex -11 -6 0
      vertex -9.33165 -1.66733 0
    endloop
  endfacet
  facet normal 0 0 -1
    outer loop
      vertex 10.6918 0.166629 0
      vertex 11 6 0
      vertex 10.7 0 0
    endloop
  endfacet
  facet normal 0 0 -1
    outer loop
      vertex 10.6673 0.331653 0
      vertex 11 6 0
      vertex 10.6918 0.166629 0
    endloop
  endfacet
  facet normal 0 0 -1
    outer loop
      vertex 10.6268 0.493484 0
      vertex 11 6 0
      vertex 10.6673 0.331653 0
    endloop
  endfacet
  facet normal 0 0 -1
    outer loop
      vertex 10.5706 0.650561 0
      vertex 11 6 0
      vertex 10.6268 0.493484 0
    endloop
  endfacet
  facet normal 0 0 -1
    outer loop
      vertex 10.4993 0.801374 0
      vertex 11 6 0
      vertex 10.5706 0.650561 0
    endloop
  endfacet
  facet normal 0 0 -1
    outer loop
      vertex 10.4135 0.944468 0
      vertex 11 6 0
      vertex 10.4993 0.801374 0
    endloop
  endfacet
  facet normal 0 0 -1
    outer loop
      vertex 10.3141 1.07847 0
      vertex 11 6 0
      vertex 10.4135 0.944468 0
    endloop
  endfacet
  facet normal 0 0 -1
    outer loop
      vertex 10.2021 1.20208 0
      vertex 11 6 0
      vertex 10.3141 1.07847 0
    endloop
  endfacet
  facet normal 0 0 -1
    outer loop
      vertex 10.0785 1.31412 0
      vertex 11 6 0
      vertex 10.2021 1.20208 0
    endloop
  endfacet
  facet normal 0 0 -1
    outer loop
      vertex 9.94447 1.4135 0
      vertex 11 6 0
      vertex 10.0785 1.31412 0
    endloop
  endfacet
  facet normal 0 0 -1
    outer loop
      vertex 9.80137 1.49927 0
      vertex 11 6 0
      vertex 9.94447 1.4135 0
    endloop
  endfacet
  facet normal 0 0 -1
    outer loop
      vertex 9.65056 1.57059 0
      vertex 11 6 0
      vertex 9.80137 1.49927 0
    endloop
  endfacet
  facet normal 0 0 -1
    outer loop
      vertex 9.49348 1.6268 0
      vertex 11 6 0
      vertex 9.65056 1.57059 0
    endloop
  endfacet
  facet normal 0 0 -1
    outer loop
      vertex 9.33165 1.66733 0
      vertex 11 6 0
      vertex 9.49348 1.6268 0
    endloop
  endfacet
  facet normal 0 0 -1
    outer loop
      vertex 9.16663 1.69181 0
      vertex 11 6 0
      vertex 9.33165 1.66733 0
    endloop
  endfacet
  facet normal 0 0 -1
    outer loop
      vertex 9 1.7 0
      vertex 11 6 0
      vertex 9.16663 1.69181 0
    endloop
  endfacet
  facet normal 0 0 -1
    outer loop
      vertex 8.83337 1.69181 0
      vertex 11 6 0
      vertex 9 1.7 0
    endloop
  endfacet
  facet normal 0 0 -1
    outer loop
      vertex 8.66835 1.66733 0
      vertex 11 6 0
      vertex 8.83337 1.69181 0
    endloop
  endfacet
  facet normal 0 0 -1
    outer loop
      vertex 8.50652 1.6268 0
      vertex 11 6 0
      vertex 8.66835 1.66733 0
    endloop
  endfacet
  facet normal 0 0 -1
    outer loop
      vertex 8.34944 1.57059 0
      vertex 11 6 0
      vertex 8.50652 1.6268 0
    endloop
  endfacet
  facet normal 0 0 -1
    outer loop
      vertex 8.19862 1.49927 0
      vertex 11 6 0
      vertex 8.34944 1.57059 0
    endloop
  endfacet
  facet normal 0 0 -1
    outer loop
      vertex 8.05553 1.4135 0
      vertex 11 6 0
      vertex 8.19862 1.49927 0
    endloop
  endfacet
  facet normal 0 0 -1
    outer loop
      vertex 7.92153 1.31412 0
      vertex 11 6 0
      vertex 8.05553 1.4135 0
    endloop
  endfacet
  facet normal 0 0 -1
    outer loop
      vertex 7.79792 1.20208 0
      vertex 11 6 0
      vertex 7.92153 1.31412 0
    endloop
  endfacet
  facet normal 0 0 -1
    outer loop
      vertex -7.79792 1.20208 0
      vertex 7.79792 1.20208 0
      vertex 7.68588 1.07847 0
    endloop
  endfacet
  facet normal 0 0 -1
    outer loop
      vertex -7.68588 1.07847 0
      vertex 7.68588 1.07847 0
      vertex 7.5865 0.944468 0
    endloop
  endfacet
  facet normal 0 0 -1
    outer loop
      vertex -7.3 0 0
      vertex 7.30819 0.166629 0
      vertex 7.3 0 0
    endloop
  endfacet
  facet normal 0 0 -1
    outer loop
      vertex -7.30819 0.166629 0
      vertex 7.30819 0.166629 0
      vertex -7.3 0 0
    endloop
  endfacet
  facet normal 0 0 -1
    outer loop
      vertex 7.30819 0.166629 0
      vertex -7.30819 0.166629 0
      vertex 7.33266 0.331653 0
    endloop
  endfacet
  facet normal 0 0 -1
    outer loop
      vertex -7.33266 0.331653 0
      vertex 7.33266 0.331653 0
      vertex -7.30819 0.166629 0
    endloop
  endfacet
  facet normal 0 0 -1
    outer loop
      vertex 7.33266 0.331653 0
      vertex -7.33266 0.331653 0
      vertex 7.3732 0.493484 0
    endloop
  endfacet
  facet normal 0 0 -1
    outer loop
      vertex -7.3732 0.493484 0
      vertex 7.3732 0.493484 0
      vertex -7.33266 0.331653 0
    endloop
  endfacet
  facet normal 0 0 -1
    outer loop
      vertex 7.3732 0.493484 0
      vertex -7.3732 0.493484 0
      vertex 7.4294 0.650561 0
    endloop
  endfacet
  facet normal 0 0 -1
    outer loop
      vertex -7.4294 0.650561 0
      vertex 7.4294 0.650561 0
      vertex -7.3732 0.493484 0
    endloop
  endfacet
  facet normal 0 0 -1
    outer loop
      vertex 7.4294 0.650561 0
      vertex -7.4294 0.650561 0
      vertex 7.50073 0.801374 0
    endloop
  endfacet
  facet normal 0 0 -1
    outer loop
      vertex -7.50073 0.801374 0
      vertex 7.50073 0.801374 0
      vertex -7.4294 0.650561 0
    endloop
  endfacet
  facet normal 0 0 -1
    outer loop
      vertex 7.50073 0.801374 0
      vertex -7.50073 0.801374 0
      vertex 7.5865 0.944468 0
    endloop
  endfacet
  facet normal 0 0 -1
    outer loop
      vertex -7.5865 0.944468 0
      vertex 7.5865 0.944468 0
      vertex -7.50073 0.801374 0
    endloop
  endfacet
  facet normal 0 0 -1
    outer loop
      vertex -7.68588 1.07847 0
      vertex 7.5865 0.944468 0
      vertex -7.5865 0.944468 0
    endloop
  endfacet
  facet normal 0 0 -1
    outer loop
      vertex 7.68588 1.07847 0
      vertex -7.68588 1.07847 0
      vertex -7.79792 1.20208 0
    endloop
  endfacet
  facet normal 0 0 -1
    outer loop
      vertex 7.79792 1.20208 0
      vertex -7.79792 1.20208 0
      vertex 11 6 0
    endloop
  endfacet
  facet normal 0 0 -1
    outer loop
      vertex -7.92153 1.31412 0
      vertex 11 6 0
      vertex -7.79792 1.20208 0
    endloop
  endfacet
  facet normal 0 0 -1
    outer loop
      vertex -11 6 0
      vertex -7.92153 1.31412 0
      vertex -8.05553 1.4135 0
    endloop
  endfacet
  facet normal 0 0 -1
    outer loop
      vertex -11 6 0
      vertex -8.05553 1.4135 0
      vertex -8.19862 1.49927 0
    endloop
  endfacet
  facet normal 0 0 -1
    outer loop
      vertex -11 6 0
      vertex -8.19862 1.49927 0
      vertex -8.34944 1.57059 0
    endloop
  endfacet
  facet normal 0 0 -1
    outer loop
      vertex -11 6 0
      vertex -8.34944 1.57059 0
      vertex -8.50652 1.6268 0
    endloop
  endfacet
  facet normal 0 0 -1
    outer loop
      vertex -11 6 0
      vertex -8.50652 1.6268 0
      vertex -8.66835 1.66733 0
    endloop
  endfacet
  facet normal 0 0 -1
    outer loop
      vertex -11 6 0
      vertex -8.66835 1.66733 0
      vertex -8.83337 1.69181 0
    endloop
  endfacet
  facet normal 0 0 -1
    outer loop
      vertex -11 6 0
      vertex -8.83337 1.69181 0
      vertex -9 1.7 0
    endloop
  endfacet
  facet normal 0 0 -1
    outer loop
      vertex -11 6 0
      vertex -9 1.7 0
      vertex -9.16663 1.69181 0
    endloop
  endfacet
  facet normal 0 0 -1
    outer loop
      vertex -11 6 0
      vertex -9.16663 1.69181 0
      vertex -9.33165 1.66733 0
    endloop
  endfacet
  facet normal 0 0 -1
    outer loop
      vertex -11 6 0
      vertex -10.7 0 0
      vertex -11 -6 0
    endloop
  endfacet
  facet normal 0 0 -1
    outer loop
      vertex -7.92153 1.31412 0
      vertex -11 6 0
      vertex 11 6 0
    endloop
  endfacet
  facet normal 0 0 -1
    outer loop
      vertex -9.49348 1.6268 0
      vertex -11 6 0
      vertex -9.33165 1.66733 0
    endloop
  endfacet
  facet normal 0 0 -1
    outer loop
      vertex -9.65056 1.57059 0
      vertex -11 6 0
      vertex -9.49348 1.6268 0
    endloop
  endfacet
  facet normal 0 0 -1
    outer loop
      vertex -9.80137 1.49927 0
      vertex -11 6 0
      vertex -9.65056 1.57059 0
    endloop
  endfacet
  facet normal 0 0 -1
    outer loop
      vertex -9.94447 1.4135 0
      vertex -11 6 0
      vertex -9.80137 1.49927 0
    endloop
  endfacet
  facet normal 0 0 -1
    outer loop
      vertex -10.0785 1.31412 0
      vertex -11 6 0
      vertex -9.94447 1.4135 0
    endloop
  endfacet
  facet normal 0 0 -1
    outer loop
      vertex -10.2021 1.20208 0
      vertex -11 6 0
      vertex -10.0785 1.31412 0
    endloop
  endfacet
  facet normal 0 0 -1
    outer loop
      vertex -10.3141 1.07847 0
      vertex -11 6 0
      vertex -10.2021 1.20208 0
    endloop
  endfacet
  facet normal 0 0 -1
    outer loop
      vertex -10.4135 0.944468 0
      vertex -11 6 0
      vertex -10.3141 1.07847 0
    endloop
  endfacet
  facet normal 0 0 -1
    outer loop
      vertex -10.4993 0.801374 0
      vertex -11 6 0
      vertex -10.4135 0.944468 0
    endloop
  endfacet
  facet normal 0 0 -1
    outer loop
      vertex -10.5706 0.650561 0
      vertex -11 6 0
      vertex -10.4993 0.801374 0
    endloop
  endfacet
  facet normal 0 0 -1
    outer loop
      vertex -10.6268 0.493484 0
      vertex -11 6 0
      vertex -10.5706 0.650561 0
    endloop
  endfacet
  facet normal 0 0 -1
    outer loop
      vertex -10.6673 0.331653 0
      vertex -11 6 0
      vertex -10.6268 0.493484 0
    endloop
  endfacet
  facet normal 0 0 -1
    outer loop
      vertex -10.6918 0.166629 0
      vertex -11 6 0
      vertex -10.6673 0.331653 0
    endloop
  endfacet
  facet normal 0 0 -1
    outer loop
      vertex -10.7 0 0
      vertex -11 6 0
      vertex -10.6918 0.166629 0
    endloop
  endfacet
  facet normal 0 0 1
    outer loop
      vertex 11 6 2.5
      vertex 10.7 0 2.5
      vertex 11 -6 2.5
    endloop
  endfacet
  facet normal 0 0 1
    outer loop
      vertex 11 6 2.5
      vertex 10.6918 0.166629 2.5
      vertex 10.7 0 2.5
    endloop
  endfacet
  facet normal 0 0 1
    outer loop
      vertex 11 6 2.5
      vertex 10.6673 0.331653 2.5
      vertex 10.6918 0.166629 2.5
    endloop
  endfacet
  facet normal 0 0 1
    outer loop
      vertex 11 6 2.5
      vertex 10.6268 0.493484 2.5
      vertex 10.6673 0.331653 2.5
    endloop
  endfacet
  facet normal 0 0 1
    outer loop
      vertex 11 6 2.5
      vertex 10.5706 0.650561 2.5
      vertex 10.6268 0.493484 2.5
    endloop
  endfacet
  facet normal 0 0 1
    outer loop
      vertex 11 6 2.5
      vertex 10.4993 0.801374 2.5
      vertex 10.5706 0.650561 2.5
    endloop
  endfacet
  facet normal 0 0 1
    outer loop
      vertex 11 6 2.5
      vertex 10.4135 0.944468 2.5
      vertex 10.4993 0.801374 2.5
    endloop
  endfacet
  facet normal 0 0 1
    outer loop
      vertex 11 6 2.5
      vertex 10.3141 1.07847 2.5
      vertex 10.4135 0.944468 2.5
    endloop
  endfacet
  facet normal 0 0 1
    outer loop
      vertex 11 6 2.5
      vertex 10.2021 1.20208 2.5
      vertex 10.3141 1.07847 2.5
    endloop
  endfacet
  facet normal 0 0 1
    outer loop
      vertex 11 6 2.5
      vertex 10.0785 1.31412 2.5
      vertex 10.2021 1.20208 2.5
    endloop
  endfacet
  facet normal 0 0 1
    outer loop
      vertex 11 6 2.5
      vertex 9.94447 1.4135 2.5
      vertex 10.0785 1.31412 2.5
    endloop
  endfacet
  facet normal 0 0 1
    outer loop
      vertex 11 6 2.5
      vertex 9.80137 1.49927 2.5
      vertex 9.94447 1.4135 2.5
    endloop
  endfacet
  facet normal 0 0 1
    outer loop
      vertex 11 6 2.5
      vertex 9.65056 1.57059 2.5
      vertex 9.80137 1.49927 2.5
    endloop
  endfacet
  facet normal 0 0 1
    outer loop
      vertex 11 6 2.5
      vertex 9.49348 1.6268 2.5
      vertex 9.65056 1.57059 2.5
    endloop
  endfacet
  facet normal 0 0 1
    outer loop
      vertex 11 6 2.5
      vertex 9.33165 1.66733 2.5
      vertex 9.49348 1.6268 2.5
    endloop
  endfacet
  facet normal 0 0 1
    outer loop
      vertex 11 6 2.5
      vertex 9.16663 1.69181 2.5
      vertex 9.33165 1.66733 2.5
    endloop
  endfacet
  facet normal 0 0 1
    outer loop
      vertex 11 6 2.5
      vertex 9 1.7 2.5
      vertex 9.16663 1.69181 2.5
    endloop
  endfacet
  facet normal 0 0 1
    outer loop
      vertex 11 6 2.5
      vertex 8.83337 1.69181 2.5
      vertex 9 1.7 2.5
    endloop
  endfacet
  facet normal 0 0 1
    outer loop
      vertex 11 6 2.5
      vertex 8.66835 1.66733 2.5
      vertex 8.83337 1.69181 2.5
    endloop
  endfacet
  facet normal 0 0 1
    outer loop
      vertex 11 6 2.5
      vertex 8.50652 1.6268 2.5
      vertex 8.66835 1.66733 2.5
    endloop
  endfacet
  facet normal 0 0 1
    outer loop
      vertex 11 6 2.5
      vertex 8.34944 1.57059 2.5
      vertex 8.50652 1.6268 2.5
    endloop
  endfacet
  facet normal 0 0 1
    outer loop
      vertex 11 6 2.5
      vertex 8.19862 1.49927 2.5
      vertex 8.34944 1.57059 2.5
    endloop
  endfacet
  facet normal 0 0 1
    outer loop
      vertex 11 6 2.5
      vertex 8.05553 1.4135 2.5
      vertex 8.19862 1.49927 2.5
    endloop
  endfacet
  facet normal 0 0 1
    outer loop
      vertex 11 6 2.5
      vertex 7.92153 1.31412 2.5
      vertex 8.05553 1.4135 2.5
    endloop
  endfacet
  facet normal 0 0 1
    outer loop
      vertex 11 6 2.5
      vertex 7.79792 1.20208 2.5
      vertex 7.92153 1.31412 2.5
    endloop
  endfacet
  facet normal 0 0 1
    outer loop
      vertex -7.79792 1.20208 2.5
      vertex 7.79792 1.20208 2.5
      vertex 11 6 2.5
    endloop
  endfacet
  facet normal 0 0 1
    outer loop
      vertex 7.79792 1.20208 2.5
      vertex -7.79792 1.20208 2.5
      vertex 7.68588 1.07847 2.5
    endloop
  endfacet
  facet normal 0 0 1
    outer loop
      vertex 7.30819 0.166629 2.5
      vertex -7.3 0 2.5
      vertex 7.3 0 2.5
    endloop
  endfacet
  facet normal 0 0 1
    outer loop
      vertex -7.30819 0.166629 2.5
      vertex 7.30819 0.166629 2.5
      vertex 7.33266 0.331653 2.5
    endloop
  endfacet
  facet normal 0 0 1
    outer loop
      vertex -7.33266 0.331653 2.5
      vertex 7.33266 0.331653 2.5
      vertex 7.3732 0.493484 2.5
    endloop
  endfacet
  facet normal 0 0 1
    outer loop
      vertex -7.3732 0.493484 2.5
      vertex 7.3732 0.493484 2.5
      vertex 7.4294 0.650561 2.5
    endloop
  endfacet
  facet normal 0 0 1
    outer loop
      vertex -7.4294 0.650561 2.5
      vertex 7.4294 0.650561 2.5
      vertex 7.50073 0.801374 2.5
    endloop
  endfacet
  facet normal 0 0 1
    outer loop
      vertex -7.50073 0.801374 2.5
      vertex 7.50073 0.801374 2.5
      vertex 7.5865 0.944468 2.5
    endloop
  endfacet
  facet normal 0 -0 1
    outer loop
      vertex -7.68588 1.07847 2.5
      vertex 7.68588 1.07847 2.5
      vertex -7.79792 1.20208 2.5
    endloop
  endfacet
  facet normal 0 0 1
    outer loop
      vertex 7.30819 0.166629 2.5
      vertex -7.30819 0.166629 2.5
      vertex -7.3 0 2.5
    endloop
  endfacet
  facet normal 0 0 1
    outer loop
      vertex 7.33266 0.331653 2.5
      vertex -7.33266 0.331653 2.5
      vertex -7.30819 0.166629 2.5
    endloop
  endfacet
  facet normal 0 0 1
    outer loop
      vertex 7.3732 0.493484 2.5
      vertex -7.3732 0.493484 2.5
      vertex -7.33266 0.331653 2.5
    endloop
  endfacet
  facet normal 0 0 1
    outer loop
      vertex 7.4294 0.650561 2.5
      vertex -7.4294 0.650561 2.5
      vertex -7.3732 0.493484 2.5
    endloop
  endfacet
  facet normal 0 0 1
    outer loop
      vertex 7.50073 0.801374 2.5
      vertex -7.50073 0.801374 2.5
      vertex -7.4294 0.650561 2.5
    endloop
  endfacet
  facet normal 0 0 1
    outer loop
      vertex 7.5865 0.944468 2.5
      vertex -7.5865 0.944468 2.5
      vertex -7.50073 0.801374 2.5
    endloop
  endfacet
  facet normal 0 0 1
    outer loop
      vertex 7.5865 0.944468 2.5
      vertex -7.68588 1.07847 2.5
      vertex -7.5865 0.944468 2.5
    endloop
  endfacet
  facet normal 0 0 1
    outer loop
      vertex 7.68588 1.07847 2.5
      vertex -7.68588 1.07847 2.5
      vertex 7.5865 0.944468 2.5
    endloop
  endfacet
  facet normal 0 0 1
    outer loop
      vertex 11 6 2.5
      vertex -7.92153 1.31412 2.5
      vertex -7.79792 1.20208 2.5
    endloop
  endfacet
  facet normal -0 0 1
    outer loop
      vertex -11 6 2.5
      vertex -7.92153 1.31412 2.5
      vertex 11 6 2.5
    endloop
  endfacet
  facet normal 0 0 1
    outer loop
      vertex -7.92153 1.31412 2.5
      vertex -11 6 2.5
      vertex -8.05553 1.4135 2.5
    endloop
  endfacet
  facet normal 0 0 1
    outer loop
      vertex -8.05553 1.4135 2.5
      vertex -11 6 2.5
      vertex -8.19862 1.49927 2.5
    endloop
  endfacet
  facet normal 0 0 1
    outer loop
      vertex -8.19862 1.49927 2.5
      vertex -11 6 2.5
      vertex -8.34944 1.57059 2.5
    endloop
  endfacet
  facet normal 0 0 1
    outer loop
      vertex -8.34944 1.57059 2.5
      vertex -11 6 2.5
      vertex -8.50652 1.6268 2.5
    endloop
  endfacet
  facet normal 0 0 1
    outer loop
      vertex -8.50652 1.6268 2.5
      vertex -11 6 2.5
      vertex -8.66835 1.66733 2.5
    endloop
  endfacet
  facet normal 0 0 1
    outer loop
      vertex -8.66835 1.66733 2.5
      vertex -11 6 2.5
      vertex -8.83337 1.69181 2.5
    endloop
  endfacet
  facet normal 0 0 1
    outer loop
      vertex -8.83337 1.69181 2.5
      vertex -11 6 2.5
      vertex -9 1.7 2.5
    endloop
  endfacet
  facet normal 0 0 1
    outer loop
      vertex -9 1.7 2.5
      vertex -11 6 2.5
      vertex -9.16663 1.69181 2.5
    endloop
  endfacet
  facet normal 0 0 1
    outer loop
      vertex -10.6918 0.166629 2.5
      vertex -11 6 2.5
      vertex -10.7 0 2.5
    endloop
  endfacet
  facet normal 0 0 1
    outer loop
      vertex -10.6673 0.331653 2.5
      vertex -11 6 2.5
      vertex -10.6918 0.166629 2.5
    endloop
  endfacet
  facet normal 0 0 1
    outer loop
      vertex -10.6268 0.493484 2.5
      vertex -11 6 2.5
      vertex -10.6673 0.331653 2.5
    endloop
  endfacet
  facet normal 0 0 1
    outer loop
      vertex -10.5706 0.650561 2.5
      vertex -11 6 2.5
      vertex -10.6268 0.493484 2.5
    endloop
  endfacet
  facet normal 0 0 1
    outer loop
      vertex -10.4993 0.801374 2.5
      vertex -11 6 2.5
      vertex -10.5706 0.650561 2.5
    endloop
  endfacet
  facet normal 0 0 1
    outer loop
      vertex -10.4135 0.944468 2.5
      vertex -11 6 2.5
      vertex -10.4993 0.801374 2.5
    endloop
  endfacet
  facet normal 0 0 1
    outer loop
      vertex -10.3141 1.07847 2.5
      vertex -11 6 2.5
      vertex -10.4135 0.944468 2.5
    endloop
  endfacet
  facet normal 0 0 1
    outer loop
      vertex -10.2021 1.20208 2.5
      vertex -11 6 2.5
      vertex -10.3141 1.07847 2.5
    endloop
  endfacet
  facet normal 0 0 1
    outer loop
      vertex -10.0785 1.31412 2.5
      vertex -11 6 2.5
      vertex -10.2021 1.20208 2.5
    endloop
  endfacet
  facet normal 0 0 1
    outer loop
      vertex -9.94447 1.4135 2.5
      vertex -11 6 2.5
      vertex -10.0785 1.31412 2.5
    endloop
  endfacet
  facet normal 0 0 1
    outer loop
      vertex -9.80137 1.49927 2.5
      vertex -11 6 2.5
      vertex -9.94447 1.4135 2.5
    endloop
  endfacet
  facet normal 0 0 1
    outer loop
      vertex -9.65056 1.57059 2.5
      vertex -11 6 2.5
      vertex -9.80137 1.49927 2.5
    endloop
  endfacet
  facet normal 0 0 1
    outer loop
      vertex -9.49348 1.6268 2.5
      vertex -11 6 2.5
      vertex -9.65056 1.57059 2.5
    endloop
  endfacet
  facet normal 0 0 1
    outer loop
      vertex -9.33165 1.66733 2.5
      vertex -11 6 2.5
      vertex -9.49348 1.6268 2.5
    endloop
  endfacet
  facet normal 0 0 1
    outer loop
      vertex -9.16663 1.69181 2.5
      vertex -11 6 2.5
      vertex -9.33165 1.66733 2.5
    endloop
  endfacet
  facet normal -0 0 1
    outer loop
      vertex 10.6918 -0.166629 2.5
      vertex 11 -6 2.5
      vertex 10.7 0 2.5
    endloop
  endfacet
  facet normal -0 0 1
    outer loop
      vertex 10.6673 -0.331653 2.5
      vertex 11 -6 2.5
      vertex 10.6918 -0.166629 2.5
    endloop
  endfacet
  facet normal -0 0 1
    outer loop
      vertex 10.6268 -0.493484 2.5
      vertex 11 -6 2.5
      vertex 10.6673 -0.331653 2.5
    endloop
  endfacet
  facet normal -0 0 1
    outer loop
      vertex 10.5706 -0.650561 2.5
      vertex 11 -6 2.5
      vertex 10.6268 -0.493484 2.5
    endloop
  endfacet
  facet normal -0 0 1
    outer loop
      vertex 10.4993 -0.801374 2.5
      vertex 11 -6 2.5
      vertex 10.5706 -0.650561 2.5
    endloop
  endfacet
  facet normal -0 0 1
    outer loop
      vertex 10.4135 -0.944468 2.5
      vertex 11 -6 2.5
      vertex 10.4993 -0.801374 2.5
    endloop
  endfacet
  facet normal -0 0 1
    outer loop
      vertex 10.3141 -1.07847 2.5
      vertex 11 -6 2.5
      vertex 10.4135 -0.944468 2.5
    endloop
  endfacet
  facet normal -0 0 1
    outer loop
      vertex 10.2021 -1.20208 2.5
      vertex 11 -6 2.5
      vertex 10.3141 -1.07847 2.5
    endloop
  endfacet
  facet normal -0 0 1
    outer loop
      vertex 10.0785 -1.31412 2.5
      vertex 11 -6 2.5
      vertex 10.2021 -1.20208 2.5
    endloop
  endfacet
  facet normal -0 0 1
    outer loop
      vertex 9.94447 -1.4135 2.5
      vertex 11 -6 2.5
      vertex 10.0785 -1.31412 2.5
    endloop
  endfacet
  facet normal -0 0 1
    outer loop
      vertex 9.80137 -1.49927 2.5
      vertex 11 -6 2.5
      vertex 9.94447 -1.4135 2.5
    endloop
  endfacet
  facet normal -0 0 1
    outer loop
      vertex 9.65056 -1.57059 2.5
      vertex 11 -6 2.5
      vertex 9.80137 -1.49927 2.5
    endloop
  endfacet
  facet normal -0 0 1
    outer loop
      vertex 9.49348 -1.6268 2.5
      vertex 11 -6 2.5
      vertex 9.65056 -1.57059 2.5
    endloop
  endfacet
  facet normal -0 0 1
    outer loop
      vertex 9.33165 -1.66733 2.5
      vertex 11 -6 2.5
      vertex 9.49348 -1.6268 2.5
    endloop
  endfacet
  facet normal -0 0 1
    outer loop
      vertex 9.16663 -1.69181 2.5
      vertex 11 -6 2.5
      vertex 9.33165 -1.66733 2.5
    endloop
  endfacet
  facet normal -0 0 1
    outer loop
      vertex 9 -1.7 2.5
      vertex 11 -6 2.5
      vertex 9.16663 -1.69181 2.5
    endloop
  endfacet
  facet normal 0 0 1
    outer loop
      vertex 8.83337 -1.69181 2.5
      vertex 11 -6 2.5
      vertex 9 -1.7 2.5
    endloop
  endfacet
  facet normal 0 0 1
    outer loop
      vertex 8.66835 -1.66733 2.5
      vertex 11 -6 2.5
      vertex 8.83337 -1.69181 2.5
    endloop
  endfacet
  facet normal 0 0 1
    outer loop
      vertex 8.50652 -1.6268 2.5
      vertex 11 -6 2.5
      vertex 8.66835 -1.66733 2.5
    endloop
  endfacet
  facet normal 0 0 1
    outer loop
      vertex 8.34944 -1.57059 2.5
      vertex 11 -6 2.5
      vertex 8.50652 -1.6268 2.5
    endloop
  endfacet
  facet normal 0 0 1
    outer loop
      vertex 8.19862 -1.49927 2.5
      vertex 11 -6 2.5
      vertex 8.34944 -1.57059 2.5
    endloop
  endfacet
  facet normal 0 0 1
    outer loop
      vertex 8.05553 -1.4135 2.5
      vertex 11 -6 2.5
      vertex 8.19862 -1.49927 2.5
    endloop
  endfacet
  facet normal 0 0 1
    outer loop
      vertex 7.92153 -1.31412 2.5
      vertex 11 -6 2.5
      vertex 8.05553 -1.4135 2.5
    endloop
  endfacet
  facet normal 0 0 1
    outer loop
      vertex 7.79792 -1.20208 2.5
      vertex 11 -6 2.5
      vertex 7.92153 -1.31412 2.5
    endloop
  endfacet
  facet normal 0 0 1
    outer loop
      vertex -7.79792 -1.20208 2.5
      vertex 7.79792 -1.20208 2.5
      vertex 7.68588 -1.07847 2.5
    endloop
  endfacet
  facet normal 0 0 1
    outer loop
      vertex -7.68588 -1.07847 2.5
      vertex 7.68588 -1.07847 2.5
      vertex 7.5865 -0.944468 2.5
    endloop
  endfacet
  facet normal -0 0 1
    outer loop
      vertex -7.3 0 2.5
      vertex 7.30819 -0.166629 2.5
      vertex 7.3 0 2.5
    endloop
  endfacet
  facet normal 0 0 1
    outer loop
      vertex -7.30819 -0.166629 2.5
      vertex 7.30819 -0.166629 2.5
      vertex -7.3 0 2.5
    endloop
  endfacet
  facet normal 0 0 1
    outer loop
      vertex 7.30819 -0.166629 2.5
      vertex -7.30819 -0.166629 2.5
      vertex 7.33266 -0.331653 2.5
    endloop
  endfacet
  facet normal 0 0 1
    outer loop
      vertex -7.33266 -0.331653 2.5
      vertex 7.33266 -0.331653 2.5
      vertex -7.30819 -0.166629 2.5
    endloop
  endfacet
  facet normal 0 0 1
    outer loop
      vertex 7.33266 -0.331653 2.5
      vertex -7.33266 -0.331653 2.5
      vertex 7.3732 -0.493484 2.5
    endloop
  endfacet
  facet normal 0 0 1
    outer loop
      vertex -7.3732 -0.493484 2.5
      vertex 7.3732 -0.493484 2.5
      vertex -7.33266 -0.331653 2.5
    endloop
  endfacet
  facet normal 0 0 1
    outer loop
      vertex 7.3732 -0.493484 2.5
      vertex -7.3732 -0.493484 2.5
      vertex 7.4294 -0.650561 2.5
    endloop
  endfacet
  facet normal 0 0 1
    outer loop
      vertex -7.4294 -0.650561 2.5
      vertex 7.4294 -0.650561 2.5
      vertex -7.3732 -0.493484 2.5
    endloop
  endfacet
  facet normal 0 0 1
    outer loop
      vertex 7.4294 -0.650561 2.5
      vertex -7.4294 -0.650561 2.5
      vertex 7.50073 -0.801374 2.5
    endloop
  endfacet
  facet normal 0 0 1
    outer loop
      vertex -7.50073 -0.801374 2.5
      vertex 7.50073 -0.801374 2.5
      vertex -7.4294 -0.650561 2.5
    endloop
  endfacet
  facet normal 0 0 1
    outer loop
      vertex 7.50073 -0.801374 2.5
      vertex -7.50073 -0.801374 2.5
      vertex 7.5865 -0.944468 2.5
    endloop
  endfacet
  facet normal 0 0 1
    outer loop
      vertex -7.5865 -0.944468 2.5
      vertex 7.5865 -0.944468 2.5
      vertex -7.50073 -0.801374 2.5
    endloop
  endfacet
  facet normal 0 0 1
    outer loop
      vertex -7.68588 -1.07847 2.5
      vertex 7.5865 -0.944468 2.5
      vertex -7.5865 -0.944468 2.5
    endloop
  endfacet
  facet normal 0 0 1
    outer loop
      vertex 7.68588 -1.07847 2.5
      vertex -7.68588 -1.07847 2.5
      vertex -7.79792 -1.20208 2.5
    endloop
  endfacet
  facet normal 0 0 1
    outer loop
      vertex 7.79792 -1.20208 2.5
      vertex -7.79792 -1.20208 2.5
      vertex 11 -6 2.5
    endloop
  endfacet
  facet normal -0 0 1
    outer loop
      vertex -7.92153 -1.31412 2.5
      vertex 11 -6 2.5
      vertex -7.79792 -1.20208 2.5
    endloop
  endfacet
  facet normal 0 0 1
    outer loop
      vertex -11 -6 2.5
      vertex -7.92153 -1.31412 2.5
      vertex -8.05553 -1.4135 2.5
    endloop
  endfacet
  facet normal 0 0 1
    outer loop
      vertex -11 -6 2.5
      vertex -8.05553 -1.4135 2.5
      vertex -8.19862 -1.49927 2.5
    endloop
  endfacet
  facet normal 0 0 1
    outer loop
      vertex -11 -6 2.5
      vertex -8.19862 -1.49927 2.5
      vertex -8.34944 -1.57059 2.5
    endloop
  endfacet
  facet normal 0 0 1
    outer loop
      vertex -11 -6 2.5
      vertex -8.34944 -1.57059 2.5
      vertex -8.50652 -1.6268 2.5
    endloop
  endfacet
  facet normal 0 0 1
    outer loop
      vertex -11 -6 2.5
      vertex -8.50652 -1.6268 2.5
      vertex -8.66835 -1.66733 2.5
    endloop
  endfacet
  facet normal 0 0 1
    outer loop
      vertex -11 -6 2.5
      vertex -8.66835 -1.66733 2.5
      vertex -8.83337 -1.69181 2.5
    endloop
  endfacet
  facet normal 0 0 1
    outer loop
      vertex -11 -6 2.5
      vertex -8.83337 -1.69181 2.5
      vertex -9 -1.7 2.5
    endloop
  endfacet
  facet normal 0 0 1
    outer loop
      vertex -11 -6 2.5
      vertex -9 -1.7 2.5
      vertex -9.16663 -1.69181 2.5
    endloop
  endfacet
  facet normal 0 0 1
    outer loop
      vertex -11 -6 2.5
      vertex -9.16663 -1.69181 2.5
      vertex -9.33165 -1.66733 2.5
    endloop
  endfacet
  facet normal 0 0 1
    outer loop
      vertex -11 -6 2.5
      vertex -10.7 0 2.5
      vertex -11 6 2.5
    endloop
  endfacet
  facet normal 0 0 1
    outer loop
      vertex -7.92153 -1.31412 2.5
      vertex -11 -6 2.5
      vertex 11 -6 2.5
    endloop
  endfacet
  facet normal 0 0 1
    outer loop
      vertex -9.49348 -1.6268 2.5
      vertex -11 -6 2.5
      vertex -9.33165 -1.66733 2.5
    endloop
  endfacet
  facet normal 0 0 1
    outer loop
      vertex -9.65056 -1.57059 2.5
      vertex -11 -6 2.5
      vertex -9.49348 -1.6268 2.5
    endloop
  endfacet
  facet normal 0 0 1
    outer loop
      vertex -9.80137 -1.49927 2.5
      vertex -11 -6 2.5
      vertex -9.65056 -1.57059 2.5
    endloop
  endfacet
  facet normal 0 0 1
    outer loop
      vertex -9.94447 -1.4135 2.5
      vertex -11 -6 2.5
      vertex -9.80137 -1.49927 2.5
    endloop
  endfacet
  facet normal 0 0 1
    outer loop
      vertex -10.0785 -1.31412 2.5
      vertex -11 -6 2.5
      vertex -9.94447 -1.4135 2.5
    endloop
  endfacet
  facet normal 0 0 1
    outer loop
      vertex -10.2021 -1.20208 2.5
      vertex -11 -6 2.5
      vertex -10.0785 -1.31412 2.5
    endloop
  endfacet
  facet normal 0 0 1
    outer loop
      vertex -10.3141 -1.07847 2.5
      vertex -11 -6 2.5
      vertex -10.2021 -1.20208 2.5
    endloop
  endfacet
  facet normal 0 0 1
    outer loop
      vertex -10.4135 -0.944468 2.5
      vertex -11 -6 2.5
      vertex -10.3141 -1.07847 2.5
    endloop
  endfacet
  facet normal 0 0 1
    outer loop
      vertex -10.4993 -0.801374 2.5
      vertex -11 -6 2.5
      vertex -10.4135 -0.944468 2.5
    endloop
  endfacet
  facet normal 0 0 1
    outer loop
      vertex -10.5706 -0.650561 2.5
      vertex -11 -6 2.5
      vertex -10.4993 -0.801374 2.5
    endloop
  endfacet
  facet normal 0 0 1
    outer loop
      vertex -10.6268 -0.493484 2.5
      vertex -11 -6 2.5
      vertex -10.5706 -0.650561 2.5
    endloop
  endfacet
  facet normal 0 0 1
    outer loop
      vertex -10.6673 -0.331653 2.5
      vertex -11 -6 2.5
      vertex -10.6268 -0.493484 2.5
    endloop
  endfacet
  facet normal 0 0 1
    outer loop
      vertex -10.6918 -0.166629 2.5
      vertex -11 -6 2.5
      vertex -10.6673 -0.331653 2.5
    endloop
  endfacet
  facet normal 0 0 1
    outer loop
      vertex -10.7 0 2.5
      vertex -11 -6 2.5
      vertex -10.6918 -0.166629 2.5
    endloop
  endfacet
endsolid OpenSCAD_Model
