solid OpenSCAD_Model
  facet normal -0.98077 0.195165 0
    outer loop
      vertex 82.1421 -51.44 0
      vertex 82.1855 -51.2219 3.25
      vertex 82.1855 -51.2219 0
    endloop
  endfacet
  facet normal -0.98077 0.195165 0
    outer loop
      vertex 82.1855 -51.2219 3.25
      vertex 82.1421 -51.44 0
      vertex 82.1421 -51.44 3.25
    endloop
  endfacet
  facet normal -0.997872 0.0652057 0
    outer loop
      vertex 82.1855 -51.2219 0
      vertex 82.2 -51 3.25
      vertex 82.2 -51 0
    endloop
  endfacet
  facet normal -0.997872 0.0652057 0
    outer loop
      vertex 82.2 -51 3.25
      vertex 82.1855 -51.2219 0
      vertex 82.1855 -51.2219 3.25
    endloop
  endfacet
  facet normal 0.44253 0.896754 -0
    outer loop
      vertex 79.8494 -52.5706 0
      vertex 79.65 -52.4722 3.25
      vertex 79.8494 -52.5706 3.25
    endloop
  endfacet
  facet normal 0.44253 0.896754 0
    outer loop
      vertex 79.65 -52.4722 3.25
      vertex 79.8494 -52.5706 0
      vertex 79.65 -52.4722 0
    endloop
  endfacet
  facet normal -0.555426 0.831566 0
    outer loop
      vertex 81.5349 -52.3487 0
      vertex 81.35 -52.4722 3.25
      vertex 81.5349 -52.3487 3.25
    endloop
  endfacet
  facet normal -0.555426 0.831566 0
    outer loop
      vertex 81.35 -52.4722 3.25
      vertex 81.5349 -52.3487 0
      vertex 81.35 -52.4722 0
    endloop
  endfacet
  facet normal 0.659268 0.751908 -0
    outer loop
      vertex 79.4651 -52.3487 0
      vertex 79.2979 -52.2021 3.25
      vertex 79.4651 -52.3487 3.25
    endloop
  endfacet
  facet normal 0.659268 0.751908 0
    outer loop
      vertex 79.2979 -52.2021 3.25
      vertex 79.4651 -52.3487 0
      vertex 79.2979 -52.2021 0
    endloop
  endfacet
  facet normal -0.321484 -0.946915 0
    outer loop
      vertex 80.94 -49.3579 0
      vertex 81.1506 -49.4294 3.25
      vertex 80.94 -49.3579 3.25
    endloop
  endfacet
  facet normal -0.321484 -0.946915 -0
    outer loop
      vertex 81.1506 -49.4294 3.25
      vertex 80.94 -49.3579 0
      vertex 81.1506 -49.4294 0
    endloop
  endfacet
  facet normal -0.831566 -0.555426 0
    outer loop
      vertex 81.9722 -50.15 0
      vertex 81.8487 -49.9651 3.25
      vertex 81.8487 -49.9651 0
    endloop
  endfacet
  facet normal -0.831566 -0.555426 0
    outer loop
      vertex 81.8487 -49.9651 3.25
      vertex 81.9722 -50.15 0
      vertex 81.9722 -50.15 3.25
    endloop
  endfacet
  facet normal -0.946915 -0.321484 0
    outer loop
      vertex 82.1421 -50.56 0
      vertex 82.0706 -50.3494 3.25
      vertex 82.0706 -50.3494 0
    endloop
  endfacet
  facet normal -0.946915 -0.321484 0
    outer loop
      vertex 82.0706 -50.3494 3.25
      vertex 82.1421 -50.56 0
      vertex 82.1421 -50.56 3.25
    endloop
  endfacet
  facet normal -0.321484 0.946915 0
    outer loop
      vertex 81.1506 -52.5706 0
      vertex 80.94 -52.6421 3.25
      vertex 81.1506 -52.5706 3.25
    endloop
  endfacet
  facet normal -0.321484 0.946915 0
    outer loop
      vertex 80.94 -52.6421 3.25
      vertex 81.1506 -52.5706 0
      vertex 80.94 -52.6421 0
    endloop
  endfacet
  facet normal -0.195165 0.98077 0
    outer loop
      vertex 80.94 -52.6421 0
      vertex 80.7219 -52.6855 3.25
      vertex 80.94 -52.6421 3.25
    endloop
  endfacet
  facet normal -0.195165 0.98077 0
    outer loop
      vertex 80.7219 -52.6855 3.25
      vertex 80.94 -52.6421 0
      vertex 80.7219 -52.6855 0
    endloop
  endfacet
  facet normal 0.555426 0.831566 -0
    outer loop
      vertex 79.65 -52.4722 0
      vertex 79.4651 -52.3487 3.25
      vertex 79.65 -52.4722 3.25
    endloop
  endfacet
  facet normal 0.555426 0.831566 0
    outer loop
      vertex 79.4651 -52.3487 3.25
      vertex 79.65 -52.4722 0
      vertex 79.4651 -52.3487 0
    endloop
  endfacet
  facet normal -0.896754 -0.44253 0
    outer loop
      vertex 82.0706 -50.3494 0
      vertex 81.9722 -50.15 3.25
      vertex 81.9722 -50.15 0
    endloop
  endfacet
  facet normal -0.896754 -0.44253 0
    outer loop
      vertex 81.9722 -50.15 3.25
      vertex 82.0706 -50.3494 0
      vertex 82.0706 -50.3494 3.25
    endloop
  endfacet
  facet normal -0.659268 0.751908 0
    outer loop
      vertex 81.7021 -52.2021 0
      vertex 81.5349 -52.3487 3.25
      vertex 81.7021 -52.2021 3.25
    endloop
  endfacet
  facet normal -0.659268 0.751908 0
    outer loop
      vertex 81.5349 -52.3487 3.25
      vertex 81.7021 -52.2021 0
      vertex 81.5349 -52.3487 0
    endloop
  endfacet
  facet normal -0.555426 -0.831566 0
    outer loop
      vertex 81.35 -49.5278 0
      vertex 81.5349 -49.6513 3.25
      vertex 81.35 -49.5278 3.25
    endloop
  endfacet
  facet normal -0.555426 -0.831566 -0
    outer loop
      vertex 81.5349 -49.6513 3.25
      vertex 81.35 -49.5278 0
      vertex 81.5349 -49.6513 0
    endloop
  endfacet
  facet normal -0.44253 0.896754 0
    outer loop
      vertex 81.35 -52.4722 0
      vertex 81.1506 -52.5706 3.25
      vertex 81.35 -52.4722 3.25
    endloop
  endfacet
  facet normal -0.44253 0.896754 0
    outer loop
      vertex 81.1506 -52.5706 3.25
      vertex 81.35 -52.4722 0
      vertex 81.1506 -52.5706 0
    endloop
  endfacet
  facet normal 0.659268 -0.751908 0
    outer loop
      vertex 79.2979 -49.7979 0
      vertex 79.4651 -49.6513 3.25
      vertex 79.2979 -49.7979 3.25
    endloop
  endfacet
  facet normal 0.659268 -0.751908 0
    outer loop
      vertex 79.4651 -49.6513 3.25
      vertex 79.2979 -49.7979 0
      vertex 79.4651 -49.6513 0
    endloop
  endfacet
  facet normal 0.751908 -0.659268 0
    outer loop
      vertex 79.1513 -49.9651 3.25
      vertex 79.2979 -49.7979 0
      vertex 79.2979 -49.7979 3.25
    endloop
  endfacet
  facet normal 0.751908 -0.659268 0
    outer loop
      vertex 79.2979 -49.7979 0
      vertex 79.1513 -49.9651 3.25
      vertex 79.1513 -49.9651 0
    endloop
  endfacet
  facet normal 0.831566 -0.555426 0
    outer loop
      vertex 79.0278 -50.15 3.25
      vertex 79.1513 -49.9651 0
      vertex 79.1513 -49.9651 3.25
    endloop
  endfacet
  facet normal 0.831566 -0.555426 0
    outer loop
      vertex 79.1513 -49.9651 0
      vertex 79.0278 -50.15 3.25
      vertex 79.0278 -50.15 0
    endloop
  endfacet
  facet normal -0.831566 0.555426 0
    outer loop
      vertex 81.8487 -52.0349 0
      vertex 81.9722 -51.85 3.25
      vertex 81.9722 -51.85 0
    endloop
  endfacet
  facet normal -0.831566 0.555426 0
    outer loop
      vertex 81.9722 -51.85 3.25
      vertex 81.8487 -52.0349 0
      vertex 81.8487 -52.0349 3.25
    endloop
  endfacet
  facet normal -0.195165 -0.98077 0
    outer loop
      vertex 80.7219 -49.3145 0
      vertex 80.94 -49.3579 3.25
      vertex 80.7219 -49.3145 3.25
    endloop
  endfacet
  facet normal -0.195165 -0.98077 -0
    outer loop
      vertex 80.94 -49.3579 3.25
      vertex 80.7219 -49.3145 0
      vertex 80.94 -49.3579 0
    endloop
  endfacet
  facet normal -0.98077 -0.195165 0
    outer loop
      vertex 82.1855 -50.7781 0
      vertex 82.1421 -50.56 3.25
      vertex 82.1421 -50.56 0
    endloop
  endfacet
  facet normal -0.98077 -0.195165 0
    outer loop
      vertex 82.1421 -50.56 3.25
      vertex 82.1855 -50.7781 0
      vertex 82.1855 -50.7781 3.25
    endloop
  endfacet
  facet normal 0.946915 -0.321484 0
    outer loop
      vertex 78.8579 -50.56 3.25
      vertex 78.9294 -50.3494 0
      vertex 78.9294 -50.3494 3.25
    endloop
  endfacet
  facet normal 0.946915 -0.321484 0
    outer loop
      vertex 78.9294 -50.3494 0
      vertex 78.8579 -50.56 3.25
      vertex 78.8579 -50.56 0
    endloop
  endfacet
  facet normal -0.44253 -0.896754 0
    outer loop
      vertex 81.1506 -49.4294 0
      vertex 81.35 -49.5278 3.25
      vertex 81.1506 -49.4294 3.25
    endloop
  endfacet
  facet normal -0.44253 -0.896754 -0
    outer loop
      vertex 81.35 -49.5278 3.25
      vertex 81.1506 -49.4294 0
      vertex 81.35 -49.5278 0
    endloop
  endfacet
  facet normal -0.0652057 0.997872 0
    outer loop
      vertex 80.7219 -52.6855 0
      vertex 80.5 -52.7 3.25
      vertex 80.7219 -52.6855 3.25
    endloop
  endfacet
  facet normal -0.0652057 0.997872 0
    outer loop
      vertex 80.5 -52.7 3.25
      vertex 80.7219 -52.6855 0
      vertex 80.5 -52.7 0
    endloop
  endfacet
  facet normal 0.321484 0.946915 -0
    outer loop
      vertex 80.06 -52.6421 0
      vertex 79.8494 -52.5706 3.25
      vertex 80.06 -52.6421 3.25
    endloop
  endfacet
  facet normal 0.321484 0.946915 0
    outer loop
      vertex 79.8494 -52.5706 3.25
      vertex 80.06 -52.6421 0
      vertex 79.8494 -52.5706 0
    endloop
  endfacet
  facet normal 0.195165 0.98077 -0
    outer loop
      vertex 80.2781 -52.6855 0
      vertex 80.06 -52.6421 3.25
      vertex 80.2781 -52.6855 3.25
    endloop
  endfacet
  facet normal 0.195165 0.98077 0
    outer loop
      vertex 80.06 -52.6421 3.25
      vertex 80.2781 -52.6855 0
      vertex 80.06 -52.6421 0
    endloop
  endfacet
  facet normal -0.896754 0.44253 0
    outer loop
      vertex 81.9722 -51.85 0
      vertex 82.0706 -51.6506 3.25
      vertex 82.0706 -51.6506 0
    endloop
  endfacet
  facet normal -0.896754 0.44253 0
    outer loop
      vertex 82.0706 -51.6506 3.25
      vertex 81.9722 -51.85 0
      vertex 81.9722 -51.85 3.25
    endloop
  endfacet
  facet normal -0.997872 -0.0652057 0
    outer loop
      vertex 82.2 -51 0
      vertex 82.1855 -50.7781 3.25
      vertex 82.1855 -50.7781 0
    endloop
  endfacet
  facet normal -0.997872 -0.0652057 0
    outer loop
      vertex 82.1855 -50.7781 3.25
      vertex 82.2 -51 0
      vertex 82.2 -51 3.25
    endloop
  endfacet
  facet normal -0.0652057 -0.997872 0
    outer loop
      vertex 80.5 -49.3 0
      vertex 80.7219 -49.3145 3.25
      vertex 80.5 -49.3 3.25
    endloop
  endfacet
  facet normal -0.0652057 -0.997872 -0
    outer loop
      vertex 80.7219 -49.3145 3.25
      vertex 80.5 -49.3 0
      vertex 80.7219 -49.3145 0
    endloop
  endfacet
  facet normal -0.751908 0.659268 0
    outer loop
      vertex 81.7021 -52.2021 0
      vertex 81.8487 -52.0349 3.25
      vertex 81.8487 -52.0349 0
    endloop
  endfacet
  facet normal -0.751908 0.659268 0
    outer loop
      vertex 81.8487 -52.0349 3.25
      vertex 81.7021 -52.2021 0
      vertex 81.7021 -52.2021 3.25
    endloop
  endfacet
  facet normal 0.997872 -0.0652057 0
    outer loop
      vertex 78.8 -51 3.25
      vertex 78.8145 -50.7781 0
      vertex 78.8145 -50.7781 3.25
    endloop
  endfacet
  facet normal 0.997872 -0.0652057 0
    outer loop
      vertex 78.8145 -50.7781 0
      vertex 78.8 -51 3.25
      vertex 78.8 -51 0
    endloop
  endfacet
  facet normal -0.751908 -0.659268 0
    outer loop
      vertex 81.8487 -49.9651 0
      vertex 81.7021 -49.7979 3.25
      vertex 81.7021 -49.7979 0
    endloop
  endfacet
  facet normal -0.751908 -0.659268 0
    outer loop
      vertex 81.7021 -49.7979 3.25
      vertex 81.8487 -49.9651 0
      vertex 81.8487 -49.9651 3.25
    endloop
  endfacet
  facet normal 0.751908 0.659268 0
    outer loop
      vertex 79.2979 -52.2021 3.25
      vertex 79.1513 -52.0349 0
      vertex 79.1513 -52.0349 3.25
    endloop
  endfacet
  facet normal 0.751908 0.659268 0
    outer loop
      vertex 79.1513 -52.0349 0
      vertex 79.2979 -52.2021 3.25
      vertex 79.2979 -52.2021 0
    endloop
  endfacet
  facet normal 0.831566 0.555426 0
    outer loop
      vertex 79.1513 -52.0349 3.25
      vertex 79.0278 -51.85 0
      vertex 79.0278 -51.85 3.25
    endloop
  endfacet
  facet normal 0.831566 0.555426 0
    outer loop
      vertex 79.0278 -51.85 0
      vertex 79.1513 -52.0349 3.25
      vertex 79.1513 -52.0349 0
    endloop
  endfacet
  facet normal 0.0652057 0.997872 -0
    outer loop
      vertex 80.5 -52.7 0
      vertex 80.2781 -52.6855 3.25
      vertex 80.5 -52.7 3.25
    endloop
  endfacet
  facet normal 0.0652057 0.997872 0
    outer loop
      vertex 80.2781 -52.6855 3.25
      vertex 80.5 -52.7 0
      vertex 80.2781 -52.6855 0
    endloop
  endfacet
  facet normal 0.98077 -0.195165 0
    outer loop
      vertex 78.8145 -50.7781 3.25
      vertex 78.8579 -50.56 0
      vertex 78.8579 -50.56 3.25
    endloop
  endfacet
  facet normal 0.98077 -0.195165 0
    outer loop
      vertex 78.8579 -50.56 0
      vertex 78.8145 -50.7781 3.25
      vertex 78.8145 -50.7781 0
    endloop
  endfacet
  facet normal 0.321484 -0.946915 0
    outer loop
      vertex 79.8494 -49.4294 0
      vertex 80.06 -49.3579 3.25
      vertex 79.8494 -49.4294 3.25
    endloop
  endfacet
  facet normal 0.321484 -0.946915 0
    outer loop
      vertex 80.06 -49.3579 3.25
      vertex 79.8494 -49.4294 0
      vertex 80.06 -49.3579 0
    endloop
  endfacet
  facet normal -0.946915 0.321484 0
    outer loop
      vertex 82.0706 -51.6506 0
      vertex 82.1421 -51.44 3.25
      vertex 82.1421 -51.44 0
    endloop
  endfacet
  facet normal -0.946915 0.321484 0
    outer loop
      vertex 82.1421 -51.44 3.25
      vertex 82.0706 -51.6506 0
      vertex 82.0706 -51.6506 3.25
    endloop
  endfacet
  facet normal 0.44253 -0.896754 0
    outer loop
      vertex 79.65 -49.5278 0
      vertex 79.8494 -49.4294 3.25
      vertex 79.65 -49.5278 3.25
    endloop
  endfacet
  facet normal 0.44253 -0.896754 0
    outer loop
      vertex 79.8494 -49.4294 3.25
      vertex 79.65 -49.5278 0
      vertex 79.8494 -49.4294 0
    endloop
  endfacet
  facet normal 0.555426 -0.831566 0
    outer loop
      vertex 79.4651 -49.6513 0
      vertex 79.65 -49.5278 3.25
      vertex 79.4651 -49.6513 3.25
    endloop
  endfacet
  facet normal 0.555426 -0.831566 0
    outer loop
      vertex 79.65 -49.5278 3.25
      vertex 79.4651 -49.6513 0
      vertex 79.65 -49.5278 0
    endloop
  endfacet
  facet normal 0.195165 -0.98077 0
    outer loop
      vertex 80.06 -49.3579 0
      vertex 80.2781 -49.3145 3.25
      vertex 80.06 -49.3579 3.25
    endloop
  endfacet
  facet normal 0.195165 -0.98077 0
    outer loop
      vertex 80.2781 -49.3145 3.25
      vertex 80.06 -49.3579 0
      vertex 80.2781 -49.3145 0
    endloop
  endfacet
  facet normal 0.896754 0.44253 0
    outer loop
      vertex 79.0278 -51.85 3.25
      vertex 78.9294 -51.6506 0
      vertex 78.9294 -51.6506 3.25
    endloop
  endfacet
  facet normal 0.896754 0.44253 0
    outer loop
      vertex 78.9294 -51.6506 0
      vertex 79.0278 -51.85 3.25
      vertex 79.0278 -51.85 0
    endloop
  endfacet
  facet normal 0.0652057 -0.997872 0
    outer loop
      vertex 80.2781 -49.3145 0
      vertex 80.5 -49.3 3.25
      vertex 80.2781 -49.3145 3.25
    endloop
  endfacet
  facet normal 0.0652057 -0.997872 0
    outer loop
      vertex 80.5 -49.3 3.25
      vertex 80.2781 -49.3145 0
      vertex 80.5 -49.3 0
    endloop
  endfacet
  facet normal 0.896754 -0.44253 0
    outer loop
      vertex 78.9294 -50.3494 3.25
      vertex 79.0278 -50.15 0
      vertex 79.0278 -50.15 3.25
    endloop
  endfacet
  facet normal 0.896754 -0.44253 0
    outer loop
      vertex 79.0278 -50.15 0
      vertex 78.9294 -50.3494 3.25
      vertex 78.9294 -50.3494 0
    endloop
  endfacet
  facet normal 0.997872 0.0652057 0
    outer loop
      vertex 78.8145 -51.2219 3.25
      vertex 78.8 -51 0
      vertex 78.8 -51 3.25
    endloop
  endfacet
  facet normal 0.997872 0.0652057 0
    outer loop
      vertex 78.8 -51 0
      vertex 78.8145 -51.2219 3.25
      vertex 78.8145 -51.2219 0
    endloop
  endfacet
  facet normal 0.98077 0.195165 0
    outer loop
      vertex 78.8579 -51.44 3.25
      vertex 78.8145 -51.2219 0
      vertex 78.8145 -51.2219 3.25
    endloop
  endfacet
  facet normal 0.98077 0.195165 0
    outer loop
      vertex 78.8145 -51.2219 0
      vertex 78.8579 -51.44 3.25
      vertex 78.8579 -51.44 0
    endloop
  endfacet
  facet normal 0.946915 0.321484 0
    outer loop
      vertex 78.9294 -51.6506 3.25
      vertex 78.8579 -51.44 0
      vertex 78.8579 -51.44 3.25
    endloop
  endfacet
  facet normal 0.946915 0.321484 0
    outer loop
      vertex 78.8579 -51.44 0
      vertex 78.9294 -51.6506 3.25
      vertex 78.9294 -51.6506 0
    endloop
  endfacet
  facet normal -0.659268 -0.751908 0
    outer loop
      vertex 81.5349 -49.6513 0
      vertex 81.7021 -49.7979 3.25
      vertex 81.5349 -49.6513 3.25
    endloop
  endfacet
  facet normal -0.659268 -0.751908 -0
    outer loop
      vertex 81.7021 -49.7979 3.25
      vertex 81.5349 -49.6513 0
      vertex 81.7021 -49.7979 0
    endloop
  endfacet
  facet normal -0.981113 0.193434 0
    outer loop
      vertex 112.142 -51.44 0
      vertex 112.185 -51.2219 3.25
      vertex 112.185 -51.2219 0
    endloop
  endfacet
  facet normal -0.981113 0.193434 0
    outer loop
      vertex 112.185 -51.2219 3.25
      vertex 112.142 -51.44 0
      vertex 112.142 -51.44 3.25
    endloop
  endfacet
  facet normal -0.997723 0.0674441 0
    outer loop
      vertex 112.185 -51.2219 0
      vertex 112.2 -51 3.25
      vertex 112.2 -51 0
    endloop
  endfacet
  facet normal -0.997723 0.0674441 0
    outer loop
      vertex 112.2 -51 3.25
      vertex 112.185 -51.2219 0
      vertex 112.185 -51.2219 3.25
    endloop
  endfacet
  facet normal 0.443245 0.8964 -0
    outer loop
      vertex 109.849 -52.5706 0
      vertex 109.65 -52.4722 3.25
      vertex 109.849 -52.5706 3.25
    endloop
  endfacet
  facet normal 0.443245 0.8964 0
    outer loop
      vertex 109.65 -52.4722 3.25
      vertex 109.849 -52.5706 0
      vertex 109.65 -52.4722 0
    endloop
  endfacet
  facet normal -0.555219 0.831704 0
    outer loop
      vertex 111.535 -52.3487 0
      vertex 111.35 -52.4722 3.25
      vertex 111.535 -52.3487 3.25
    endloop
  endfacet
  facet normal -0.555219 0.831704 0
    outer loop
      vertex 111.35 -52.4722 3.25
      vertex 111.535 -52.3487 0
      vertex 111.35 -52.4722 0
    endloop
  endfacet
  facet normal 0.659714 0.751516 -0
    outer loop
      vertex 109.465 -52.3487 0
      vertex 109.298 -52.2021 3.25
      vertex 109.465 -52.3487 3.25
    endloop
  endfacet
  facet normal 0.659714 0.751516 0
    outer loop
      vertex 109.298 -52.2021 3.25
      vertex 109.465 -52.3487 0
      vertex 109.298 -52.2021 0
    endloop
  endfacet
  facet normal -0.320937 -0.947101 0
    outer loop
      vertex 110.94 -49.3579 0
      vertex 111.151 -49.4294 3.25
      vertex 110.94 -49.3579 3.25
    endloop
  endfacet
  facet normal -0.320937 -0.947101 -0
    outer loop
      vertex 111.151 -49.4294 3.25
      vertex 110.94 -49.3579 0
      vertex 111.151 -49.4294 0
    endloop
  endfacet
  facet normal -0.832604 -0.553869 0
    outer loop
      vertex 111.972 -50.15 0
      vertex 111.849 -49.9651 3.25
      vertex 111.849 -49.9651 0
    endloop
  endfacet
  facet normal -0.832604 -0.553869 0
    outer loop
      vertex 111.849 -49.9651 3.25
      vertex 111.972 -50.15 0
      vertex 111.972 -50.15 3.25
    endloop
  endfacet
  facet normal -0.947598 -0.319466 0
    outer loop
      vertex 112.142 -50.56 0
      vertex 112.071 -50.3494 3.25
      vertex 112.071 -50.3494 0
    endloop
  endfacet
  facet normal -0.947598 -0.319466 0
    outer loop
      vertex 112.071 -50.3494 3.25
      vertex 112.142 -50.56 0
      vertex 112.142 -50.56 3.25
    endloop
  endfacet
  facet normal -0.320937 0.947101 0
    outer loop
      vertex 111.151 -52.5706 0
      vertex 110.94 -52.6421 3.25
      vertex 111.151 -52.5706 3.25
    endloop
  endfacet
  facet normal -0.320937 0.947101 0
    outer loop
      vertex 110.94 -52.6421 3.25
      vertex 111.151 -52.5706 0
      vertex 110.94 -52.6421 0
    endloop
  endfacet
  facet normal -0.195251 0.980753 0
    outer loop
      vertex 110.94 -52.6421 0
      vertex 110.722 -52.6855 3.25
      vertex 110.94 -52.6421 3.25
    endloop
  endfacet
  facet normal -0.195251 0.980753 0
    outer loop
      vertex 110.722 -52.6855 3.25
      vertex 110.94 -52.6421 0
      vertex 110.722 -52.6855 0
    endloop
  endfacet
  facet normal 0.555219 0.831704 -0
    outer loop
      vertex 109.65 -52.4722 0
      vertex 109.465 -52.3487 3.25
      vertex 109.65 -52.4722 3.25
    endloop
  endfacet
  facet normal 0.555219 0.831704 0
    outer loop
      vertex 109.465 -52.3487 3.25
      vertex 109.65 -52.4722 0
      vertex 109.465 -52.3487 0
    endloop
  endfacet
  facet normal -0.895681 -0.444696 0
    outer loop
      vertex 112.071 -50.3494 0
      vertex 111.972 -50.15 3.25
      vertex 111.972 -50.15 0
    endloop
  endfacet
  facet normal -0.895681 -0.444696 0
    outer loop
      vertex 111.972 -50.15 3.25
      vertex 112.071 -50.3494 0
      vertex 112.071 -50.3494 3.25
    endloop
  endfacet
  facet normal -0.659714 0.751516 0
    outer loop
      vertex 111.702 -52.2021 0
      vertex 111.535 -52.3487 3.25
      vertex 111.702 -52.2021 3.25
    endloop
  endfacet
  facet normal -0.659714 0.751516 0
    outer loop
      vertex 111.535 -52.3487 3.25
      vertex 111.702 -52.2021 0
      vertex 111.535 -52.3487 0
    endloop
  endfacet
  facet normal -0.555219 -0.831704 0
    outer loop
      vertex 111.35 -49.5278 0
      vertex 111.535 -49.6513 3.25
      vertex 111.35 -49.5278 3.25
    endloop
  endfacet
  facet normal -0.555219 -0.831704 -0
    outer loop
      vertex 111.535 -49.6513 3.25
      vertex 111.35 -49.5278 0
      vertex 111.535 -49.6513 0
    endloop
  endfacet
  facet normal -0.443245 0.8964 0
    outer loop
      vertex 111.35 -52.4722 0
      vertex 111.151 -52.5706 3.25
      vertex 111.35 -52.4722 3.25
    endloop
  endfacet
  facet normal -0.443245 0.8964 0
    outer loop
      vertex 111.151 -52.5706 3.25
      vertex 111.35 -52.4722 0
      vertex 111.151 -52.5706 0
    endloop
  endfacet
  facet normal 0.997723 0.0674441 0
    outer loop
      vertex 108.815 -51.2219 3.25
      vertex 108.8 -51 0
      vertex 108.8 -51 3.25
    endloop
  endfacet
  facet normal 0.997723 0.0674441 0
    outer loop
      vertex 108.8 -51 0
      vertex 108.815 -51.2219 3.25
      vertex 108.815 -51.2219 0
    endloop
  endfacet
  facet normal 0.659714 -0.751516 0
    outer loop
      vertex 109.298 -49.7979 0
      vertex 109.465 -49.6513 3.25
      vertex 109.298 -49.7979 3.25
    endloop
  endfacet
  facet normal 0.659714 -0.751516 0
    outer loop
      vertex 109.465 -49.6513 3.25
      vertex 109.298 -49.7979 0
      vertex 109.465 -49.6513 0
    endloop
  endfacet
  facet normal 0.751016 -0.660284 0
    outer loop
      vertex 109.151 -49.9651 3.25
      vertex 109.298 -49.7979 0
      vertex 109.298 -49.7979 3.25
    endloop
  endfacet
  facet normal 0.751016 -0.660284 0
    outer loop
      vertex 109.298 -49.7979 0
      vertex 109.151 -49.9651 3.25
      vertex 109.151 -49.9651 0
    endloop
  endfacet
  facet normal 0.832604 -0.553869 0
    outer loop
      vertex 109.028 -50.15 3.25
      vertex 109.151 -49.9651 0
      vertex 109.151 -49.9651 3.25
    endloop
  endfacet
  facet normal 0.832604 -0.553869 0
    outer loop
      vertex 109.151 -49.9651 0
      vertex 109.028 -50.15 3.25
      vertex 109.028 -50.15 0
    endloop
  endfacet
  facet normal -0.832604 0.553869 0
    outer loop
      vertex 111.849 -52.0349 0
      vertex 111.972 -51.85 3.25
      vertex 111.972 -51.85 0
    endloop
  endfacet
  facet normal -0.832604 0.553869 0
    outer loop
      vertex 111.972 -51.85 3.25
      vertex 111.849 -52.0349 0
      vertex 111.849 -52.0349 3.25
    endloop
  endfacet
  facet normal -0.195251 -0.980753 0
    outer loop
      vertex 110.722 -49.3145 0
      vertex 110.94 -49.3579 3.25
      vertex 110.722 -49.3145 3.25
    endloop
  endfacet
  facet normal -0.195251 -0.980753 -0
    outer loop
      vertex 110.94 -49.3579 3.25
      vertex 110.722 -49.3145 0
      vertex 110.94 -49.3579 0
    endloop
  endfacet
  facet normal -0.981113 -0.193434 0
    outer loop
      vertex 112.185 -50.7781 0
      vertex 112.142 -50.56 3.25
      vertex 112.142 -50.56 0
    endloop
  endfacet
  facet normal -0.981113 -0.193434 0
    outer loop
      vertex 112.142 -50.56 3.25
      vertex 112.185 -50.7781 0
      vertex 112.185 -50.7781 3.25
    endloop
  endfacet
  facet normal 0.947598 -0.319466 0
    outer loop
      vertex 108.858 -50.56 3.25
      vertex 108.929 -50.3494 0
      vertex 108.929 -50.3494 3.25
    endloop
  endfacet
  facet normal 0.947598 -0.319466 0
    outer loop
      vertex 108.929 -50.3494 0
      vertex 108.858 -50.56 3.25
      vertex 108.858 -50.56 0
    endloop
  endfacet
  facet normal -0.443245 -0.8964 0
    outer loop
      vertex 111.151 -49.4294 0
      vertex 111.35 -49.5278 3.25
      vertex 111.151 -49.4294 3.25
    endloop
  endfacet
  facet normal -0.443245 -0.8964 -0
    outer loop
      vertex 111.35 -49.5278 3.25
      vertex 111.151 -49.4294 0
      vertex 111.35 -49.5278 0
    endloop
  endfacet
  facet normal -0.0651764 0.997874 0
    outer loop
      vertex 110.722 -52.6855 0
      vertex 110.5 -52.7 3.25
      vertex 110.722 -52.6855 3.25
    endloop
  endfacet
  facet normal -0.0651764 0.997874 0
    outer loop
      vertex 110.5 -52.7 3.25
      vertex 110.722 -52.6855 0
      vertex 110.5 -52.7 0
    endloop
  endfacet
  facet normal 0.320937 0.947101 -0
    outer loop
      vertex 110.06 -52.6421 0
      vertex 109.849 -52.5706 3.25
      vertex 110.06 -52.6421 3.25
    endloop
  endfacet
  facet normal 0.320937 0.947101 0
    outer loop
      vertex 109.849 -52.5706 3.25
      vertex 110.06 -52.6421 0
      vertex 109.849 -52.5706 0
    endloop
  endfacet
  facet normal 0.195251 0.980753 -0
    outer loop
      vertex 110.278 -52.6855 0
      vertex 110.06 -52.6421 3.25
      vertex 110.278 -52.6855 3.25
    endloop
  endfacet
  facet normal 0.195251 0.980753 0
    outer loop
      vertex 110.06 -52.6421 3.25
      vertex 110.278 -52.6855 0
      vertex 110.06 -52.6421 0
    endloop
  endfacet
  facet normal -0.895681 0.444696 0
    outer loop
      vertex 111.972 -51.85 0
      vertex 112.071 -51.6506 3.25
      vertex 112.071 -51.6506 0
    endloop
  endfacet
  facet normal -0.895681 0.444696 0
    outer loop
      vertex 112.071 -51.6506 3.25
      vertex 111.972 -51.85 0
      vertex 111.972 -51.85 3.25
    endloop
  endfacet
  facet normal -0.997723 -0.0674441 0
    outer loop
      vertex 112.2 -51 0
      vertex 112.185 -50.7781 3.25
      vertex 112.185 -50.7781 0
    endloop
  endfacet
  facet normal -0.997723 -0.0674441 0
    outer loop
      vertex 112.185 -50.7781 3.25
      vertex 112.2 -51 0
      vertex 112.2 -51 3.25
    endloop
  endfacet
  facet normal -0.0651764 -0.997874 0
    outer loop
      vertex 110.5 -49.3 0
      vertex 110.722 -49.3145 3.25
      vertex 110.5 -49.3 3.25
    endloop
  endfacet
  facet normal -0.0651764 -0.997874 -0
    outer loop
      vertex 110.722 -49.3145 3.25
      vertex 110.5 -49.3 0
      vertex 110.722 -49.3145 0
    endloop
  endfacet
  facet normal -0.751016 0.660284 0
    outer loop
      vertex 111.702 -52.2021 0
      vertex 111.849 -52.0349 3.25
      vertex 111.849 -52.0349 0
    endloop
  endfacet
  facet normal -0.751016 0.660284 0
    outer loop
      vertex 111.849 -52.0349 3.25
      vertex 111.702 -52.2021 0
      vertex 111.702 -52.2021 3.25
    endloop
  endfacet
  facet normal 0.997723 -0.0674441 0
    outer loop
      vertex 108.8 -51 3.25
      vertex 108.815 -50.7781 0
      vertex 108.815 -50.7781 3.25
    endloop
  endfacet
  facet normal 0.997723 -0.0674441 0
    outer loop
      vertex 108.815 -50.7781 0
      vertex 108.8 -51 3.25
      vertex 108.8 -51 0
    endloop
  endfacet
  facet normal -0.751016 -0.660284 0
    outer loop
      vertex 111.849 -49.9651 0
      vertex 111.702 -49.7979 3.25
      vertex 111.702 -49.7979 0
    endloop
  endfacet
  facet normal -0.751016 -0.660284 0
    outer loop
      vertex 111.702 -49.7979 3.25
      vertex 111.849 -49.9651 0
      vertex 111.849 -49.9651 3.25
    endloop
  endfacet
  facet normal 0.751016 0.660284 0
    outer loop
      vertex 109.298 -52.2021 3.25
      vertex 109.151 -52.0349 0
      vertex 109.151 -52.0349 3.25
    endloop
  endfacet
  facet normal 0.751016 0.660284 0
    outer loop
      vertex 109.151 -52.0349 0
      vertex 109.298 -52.2021 3.25
      vertex 109.298 -52.2021 0
    endloop
  endfacet
  facet normal 0.832604 0.553869 0
    outer loop
      vertex 109.151 -52.0349 3.25
      vertex 109.028 -51.85 0
      vertex 109.028 -51.85 3.25
    endloop
  endfacet
  facet normal 0.832604 0.553869 0
    outer loop
      vertex 109.028 -51.85 0
      vertex 109.151 -52.0349 3.25
      vertex 109.151 -52.0349 0
    endloop
  endfacet
  facet normal 0.0651764 0.997874 -0
    outer loop
      vertex 110.5 -52.7 0
      vertex 110.278 -52.6855 3.25
      vertex 110.5 -52.7 3.25
    endloop
  endfacet
  facet normal 0.0651764 0.997874 0
    outer loop
      vertex 110.278 -52.6855 3.25
      vertex 110.5 -52.7 0
      vertex 110.278 -52.6855 0
    endloop
  endfacet
  facet normal 0.981113 -0.193434 0
    outer loop
      vertex 108.815 -50.7781 3.25
      vertex 108.858 -50.56 0
      vertex 108.858 -50.56 3.25
    endloop
  endfacet
  facet normal 0.981113 -0.193434 0
    outer loop
      vertex 108.858 -50.56 0
      vertex 108.815 -50.7781 3.25
      vertex 108.815 -50.7781 0
    endloop
  endfacet
  facet normal 0.320937 -0.947101 0
    outer loop
      vertex 109.849 -49.4294 0
      vertex 110.06 -49.3579 3.25
      vertex 109.849 -49.4294 3.25
    endloop
  endfacet
  facet normal 0.320937 -0.947101 0
    outer loop
      vertex 110.06 -49.3579 3.25
      vertex 109.849 -49.4294 0
      vertex 110.06 -49.3579 0
    endloop
  endfacet
  facet normal -0.947598 0.319466 0
    outer loop
      vertex 112.071 -51.6506 0
      vertex 112.142 -51.44 3.25
      vertex 112.142 -51.44 0
    endloop
  endfacet
  facet normal -0.947598 0.319466 0
    outer loop
      vertex 112.142 -51.44 3.25
      vertex 112.071 -51.6506 0
      vertex 112.071 -51.6506 3.25
    endloop
  endfacet
  facet normal 0.443245 -0.8964 0
    outer loop
      vertex 109.65 -49.5278 0
      vertex 109.849 -49.4294 3.25
      vertex 109.65 -49.5278 3.25
    endloop
  endfacet
  facet normal 0.443245 -0.8964 0
    outer loop
      vertex 109.849 -49.4294 3.25
      vertex 109.65 -49.5278 0
      vertex 109.849 -49.4294 0
    endloop
  endfacet
  facet normal 0.555219 -0.831704 0
    outer loop
      vertex 109.465 -49.6513 0
      vertex 109.65 -49.5278 3.25
      vertex 109.465 -49.6513 3.25
    endloop
  endfacet
  facet normal 0.555219 -0.831704 0
    outer loop
      vertex 109.65 -49.5278 3.25
      vertex 109.465 -49.6513 0
      vertex 109.65 -49.5278 0
    endloop
  endfacet
  facet normal 0.195251 -0.980753 0
    outer loop
      vertex 110.06 -49.3579 0
      vertex 110.278 -49.3145 3.25
      vertex 110.06 -49.3579 3.25
    endloop
  endfacet
  facet normal 0.195251 -0.980753 0
    outer loop
      vertex 110.278 -49.3145 3.25
      vertex 110.06 -49.3579 0
      vertex 110.278 -49.3145 0
    endloop
  endfacet
  facet normal 0.895681 0.444696 0
    outer loop
      vertex 109.028 -51.85 3.25
      vertex 108.929 -51.6506 0
      vertex 108.929 -51.6506 3.25
    endloop
  endfacet
  facet normal 0.895681 0.444696 0
    outer loop
      vertex 108.929 -51.6506 0
      vertex 109.028 -51.85 3.25
      vertex 109.028 -51.85 0
    endloop
  endfacet
  facet normal 0.0651764 -0.997874 0
    outer loop
      vertex 110.278 -49.3145 0
      vertex 110.5 -49.3 3.25
      vertex 110.278 -49.3145 3.25
    endloop
  endfacet
  facet normal 0.0651764 -0.997874 0
    outer loop
      vertex 110.5 -49.3 3.25
      vertex 110.278 -49.3145 0
      vertex 110.5 -49.3 0
    endloop
  endfacet
  facet normal 0.895681 -0.444696 0
    outer loop
      vertex 108.929 -50.3494 3.25
      vertex 109.028 -50.15 0
      vertex 109.028 -50.15 3.25
    endloop
  endfacet
  facet normal 0.895681 -0.444696 0
    outer loop
      vertex 109.028 -50.15 0
      vertex 108.929 -50.3494 3.25
      vertex 108.929 -50.3494 0
    endloop
  endfacet
  facet normal 0.981113 0.193434 0
    outer loop
      vertex 108.858 -51.44 3.25
      vertex 108.815 -51.2219 0
      vertex 108.815 -51.2219 3.25
    endloop
  endfacet
  facet normal 0.981113 0.193434 0
    outer loop
      vertex 108.815 -51.2219 0
      vertex 108.858 -51.44 3.25
      vertex 108.858 -51.44 0
    endloop
  endfacet
  facet normal 0.947598 0.319466 0
    outer loop
      vertex 108.929 -51.6506 3.25
      vertex 108.858 -51.44 0
      vertex 108.858 -51.44 3.25
    endloop
  endfacet
  facet normal 0.947598 0.319466 0
    outer loop
      vertex 108.858 -51.44 0
      vertex 108.929 -51.6506 3.25
      vertex 108.929 -51.6506 0
    endloop
  endfacet
  facet normal -0.659714 -0.751516 0
    outer loop
      vertex 111.535 -49.6513 0
      vertex 111.702 -49.7979 3.25
      vertex 111.535 -49.6513 3.25
    endloop
  endfacet
  facet normal -0.659714 -0.751516 -0
    outer loop
      vertex 111.702 -49.7979 3.25
      vertex 111.535 -49.6513 0
      vertex 111.702 -49.7979 0
    endloop
  endfacet
  facet normal 1 -0 0
    outer loop
      vertex 130.5 -56 3.25
      vertex 130.5 -44 0
      vertex 130.5 -44 3.25
    endloop
  endfacet
  facet normal 1 0 0
    outer loop
      vertex 130.5 -44 0
      vertex 130.5 -56 3.25
      vertex 130.5 -56 0
    endloop
  endfacet
  facet normal 0 0 -1
    outer loop
      vertex 112.185 -50.7781 0
      vertex 130.5 -56 0
      vertex 112.2 -51 0
    endloop
  endfacet
  facet normal 0 0 -1
    outer loop
      vertex 130.5 -56 0
      vertex 112.185 -51.2219 0
      vertex 112.2 -51 0
    endloop
  endfacet
  facet normal 0 0 -1
    outer loop
      vertex 130.5 -56 0
      vertex 112.142 -51.44 0
      vertex 112.185 -51.2219 0
    endloop
  endfacet
  facet normal 0 0 -1
    outer loop
      vertex 130.5 -56 0
      vertex 112.071 -51.6506 0
      vertex 112.142 -51.44 0
    endloop
  endfacet
  facet normal 0 0 -1
    outer loop
      vertex 130.5 -56 0
      vertex 111.972 -51.85 0
      vertex 112.071 -51.6506 0
    endloop
  endfacet
  facet normal 0 0 -1
    outer loop
      vertex 130.5 -56 0
      vertex 111.849 -52.0349 0
      vertex 111.972 -51.85 0
    endloop
  endfacet
  facet normal 0 0 -1
    outer loop
      vertex 130.5 -56 0
      vertex 111.702 -52.2021 0
      vertex 111.849 -52.0349 0
    endloop
  endfacet
  facet normal 0 0 -1
    outer loop
      vertex 130.5 -56 0
      vertex 111.535 -52.3487 0
      vertex 111.702 -52.2021 0
    endloop
  endfacet
  facet normal 0 0 -1
    outer loop
      vertex 130.5 -56 0
      vertex 111.35 -52.4722 0
      vertex 111.535 -52.3487 0
    endloop
  endfacet
  facet normal 0 0 -1
    outer loop
      vertex 130.5 -56 0
      vertex 111.151 -52.5706 0
      vertex 111.35 -52.4722 0
    endloop
  endfacet
  facet normal 0 0 -1
    outer loop
      vertex 130.5 -56 0
      vertex 110.94 -52.6421 0
      vertex 111.151 -52.5706 0
    endloop
  endfacet
  facet normal 0 0 -1
    outer loop
      vertex 130.5 -56 0
      vertex 110.722 -52.6855 0
      vertex 110.94 -52.6421 0
    endloop
  endfacet
  facet normal 0 0 -1
    outer loop
      vertex 130.5 -56 0
      vertex 110.5 -52.7 0
      vertex 110.722 -52.6855 0
    endloop
  endfacet
  facet normal 0 0 -1
    outer loop
      vertex 130.5 -56 0
      vertex 110.278 -52.6855 0
      vertex 110.5 -52.7 0
    endloop
  endfacet
  facet normal 0 0 -1
    outer loop
      vertex 108.815 -51.2219 0
      vertex 82.2 -51 0
      vertex 108.8 -51 0
    endloop
  endfacet
  facet normal 0 0 -1
    outer loop
      vertex 82.1855 -51.2219 0
      vertex 108.815 -51.2219 0
      vertex 108.858 -51.44 0
    endloop
  endfacet
  facet normal 0 0 -1
    outer loop
      vertex 82.1421 -51.44 0
      vertex 108.858 -51.44 0
      vertex 108.929 -51.6506 0
    endloop
  endfacet
  facet normal 0 0 -1
    outer loop
      vertex 82.0706 -51.6506 0
      vertex 108.929 -51.6506 0
      vertex 109.028 -51.85 0
    endloop
  endfacet
  facet normal 0 0 -1
    outer loop
      vertex 81.9722 -51.85 0
      vertex 109.028 -51.85 0
      vertex 109.151 -52.0349 0
    endloop
  endfacet
  facet normal 0 0 -1
    outer loop
      vertex 81.8487 -52.0349 0
      vertex 109.151 -52.0349 0
      vertex 109.298 -52.2021 0
    endloop
  endfacet
  facet normal 0 0 -1
    outer loop
      vertex 81.7021 -52.2021 0
      vertex 109.298 -52.2021 0
      vertex 109.465 -52.3487 0
    endloop
  endfacet
  facet normal 0 0 -1
    outer loop
      vertex 81.5349 -52.3487 0
      vertex 109.465 -52.3487 0
      vertex 109.65 -52.4722 0
    endloop
  endfacet
  facet normal 0 0 -1
    outer loop
      vertex 81.35 -52.4722 0
      vertex 109.65 -52.4722 0
      vertex 109.849 -52.5706 0
    endloop
  endfacet
  facet normal 0 0 -1
    outer loop
      vertex 81.1506 -52.5706 0
      vertex 109.849 -52.5706 0
      vertex 110.06 -52.6421 0
    endloop
  endfacet
  facet normal 0 0 -1
    outer loop
      vertex 80.94 -52.6421 0
      vertex 110.06 -52.6421 0
      vertex 110.278 -52.6855 0
    endloop
  endfacet
  facet normal 0 0 -1
    outer loop
      vertex 80.7219 -52.6855 0
      vertex 110.278 -52.6855 0
      vertex 130.5 -56 0
    endloop
  endfacet
  facet normal 0 0 -1
    outer loop
      vertex 108.815 -51.2219 0
      vertex 82.1855 -51.2219 0
      vertex 82.2 -51 0
    endloop
  endfacet
  facet normal 0 0 -1
    outer loop
      vertex 108.858 -51.44 0
      vertex 82.1421 -51.44 0
      vertex 82.1855 -51.2219 0
    endloop
  endfacet
  facet normal 0 0 -1
    outer loop
      vertex 108.929 -51.6506 0
      vertex 82.0706 -51.6506 0
      vertex 82.1421 -51.44 0
    endloop
  endfacet
  facet normal 0 0 -1
    outer loop
      vertex 109.028 -51.85 0
      vertex 81.9722 -51.85 0
      vertex 82.0706 -51.6506 0
    endloop
  endfacet
  facet normal 0 0 -1
    outer loop
      vertex 109.151 -52.0349 0
      vertex 81.8487 -52.0349 0
      vertex 81.9722 -51.85 0
    endloop
  endfacet
  facet normal 0 0 -1
    outer loop
      vertex 109.298 -52.2021 0
      vertex 81.7021 -52.2021 0
      vertex 81.8487 -52.0349 0
    endloop
  endfacet
  facet normal 0 0 -1
    outer loop
      vertex 109.465 -52.3487 0
      vertex 81.5349 -52.3487 0
      vertex 81.7021 -52.2021 0
    endloop
  endfacet
  facet normal 0 0 -1
    outer loop
      vertex 109.65 -52.4722 0
      vertex 81.35 -52.4722 0
      vertex 81.5349 -52.3487 0
    endloop
  endfacet
  facet normal 0 0 -1
    outer loop
      vertex 109.849 -52.5706 0
      vertex 81.1506 -52.5706 0
      vertex 81.35 -52.4722 0
    endloop
  endfacet
  facet normal 0 0 -1
    outer loop
      vertex 110.06 -52.6421 0
      vertex 80.94 -52.6421 0
      vertex 81.1506 -52.5706 0
    endloop
  endfacet
  facet normal 0 0 -1
    outer loop
      vertex 110.278 -52.6855 0
      vertex 80.7219 -52.6855 0
      vertex 80.94 -52.6421 0
    endloop
  endfacet
  facet normal 0 0 -1
    outer loop
      vertex 60.5 -56 0
      vertex 80.7219 -52.6855 0
      vertex 130.5 -56 0
    endloop
  endfacet
  facet normal 0 0 -1
    outer loop
      vertex 80.7219 -52.6855 0
      vertex 60.5 -56 0
      vertex 80.5 -52.7 0
    endloop
  endfacet
  facet normal -0 0 -1
    outer loop
      vertex 78.8145 -51.2219 0
      vertex 60.5 -56 0
      vertex 78.8 -51 0
    endloop
  endfacet
  facet normal -0 0 -1
    outer loop
      vertex 78.8579 -51.44 0
      vertex 60.5 -56 0
      vertex 78.8145 -51.2219 0
    endloop
  endfacet
  facet normal -0 0 -1
    outer loop
      vertex 78.9294 -51.6506 0
      vertex 60.5 -56 0
      vertex 78.8579 -51.44 0
    endloop
  endfacet
  facet normal -0 0 -1
    outer loop
      vertex 79.0278 -51.85 0
      vertex 60.5 -56 0
      vertex 78.9294 -51.6506 0
    endloop
  endfacet
  facet normal -0 0 -1
    outer loop
      vertex 79.1513 -52.0349 0
      vertex 60.5 -56 0
      vertex 79.0278 -51.85 0
    endloop
  endfacet
  facet normal -0 0 -1
    outer loop
      vertex 79.2979 -52.2021 0
      vertex 60.5 -56 0
      vertex 79.1513 -52.0349 0
    endloop
  endfacet
  facet normal -0 0 -1
    outer loop
      vertex 79.4651 -52.3487 0
      vertex 60.5 -56 0
      vertex 79.2979 -52.2021 0
    endloop
  endfacet
  facet normal -0 0 -1
    outer loop
      vertex 79.65 -52.4722 0
      vertex 60.5 -56 0
      vertex 79.4651 -52.3487 0
    endloop
  endfacet
  facet normal -0 0 -1
    outer loop
      vertex 79.8494 -52.5706 0
      vertex 60.5 -56 0
      vertex 79.65 -52.4722 0
    endloop
  endfacet
  facet normal -0 0 -1
    outer loop
      vertex 80.06 -52.6421 0
      vertex 60.5 -56 0
      vertex 79.8494 -52.5706 0
    endloop
  endfacet
  facet normal -0 0 -1
    outer loop
      vertex 80.2781 -52.6855 0
      vertex 60.5 -56 0
      vertex 80.06 -52.6421 0
    endloop
  endfacet
  facet normal -0 0 -1
    outer loop
      vertex 80.5 -52.7 0
      vertex 60.5 -56 0
      vertex 80.2781 -52.6855 0
    endloop
  endfacet
  facet normal 0 0 -1
    outer loop
      vertex 130.5 -56 0
      vertex 112.185 -50.7781 0
      vertex 130.5 -44 0
    endloop
  endfacet
  facet normal 0 0 -1
    outer loop
      vertex 112.142 -50.56 0
      vertex 130.5 -44 0
      vertex 112.185 -50.7781 0
    endloop
  endfacet
  facet normal 0 0 -1
    outer loop
      vertex 112.071 -50.3494 0
      vertex 130.5 -44 0
      vertex 112.142 -50.56 0
    endloop
  endfacet
  facet normal 0 0 -1
    outer loop
      vertex 111.972 -50.15 0
      vertex 130.5 -44 0
      vertex 112.071 -50.3494 0
    endloop
  endfacet
  facet normal 0 0 -1
    outer loop
      vertex 111.849 -49.9651 0
      vertex 130.5 -44 0
      vertex 111.972 -50.15 0
    endloop
  endfacet
  facet normal 0 0 -1
    outer loop
      vertex 111.702 -49.7979 0
      vertex 130.5 -44 0
      vertex 111.849 -49.9651 0
    endloop
  endfacet
  facet normal 0 0 -1
    outer loop
      vertex 111.535 -49.6513 0
      vertex 130.5 -44 0
      vertex 111.702 -49.7979 0
    endloop
  endfacet
  facet normal 0 0 -1
    outer loop
      vertex 111.35 -49.5278 0
      vertex 130.5 -44 0
      vertex 111.535 -49.6513 0
    endloop
  endfacet
  facet normal 0 0 -1
    outer loop
      vertex 111.151 -49.4294 0
      vertex 130.5 -44 0
      vertex 111.35 -49.5278 0
    endloop
  endfacet
  facet normal 0 0 -1
    outer loop
      vertex 110.94 -49.3579 0
      vertex 130.5 -44 0
      vertex 111.151 -49.4294 0
    endloop
  endfacet
  facet normal 0 0 -1
    outer loop
      vertex 110.722 -49.3145 0
      vertex 130.5 -44 0
      vertex 110.94 -49.3579 0
    endloop
  endfacet
  facet normal 0 0 -1
    outer loop
      vertex 110.5 -49.3 0
      vertex 130.5 -44 0
      vertex 110.722 -49.3145 0
    endloop
  endfacet
  facet normal 0 0 -1
    outer loop
      vertex 110.278 -49.3145 0
      vertex 130.5 -44 0
      vertex 110.5 -49.3 0
    endloop
  endfacet
  facet normal 0 0 -1
    outer loop
      vertex 80.7219 -49.3145 0
      vertex 110.278 -49.3145 0
      vertex 110.06 -49.3579 0
    endloop
  endfacet
  facet normal 0 0 -1
    outer loop
      vertex 82.2 -51 0
      vertex 108.815 -50.7781 0
      vertex 108.8 -51 0
    endloop
  endfacet
  facet normal 0 0 -1
    outer loop
      vertex 82.1855 -50.7781 0
      vertex 108.815 -50.7781 0
      vertex 82.2 -51 0
    endloop
  endfacet
  facet normal 0 0 -1
    outer loop
      vertex 108.815 -50.7781 0
      vertex 82.1855 -50.7781 0
      vertex 108.858 -50.56 0
    endloop
  endfacet
  facet normal 0 0 -1
    outer loop
      vertex 82.1421 -50.56 0
      vertex 108.858 -50.56 0
      vertex 82.1855 -50.7781 0
    endloop
  endfacet
  facet normal 0 0 -1
    outer loop
      vertex 108.858 -50.56 0
      vertex 82.1421 -50.56 0
      vertex 108.929 -50.3494 0
    endloop
  endfacet
  facet normal 0 0 -1
    outer loop
      vertex 82.0706 -50.3494 0
      vertex 108.929 -50.3494 0
      vertex 82.1421 -50.56 0
    endloop
  endfacet
  facet normal 0 0 -1
    outer loop
      vertex 108.929 -50.3494 0
      vertex 82.0706 -50.3494 0
      vertex 109.028 -50.15 0
    endloop
  endfacet
  facet normal 0 0 -1
    outer loop
      vertex 81.9722 -50.15 0
      vertex 109.028 -50.15 0
      vertex 82.0706 -50.3494 0
    endloop
  endfacet
  facet normal 0 0 -1
    outer loop
      vertex 109.028 -50.15 0
      vertex 81.9722 -50.15 0
      vertex 109.151 -49.9651 0
    endloop
  endfacet
  facet normal 0 0 -1
    outer loop
      vertex 81.8487 -49.9651 0
      vertex 109.151 -49.9651 0
      vertex 81.9722 -50.15 0
    endloop
  endfacet
  facet normal 0 0 -1
    outer loop
      vertex 109.151 -49.9651 0
      vertex 81.8487 -49.9651 0
      vertex 109.298 -49.7979 0
    endloop
  endfacet
  facet normal 0 0 -1
    outer loop
      vertex 81.7021 -49.7979 0
      vertex 109.298 -49.7979 0
      vertex 81.8487 -49.9651 0
    endloop
  endfacet
  facet normal 0 0 -1
    outer loop
      vertex 109.298 -49.7979 0
      vertex 81.7021 -49.7979 0
      vertex 109.465 -49.6513 0
    endloop
  endfacet
  facet normal 0 0 -1
    outer loop
      vertex 81.5349 -49.6513 0
      vertex 109.465 -49.6513 0
      vertex 81.7021 -49.7979 0
    endloop
  endfacet
  facet normal 0 0 -1
    outer loop
      vertex 109.465 -49.6513 0
      vertex 81.5349 -49.6513 0
      vertex 109.65 -49.5278 0
    endloop
  endfacet
  facet normal 0 0 -1
    outer loop
      vertex 81.35 -49.5278 0
      vertex 109.65 -49.5278 0
      vertex 81.5349 -49.6513 0
    endloop
  endfacet
  facet normal 0 0 -1
    outer loop
      vertex 109.65 -49.5278 0
      vertex 81.35 -49.5278 0
      vertex 109.849 -49.4294 0
    endloop
  endfacet
  facet normal 0 0 -1
    outer loop
      vertex 81.1506 -49.4294 0
      vertex 109.849 -49.4294 0
      vertex 81.35 -49.5278 0
    endloop
  endfacet
  facet normal 0 0 -1
    outer loop
      vertex 109.849 -49.4294 0
      vertex 81.1506 -49.4294 0
      vertex 110.06 -49.3579 0
    endloop
  endfacet
  facet normal 0 0 -1
    outer loop
      vertex 80.94 -49.3579 0
      vertex 110.06 -49.3579 0
      vertex 81.1506 -49.4294 0
    endloop
  endfacet
  facet normal 0 0 -1
    outer loop
      vertex 80.7219 -49.3145 0
      vertex 110.06 -49.3579 0
      vertex 80.94 -49.3579 0
    endloop
  endfacet
  facet normal 0 0 -1
    outer loop
      vertex 110.278 -49.3145 0
      vertex 80.7219 -49.3145 0
      vertex 130.5 -44 0
    endloop
  endfacet
  facet normal 0 0 -1
    outer loop
      vertex 60.5 -44 0
      vertex 80.7219 -49.3145 0
      vertex 80.5 -49.3 0
    endloop
  endfacet
  facet normal 0 0 -1
    outer loop
      vertex 60.5 -44 0
      vertex 80.5 -49.3 0
      vertex 80.2781 -49.3145 0
    endloop
  endfacet
  facet normal 0 0 -1
    outer loop
      vertex 60.5 -56 0
      vertex 78.8145 -50.7781 0
      vertex 78.8 -51 0
    endloop
  endfacet
  facet normal 0 0 -1
    outer loop
      vertex 60.5 -44 0
      vertex 78.8145 -50.7781 0
      vertex 60.5 -56 0
    endloop
  endfacet
  facet normal 0 0 -1
    outer loop
      vertex 78.8145 -50.7781 0
      vertex 60.5 -44 0
      vertex 78.8579 -50.56 0
    endloop
  endfacet
  facet normal 0 0 -1
    outer loop
      vertex 78.8579 -50.56 0
      vertex 60.5 -44 0
      vertex 78.9294 -50.3494 0
    endloop
  endfacet
  facet normal 0 0 -1
    outer loop
      vertex 78.9294 -50.3494 0
      vertex 60.5 -44 0
      vertex 79.0278 -50.15 0
    endloop
  endfacet
  facet normal 0 0 -1
    outer loop
      vertex 79.0278 -50.15 0
      vertex 60.5 -44 0
      vertex 79.1513 -49.9651 0
    endloop
  endfacet
  facet normal 0 0 -1
    outer loop
      vertex 79.1513 -49.9651 0
      vertex 60.5 -44 0
      vertex 79.2979 -49.7979 0
    endloop
  endfacet
  facet normal 0 0 -1
    outer loop
      vertex 79.2979 -49.7979 0
      vertex 60.5 -44 0
      vertex 79.4651 -49.6513 0
    endloop
  endfacet
  facet normal 0 0 -1
    outer loop
      vertex 79.4651 -49.6513 0
      vertex 60.5 -44 0
      vertex 79.65 -49.5278 0
    endloop
  endfacet
  facet normal 0 0 -1
    outer loop
      vertex 80.7219 -49.3145 0
      vertex 60.5 -44 0
      vertex 130.5 -44 0
    endloop
  endfacet
  facet normal 0 0 -1
    outer loop
      vertex 80.06 -49.3579 0
      vertex 60.5 -44 0
      vertex 80.2781 -49.3145 0
    endloop
  endfacet
  facet normal 0 0 -1
    outer loop
      vertex 79.8494 -49.4294 0
      vertex 60.5 -44 0
      vertex 80.06 -49.3579 0
    endloop
  endfacet
  facet normal 0 0 -1
    outer loop
      vertex 79.65 -49.5278 0
      vertex 60.5 -44 0
      vertex 79.8494 -49.4294 0
    endloop
  endfacet
  facet normal -0 0 1
    outer loop
      vertex 112.185 -50.7781 3.25
      vertex 130.5 -56 3.25
      vertex 130.5 -44 3.25
    endloop
  endfacet
  facet normal 0 0 1
    outer loop
      vertex 130.5 -56 3.25
      vertex 112.185 -50.7781 3.25
      vertex 112.2 -51 3.25
    endloop
  endfacet
  facet normal 0 0 1
    outer loop
      vertex 130.5 -44 3.25
      vertex 112.142 -50.56 3.25
      vertex 112.185 -50.7781 3.25
    endloop
  endfacet
  facet normal 0 0 1
    outer loop
      vertex 130.5 -44 3.25
      vertex 112.071 -50.3494 3.25
      vertex 112.142 -50.56 3.25
    endloop
  endfacet
  facet normal 0 0 1
    outer loop
      vertex 130.5 -44 3.25
      vertex 111.972 -50.15 3.25
      vertex 112.071 -50.3494 3.25
    endloop
  endfacet
  facet normal 0 0 1
    outer loop
      vertex 130.5 -44 3.25
      vertex 111.849 -49.9651 3.25
      vertex 111.972 -50.15 3.25
    endloop
  endfacet
  facet normal 0 0 1
    outer loop
      vertex 130.5 -44 3.25
      vertex 111.702 -49.7979 3.25
      vertex 111.849 -49.9651 3.25
    endloop
  endfacet
  facet normal 0 0 1
    outer loop
      vertex 130.5 -44 3.25
      vertex 111.535 -49.6513 3.25
      vertex 111.702 -49.7979 3.25
    endloop
  endfacet
  facet normal 0 0 1
    outer loop
      vertex 130.5 -44 3.25
      vertex 111.35 -49.5278 3.25
      vertex 111.535 -49.6513 3.25
    endloop
  endfacet
  facet normal 0 0 1
    outer loop
      vertex 130.5 -44 3.25
      vertex 111.151 -49.4294 3.25
      vertex 111.35 -49.5278 3.25
    endloop
  endfacet
  facet normal 0 0 1
    outer loop
      vertex 130.5 -44 3.25
      vertex 110.94 -49.3579 3.25
      vertex 111.151 -49.4294 3.25
    endloop
  endfacet
  facet normal 0 0 1
    outer loop
      vertex 130.5 -44 3.25
      vertex 110.722 -49.3145 3.25
      vertex 110.94 -49.3579 3.25
    endloop
  endfacet
  facet normal 0 0 1
    outer loop
      vertex 130.5 -44 3.25
      vertex 110.5 -49.3 3.25
      vertex 110.722 -49.3145 3.25
    endloop
  endfacet
  facet normal 0 0 1
    outer loop
      vertex 130.5 -44 3.25
      vertex 110.278 -49.3145 3.25
      vertex 110.5 -49.3 3.25
    endloop
  endfacet
  facet normal 0 0 1
    outer loop
      vertex 80.7219 -49.3145 3.25
      vertex 110.278 -49.3145 3.25
      vertex 130.5 -44 3.25
    endloop
  endfacet
  facet normal 0 0 1
    outer loop
      vertex 108.815 -50.7781 3.25
      vertex 82.2 -51 3.25
      vertex 108.8 -51 3.25
    endloop
  endfacet
  facet normal 0 0 1
    outer loop
      vertex 82.1855 -50.7781 3.25
      vertex 108.815 -50.7781 3.25
      vertex 108.858 -50.56 3.25
    endloop
  endfacet
  facet normal 0 0 1
    outer loop
      vertex 82.1421 -50.56 3.25
      vertex 108.858 -50.56 3.25
      vertex 108.929 -50.3494 3.25
    endloop
  endfacet
  facet normal 0 0 1
    outer loop
      vertex 82.0706 -50.3494 3.25
      vertex 108.929 -50.3494 3.25
      vertex 109.028 -50.15 3.25
    endloop
  endfacet
  facet normal 0 0 1
    outer loop
      vertex 81.9722 -50.15 3.25
      vertex 109.028 -50.15 3.25
      vertex 109.151 -49.9651 3.25
    endloop
  endfacet
  facet normal 0 0 1
    outer loop
      vertex 81.8487 -49.9651 3.25
      vertex 109.151 -49.9651 3.25
      vertex 109.298 -49.7979 3.25
    endloop
  endfacet
  facet normal 0 0 1
    outer loop
      vertex 81.7021 -49.7979 3.25
      vertex 109.298 -49.7979 3.25
      vertex 109.465 -49.6513 3.25
    endloop
  endfacet
  facet normal 0 0 1
    outer loop
      vertex 81.5349 -49.6513 3.25
      vertex 109.465 -49.6513 3.25
      vertex 109.65 -49.5278 3.25
    endloop
  endfacet
  facet normal 0 0 1
    outer loop
      vertex 81.35 -49.5278 3.25
      vertex 109.65 -49.5278 3.25
      vertex 109.849 -49.4294 3.25
    endloop
  endfacet
  facet normal 0 0 1
    outer loop
      vertex 81.1506 -49.4294 3.25
      vertex 109.849 -49.4294 3.25
      vertex 110.06 -49.3579 3.25
    endloop
  endfacet
  facet normal 0 0 1
    outer loop
      vertex 110.278 -49.3145 3.25
      vertex 80.7219 -49.3145 3.25
      vertex 110.06 -49.3579 3.25
    endloop
  endfacet
  facet normal 0 0 1
    outer loop
      vertex 108.815 -50.7781 3.25
      vertex 82.1855 -50.7781 3.25
      vertex 82.2 -51 3.25
    endloop
  endfacet
  facet normal 0 0 1
    outer loop
      vertex 108.858 -50.56 3.25
      vertex 82.1421 -50.56 3.25
      vertex 82.1855 -50.7781 3.25
    endloop
  endfacet
  facet normal 0 0 1
    outer loop
      vertex 108.929 -50.3494 3.25
      vertex 82.0706 -50.3494 3.25
      vertex 82.1421 -50.56 3.25
    endloop
  endfacet
  facet normal 0 0 1
    outer loop
      vertex 109.028 -50.15 3.25
      vertex 81.9722 -50.15 3.25
      vertex 82.0706 -50.3494 3.25
    endloop
  endfacet
  facet normal 0 0 1
    outer loop
      vertex 109.151 -49.9651 3.25
      vertex 81.8487 -49.9651 3.25
      vertex 81.9722 -50.15 3.25
    endloop
  endfacet
  facet normal 0 0 1
    outer loop
      vertex 109.298 -49.7979 3.25
      vertex 81.7021 -49.7979 3.25
      vertex 81.8487 -49.9651 3.25
    endloop
  endfacet
  facet normal 0 0 1
    outer loop
      vertex 109.465 -49.6513 3.25
      vertex 81.5349 -49.6513 3.25
      vertex 81.7021 -49.7979 3.25
    endloop
  endfacet
  facet normal 0 0 1
    outer loop
      vertex 109.65 -49.5278 3.25
      vertex 81.35 -49.5278 3.25
      vertex 81.5349 -49.6513 3.25
    endloop
  endfacet
  facet normal 0 0 1
    outer loop
      vertex 109.849 -49.4294 3.25
      vertex 81.1506 -49.4294 3.25
      vertex 81.35 -49.5278 3.25
    endloop
  endfacet
  facet normal 0 0 1
    outer loop
      vertex 110.06 -49.3579 3.25
      vertex 80.94 -49.3579 3.25
      vertex 81.1506 -49.4294 3.25
    endloop
  endfacet
  facet normal 0 0 1
    outer loop
      vertex 110.06 -49.3579 3.25
      vertex 80.7219 -49.3145 3.25
      vertex 80.94 -49.3579 3.25
    endloop
  endfacet
  facet normal -0 0 1
    outer loop
      vertex 60.5 -44 3.25
      vertex 80.7219 -49.3145 3.25
      vertex 130.5 -44 3.25
    endloop
  endfacet
  facet normal 0 0 1
    outer loop
      vertex 80.7219 -49.3145 3.25
      vertex 60.5 -44 3.25
      vertex 80.5 -49.3 3.25
    endloop
  endfacet
  facet normal 0 0 1
    outer loop
      vertex 60.5 -56 3.25
      vertex 78.8145 -50.7781 3.25
      vertex 60.5 -44 3.25
    endloop
  endfacet
  facet normal 0 0 1
    outer loop
      vertex 78.8579 -50.56 3.25
      vertex 60.5 -44 3.25
      vertex 78.8145 -50.7781 3.25
    endloop
  endfacet
  facet normal 0 0 1
    outer loop
      vertex 78.9294 -50.3494 3.25
      vertex 60.5 -44 3.25
      vertex 78.8579 -50.56 3.25
    endloop
  endfacet
  facet normal 0 0 1
    outer loop
      vertex 79.0278 -50.15 3.25
      vertex 60.5 -44 3.25
      vertex 78.9294 -50.3494 3.25
    endloop
  endfacet
  facet normal 0 0 1
    outer loop
      vertex 79.1513 -49.9651 3.25
      vertex 60.5 -44 3.25
      vertex 79.0278 -50.15 3.25
    endloop
  endfacet
  facet normal 0 0 1
    outer loop
      vertex 79.2979 -49.7979 3.25
      vertex 60.5 -44 3.25
      vertex 79.1513 -49.9651 3.25
    endloop
  endfacet
  facet normal 0 0 1
    outer loop
      vertex 79.4651 -49.6513 3.25
      vertex 60.5 -44 3.25
      vertex 79.2979 -49.7979 3.25
    endloop
  endfacet
  facet normal 0 0 1
    outer loop
      vertex 79.65 -49.5278 3.25
      vertex 60.5 -44 3.25
      vertex 79.4651 -49.6513 3.25
    endloop
  endfacet
  facet normal 0 0 1
    outer loop
      vertex 79.8494 -49.4294 3.25
      vertex 60.5 -44 3.25
      vertex 79.65 -49.5278 3.25
    endloop
  endfacet
  facet normal 0 0 1
    outer loop
      vertex 80.06 -49.3579 3.25
      vertex 60.5 -44 3.25
      vertex 79.8494 -49.4294 3.25
    endloop
  endfacet
  facet normal 0 0 1
    outer loop
      vertex 80.2781 -49.3145 3.25
      vertex 60.5 -44 3.25
      vertex 80.06 -49.3579 3.25
    endloop
  endfacet
  facet normal 0 0 1
    outer loop
      vertex 80.5 -49.3 3.25
      vertex 60.5 -44 3.25
      vertex 80.2781 -49.3145 3.25
    endloop
  endfacet
  facet normal -0 0 1
    outer loop
      vertex 112.185 -51.2219 3.25
      vertex 130.5 -56 3.25
      vertex 112.2 -51 3.25
    endloop
  endfacet
  facet normal -0 0 1
    outer loop
      vertex 112.142 -51.44 3.25
      vertex 130.5 -56 3.25
      vertex 112.185 -51.2219 3.25
    endloop
  endfacet
  facet normal -0 0 1
    outer loop
      vertex 112.071 -51.6506 3.25
      vertex 130.5 -56 3.25
      vertex 112.142 -51.44 3.25
    endloop
  endfacet
  facet normal -0 0 1
    outer loop
      vertex 111.972 -51.85 3.25
      vertex 130.5 -56 3.25
      vertex 112.071 -51.6506 3.25
    endloop
  endfacet
  facet normal -0 0 1
    outer loop
      vertex 111.849 -52.0349 3.25
      vertex 130.5 -56 3.25
      vertex 111.972 -51.85 3.25
    endloop
  endfacet
  facet normal -0 0 1
    outer loop
      vertex 111.702 -52.2021 3.25
      vertex 130.5 -56 3.25
      vertex 111.849 -52.0349 3.25
    endloop
  endfacet
  facet normal -0 0 1
    outer loop
      vertex 111.535 -52.3487 3.25
      vertex 130.5 -56 3.25
      vertex 111.702 -52.2021 3.25
    endloop
  endfacet
  facet normal -0 0 1
    outer loop
      vertex 111.35 -52.4722 3.25
      vertex 130.5 -56 3.25
      vertex 111.535 -52.3487 3.25
    endloop
  endfacet
  facet normal -0 0 1
    outer loop
      vertex 111.151 -52.5706 3.25
      vertex 130.5 -56 3.25
      vertex 111.35 -52.4722 3.25
    endloop
  endfacet
  facet normal -0 0 1
    outer loop
      vertex 110.94 -52.6421 3.25
      vertex 130.5 -56 3.25
      vertex 111.151 -52.5706 3.25
    endloop
  endfacet
  facet normal -0 0 1
    outer loop
      vertex 110.722 -52.6855 3.25
      vertex 130.5 -56 3.25
      vertex 110.94 -52.6421 3.25
    endloop
  endfacet
  facet normal -0 0 1
    outer loop
      vertex 110.5 -52.7 3.25
      vertex 130.5 -56 3.25
      vertex 110.722 -52.6855 3.25
    endloop
  endfacet
  facet normal 0 0 1
    outer loop
      vertex 110.278 -52.6855 3.25
      vertex 130.5 -56 3.25
      vertex 110.5 -52.7 3.25
    endloop
  endfacet
  facet normal -0 0 1
    outer loop
      vertex 82.2 -51 3.25
      vertex 108.815 -51.2219 3.25
      vertex 108.8 -51 3.25
    endloop
  endfacet
  facet normal 0 0 1
    outer loop
      vertex 82.1855 -51.2219 3.25
      vertex 108.815 -51.2219 3.25
      vertex 82.2 -51 3.25
    endloop
  endfacet
  facet normal 0 0 1
    outer loop
      vertex 108.815 -51.2219 3.25
      vertex 82.1855 -51.2219 3.25
      vertex 108.858 -51.44 3.25
    endloop
  endfacet
  facet normal 0 0 1
    outer loop
      vertex 82.1421 -51.44 3.25
      vertex 108.858 -51.44 3.25
      vertex 82.1855 -51.2219 3.25
    endloop
  endfacet
  facet normal 0 0 1
    outer loop
      vertex 108.858 -51.44 3.25
      vertex 82.1421 -51.44 3.25
      vertex 108.929 -51.6506 3.25
    endloop
  endfacet
  facet normal 0 0 1
    outer loop
      vertex 82.0706 -51.6506 3.25
      vertex 108.929 -51.6506 3.25
      vertex 82.1421 -51.44 3.25
    endloop
  endfacet
  facet normal 0 0 1
    outer loop
      vertex 108.929 -51.6506 3.25
      vertex 82.0706 -51.6506 3.25
      vertex 109.028 -51.85 3.25
    endloop
  endfacet
  facet normal 0 0 1
    outer loop
      vertex 81.9722 -51.85 3.25
      vertex 109.028 -51.85 3.25
      vertex 82.0706 -51.6506 3.25
    endloop
  endfacet
  facet normal 0 0 1
    outer loop
      vertex 109.028 -51.85 3.25
      vertex 81.9722 -51.85 3.25
      vertex 109.151 -52.0349 3.25
    endloop
  endfacet
  facet normal 0 0 1
    outer loop
      vertex 81.8487 -52.0349 3.25
      vertex 109.151 -52.0349 3.25
      vertex 81.9722 -51.85 3.25
    endloop
  endfacet
  facet normal 0 0 1
    outer loop
      vertex 109.151 -52.0349 3.25
      vertex 81.8487 -52.0349 3.25
      vertex 109.298 -52.2021 3.25
    endloop
  endfacet
  facet normal 0 0 1
    outer loop
      vertex 81.7021 -52.2021 3.25
      vertex 109.298 -52.2021 3.25
      vertex 81.8487 -52.0349 3.25
    endloop
  endfacet
  facet normal 0 0 1
    outer loop
      vertex 109.298 -52.2021 3.25
      vertex 81.7021 -52.2021 3.25
      vertex 109.465 -52.3487 3.25
    endloop
  endfacet
  facet normal 0 0 1
    outer loop
      vertex 81.5349 -52.3487 3.25
      vertex 109.465 -52.3487 3.25
      vertex 81.7021 -52.2021 3.25
    endloop
  endfacet
  facet normal 0 0 1
    outer loop
      vertex 109.465 -52.3487 3.25
      vertex 81.5349 -52.3487 3.25
      vertex 109.65 -52.4722 3.25
    endloop
  endfacet
  facet normal 0 0 1
    outer loop
      vertex 81.35 -52.4722 3.25
      vertex 109.65 -52.4722 3.25
      vertex 81.5349 -52.3487 3.25
    endloop
  endfacet
  facet normal 0 0 1
    outer loop
      vertex 109.65 -52.4722 3.25
      vertex 81.35 -52.4722 3.25
      vertex 109.849 -52.5706 3.25
    endloop
  endfacet
  facet normal 0 0 1
    outer loop
      vertex 81.1506 -52.5706 3.25
      vertex 109.849 -52.5706 3.25
      vertex 81.35 -52.4722 3.25
    endloop
  endfacet
  facet normal 0 0 1
    outer loop
      vertex 109.849 -52.5706 3.25
      vertex 81.1506 -52.5706 3.25
      vertex 110.06 -52.6421 3.25
    endloop
  endfacet
  facet normal 0 0 1
    outer loop
      vertex 80.94 -52.6421 3.25
      vertex 110.06 -52.6421 3.25
      vertex 81.1506 -52.5706 3.25
    endloop
  endfacet
  facet normal 0 0 1
    outer loop
      vertex 110.06 -52.6421 3.25
      vertex 80.94 -52.6421 3.25
      vertex 110.278 -52.6855 3.25
    endloop
  endfacet
  facet normal 0 0 1
    outer loop
      vertex 80.7219 -52.6855 3.25
      vertex 110.278 -52.6855 3.25
      vertex 80.94 -52.6421 3.25
    endloop
  endfacet
  facet normal 0 0 1
    outer loop
      vertex 110.278 -52.6855 3.25
      vertex 80.7219 -52.6855 3.25
      vertex 130.5 -56 3.25
    endloop
  endfacet
  facet normal 0 0 1
    outer loop
      vertex 60.5 -56 3.25
      vertex 80.7219 -52.6855 3.25
      vertex 80.5 -52.7 3.25
    endloop
  endfacet
  facet normal 0 0 1
    outer loop
      vertex 60.5 -56 3.25
      vertex 80.5 -52.7 3.25
      vertex 80.2781 -52.6855 3.25
    endloop
  endfacet
  facet normal 0 0 1
    outer loop
      vertex 78.8145 -50.7781 3.25
      vertex 60.5 -56 3.25
      vertex 78.8 -51 3.25
    endloop
  endfacet
  facet normal 0 0 1
    outer loop
      vertex 78.8 -51 3.25
      vertex 60.5 -56 3.25
      vertex 78.8145 -51.2219 3.25
    endloop
  endfacet
  facet normal 0 0 1
    outer loop
      vertex 78.8145 -51.2219 3.25
      vertex 60.5 -56 3.25
      vertex 78.8579 -51.44 3.25
    endloop
  endfacet
  facet normal 0 0 1
    outer loop
      vertex 78.8579 -51.44 3.25
      vertex 60.5 -56 3.25
      vertex 78.9294 -51.6506 3.25
    endloop
  endfacet
  facet normal 0 0 1
    outer loop
      vertex 78.9294 -51.6506 3.25
      vertex 60.5 -56 3.25
      vertex 79.0278 -51.85 3.25
    endloop
  endfacet
  facet normal 0 0 1
    outer loop
      vertex 79.0278 -51.85 3.25
      vertex 60.5 -56 3.25
      vertex 79.1513 -52.0349 3.25
    endloop
  endfacet
  facet normal 0 0 1
    outer loop
      vertex 79.1513 -52.0349 3.25
      vertex 60.5 -56 3.25
      vertex 79.2979 -52.2021 3.25
    endloop
  endfacet
  facet normal 0 0 1
    outer loop
      vertex 79.2979 -52.2021 3.25
      vertex 60.5 -56 3.25
      vertex 79.4651 -52.3487 3.25
    endloop
  endfacet
  facet normal 0 0 1
    outer loop
      vertex 79.4651 -52.3487 3.25
      vertex 60.5 -56 3.25
      vertex 79.65 -52.4722 3.25
    endloop
  endfacet
  facet normal 0 0 1
    outer loop
      vertex 80.7219 -52.6855 3.25
      vertex 60.5 -56 3.25
      vertex 130.5 -56 3.25
    endloop
  endfacet
  facet normal 0 0 1
    outer loop
      vertex 80.06 -52.6421 3.25
      vertex 60.5 -56 3.25
      vertex 80.2781 -52.6855 3.25
    endloop
  endfacet
  facet normal 0 0 1
    outer loop
      vertex 79.8494 -52.5706 3.25
      vertex 60.5 -56 3.25
      vertex 80.06 -52.6421 3.25
    endloop
  endfacet
  facet normal 0 0 1
    outer loop
      vertex 79.65 -52.4722 3.25
      vertex 60.5 -56 3.25
      vertex 79.8494 -52.5706 3.25
    endloop
  endfacet
  facet normal -1 0 0
    outer loop
      vertex 60.5 -56 0
      vertex 60.5 -44 3.25
      vertex 60.5 -44 0
    endloop
  endfacet
  facet normal -1 -0 0
    outer loop
      vertex 60.5 -44 3.25
      vertex 60.5 -56 0
      vertex 60.5 -56 3.25
    endloop
  endfacet
  facet normal 0 -1 0
    outer loop
      vertex 60.5 -56 0
      vertex 130.5 -56 3.25
      vertex 60.5 -56 3.25
    endloop
  endfacet
  facet normal 0 -1 -0
    outer loop
      vertex 130.5 -56 3.25
      vertex 60.5 -56 0
      vertex 130.5 -56 0
    endloop
  endfacet
  facet normal 0 1 -0
    outer loop
      vertex 130.5 -44 0
      vertex 60.5 -44 3.25
      vertex 130.5 -44 3.25
    endloop
  endfacet
  facet normal 0 1 0
    outer loop
      vertex 60.5 -44 3.25
      vertex 130.5 -44 0
      vertex 60.5 -44 0
    endloop
  endfacet
endsolid OpenSCAD_Model
