solid OpenSCAD_Model
  facet normal -0.321692 0.946844 0
    outer loop
      vertex 80.9975 49.799 0
      vertex 80.8365 49.7443 2.25
      vertex 80.9975 49.799 2.25
    endloop
  endfacet
  facet normal -0.321692 0.946844 0
    outer loop
      vertex 80.8365 49.7443 2.25
      vertex 80.9975 49.799 0
      vertex 80.8365 49.7443 0
    endloop
  endfacet
  facet normal -0.980761 -0.195211 0
    outer loop
      vertex 81.7889 51.1697 0
      vertex 81.7557 51.3365 2.25
      vertex 81.7557 51.3365 0
    endloop
  endfacet
  facet normal -0.980761 -0.195211 0
    outer loop
      vertex 81.7557 51.3365 2.25
      vertex 81.7889 51.1697 0
      vertex 81.7889 51.1697 2.25
    endloop
  endfacet
  facet normal -0.997868 -0.0652701 0
    outer loop
      vertex 81.8 51 0
      vertex 81.7889 51.1697 2.25
      vertex 81.7889 51.1697 0
    endloop
  endfacet
  facet normal -0.997868 -0.0652701 0
    outer loop
      vertex 81.7889 51.1697 2.25
      vertex 81.8 51 0
      vertex 81.8 51 2.25
    endloop
  endfacet
  facet normal -0.946844 -0.321692 0
    outer loop
      vertex 81.7557 51.3365 0
      vertex 81.701 51.4975 2.25
      vertex 81.701 51.4975 0
    endloop
  endfacet
  facet normal -0.946844 -0.321692 0
    outer loop
      vertex 81.701 51.4975 2.25
      vertex 81.7557 51.3365 0
      vertex 81.7557 51.3365 2.25
    endloop
  endfacet
  facet normal -0.321692 -0.946844 0
    outer loop
      vertex 80.8365 52.2557 0
      vertex 80.9975 52.201 2.25
      vertex 80.8365 52.2557 2.25
    endloop
  endfacet
  facet normal -0.321692 -0.946844 -0
    outer loop
      vertex 80.9975 52.201 2.25
      vertex 80.8365 52.2557 0
      vertex 80.9975 52.201 0
    endloop
  endfacet
  facet normal 0.896884 -0.442267 0
    outer loop
      vertex 79.299 51.4975 2.25
      vertex 79.3742 51.65 0
      vertex 79.3742 51.65 2.25
    endloop
  endfacet
  facet normal 0.896884 -0.442267 0
    outer loop
      vertex 79.3742 51.65 0
      vertex 79.299 51.4975 2.25
      vertex 79.299 51.4975 0
    endloop
  endfacet
  facet normal 0.751483 0.659753 0
    outer loop
      vertex 79.5808 50.0808 2.25
      vertex 79.4686 50.2086 0
      vertex 79.4686 50.2086 2.25
    endloop
  endfacet
  facet normal 0.751483 0.659753 0
    outer loop
      vertex 79.4686 50.2086 0
      vertex 79.5808 50.0808 2.25
      vertex 79.5808 50.0808 0
    endloop
  endfacet
  facet normal -0.831688 -0.555243 0
    outer loop
      vertex 81.6258 51.65 0
      vertex 81.5314 51.7914 2.25
      vertex 81.5314 51.7914 0
    endloop
  endfacet
  facet normal -0.831688 -0.555243 0
    outer loop
      vertex 81.5314 51.7914 2.25
      vertex 81.6258 51.65 0
      vertex 81.6258 51.65 2.25
    endloop
  endfacet
  facet normal -0.896884 -0.442267 0
    outer loop
      vertex 81.701 51.4975 0
      vertex 81.6258 51.65 2.25
      vertex 81.6258 51.65 0
    endloop
  endfacet
  facet normal -0.896884 -0.442267 0
    outer loop
      vertex 81.6258 51.65 2.25
      vertex 81.701 51.4975 0
      vertex 81.701 51.4975 2.25
    endloop
  endfacet
  facet normal 0.659753 0.751483 -0
    outer loop
      vertex 79.7086 49.9686 0
      vertex 79.5808 50.0808 2.25
      vertex 79.7086 49.9686 2.25
    endloop
  endfacet
  facet normal 0.659753 0.751483 0
    outer loop
      vertex 79.5808 50.0808 2.25
      vertex 79.7086 49.9686 0
      vertex 79.5808 50.0808 0
    endloop
  endfacet
  facet normal 0.751483 -0.659753 0
    outer loop
      vertex 79.4686 51.7914 2.25
      vertex 79.5808 51.9192 0
      vertex 79.5808 51.9192 2.25
    endloop
  endfacet
  facet normal 0.751483 -0.659753 0
    outer loop
      vertex 79.5808 51.9192 0
      vertex 79.4686 51.7914 2.25
      vertex 79.4686 51.7914 0
    endloop
  endfacet
  facet normal 0.831688 -0.555243 0
    outer loop
      vertex 79.3742 51.65 2.25
      vertex 79.4686 51.7914 0
      vertex 79.4686 51.7914 2.25
    endloop
  endfacet
  facet normal 0.831688 -0.555243 0
    outer loop
      vertex 79.4686 51.7914 0
      vertex 79.3742 51.65 2.25
      vertex 79.3742 51.65 0
    endloop
  endfacet
  facet normal 0.195211 -0.980761 0
    outer loop
      vertex 80.1635 52.2557 0
      vertex 80.3303 52.2889 2.25
      vertex 80.1635 52.2557 2.25
    endloop
  endfacet
  facet normal 0.195211 -0.980761 0
    outer loop
      vertex 80.3303 52.2889 2.25
      vertex 80.1635 52.2557 0
      vertex 80.3303 52.2889 0
    endloop
  endfacet
  facet normal -0.442267 0.896884 0
    outer loop
      vertex 81.15 49.8742 0
      vertex 80.9975 49.799 2.25
      vertex 81.15 49.8742 2.25
    endloop
  endfacet
  facet normal -0.442267 0.896884 0
    outer loop
      vertex 80.9975 49.799 2.25
      vertex 81.15 49.8742 0
      vertex 80.9975 49.799 0
    endloop
  endfacet
  facet normal 0.946844 -0.321692 0
    outer loop
      vertex 79.2443 51.3365 2.25
      vertex 79.299 51.4975 0
      vertex 79.299 51.4975 2.25
    endloop
  endfacet
  facet normal 0.946844 -0.321692 0
    outer loop
      vertex 79.299 51.4975 0
      vertex 79.2443 51.3365 2.25
      vertex 79.2443 51.3365 0
    endloop
  endfacet
  facet normal 0.442267 -0.896884 0
    outer loop
      vertex 79.85 52.1258 0
      vertex 80.0025 52.201 2.25
      vertex 79.85 52.1258 2.25
    endloop
  endfacet
  facet normal 0.442267 -0.896884 0
    outer loop
      vertex 80.0025 52.201 2.25
      vertex 79.85 52.1258 0
      vertex 80.0025 52.201 0
    endloop
  endfacet
  facet normal 0.321692 0.946844 -0
    outer loop
      vertex 80.1635 49.7443 0
      vertex 80.0025 49.799 2.25
      vertex 80.1635 49.7443 2.25
    endloop
  endfacet
  facet normal 0.321692 0.946844 0
    outer loop
      vertex 80.0025 49.799 2.25
      vertex 80.1635 49.7443 0
      vertex 80.0025 49.799 0
    endloop
  endfacet
  facet normal -0.831688 0.555243 0
    outer loop
      vertex 81.5314 50.2086 0
      vertex 81.6258 50.35 2.25
      vertex 81.6258 50.35 0
    endloop
  endfacet
  facet normal -0.831688 0.555243 0
    outer loop
      vertex 81.6258 50.35 2.25
      vertex 81.5314 50.2086 0
      vertex 81.5314 50.2086 2.25
    endloop
  endfacet
  facet normal -0.195211 0.980761 0
    outer loop
      vertex 80.8365 49.7443 0
      vertex 80.6697 49.7111 2.25
      vertex 80.8365 49.7443 2.25
    endloop
  endfacet
  facet normal -0.195211 0.980761 0
    outer loop
      vertex 80.6697 49.7111 2.25
      vertex 80.8365 49.7443 0
      vertex 80.6697 49.7111 0
    endloop
  endfacet
  facet normal -0.0652701 -0.997868 0
    outer loop
      vertex 80.5 52.3 0
      vertex 80.6697 52.2889 2.25
      vertex 80.5 52.3 2.25
    endloop
  endfacet
  facet normal -0.0652701 -0.997868 -0
    outer loop
      vertex 80.6697 52.2889 2.25
      vertex 80.5 52.3 0
      vertex 80.6697 52.2889 0
    endloop
  endfacet
  facet normal -0.980761 0.195211 0
    outer loop
      vertex 81.7557 50.6635 0
      vertex 81.7889 50.8303 2.25
      vertex 81.7889 50.8303 0
    endloop
  endfacet
  facet normal -0.980761 0.195211 0
    outer loop
      vertex 81.7889 50.8303 2.25
      vertex 81.7557 50.6635 0
      vertex 81.7557 50.6635 2.25
    endloop
  endfacet
  facet normal -0.555243 0.831688 0
    outer loop
      vertex 81.2914 49.9686 0
      vertex 81.15 49.8742 2.25
      vertex 81.2914 49.9686 2.25
    endloop
  endfacet
  facet normal -0.555243 0.831688 0
    outer loop
      vertex 81.15 49.8742 2.25
      vertex 81.2914 49.9686 0
      vertex 81.15 49.8742 0
    endloop
  endfacet
  facet normal -0.555243 -0.831688 0
    outer loop
      vertex 81.15 52.1258 0
      vertex 81.2914 52.0314 2.25
      vertex 81.15 52.1258 2.25
    endloop
  endfacet
  facet normal -0.555243 -0.831688 -0
    outer loop
      vertex 81.2914 52.0314 2.25
      vertex 81.15 52.1258 0
      vertex 81.2914 52.0314 0
    endloop
  endfacet
  facet normal -0.896884 0.442267 0
    outer loop
      vertex 81.6258 50.35 0
      vertex 81.701 50.5025 2.25
      vertex 81.701 50.5025 0
    endloop
  endfacet
  facet normal -0.896884 0.442267 0
    outer loop
      vertex 81.701 50.5025 2.25
      vertex 81.6258 50.35 0
      vertex 81.6258 50.35 2.25
    endloop
  endfacet
  facet normal 0.555243 -0.831688 0
    outer loop
      vertex 79.7086 52.0314 0
      vertex 79.85 52.1258 2.25
      vertex 79.7086 52.0314 2.25
    endloop
  endfacet
  facet normal 0.555243 -0.831688 0
    outer loop
      vertex 79.85 52.1258 2.25
      vertex 79.7086 52.0314 0
      vertex 79.85 52.1258 0
    endloop
  endfacet
  facet normal -0.751483 0.659753 0
    outer loop
      vertex 81.4192 50.0808 0
      vertex 81.5314 50.2086 2.25
      vertex 81.5314 50.2086 0
    endloop
  endfacet
  facet normal -0.751483 0.659753 0
    outer loop
      vertex 81.5314 50.2086 2.25
      vertex 81.4192 50.0808 0
      vertex 81.4192 50.0808 2.25
    endloop
  endfacet
  facet normal -0.195211 -0.980761 0
    outer loop
      vertex 80.6697 52.2889 0
      vertex 80.8365 52.2557 2.25
      vertex 80.6697 52.2889 2.25
    endloop
  endfacet
  facet normal -0.195211 -0.980761 -0
    outer loop
      vertex 80.8365 52.2557 2.25
      vertex 80.6697 52.2889 0
      vertex 80.8365 52.2557 0
    endloop
  endfacet
  facet normal 0.659753 -0.751483 0
    outer loop
      vertex 79.5808 51.9192 0
      vertex 79.7086 52.0314 2.25
      vertex 79.5808 51.9192 2.25
    endloop
  endfacet
  facet normal 0.659753 -0.751483 0
    outer loop
      vertex 79.7086 52.0314 2.25
      vertex 79.5808 51.9192 0
      vertex 79.7086 52.0314 0
    endloop
  endfacet
  facet normal 0.321692 -0.946844 0
    outer loop
      vertex 80.0025 52.201 0
      vertex 80.1635 52.2557 2.25
      vertex 80.0025 52.201 2.25
    endloop
  endfacet
  facet normal 0.321692 -0.946844 0
    outer loop
      vertex 80.1635 52.2557 2.25
      vertex 80.0025 52.201 0
      vertex 80.1635 52.2557 0
    endloop
  endfacet
  facet normal -0.997868 0.0652701 0
    outer loop
      vertex 81.7889 50.8303 0
      vertex 81.8 51 2.25
      vertex 81.8 51 0
    endloop
  endfacet
  facet normal -0.997868 0.0652701 0
    outer loop
      vertex 81.8 51 2.25
      vertex 81.7889 50.8303 0
      vertex 81.7889 50.8303 2.25
    endloop
  endfacet
  facet normal 0.980761 0.195211 0
    outer loop
      vertex 79.2443 50.6635 2.25
      vertex 79.2111 50.8303 0
      vertex 79.2111 50.8303 2.25
    endloop
  endfacet
  facet normal 0.980761 0.195211 0
    outer loop
      vertex 79.2111 50.8303 0
      vertex 79.2443 50.6635 2.25
      vertex 79.2443 50.6635 0
    endloop
  endfacet
  facet normal -0.659753 -0.751483 0
    outer loop
      vertex 81.2914 52.0314 0
      vertex 81.4192 51.9192 2.25
      vertex 81.2914 52.0314 2.25
    endloop
  endfacet
  facet normal -0.659753 -0.751483 -0
    outer loop
      vertex 81.4192 51.9192 2.25
      vertex 81.2914 52.0314 0
      vertex 81.4192 51.9192 0
    endloop
  endfacet
  facet normal -0.0652701 0.997868 0
    outer loop
      vertex 80.6697 49.7111 0
      vertex 80.5 49.7 2.25
      vertex 80.6697 49.7111 2.25
    endloop
  endfacet
  facet normal -0.0652701 0.997868 0
    outer loop
      vertex 80.5 49.7 2.25
      vertex 80.6697 49.7111 0
      vertex 80.5 49.7 0
    endloop
  endfacet
  facet normal 0.896884 0.442267 0
    outer loop
      vertex 79.3742 50.35 2.25
      vertex 79.299 50.5025 0
      vertex 79.299 50.5025 2.25
    endloop
  endfacet
  facet normal 0.896884 0.442267 0
    outer loop
      vertex 79.299 50.5025 0
      vertex 79.3742 50.35 2.25
      vertex 79.3742 50.35 0
    endloop
  endfacet
  facet normal 0.442267 0.896884 -0
    outer loop
      vertex 80.0025 49.799 0
      vertex 79.85 49.8742 2.25
      vertex 80.0025 49.799 2.25
    endloop
  endfacet
  facet normal 0.442267 0.896884 0
    outer loop
      vertex 79.85 49.8742 2.25
      vertex 80.0025 49.799 0
      vertex 79.85 49.8742 0
    endloop
  endfacet
  facet normal 0.831688 0.555243 0
    outer loop
      vertex 79.4686 50.2086 2.25
      vertex 79.3742 50.35 0
      vertex 79.3742 50.35 2.25
    endloop
  endfacet
  facet normal 0.831688 0.555243 0
    outer loop
      vertex 79.3742 50.35 0
      vertex 79.4686 50.2086 2.25
      vertex 79.4686 50.2086 0
    endloop
  endfacet
  facet normal -0.751483 -0.659753 0
    outer loop
      vertex 81.5314 51.7914 0
      vertex 81.4192 51.9192 2.25
      vertex 81.4192 51.9192 0
    endloop
  endfacet
  facet normal -0.751483 -0.659753 0
    outer loop
      vertex 81.4192 51.9192 2.25
      vertex 81.5314 51.7914 0
      vertex 81.5314 51.7914 2.25
    endloop
  endfacet
  facet normal -0.946844 0.321692 0
    outer loop
      vertex 81.701 50.5025 0
      vertex 81.7557 50.6635 2.25
      vertex 81.7557 50.6635 0
    endloop
  endfacet
  facet normal -0.946844 0.321692 0
    outer loop
      vertex 81.7557 50.6635 2.25
      vertex 81.701 50.5025 0
      vertex 81.701 50.5025 2.25
    endloop
  endfacet
  facet normal 0.0652701 -0.997868 0
    outer loop
      vertex 80.3303 52.2889 0
      vertex 80.5 52.3 2.25
      vertex 80.3303 52.2889 2.25
    endloop
  endfacet
  facet normal 0.0652701 -0.997868 0
    outer loop
      vertex 80.5 52.3 2.25
      vertex 80.3303 52.2889 0
      vertex 80.5 52.3 0
    endloop
  endfacet
  facet normal -0.442267 -0.896884 0
    outer loop
      vertex 80.9975 52.201 0
      vertex 81.15 52.1258 2.25
      vertex 80.9975 52.201 2.25
    endloop
  endfacet
  facet normal -0.442267 -0.896884 -0
    outer loop
      vertex 81.15 52.1258 2.25
      vertex 80.9975 52.201 0
      vertex 81.15 52.1258 0
    endloop
  endfacet
  facet normal 0.980761 -0.195211 0
    outer loop
      vertex 79.2111 51.1697 2.25
      vertex 79.2443 51.3365 0
      vertex 79.2443 51.3365 2.25
    endloop
  endfacet
  facet normal 0.980761 -0.195211 0
    outer loop
      vertex 79.2443 51.3365 0
      vertex 79.2111 51.1697 2.25
      vertex 79.2111 51.1697 0
    endloop
  endfacet
  facet normal 0.946844 0.321692 0
    outer loop
      vertex 79.299 50.5025 2.25
      vertex 79.2443 50.6635 0
      vertex 79.2443 50.6635 2.25
    endloop
  endfacet
  facet normal 0.946844 0.321692 0
    outer loop
      vertex 79.2443 50.6635 0
      vertex 79.299 50.5025 2.25
      vertex 79.299 50.5025 0
    endloop
  endfacet
  facet normal 0.997868 0.0652701 0
    outer loop
      vertex 79.2111 50.8303 2.25
      vertex 79.2 51 0
      vertex 79.2 51 2.25
    endloop
  endfacet
  facet normal 0.997868 0.0652701 0
    outer loop
      vertex 79.2 51 0
      vertex 79.2111 50.8303 2.25
      vertex 79.2111 50.8303 0
    endloop
  endfacet
  facet normal 0.997868 -0.0652701 0
    outer loop
      vertex 79.2 51 2.25
      vertex 79.2111 51.1697 0
      vertex 79.2111 51.1697 2.25
    endloop
  endfacet
  facet normal 0.997868 -0.0652701 0
    outer loop
      vertex 79.2111 51.1697 0
      vertex 79.2 51 2.25
      vertex 79.2 51 0
    endloop
  endfacet
  facet normal 0.555243 0.831688 -0
    outer loop
      vertex 79.85 49.8742 0
      vertex 79.7086 49.9686 2.25
      vertex 79.85 49.8742 2.25
    endloop
  endfacet
  facet normal 0.555243 0.831688 0
    outer loop
      vertex 79.7086 49.9686 2.25
      vertex 79.85 49.8742 0
      vertex 79.7086 49.9686 0
    endloop
  endfacet
  facet normal 0.0652701 0.997868 -0
    outer loop
      vertex 80.5 49.7 0
      vertex 80.3303 49.7111 2.25
      vertex 80.5 49.7 2.25
    endloop
  endfacet
  facet normal 0.0652701 0.997868 0
    outer loop
      vertex 80.3303 49.7111 2.25
      vertex 80.5 49.7 0
      vertex 80.3303 49.7111 0
    endloop
  endfacet
  facet normal 0.195211 0.980761 -0
    outer loop
      vertex 80.3303 49.7111 0
      vertex 80.1635 49.7443 2.25
      vertex 80.3303 49.7111 2.25
    endloop
  endfacet
  facet normal 0.195211 0.980761 0
    outer loop
      vertex 80.1635 49.7443 2.25
      vertex 80.3303 49.7111 0
      vertex 80.1635 49.7443 0
    endloop
  endfacet
  facet normal -0.659753 0.751483 0
    outer loop
      vertex 81.4192 50.0808 0
      vertex 81.2914 49.9686 2.25
      vertex 81.4192 50.0808 2.25
    endloop
  endfacet
  facet normal -0.659753 0.751483 0
    outer loop
      vertex 81.2914 49.9686 2.25
      vertex 81.4192 50.0808 0
      vertex 81.2914 49.9686 0
    endloop
  endfacet
  facet normal -0.321692 0.946844 0
    outer loop
      vertex 110.997 49.799 0
      vertex 110.836 49.7443 2.25
      vertex 110.997 49.799 2.25
    endloop
  endfacet
  facet normal -0.321692 0.946844 0
    outer loop
      vertex 110.836 49.7443 2.25
      vertex 110.997 49.799 0
      vertex 110.836 49.7443 0
    endloop
  endfacet
  facet normal -0.980986 -0.19408 0
    outer loop
      vertex 111.789 51.1697 0
      vertex 111.756 51.3365 2.25
      vertex 111.756 51.3365 0
    endloop
  endfacet
  facet normal -0.980986 -0.19408 0
    outer loop
      vertex 111.756 51.3365 2.25
      vertex 111.789 51.1697 0
      vertex 111.789 51.1697 2.25
    endloop
  endfacet
  facet normal -0.997906 -0.0646845 0
    outer loop
      vertex 111.8 51 0
      vertex 111.789 51.1697 2.25
      vertex 111.789 51.1697 0
    endloop
  endfacet
  facet normal -0.997906 -0.0646845 0
    outer loop
      vertex 111.789 51.1697 2.25
      vertex 111.8 51 0
      vertex 111.8 51 2.25
    endloop
  endfacet
  facet normal -0.946306 -0.323272 0
    outer loop
      vertex 111.756 51.3365 0
      vertex 111.701 51.4975 2.25
      vertex 111.701 51.4975 0
    endloop
  endfacet
  facet normal -0.946306 -0.323272 0
    outer loop
      vertex 111.701 51.4975 2.25
      vertex 111.756 51.3365 0
      vertex 111.756 51.3365 2.25
    endloop
  endfacet
  facet normal -0.321692 -0.946844 0
    outer loop
      vertex 110.836 52.2557 0
      vertex 110.997 52.201 2.25
      vertex 110.836 52.2557 2.25
    endloop
  endfacet
  facet normal -0.321692 -0.946844 -0
    outer loop
      vertex 110.997 52.201 2.25
      vertex 110.836 52.2557 0
      vertex 110.997 52.201 0
    endloop
  endfacet
  facet normal 0.89735 -0.44132 0
    outer loop
      vertex 109.299 51.4975 2.25
      vertex 109.374 51.65 0
      vertex 109.374 51.65 2.25
    endloop
  endfacet
  facet normal 0.89735 -0.44132 0
    outer loop
      vertex 109.374 51.65 0
      vertex 109.299 51.4975 2.25
      vertex 109.299 51.4975 0
    endloop
  endfacet
  facet normal 0.752066 0.659088 0
    outer loop
      vertex 109.581 50.0808 2.25
      vertex 109.469 50.2086 0
      vertex 109.469 50.2086 2.25
    endloop
  endfacet
  facet normal 0.752066 0.659088 0
    outer loop
      vertex 109.469 50.2086 0
      vertex 109.581 50.0808 2.25
      vertex 109.581 50.0808 0
    endloop
  endfacet
  facet normal -0.830058 -0.557677 0
    outer loop
      vertex 111.626 51.65 0
      vertex 111.531 51.7914 2.25
      vertex 111.531 51.7914 0
    endloop
  endfacet
  facet normal -0.830058 -0.557677 0
    outer loop
      vertex 111.531 51.7914 2.25
      vertex 111.626 51.65 0
      vertex 111.626 51.65 2.25
    endloop
  endfacet
  facet normal -0.89735 -0.44132 0
    outer loop
      vertex 111.701 51.4975 0
      vertex 111.626 51.65 2.25
      vertex 111.626 51.65 0
    endloop
  endfacet
  facet normal -0.89735 -0.44132 0
    outer loop
      vertex 111.626 51.65 2.25
      vertex 111.701 51.4975 0
      vertex 111.701 51.4975 2.25
    endloop
  endfacet
  facet normal 0.65917 0.751994 -0
    outer loop
      vertex 109.709 49.9686 0
      vertex 109.581 50.0808 2.25
      vertex 109.709 49.9686 2.25
    endloop
  endfacet
  facet normal 0.65917 0.751994 0
    outer loop
      vertex 109.581 50.0808 2.25
      vertex 109.709 49.9686 0
      vertex 109.581 50.0808 0
    endloop
  endfacet
  facet normal 0.752066 -0.659088 0
    outer loop
      vertex 109.469 51.7914 2.25
      vertex 109.581 51.9192 0
      vertex 109.581 51.9192 2.25
    endloop
  endfacet
  facet normal 0.752066 -0.659088 0
    outer loop
      vertex 109.581 51.9192 0
      vertex 109.469 51.7914 2.25
      vertex 109.469 51.7914 0
    endloop
  endfacet
  facet normal -0.946306 0.323272 0
    outer loop
      vertex 111.701 50.5025 0
      vertex 111.756 50.6635 2.25
      vertex 111.756 50.6635 0
    endloop
  endfacet
  facet normal -0.946306 0.323272 0
    outer loop
      vertex 111.756 50.6635 2.25
      vertex 111.701 50.5025 0
      vertex 111.701 50.5025 2.25
    endloop
  endfacet
  facet normal 0.830058 -0.557677 0
    outer loop
      vertex 109.374 51.65 2.25
      vertex 109.469 51.7914 0
      vertex 109.469 51.7914 2.25
    endloop
  endfacet
  facet normal 0.830058 -0.557677 0
    outer loop
      vertex 109.469 51.7914 0
      vertex 109.374 51.65 2.25
      vertex 109.374 51.65 0
    endloop
  endfacet
  facet normal -0.441103 0.897457 0
    outer loop
      vertex 111.15 49.8742 0
      vertex 110.997 49.799 2.25
      vertex 111.15 49.8742 2.25
    endloop
  endfacet
  facet normal -0.441103 0.897457 0
    outer loop
      vertex 110.997 49.799 2.25
      vertex 111.15 49.8742 0
      vertex 110.997 49.799 0
    endloop
  endfacet
  facet normal 0.946306 -0.323272 0
    outer loop
      vertex 109.244 51.3365 2.25
      vertex 109.299 51.4975 0
      vertex 109.299 51.4975 2.25
    endloop
  endfacet
  facet normal 0.946306 -0.323272 0
    outer loop
      vertex 109.299 51.4975 0
      vertex 109.244 51.3365 2.25
      vertex 109.244 51.3365 0
    endloop
  endfacet
  facet normal 0.441103 -0.897457 0
    outer loop
      vertex 109.85 52.1258 0
      vertex 110.003 52.201 2.25
      vertex 109.85 52.1258 2.25
    endloop
  endfacet
  facet normal 0.441103 -0.897457 0
    outer loop
      vertex 110.003 52.201 2.25
      vertex 109.85 52.1258 0
      vertex 110.003 52.201 0
    endloop
  endfacet
  facet normal 0.321692 0.946844 -0
    outer loop
      vertex 110.164 49.7443 0
      vertex 110.003 49.799 2.25
      vertex 110.164 49.7443 2.25
    endloop
  endfacet
  facet normal 0.321692 0.946844 0
    outer loop
      vertex 110.003 49.799 2.25
      vertex 110.164 49.7443 0
      vertex 110.003 49.799 0
    endloop
  endfacet
  facet normal -0.830058 0.557677 0
    outer loop
      vertex 111.531 50.2086 0
      vertex 111.626 50.35 2.25
      vertex 111.626 50.35 0
    endloop
  endfacet
  facet normal -0.830058 0.557677 0
    outer loop
      vertex 111.626 50.35 2.25
      vertex 111.531 50.2086 0
      vertex 111.531 50.2086 2.25
    endloop
  endfacet
  facet normal -0.196116 0.980581 0
    outer loop
      vertex 110.836 49.7443 0
      vertex 110.67 49.7111 2.25
      vertex 110.836 49.7443 2.25
    endloop
  endfacet
  facet normal -0.196116 0.980581 0
    outer loop
      vertex 110.67 49.7111 2.25
      vertex 110.836 49.7443 0
      vertex 110.67 49.7111 0
    endloop
  endfacet
  facet normal -0.0651554 -0.997875 0
    outer loop
      vertex 110.5 52.3 0
      vertex 110.67 52.2889 2.25
      vertex 110.5 52.3 2.25
    endloop
  endfacet
  facet normal -0.0651554 -0.997875 -0
    outer loop
      vertex 110.67 52.2889 2.25
      vertex 110.5 52.3 0
      vertex 110.67 52.2889 0
    endloop
  endfacet
  facet normal -0.980986 0.19408 0
    outer loop
      vertex 111.756 50.6635 0
      vertex 111.789 50.8303 2.25
      vertex 111.789 50.8303 0
    endloop
  endfacet
  facet normal -0.980986 0.19408 0
    outer loop
      vertex 111.789 50.8303 2.25
      vertex 111.756 50.6635 0
      vertex 111.756 50.6635 2.25
    endloop
  endfacet
  facet normal -0.556331 0.830961 0
    outer loop
      vertex 111.291 49.9686 0
      vertex 111.15 49.8742 2.25
      vertex 111.291 49.9686 2.25
    endloop
  endfacet
  facet normal -0.556331 0.830961 0
    outer loop
      vertex 111.15 49.8742 2.25
      vertex 111.291 49.9686 0
      vertex 111.15 49.8742 0
    endloop
  endfacet
  facet normal -0.556331 -0.830961 0
    outer loop
      vertex 111.15 52.1258 0
      vertex 111.291 52.0314 2.25
      vertex 111.15 52.1258 2.25
    endloop
  endfacet
  facet normal -0.556331 -0.830961 -0
    outer loop
      vertex 111.291 52.0314 2.25
      vertex 111.15 52.1258 0
      vertex 111.291 52.0314 0
    endloop
  endfacet
  facet normal -0.89735 0.44132 0
    outer loop
      vertex 111.626 50.35 0
      vertex 111.701 50.5025 2.25
      vertex 111.701 50.5025 0
    endloop
  endfacet
  facet normal -0.89735 0.44132 0
    outer loop
      vertex 111.701 50.5025 2.25
      vertex 111.626 50.35 0
      vertex 111.626 50.35 2.25
    endloop
  endfacet
  facet normal 0.556331 -0.830961 0
    outer loop
      vertex 109.709 52.0314 0
      vertex 109.85 52.1258 2.25
      vertex 109.709 52.0314 2.25
    endloop
  endfacet
  facet normal 0.556331 -0.830961 0
    outer loop
      vertex 109.85 52.1258 2.25
      vertex 109.709 52.0314 0
      vertex 109.85 52.1258 0
    endloop
  endfacet
  facet normal -0.752066 0.659088 0
    outer loop
      vertex 111.419 50.0808 0
      vertex 111.531 50.2086 2.25
      vertex 111.531 50.2086 0
    endloop
  endfacet
  facet normal -0.752066 0.659088 0
    outer loop
      vertex 111.531 50.2086 2.25
      vertex 111.419 50.0808 0
      vertex 111.419 50.0808 2.25
    endloop
  endfacet
  facet normal -0.196116 -0.980581 0
    outer loop
      vertex 110.67 52.2889 0
      vertex 110.836 52.2557 2.25
      vertex 110.67 52.2889 2.25
    endloop
  endfacet
  facet normal -0.196116 -0.980581 -0
    outer loop
      vertex 110.836 52.2557 2.25
      vertex 110.67 52.2889 0
      vertex 110.836 52.2557 0
    endloop
  endfacet
  facet normal 0.65917 -0.751994 0
    outer loop
      vertex 109.581 51.9192 0
      vertex 109.709 52.0314 2.25
      vertex 109.581 51.9192 2.25
    endloop
  endfacet
  facet normal 0.65917 -0.751994 0
    outer loop
      vertex 109.709 52.0314 2.25
      vertex 109.581 51.9192 0
      vertex 109.709 52.0314 0
    endloop
  endfacet
  facet normal 0.321692 -0.946844 0
    outer loop
      vertex 110.003 52.201 0
      vertex 110.164 52.2557 2.25
      vertex 110.003 52.201 2.25
    endloop
  endfacet
  facet normal 0.321692 -0.946844 0
    outer loop
      vertex 110.164 52.2557 2.25
      vertex 110.003 52.201 0
      vertex 110.164 52.2557 0
    endloop
  endfacet
  facet normal -0.997906 0.0646845 0
    outer loop
      vertex 111.789 50.8303 0
      vertex 111.8 51 2.25
      vertex 111.8 51 0
    endloop
  endfacet
  facet normal -0.997906 0.0646845 0
    outer loop
      vertex 111.8 51 2.25
      vertex 111.789 50.8303 0
      vertex 111.789 50.8303 2.25
    endloop
  endfacet
  facet normal 0.980986 0.19408 0
    outer loop
      vertex 109.244 50.6635 2.25
      vertex 109.211 50.8303 0
      vertex 109.211 50.8303 2.25
    endloop
  endfacet
  facet normal 0.980986 0.19408 0
    outer loop
      vertex 109.211 50.8303 0
      vertex 109.244 50.6635 2.25
      vertex 109.244 50.6635 0
    endloop
  endfacet
  facet normal -0.65917 -0.751994 0
    outer loop
      vertex 111.291 52.0314 0
      vertex 111.419 51.9192 2.25
      vertex 111.291 52.0314 2.25
    endloop
  endfacet
  facet normal -0.65917 -0.751994 -0
    outer loop
      vertex 111.419 51.9192 2.25
      vertex 111.291 52.0314 0
      vertex 111.419 51.9192 0
    endloop
  endfacet
  facet normal -0.0651554 0.997875 0
    outer loop
      vertex 110.67 49.7111 0
      vertex 110.5 49.7 2.25
      vertex 110.67 49.7111 2.25
    endloop
  endfacet
  facet normal -0.0651554 0.997875 0
    outer loop
      vertex 110.5 49.7 2.25
      vertex 110.67 49.7111 0
      vertex 110.5 49.7 0
    endloop
  endfacet
  facet normal 0.89735 0.44132 0
    outer loop
      vertex 109.374 50.35 2.25
      vertex 109.299 50.5025 0
      vertex 109.299 50.5025 2.25
    endloop
  endfacet
  facet normal 0.89735 0.44132 0
    outer loop
      vertex 109.299 50.5025 0
      vertex 109.374 50.35 2.25
      vertex 109.374 50.35 0
    endloop
  endfacet
  facet normal 0.441103 0.897457 -0
    outer loop
      vertex 110.003 49.799 0
      vertex 109.85 49.8742 2.25
      vertex 110.003 49.799 2.25
    endloop
  endfacet
  facet normal 0.441103 0.897457 0
    outer loop
      vertex 109.85 49.8742 2.25
      vertex 110.003 49.799 0
      vertex 109.85 49.8742 0
    endloop
  endfacet
  facet normal 0.830058 0.557677 0
    outer loop
      vertex 109.469 50.2086 2.25
      vertex 109.374 50.35 0
      vertex 109.374 50.35 2.25
    endloop
  endfacet
  facet normal 0.830058 0.557677 0
    outer loop
      vertex 109.374 50.35 0
      vertex 109.469 50.2086 2.25
      vertex 109.469 50.2086 0
    endloop
  endfacet
  facet normal -0.752066 -0.659088 0
    outer loop
      vertex 111.531 51.7914 0
      vertex 111.419 51.9192 2.25
      vertex 111.419 51.9192 0
    endloop
  endfacet
  facet normal -0.752066 -0.659088 0
    outer loop
      vertex 111.419 51.9192 2.25
      vertex 111.531 51.7914 0
      vertex 111.531 51.7914 2.25
    endloop
  endfacet
  facet normal 0.0651554 -0.997875 0
    outer loop
      vertex 110.33 52.2889 0
      vertex 110.5 52.3 2.25
      vertex 110.33 52.2889 2.25
    endloop
  endfacet
  facet normal 0.0651554 -0.997875 0
    outer loop
      vertex 110.5 52.3 2.25
      vertex 110.33 52.2889 0
      vertex 110.5 52.3 0
    endloop
  endfacet
  facet normal -0.441103 -0.897457 0
    outer loop
      vertex 110.997 52.201 0
      vertex 111.15 52.1258 2.25
      vertex 110.997 52.201 2.25
    endloop
  endfacet
  facet normal -0.441103 -0.897457 -0
    outer loop
      vertex 111.15 52.1258 2.25
      vertex 110.997 52.201 0
      vertex 111.15 52.1258 0
    endloop
  endfacet
  facet normal 0.980986 -0.19408 0
    outer loop
      vertex 109.211 51.1697 2.25
      vertex 109.244 51.3365 0
      vertex 109.244 51.3365 2.25
    endloop
  endfacet
  facet normal 0.980986 -0.19408 0
    outer loop
      vertex 109.244 51.3365 0
      vertex 109.211 51.1697 2.25
      vertex 109.211 51.1697 0
    endloop
  endfacet
  facet normal 0.946306 0.323272 0
    outer loop
      vertex 109.299 50.5025 2.25
      vertex 109.244 50.6635 0
      vertex 109.244 50.6635 2.25
    endloop
  endfacet
  facet normal 0.946306 0.323272 0
    outer loop
      vertex 109.244 50.6635 0
      vertex 109.299 50.5025 2.25
      vertex 109.299 50.5025 0
    endloop
  endfacet
  facet normal 0.196116 -0.980581 0
    outer loop
      vertex 110.164 52.2557 0
      vertex 110.33 52.2889 2.25
      vertex 110.164 52.2557 2.25
    endloop
  endfacet
  facet normal 0.196116 -0.980581 0
    outer loop
      vertex 110.33 52.2889 2.25
      vertex 110.164 52.2557 0
      vertex 110.33 52.2889 0
    endloop
  endfacet
  facet normal 0.997906 0.0646845 0
    outer loop
      vertex 109.211 50.8303 2.25
      vertex 109.2 51 0
      vertex 109.2 51 2.25
    endloop
  endfacet
  facet normal 0.997906 0.0646845 0
    outer loop
      vertex 109.2 51 0
      vertex 109.211 50.8303 2.25
      vertex 109.211 50.8303 0
    endloop
  endfacet
  facet normal 0.997906 -0.0646845 0
    outer loop
      vertex 109.2 51 2.25
      vertex 109.211 51.1697 0
      vertex 109.211 51.1697 2.25
    endloop
  endfacet
  facet normal 0.997906 -0.0646845 0
    outer loop
      vertex 109.211 51.1697 0
      vertex 109.2 51 2.25
      vertex 109.2 51 0
    endloop
  endfacet
  facet normal 0.556331 0.830961 -0
    outer loop
      vertex 109.85 49.8742 0
      vertex 109.709 49.9686 2.25
      vertex 109.85 49.8742 2.25
    endloop
  endfacet
  facet normal 0.556331 0.830961 0
    outer loop
      vertex 109.709 49.9686 2.25
      vertex 109.85 49.8742 0
      vertex 109.709 49.9686 0
    endloop
  endfacet
  facet normal 0.0651554 0.997875 -0
    outer loop
      vertex 110.5 49.7 0
      vertex 110.33 49.7111 2.25
      vertex 110.5 49.7 2.25
    endloop
  endfacet
  facet normal 0.0651554 0.997875 0
    outer loop
      vertex 110.33 49.7111 2.25
      vertex 110.5 49.7 0
      vertex 110.33 49.7111 0
    endloop
  endfacet
  facet normal 0.196116 0.980581 -0
    outer loop
      vertex 110.33 49.7111 0
      vertex 110.164 49.7443 2.25
      vertex 110.33 49.7111 2.25
    endloop
  endfacet
  facet normal 0.196116 0.980581 0
    outer loop
      vertex 110.164 49.7443 2.25
      vertex 110.33 49.7111 0
      vertex 110.164 49.7443 0
    endloop
  endfacet
  facet normal -0.65917 0.751994 0
    outer loop
      vertex 111.419 50.0808 0
      vertex 111.291 49.9686 2.25
      vertex 111.419 50.0808 2.25
    endloop
  endfacet
  facet normal -0.65917 0.751994 0
    outer loop
      vertex 111.291 49.9686 2.25
      vertex 111.419 50.0808 0
      vertex 111.291 49.9686 0
    endloop
  endfacet
  facet normal 1 -0 0
    outer loop
      vertex 130.5 44 2.25
      vertex 130.5 56 0
      vertex 130.5 56 2.25
    endloop
  endfacet
  facet normal 1 0 0
    outer loop
      vertex 130.5 56 0
      vertex 130.5 44 2.25
      vertex 130.5 44 0
    endloop
  endfacet
  facet normal 0 0 1
    outer loop
      vertex 118.9 52.6 2.25
      vertex 130.5 56 2.25
      vertex 118.9 55.4 2.25
    endloop
  endfacet
  facet normal 0 0 1
    outer loop
      vertex 130.5 56 2.25
      vertex 114.1 55.4 2.25
      vertex 118.9 55.4 2.25
    endloop
  endfacet
  facet normal 0 0 1
    outer loop
      vertex 111.15 52.1258 2.25
      vertex 114.1 52.6 2.25
      vertex 114.1 55.4 2.25
    endloop
  endfacet
  facet normal 0 0 1
    outer loop
      vertex 114.1 52.6 2.25
      vertex 111.789 51.1697 2.25
      vertex 111.8 51 2.25
    endloop
  endfacet
  facet normal 0 0 1
    outer loop
      vertex 114.1 52.6 2.25
      vertex 111.756 51.3365 2.25
      vertex 111.789 51.1697 2.25
    endloop
  endfacet
  facet normal 0 0 1
    outer loop
      vertex 114.1 52.6 2.25
      vertex 111.701 51.4975 2.25
      vertex 111.756 51.3365 2.25
    endloop
  endfacet
  facet normal 0 0 1
    outer loop
      vertex 114.1 52.6 2.25
      vertex 111.626 51.65 2.25
      vertex 111.701 51.4975 2.25
    endloop
  endfacet
  facet normal 0 0 1
    outer loop
      vertex 114.1 52.6 2.25
      vertex 111.531 51.7914 2.25
      vertex 111.626 51.65 2.25
    endloop
  endfacet
  facet normal 0 0 1
    outer loop
      vertex 114.1 52.6 2.25
      vertex 111.419 51.9192 2.25
      vertex 111.531 51.7914 2.25
    endloop
  endfacet
  facet normal 0 0 1
    outer loop
      vertex 114.1 52.6 2.25
      vertex 111.291 52.0314 2.25
      vertex 111.419 51.9192 2.25
    endloop
  endfacet
  facet normal 0 0 1
    outer loop
      vertex 114.1 52.6 2.25
      vertex 111.15 52.1258 2.25
      vertex 111.291 52.0314 2.25
    endloop
  endfacet
  facet normal 0 0 1
    outer loop
      vertex 114.1 55.4 2.25
      vertex 110.997 52.201 2.25
      vertex 111.15 52.1258 2.25
    endloop
  endfacet
  facet normal 0 0 1
    outer loop
      vertex 114.1 55.4 2.25
      vertex 110.836 52.2557 2.25
      vertex 110.997 52.201 2.25
    endloop
  endfacet
  facet normal 0 0 1
    outer loop
      vertex 114.1 55.4 2.25
      vertex 110.67 52.2889 2.25
      vertex 110.836 52.2557 2.25
    endloop
  endfacet
  facet normal 0 0 1
    outer loop
      vertex 114.1 55.4 2.25
      vertex 110.5 52.3 2.25
      vertex 110.67 52.2889 2.25
    endloop
  endfacet
  facet normal 0 0 1
    outer loop
      vertex 114.1 55.4 2.25
      vertex 110.33 52.2889 2.25
      vertex 110.5 52.3 2.25
    endloop
  endfacet
  facet normal 0 0 1
    outer loop
      vertex 114.1 55.4 2.25
      vertex 110.164 52.2557 2.25
      vertex 110.33 52.2889 2.25
    endloop
  endfacet
  facet normal 0 0 1
    outer loop
      vertex 114.1 55.4 2.25
      vertex 110.003 52.201 2.25
      vertex 110.164 52.2557 2.25
    endloop
  endfacet
  facet normal 0 0 1
    outer loop
      vertex 114.1 55.4 2.25
      vertex 109.85 52.1258 2.25
      vertex 110.003 52.201 2.25
    endloop
  endfacet
  facet normal 0 0 1
    outer loop
      vertex 81.15 52.1258 2.25
      vertex 109.85 52.1258 2.25
      vertex 114.1 55.4 2.25
    endloop
  endfacet
  facet normal 0 0 1
    outer loop
      vertex 109.211 51.1697 2.25
      vertex 81.8 51 2.25
      vertex 109.2 51 2.25
    endloop
  endfacet
  facet normal 0 0 1
    outer loop
      vertex 81.7889 51.1697 2.25
      vertex 109.211 51.1697 2.25
      vertex 109.244 51.3365 2.25
    endloop
  endfacet
  facet normal 0 0 1
    outer loop
      vertex 81.7557 51.3365 2.25
      vertex 109.244 51.3365 2.25
      vertex 109.299 51.4975 2.25
    endloop
  endfacet
  facet normal 0 0 1
    outer loop
      vertex 81.701 51.4975 2.25
      vertex 109.299 51.4975 2.25
      vertex 109.374 51.65 2.25
    endloop
  endfacet
  facet normal 0 0 1
    outer loop
      vertex 81.6258 51.65 2.25
      vertex 109.374 51.65 2.25
      vertex 109.469 51.7914 2.25
    endloop
  endfacet
  facet normal 0 0 1
    outer loop
      vertex 81.5314 51.7914 2.25
      vertex 109.469 51.7914 2.25
      vertex 109.581 51.9192 2.25
    endloop
  endfacet
  facet normal 0 0 1
    outer loop
      vertex 81.4192 51.9192 2.25
      vertex 109.581 51.9192 2.25
      vertex 109.709 52.0314 2.25
    endloop
  endfacet
  facet normal 0 0 1
    outer loop
      vertex 109.85 52.1258 2.25
      vertex 81.15 52.1258 2.25
      vertex 109.709 52.0314 2.25
    endloop
  endfacet
  facet normal 0 0 1
    outer loop
      vertex 109.211 51.1697 2.25
      vertex 81.7889 51.1697 2.25
      vertex 81.8 51 2.25
    endloop
  endfacet
  facet normal 0 0 1
    outer loop
      vertex 109.244 51.3365 2.25
      vertex 81.7557 51.3365 2.25
      vertex 81.7889 51.1697 2.25
    endloop
  endfacet
  facet normal 0 0 1
    outer loop
      vertex 109.299 51.4975 2.25
      vertex 81.701 51.4975 2.25
      vertex 81.7557 51.3365 2.25
    endloop
  endfacet
  facet normal 0 0 1
    outer loop
      vertex 109.374 51.65 2.25
      vertex 81.6258 51.65 2.25
      vertex 81.701 51.4975 2.25
    endloop
  endfacet
  facet normal 0 0 1
    outer loop
      vertex 109.469 51.7914 2.25
      vertex 81.5314 51.7914 2.25
      vertex 81.6258 51.65 2.25
    endloop
  endfacet
  facet normal 0 0 1
    outer loop
      vertex 109.581 51.9192 2.25
      vertex 81.4192 51.9192 2.25
      vertex 81.5314 51.7914 2.25
    endloop
  endfacet
  facet normal 0 0 1
    outer loop
      vertex 109.709 52.0314 2.25
      vertex 81.2914 52.0314 2.25
      vertex 81.4192 51.9192 2.25
    endloop
  endfacet
  facet normal 0 0 1
    outer loop
      vertex 109.709 52.0314 2.25
      vertex 81.15 52.1258 2.25
      vertex 81.2914 52.0314 2.25
    endloop
  endfacet
  facet normal 0 0 1
    outer loop
      vertex 114.1 55.4 2.25
      vertex 80.9975 52.201 2.25
      vertex 81.15 52.1258 2.25
    endloop
  endfacet
  facet normal 0 0 1
    outer loop
      vertex 114.1 55.4 2.25
      vertex 80.8365 52.2557 2.25
      vertex 80.9975 52.201 2.25
    endloop
  endfacet
  facet normal 0 0 1
    outer loop
      vertex 114.1 55.4 2.25
      vertex 80.6697 52.2889 2.25
      vertex 80.8365 52.2557 2.25
    endloop
  endfacet
  facet normal 0 0 1
    outer loop
      vertex 60.5 56 2.25
      vertex 80.6697 52.2889 2.25
      vertex 114.1 55.4 2.25
    endloop
  endfacet
  facet normal 0 0 1
    outer loop
      vertex 80.6697 52.2889 2.25
      vertex 60.5 56 2.25
      vertex 80.5 52.3 2.25
    endloop
  endfacet
  facet normal -0 0 1
    outer loop
      vertex 66.7393 52.8368 2.25
      vertex 79.2111 51.1697 2.25
      vertex 66.75 53 2.25
    endloop
  endfacet
  facet normal 0 0 1
    outer loop
      vertex 79.2443 51.3365 2.25
      vertex 66.75 53 2.25
      vertex 79.2111 51.1697 2.25
    endloop
  endfacet
  facet normal 0 0 1
    outer loop
      vertex 79.299 51.4975 2.25
      vertex 66.75 53 2.25
      vertex 79.2443 51.3365 2.25
    endloop
  endfacet
  facet normal 0 0 1
    outer loop
      vertex 66.7393 53.1632 2.25
      vertex 79.299 51.4975 2.25
      vertex 79.3742 51.65 2.25
    endloop
  endfacet
  facet normal 0 0 1
    outer loop
      vertex 66.7074 53.3235 2.25
      vertex 79.3742 51.65 2.25
      vertex 79.4686 51.7914 2.25
    endloop
  endfacet
  facet normal 0 0 1
    outer loop
      vertex 66.6548 53.4784 2.25
      vertex 79.4686 51.7914 2.25
      vertex 79.5808 51.9192 2.25
    endloop
  endfacet
  facet normal 0 0 1
    outer loop
      vertex 66.5825 53.625 2.25
      vertex 79.5808 51.9192 2.25
      vertex 79.7086 52.0314 2.25
    endloop
  endfacet
  facet normal 0 0 1
    outer loop
      vertex 66.4917 53.761 2.25
      vertex 79.7086 52.0314 2.25
      vertex 79.85 52.1258 2.25
    endloop
  endfacet
  facet normal 0 0 1
    outer loop
      vertex 66.3839 53.8839 2.25
      vertex 79.85 52.1258 2.25
      vertex 80.0025 52.201 2.25
    endloop
  endfacet
  facet normal 0 0 1
    outer loop
      vertex 66.2609 53.9917 2.25
      vertex 80.0025 52.201 2.25
      vertex 80.1635 52.2557 2.25
    endloop
  endfacet
  facet normal 0 0 1
    outer loop
      vertex 66.125 54.0825 2.25
      vertex 80.1635 52.2557 2.25
      vertex 80.3303 52.2889 2.25
    endloop
  endfacet
  facet normal -0 -0 1
    outer loop
      vertex 65.8235 54.2074 2.25
      vertex 80.5 52.3 2.25
      vertex 60.5 56 2.25
    endloop
  endfacet
  facet normal 0 0 1
    outer loop
      vertex 79.299 51.4975 2.25
      vertex 66.7393 53.1632 2.25
      vertex 66.75 53 2.25
    endloop
  endfacet
  facet normal 0 0 1
    outer loop
      vertex 79.3742 51.65 2.25
      vertex 66.7074 53.3235 2.25
      vertex 66.7393 53.1632 2.25
    endloop
  endfacet
  facet normal 0 0 1
    outer loop
      vertex 79.4686 51.7914 2.25
      vertex 66.6548 53.4784 2.25
      vertex 66.7074 53.3235 2.25
    endloop
  endfacet
  facet normal 0 0 1
    outer loop
      vertex 79.5808 51.9192 2.25
      vertex 66.5825 53.625 2.25
      vertex 66.6548 53.4784 2.25
    endloop
  endfacet
  facet normal 0 0 1
    outer loop
      vertex 79.7086 52.0314 2.25
      vertex 66.4917 53.761 2.25
      vertex 66.5825 53.625 2.25
    endloop
  endfacet
  facet normal -0 0 1
    outer loop
      vertex 60.5 56 2.25
      vertex 114.1 55.4 2.25
      vertex 130.5 56 2.25
    endloop
  endfacet
  facet normal 0 0 1
    outer loop
      vertex 79.85 52.1258 2.25
      vertex 66.3839 53.8839 2.25
      vertex 66.4917 53.761 2.25
    endloop
  endfacet
  facet normal 0 0 1
    outer loop
      vertex 80.0025 52.201 2.25
      vertex 66.2609 53.9917 2.25
      vertex 66.3839 53.8839 2.25
    endloop
  endfacet
  facet normal 0 0 1
    outer loop
      vertex 80.1635 52.2557 2.25
      vertex 66.125 54.0825 2.25
      vertex 66.2609 53.9917 2.25
    endloop
  endfacet
  facet normal 0 0 1
    outer loop
      vertex 80.3303 52.2889 2.25
      vertex 65.9784 54.1549 2.25
      vertex 66.125 54.0825 2.25
    endloop
  endfacet
  facet normal 0 0 1
    outer loop
      vertex 80.3303 52.2889 2.25
      vertex 65.8235 54.2074 2.25
      vertex 65.9784 54.1549 2.25
    endloop
  endfacet
  facet normal 0 0 1
    outer loop
      vertex 80.5 52.3 2.25
      vertex 65.8235 54.2074 2.25
      vertex 80.3303 52.2889 2.25
    endloop
  endfacet
  facet normal 0 0 1
    outer loop
      vertex 65.8235 54.2074 2.25
      vertex 60.5 56 2.25
      vertex 65.6632 54.2393 2.25
    endloop
  endfacet
  facet normal 0 0 1
    outer loop
      vertex 64.2607 53.1632 2.25
      vertex 60.5 56 2.25
      vertex 64.25 53 2.25
    endloop
  endfacet
  facet normal 0 0 1
    outer loop
      vertex 64.2926 53.3235 2.25
      vertex 60.5 56 2.25
      vertex 64.2607 53.1632 2.25
    endloop
  endfacet
  facet normal 0 0 1
    outer loop
      vertex 64.3452 53.4784 2.25
      vertex 60.5 56 2.25
      vertex 64.2926 53.3235 2.25
    endloop
  endfacet
  facet normal 0 0 1
    outer loop
      vertex 64.4175 53.625 2.25
      vertex 60.5 56 2.25
      vertex 64.3452 53.4784 2.25
    endloop
  endfacet
  facet normal 0 0 1
    outer loop
      vertex 64.5083 53.761 2.25
      vertex 60.5 56 2.25
      vertex 64.4175 53.625 2.25
    endloop
  endfacet
  facet normal 0 0 1
    outer loop
      vertex 64.6161 53.8839 2.25
      vertex 60.5 56 2.25
      vertex 64.5083 53.761 2.25
    endloop
  endfacet
  facet normal 0 0 1
    outer loop
      vertex 64.739 53.9917 2.25
      vertex 60.5 56 2.25
      vertex 64.6161 53.8839 2.25
    endloop
  endfacet
  facet normal 0 0 1
    outer loop
      vertex 64.875 54.0825 2.25
      vertex 60.5 56 2.25
      vertex 64.739 53.9917 2.25
    endloop
  endfacet
  facet normal 0 0 1
    outer loop
      vertex 65.0216 54.1549 2.25
      vertex 60.5 56 2.25
      vertex 64.875 54.0825 2.25
    endloop
  endfacet
  facet normal 0 0 1
    outer loop
      vertex 65.1765 54.2074 2.25
      vertex 60.5 56 2.25
      vertex 65.0216 54.1549 2.25
    endloop
  endfacet
  facet normal 0 0 1
    outer loop
      vertex 65.3368 54.2393 2.25
      vertex 60.5 56 2.25
      vertex 65.1765 54.2074 2.25
    endloop
  endfacet
  facet normal 0 0 1
    outer loop
      vertex 65.5 54.25 2.25
      vertex 60.5 56 2.25
      vertex 65.3368 54.2393 2.25
    endloop
  endfacet
  facet normal 0 0 1
    outer loop
      vertex 65.6632 54.2393 2.25
      vertex 60.5 56 2.25
      vertex 65.5 54.25 2.25
    endloop
  endfacet
  facet normal 0 0 1
    outer loop
      vertex 130.5 56 2.25
      vertex 118.9 52.6 2.25
      vertex 130.5 44 2.25
    endloop
  endfacet
  facet normal 0 0 1
    outer loop
      vertex 111.626 50.35 2.25
      vertex 118.9 52.6 2.25
      vertex 114.1 52.6 2.25
    endloop
  endfacet
  facet normal 0 0 1
    outer loop
      vertex 111.789 50.8303 2.25
      vertex 114.1 52.6 2.25
      vertex 111.8 51 2.25
    endloop
  endfacet
  facet normal 0 0 1
    outer loop
      vertex 111.756 50.6635 2.25
      vertex 114.1 52.6 2.25
      vertex 111.789 50.8303 2.25
    endloop
  endfacet
  facet normal 0 0 1
    outer loop
      vertex 111.701 50.5025 2.25
      vertex 114.1 52.6 2.25
      vertex 111.756 50.6635 2.25
    endloop
  endfacet
  facet normal 0 0 1
    outer loop
      vertex 111.626 50.35 2.25
      vertex 114.1 52.6 2.25
      vertex 111.701 50.5025 2.25
    endloop
  endfacet
  facet normal 0 0 1
    outer loop
      vertex 118.9 52.6 2.25
      vertex 111.626 50.35 2.25
      vertex 111.531 50.2086 2.25
    endloop
  endfacet
  facet normal 0 0 1
    outer loop
      vertex 111.419 50.0808 2.25
      vertex 118.9 52.6 2.25
      vertex 111.531 50.2086 2.25
    endloop
  endfacet
  facet normal 0 0 1
    outer loop
      vertex 111.291 49.9686 2.25
      vertex 118.9 52.6 2.25
      vertex 111.419 50.0808 2.25
    endloop
  endfacet
  facet normal 0 0 1
    outer loop
      vertex 118.9 52.6 2.25
      vertex 111.291 49.9686 2.25
      vertex 130.5 44 2.25
    endloop
  endfacet
  facet normal -0 0 1
    outer loop
      vertex 111.15 49.8742 2.25
      vertex 130.5 44 2.25
      vertex 111.291 49.9686 2.25
    endloop
  endfacet
  facet normal -0 0 1
    outer loop
      vertex 110.997 49.799 2.25
      vertex 130.5 44 2.25
      vertex 111.15 49.8742 2.25
    endloop
  endfacet
  facet normal -0 0 1
    outer loop
      vertex 110.836 49.7443 2.25
      vertex 130.5 44 2.25
      vertex 110.997 49.799 2.25
    endloop
  endfacet
  facet normal -0 0 1
    outer loop
      vertex 110.67 49.7111 2.25
      vertex 130.5 44 2.25
      vertex 110.836 49.7443 2.25
    endloop
  endfacet
  facet normal -0 0 1
    outer loop
      vertex 110.5 49.7 2.25
      vertex 130.5 44 2.25
      vertex 110.67 49.7111 2.25
    endloop
  endfacet
  facet normal 0 0 1
    outer loop
      vertex 110.33 49.7111 2.25
      vertex 130.5 44 2.25
      vertex 110.5 49.7 2.25
    endloop
  endfacet
  facet normal 0 0 1
    outer loop
      vertex 80.6697 49.7111 2.25
      vertex 110.33 49.7111 2.25
      vertex 110.164 49.7443 2.25
    endloop
  endfacet
  facet normal -0 0 1
    outer loop
      vertex 81.8 51 2.25
      vertex 109.211 50.8303 2.25
      vertex 109.2 51 2.25
    endloop
  endfacet
  facet normal 0 0 1
    outer loop
      vertex 81.7889 50.8303 2.25
      vertex 109.211 50.8303 2.25
      vertex 81.8 51 2.25
    endloop
  endfacet
  facet normal 0 0 1
    outer loop
      vertex 109.211 50.8303 2.25
      vertex 81.7889 50.8303 2.25
      vertex 109.244 50.6635 2.25
    endloop
  endfacet
  facet normal 0 0 1
    outer loop
      vertex 81.7557 50.6635 2.25
      vertex 109.244 50.6635 2.25
      vertex 81.7889 50.8303 2.25
    endloop
  endfacet
  facet normal 0 0 1
    outer loop
      vertex 109.244 50.6635 2.25
      vertex 81.7557 50.6635 2.25
      vertex 109.299 50.5025 2.25
    endloop
  endfacet
  facet normal 0 0 1
    outer loop
      vertex 81.701 50.5025 2.25
      vertex 109.299 50.5025 2.25
      vertex 81.7557 50.6635 2.25
    endloop
  endfacet
  facet normal 0 0 1
    outer loop
      vertex 109.299 50.5025 2.25
      vertex 81.701 50.5025 2.25
      vertex 109.374 50.35 2.25
    endloop
  endfacet
  facet normal 0 0 1
    outer loop
      vertex 81.6258 50.35 2.25
      vertex 109.374 50.35 2.25
      vertex 81.701 50.5025 2.25
    endloop
  endfacet
  facet normal 0 0 1
    outer loop
      vertex 109.374 50.35 2.25
      vertex 81.6258 50.35 2.25
      vertex 109.469 50.2086 2.25
    endloop
  endfacet
  facet normal 0 0 1
    outer loop
      vertex 81.5314 50.2086 2.25
      vertex 109.469 50.2086 2.25
      vertex 81.6258 50.35 2.25
    endloop
  endfacet
  facet normal 0 0 1
    outer loop
      vertex 109.469 50.2086 2.25
      vertex 81.5314 50.2086 2.25
      vertex 109.581 50.0808 2.25
    endloop
  endfacet
  facet normal 0 0 1
    outer loop
      vertex 81.4192 50.0808 2.25
      vertex 109.581 50.0808 2.25
      vertex 81.5314 50.2086 2.25
    endloop
  endfacet
  facet normal 0 0 1
    outer loop
      vertex 109.581 50.0808 2.25
      vertex 81.4192 50.0808 2.25
      vertex 109.709 49.9686 2.25
    endloop
  endfacet
  facet normal 0 0 1
    outer loop
      vertex 81.2914 49.9686 2.25
      vertex 109.709 49.9686 2.25
      vertex 81.4192 50.0808 2.25
    endloop
  endfacet
  facet normal 0 0 1
    outer loop
      vertex 109.709 49.9686 2.25
      vertex 81.2914 49.9686 2.25
      vertex 109.85 49.8742 2.25
    endloop
  endfacet
  facet normal 0 0 1
    outer loop
      vertex 81.15 49.8742 2.25
      vertex 109.85 49.8742 2.25
      vertex 81.2914 49.9686 2.25
    endloop
  endfacet
  facet normal 0 0 1
    outer loop
      vertex 109.85 49.8742 2.25
      vertex 81.15 49.8742 2.25
      vertex 110.003 49.799 2.25
    endloop
  endfacet
  facet normal 0 0 1
    outer loop
      vertex 80.9975 49.799 2.25
      vertex 110.003 49.799 2.25
      vertex 81.15 49.8742 2.25
    endloop
  endfacet
  facet normal 0 0 1
    outer loop
      vertex 110.003 49.799 2.25
      vertex 80.9975 49.799 2.25
      vertex 110.164 49.7443 2.25
    endloop
  endfacet
  facet normal 0 0 1
    outer loop
      vertex 80.8365 49.7443 2.25
      vertex 110.164 49.7443 2.25
      vertex 80.9975 49.799 2.25
    endloop
  endfacet
  facet normal 0 0 1
    outer loop
      vertex 80.6697 49.7111 2.25
      vertex 110.164 49.7443 2.25
      vertex 80.8365 49.7443 2.25
    endloop
  endfacet
  facet normal 0 0 1
    outer loop
      vertex 110.33 49.7111 2.25
      vertex 80.6697 49.7111 2.25
      vertex 130.5 44 2.25
    endloop
  endfacet
  facet normal 0 0 1
    outer loop
      vertex 60.5 44 2.25
      vertex 80.6697 49.7111 2.25
      vertex 80.5 49.7 2.25
    endloop
  endfacet
  facet normal 0 0 1
    outer loop
      vertex 60.5 44 2.25
      vertex 80.5 49.7 2.25
      vertex 80.3303 49.7111 2.25
    endloop
  endfacet
  facet normal 0 0 1
    outer loop
      vertex 79.2111 51.1697 2.25
      vertex 66.7393 52.8368 2.25
      vertex 79.2 51 2.25
    endloop
  endfacet
  facet normal -0 0 1
    outer loop
      vertex 66.7074 52.6765 2.25
      vertex 79.2 51 2.25
      vertex 66.7393 52.8368 2.25
    endloop
  endfacet
  facet normal 0 0 1
    outer loop
      vertex 79.2 51 2.25
      vertex 66.7074 52.6765 2.25
      vertex 79.2111 50.8303 2.25
    endloop
  endfacet
  facet normal -0 0 1
    outer loop
      vertex 66.6548 52.5216 2.25
      vertex 79.2111 50.8303 2.25
      vertex 66.7074 52.6765 2.25
    endloop
  endfacet
  facet normal 0 0 1
    outer loop
      vertex 79.2111 50.8303 2.25
      vertex 66.6548 52.5216 2.25
      vertex 79.2443 50.6635 2.25
    endloop
  endfacet
  facet normal -0 0 1
    outer loop
      vertex 66.5825 52.375 2.25
      vertex 79.2443 50.6635 2.25
      vertex 66.6548 52.5216 2.25
    endloop
  endfacet
  facet normal 0 0 1
    outer loop
      vertex 79.2443 50.6635 2.25
      vertex 66.5825 52.375 2.25
      vertex 79.299 50.5025 2.25
    endloop
  endfacet
  facet normal -0 0 1
    outer loop
      vertex 66.4917 52.239 2.25
      vertex 79.299 50.5025 2.25
      vertex 66.5825 52.375 2.25
    endloop
  endfacet
  facet normal 0 0 1
    outer loop
      vertex 79.299 50.5025 2.25
      vertex 66.4917 52.239 2.25
      vertex 79.3742 50.35 2.25
    endloop
  endfacet
  facet normal -0 0 1
    outer loop
      vertex 66.3839 52.1161 2.25
      vertex 79.3742 50.35 2.25
      vertex 66.4917 52.239 2.25
    endloop
  endfacet
  facet normal 0 0 1
    outer loop
      vertex 79.3742 50.35 2.25
      vertex 66.3839 52.1161 2.25
      vertex 79.4686 50.2086 2.25
    endloop
  endfacet
  facet normal -0 0 1
    outer loop
      vertex 66.2609 52.0083 2.25
      vertex 79.4686 50.2086 2.25
      vertex 66.3839 52.1161 2.25
    endloop
  endfacet
  facet normal 0 0 1
    outer loop
      vertex 79.4686 50.2086 2.25
      vertex 66.2609 52.0083 2.25
      vertex 79.5808 50.0808 2.25
    endloop
  endfacet
  facet normal -0 0 1
    outer loop
      vertex 66.125 51.9175 2.25
      vertex 79.5808 50.0808 2.25
      vertex 66.2609 52.0083 2.25
    endloop
  endfacet
  facet normal 0 0 1
    outer loop
      vertex 60.5 44 2.25
      vertex 79.5808 50.0808 2.25
      vertex 66.125 51.9175 2.25
    endloop
  endfacet
  facet normal 0 0 1
    outer loop
      vertex 79.5808 50.0808 2.25
      vertex 60.5 44 2.25
      vertex 79.7086 49.9686 2.25
    endloop
  endfacet
  facet normal 0 0 1
    outer loop
      vertex 79.7086 49.9686 2.25
      vertex 60.5 44 2.25
      vertex 79.85 49.8742 2.25
    endloop
  endfacet
  facet normal 0 0 1
    outer loop
      vertex 79.85 49.8742 2.25
      vertex 60.5 44 2.25
      vertex 80.0025 49.799 2.25
    endloop
  endfacet
  facet normal 0 0 1
    outer loop
      vertex 80.0025 49.799 2.25
      vertex 60.5 44 2.25
      vertex 80.1635 49.7443 2.25
    endloop
  endfacet
  facet normal 0 0 1
    outer loop
      vertex 60.5 44 2.25
      vertex 66.125 51.9175 2.25
      vertex 65.9784 51.8451 2.25
    endloop
  endfacet
  facet normal 0 0 1
    outer loop
      vertex 60.5 44 2.25
      vertex 65.9784 51.8451 2.25
      vertex 65.8235 51.7926 2.25
    endloop
  endfacet
  facet normal 0 0 1
    outer loop
      vertex 60.5 44 2.25
      vertex 65.8235 51.7926 2.25
      vertex 65.6632 51.7607 2.25
    endloop
  endfacet
  facet normal 0 0 1
    outer loop
      vertex 60.5 44 2.25
      vertex 65.6632 51.7607 2.25
      vertex 65.5 51.75 2.25
    endloop
  endfacet
  facet normal 0 0 1
    outer loop
      vertex 60.5 44 2.25
      vertex 65.5 51.75 2.25
      vertex 65.3368 51.7607 2.25
    endloop
  endfacet
  facet normal 0 0 1
    outer loop
      vertex 60.5 56 2.25
      vertex 64.2607 52.8368 2.25
      vertex 64.25 53 2.25
    endloop
  endfacet
  facet normal 0 0 1
    outer loop
      vertex 60.5 56 2.25
      vertex 64.2926 52.6765 2.25
      vertex 64.2607 52.8368 2.25
    endloop
  endfacet
  facet normal 0 0 1
    outer loop
      vertex 60.5 56 2.25
      vertex 64.3452 52.5216 2.25
      vertex 64.2926 52.6765 2.25
    endloop
  endfacet
  facet normal 0 0 1
    outer loop
      vertex 60.5 44 2.25
      vertex 64.3452 52.5216 2.25
      vertex 60.5 56 2.25
    endloop
  endfacet
  facet normal 0 0 1
    outer loop
      vertex 64.3452 52.5216 2.25
      vertex 60.5 44 2.25
      vertex 64.4175 52.375 2.25
    endloop
  endfacet
  facet normal 0 0 1
    outer loop
      vertex 64.4175 52.375 2.25
      vertex 60.5 44 2.25
      vertex 64.5083 52.239 2.25
    endloop
  endfacet
  facet normal 0 0 1
    outer loop
      vertex 80.6697 49.7111 2.25
      vertex 60.5 44 2.25
      vertex 130.5 44 2.25
    endloop
  endfacet
  facet normal 0 0 1
    outer loop
      vertex 80.1635 49.7443 2.25
      vertex 60.5 44 2.25
      vertex 80.3303 49.7111 2.25
    endloop
  endfacet
  facet normal 0 0 1
    outer loop
      vertex 65.1765 51.7926 2.25
      vertex 60.5 44 2.25
      vertex 65.3368 51.7607 2.25
    endloop
  endfacet
  facet normal 0 0 1
    outer loop
      vertex 65.0216 51.8451 2.25
      vertex 60.5 44 2.25
      vertex 65.1765 51.7926 2.25
    endloop
  endfacet
  facet normal 0 0 1
    outer loop
      vertex 64.875 51.9175 2.25
      vertex 60.5 44 2.25
      vertex 65.0216 51.8451 2.25
    endloop
  endfacet
  facet normal 0 0 1
    outer loop
      vertex 64.739 52.0083 2.25
      vertex 60.5 44 2.25
      vertex 64.875 51.9175 2.25
    endloop
  endfacet
  facet normal 0 0 1
    outer loop
      vertex 64.6161 52.1161 2.25
      vertex 60.5 44 2.25
      vertex 64.739 52.0083 2.25
    endloop
  endfacet
  facet normal 0 0 1
    outer loop
      vertex 64.5083 52.239 2.25
      vertex 60.5 44 2.25
      vertex 64.6161 52.1161 2.25
    endloop
  endfacet
  facet normal 0 0 -1
    outer loop
      vertex 130.5 44 0
      vertex 118.9 52.6 0
      vertex 130.5 56 0
    endloop
  endfacet
  facet normal 0 0 -1
    outer loop
      vertex 111.291 49.9686 0
      vertex 118.9 52.6 0
      vertex 130.5 44 0
    endloop
  endfacet
  facet normal 0 0 -1
    outer loop
      vertex 111.789 51.1697 0
      vertex 114.1 52.6 0
      vertex 111.8 51 0
    endloop
  endfacet
  facet normal 0 -0 -1
    outer loop
      vertex 111.626 50.35 0
      vertex 118.9 52.6 0
      vertex 111.531 50.2086 0
    endloop
  endfacet
  facet normal 0 0 -1
    outer loop
      vertex 114.1 52.6 0
      vertex 111.789 50.8303 0
      vertex 111.8 51 0
    endloop
  endfacet
  facet normal 0 0 -1
    outer loop
      vertex 114.1 52.6 0
      vertex 111.756 50.6635 0
      vertex 111.789 50.8303 0
    endloop
  endfacet
  facet normal 0 0 -1
    outer loop
      vertex 114.1 52.6 0
      vertex 111.701 50.5025 0
      vertex 111.756 50.6635 0
    endloop
  endfacet
  facet normal 0 0 -1
    outer loop
      vertex 114.1 52.6 0
      vertex 111.626 50.35 0
      vertex 111.701 50.5025 0
    endloop
  endfacet
  facet normal -0 0 -1
    outer loop
      vertex 118.9 52.6 0
      vertex 111.626 50.35 0
      vertex 114.1 52.6 0
    endloop
  endfacet
  facet normal 0 0 -1
    outer loop
      vertex 118.9 52.6 0
      vertex 111.419 50.0808 0
      vertex 111.531 50.2086 0
    endloop
  endfacet
  facet normal 0 0 -1
    outer loop
      vertex 118.9 52.6 0
      vertex 111.291 49.9686 0
      vertex 111.419 50.0808 0
    endloop
  endfacet
  facet normal 0 0 -1
    outer loop
      vertex 130.5 44 0
      vertex 111.15 49.8742 0
      vertex 111.291 49.9686 0
    endloop
  endfacet
  facet normal 0 0 -1
    outer loop
      vertex 130.5 44 0
      vertex 110.997 49.799 0
      vertex 111.15 49.8742 0
    endloop
  endfacet
  facet normal 0 0 -1
    outer loop
      vertex 130.5 44 0
      vertex 110.836 49.7443 0
      vertex 110.997 49.799 0
    endloop
  endfacet
  facet normal 0 0 -1
    outer loop
      vertex 130.5 44 0
      vertex 110.67 49.7111 0
      vertex 110.836 49.7443 0
    endloop
  endfacet
  facet normal 0 0 -1
    outer loop
      vertex 130.5 44 0
      vertex 110.5 49.7 0
      vertex 110.67 49.7111 0
    endloop
  endfacet
  facet normal 0 0 -1
    outer loop
      vertex 130.5 44 0
      vertex 110.33 49.7111 0
      vertex 110.5 49.7 0
    endloop
  endfacet
  facet normal 0 0 -1
    outer loop
      vertex 80.6697 49.7111 0
      vertex 110.33 49.7111 0
      vertex 130.5 44 0
    endloop
  endfacet
  facet normal 0 0 -1
    outer loop
      vertex 109.211 50.8303 0
      vertex 81.8 51 0
      vertex 109.2 51 0
    endloop
  endfacet
  facet normal 0 0 -1
    outer loop
      vertex 81.7889 50.8303 0
      vertex 109.211 50.8303 0
      vertex 109.244 50.6635 0
    endloop
  endfacet
  facet normal 0 0 -1
    outer loop
      vertex 81.7557 50.6635 0
      vertex 109.244 50.6635 0
      vertex 109.299 50.5025 0
    endloop
  endfacet
  facet normal 0 0 -1
    outer loop
      vertex 81.701 50.5025 0
      vertex 109.299 50.5025 0
      vertex 109.374 50.35 0
    endloop
  endfacet
  facet normal 0 0 -1
    outer loop
      vertex 81.6258 50.35 0
      vertex 109.374 50.35 0
      vertex 109.469 50.2086 0
    endloop
  endfacet
  facet normal 0 0 -1
    outer loop
      vertex 81.5314 50.2086 0
      vertex 109.469 50.2086 0
      vertex 109.581 50.0808 0
    endloop
  endfacet
  facet normal 0 0 -1
    outer loop
      vertex 81.4192 50.0808 0
      vertex 109.581 50.0808 0
      vertex 109.709 49.9686 0
    endloop
  endfacet
  facet normal 0 0 -1
    outer loop
      vertex 81.2914 49.9686 0
      vertex 109.709 49.9686 0
      vertex 109.85 49.8742 0
    endloop
  endfacet
  facet normal 0 0 -1
    outer loop
      vertex 81.15 49.8742 0
      vertex 109.85 49.8742 0
      vertex 110.003 49.799 0
    endloop
  endfacet
  facet normal 0 0 -1
    outer loop
      vertex 80.9975 49.799 0
      vertex 110.003 49.799 0
      vertex 110.164 49.7443 0
    endloop
  endfacet
  facet normal 0 0 -1
    outer loop
      vertex 110.33 49.7111 0
      vertex 80.6697 49.7111 0
      vertex 110.164 49.7443 0
    endloop
  endfacet
  facet normal 0 0 -1
    outer loop
      vertex 109.211 50.8303 0
      vertex 81.7889 50.8303 0
      vertex 81.8 51 0
    endloop
  endfacet
  facet normal 0 0 -1
    outer loop
      vertex 109.244 50.6635 0
      vertex 81.7557 50.6635 0
      vertex 81.7889 50.8303 0
    endloop
  endfacet
  facet normal 0 0 -1
    outer loop
      vertex 109.299 50.5025 0
      vertex 81.701 50.5025 0
      vertex 81.7557 50.6635 0
    endloop
  endfacet
  facet normal 0 0 -1
    outer loop
      vertex 109.374 50.35 0
      vertex 81.6258 50.35 0
      vertex 81.701 50.5025 0
    endloop
  endfacet
  facet normal 0 0 -1
    outer loop
      vertex 109.469 50.2086 0
      vertex 81.5314 50.2086 0
      vertex 81.6258 50.35 0
    endloop
  endfacet
  facet normal 0 0 -1
    outer loop
      vertex 109.581 50.0808 0
      vertex 81.4192 50.0808 0
      vertex 81.5314 50.2086 0
    endloop
  endfacet
  facet normal 0 0 -1
    outer loop
      vertex 109.709 49.9686 0
      vertex 81.2914 49.9686 0
      vertex 81.4192 50.0808 0
    endloop
  endfacet
  facet normal 0 0 -1
    outer loop
      vertex 109.85 49.8742 0
      vertex 81.15 49.8742 0
      vertex 81.2914 49.9686 0
    endloop
  endfacet
  facet normal 0 0 -1
    outer loop
      vertex 110.003 49.799 0
      vertex 80.9975 49.799 0
      vertex 81.15 49.8742 0
    endloop
  endfacet
  facet normal 0 0 -1
    outer loop
      vertex 110.164 49.7443 0
      vertex 80.8365 49.7443 0
      vertex 80.9975 49.799 0
    endloop
  endfacet
  facet normal -0 0 -1
    outer loop
      vertex 110.164 49.7443 0
      vertex 80.6697 49.7111 0
      vertex 80.8365 49.7443 0
    endloop
  endfacet
  facet normal 0 0 -1
    outer loop
      vertex 60.5 44 0
      vertex 80.6697 49.7111 0
      vertex 130.5 44 0
    endloop
  endfacet
  facet normal 0 0 -1
    outer loop
      vertex 80.6697 49.7111 0
      vertex 60.5 44 0
      vertex 80.5 49.7 0
    endloop
  endfacet
  facet normal 0 0 -1
    outer loop
      vertex 66.7074 52.6765 0
      vertex 79.2 51 0
      vertex 79.2111 50.8303 0
    endloop
  endfacet
  facet normal 0 0 -1
    outer loop
      vertex 66.6548 52.5216 0
      vertex 79.2111 50.8303 0
      vertex 79.2443 50.6635 0
    endloop
  endfacet
  facet normal 0 0 -1
    outer loop
      vertex 66.5825 52.375 0
      vertex 79.2443 50.6635 0
      vertex 79.299 50.5025 0
    endloop
  endfacet
  facet normal 0 0 -1
    outer loop
      vertex 66.4917 52.239 0
      vertex 79.299 50.5025 0
      vertex 79.3742 50.35 0
    endloop
  endfacet
  facet normal 0 0 -1
    outer loop
      vertex 66.3839 52.1161 0
      vertex 79.3742 50.35 0
      vertex 79.4686 50.2086 0
    endloop
  endfacet
  facet normal 0 0 -1
    outer loop
      vertex 66.2609 52.0083 0
      vertex 79.4686 50.2086 0
      vertex 79.5808 50.0808 0
    endloop
  endfacet
  facet normal 0 0 -1
    outer loop
      vertex 60.5 44 0
      vertex 79.5808 50.0808 0
      vertex 79.7086 49.9686 0
    endloop
  endfacet
  facet normal 0 0 -1
    outer loop
      vertex 60.5 44 0
      vertex 79.7086 49.9686 0
      vertex 79.85 49.8742 0
    endloop
  endfacet
  facet normal 0 0 -1
    outer loop
      vertex 60.5 44 0
      vertex 79.85 49.8742 0
      vertex 80.0025 49.799 0
    endloop
  endfacet
  facet normal 0 0 -1
    outer loop
      vertex 60.5 44 0
      vertex 80.0025 49.799 0
      vertex 80.1635 49.7443 0
    endloop
  endfacet
  facet normal 0 0 -1
    outer loop
      vertex 79.2 51 0
      vertex 66.7393 52.8368 0
      vertex 66.75 53 0
    endloop
  endfacet
  facet normal 0 0 -1
    outer loop
      vertex 79.2 51 0
      vertex 66.7074 52.6765 0
      vertex 66.7393 52.8368 0
    endloop
  endfacet
  facet normal 0 0 -1
    outer loop
      vertex 79.2111 50.8303 0
      vertex 66.6548 52.5216 0
      vertex 66.7074 52.6765 0
    endloop
  endfacet
  facet normal 0 0 -1
    outer loop
      vertex 79.2443 50.6635 0
      vertex 66.5825 52.375 0
      vertex 66.6548 52.5216 0
    endloop
  endfacet
  facet normal 0 0 -1
    outer loop
      vertex 60.5 44 0
      vertex 80.1635 49.7443 0
      vertex 80.3303 49.7111 0
    endloop
  endfacet
  facet normal 0 0 -1
    outer loop
      vertex 79.299 50.5025 0
      vertex 66.4917 52.239 0
      vertex 66.5825 52.375 0
    endloop
  endfacet
  facet normal 0 0 -1
    outer loop
      vertex 79.3742 50.35 0
      vertex 66.3839 52.1161 0
      vertex 66.4917 52.239 0
    endloop
  endfacet
  facet normal 0 0 -1
    outer loop
      vertex 79.4686 50.2086 0
      vertex 66.2609 52.0083 0
      vertex 66.3839 52.1161 0
    endloop
  endfacet
  facet normal 0 0 -1
    outer loop
      vertex 79.5808 50.0808 0
      vertex 66.125 51.9175 0
      vertex 66.2609 52.0083 0
    endloop
  endfacet
  facet normal -0 0 -1
    outer loop
      vertex 79.5808 50.0808 0
      vertex 60.5 44 0
      vertex 66.125 51.9175 0
    endloop
  endfacet
  facet normal 0 0 -1
    outer loop
      vertex 66.125 51.9175 0
      vertex 60.5 44 0
      vertex 65.9784 51.8451 0
    endloop
  endfacet
  facet normal 0 0 -1
    outer loop
      vertex 65.9784 51.8451 0
      vertex 60.5 44 0
      vertex 65.8235 51.7926 0
    endloop
  endfacet
  facet normal 0 0 -1
    outer loop
      vertex 65.8235 51.7926 0
      vertex 60.5 44 0
      vertex 65.6632 51.7607 0
    endloop
  endfacet
  facet normal 0 0 -1
    outer loop
      vertex 65.6632 51.7607 0
      vertex 60.5 44 0
      vertex 65.5 51.75 0
    endloop
  endfacet
  facet normal 0 0 -1
    outer loop
      vertex 64.2926 52.6765 0
      vertex 60.5 56 0
      vertex 64.2607 52.8368 0
    endloop
  endfacet
  facet normal 0 0 -1
    outer loop
      vertex 64.3452 52.5216 0
      vertex 60.5 56 0
      vertex 64.2926 52.6765 0
    endloop
  endfacet
  facet normal 0 0 -1
    outer loop
      vertex 60.5 56 0
      vertex 64.3452 52.5216 0
      vertex 60.5 44 0
    endloop
  endfacet
  facet normal -0 0 -1
    outer loop
      vertex 64.4175 52.375 0
      vertex 60.5 44 0
      vertex 64.3452 52.5216 0
    endloop
  endfacet
  facet normal -0 0 -1
    outer loop
      vertex 64.5083 52.239 0
      vertex 60.5 44 0
      vertex 64.4175 52.375 0
    endloop
  endfacet
  facet normal -0 0 -1
    outer loop
      vertex 64.6161 52.1161 0
      vertex 60.5 44 0
      vertex 64.5083 52.239 0
    endloop
  endfacet
  facet normal -0 0 -1
    outer loop
      vertex 64.739 52.0083 0
      vertex 60.5 44 0
      vertex 64.6161 52.1161 0
    endloop
  endfacet
  facet normal -0 0 -1
    outer loop
      vertex 64.875 51.9175 0
      vertex 60.5 44 0
      vertex 64.739 52.0083 0
    endloop
  endfacet
  facet normal -0 0 -1
    outer loop
      vertex 65.0216 51.8451 0
      vertex 60.5 44 0
      vertex 64.875 51.9175 0
    endloop
  endfacet
  facet normal -0 0 -1
    outer loop
      vertex 65.1765 51.7926 0
      vertex 60.5 44 0
      vertex 65.0216 51.8451 0
    endloop
  endfacet
  facet normal -0 0 -1
    outer loop
      vertex 65.3368 51.7607 0
      vertex 60.5 44 0
      vertex 65.1765 51.7926 0
    endloop
  endfacet
  facet normal -0 0 -1
    outer loop
      vertex 65.5 51.75 0
      vertex 60.5 44 0
      vertex 65.3368 51.7607 0
    endloop
  endfacet
  facet normal -0 0 -1
    outer loop
      vertex 80.5 49.7 0
      vertex 60.5 44 0
      vertex 80.3303 49.7111 0
    endloop
  endfacet
  facet normal 0 0 -1
    outer loop
      vertex 118.9 55.4 0
      vertex 130.5 56 0
      vertex 118.9 52.6 0
    endloop
  endfacet
  facet normal 0 0 -1
    outer loop
      vertex 114.1 55.4 0
      vertex 130.5 56 0
      vertex 118.9 55.4 0
    endloop
  endfacet
  facet normal 0 0 -1
    outer loop
      vertex 111.756 51.3365 0
      vertex 114.1 52.6 0
      vertex 111.789 51.1697 0
    endloop
  endfacet
  facet normal 0 0 -1
    outer loop
      vertex 111.701 51.4975 0
      vertex 114.1 52.6 0
      vertex 111.756 51.3365 0
    endloop
  endfacet
  facet normal 0 0 -1
    outer loop
      vertex 111.626 51.65 0
      vertex 114.1 52.6 0
      vertex 111.701 51.4975 0
    endloop
  endfacet
  facet normal 0 0 -1
    outer loop
      vertex 111.531 51.7914 0
      vertex 114.1 52.6 0
      vertex 111.626 51.65 0
    endloop
  endfacet
  facet normal 0 0 -1
    outer loop
      vertex 111.419 51.9192 0
      vertex 114.1 52.6 0
      vertex 111.531 51.7914 0
    endloop
  endfacet
  facet normal 0 0 -1
    outer loop
      vertex 111.291 52.0314 0
      vertex 114.1 52.6 0
      vertex 111.419 51.9192 0
    endloop
  endfacet
  facet normal 0 0 -1
    outer loop
      vertex 111.15 52.1258 0
      vertex 114.1 52.6 0
      vertex 111.291 52.0314 0
    endloop
  endfacet
  facet normal -0 0 -1
    outer loop
      vertex 114.1 52.6 0
      vertex 111.15 52.1258 0
      vertex 114.1 55.4 0
    endloop
  endfacet
  facet normal 0 0 -1
    outer loop
      vertex 110.997 52.201 0
      vertex 114.1 55.4 0
      vertex 111.15 52.1258 0
    endloop
  endfacet
  facet normal 0 0 -1
    outer loop
      vertex 110.836 52.2557 0
      vertex 114.1 55.4 0
      vertex 110.997 52.201 0
    endloop
  endfacet
  facet normal 0 0 -1
    outer loop
      vertex 110.67 52.2889 0
      vertex 114.1 55.4 0
      vertex 110.836 52.2557 0
    endloop
  endfacet
  facet normal 0 0 -1
    outer loop
      vertex 110.5 52.3 0
      vertex 114.1 55.4 0
      vertex 110.67 52.2889 0
    endloop
  endfacet
  facet normal 0 0 -1
    outer loop
      vertex 110.33 52.2889 0
      vertex 114.1 55.4 0
      vertex 110.5 52.3 0
    endloop
  endfacet
  facet normal 0 0 -1
    outer loop
      vertex 110.164 52.2557 0
      vertex 114.1 55.4 0
      vertex 110.33 52.2889 0
    endloop
  endfacet
  facet normal 0 0 -1
    outer loop
      vertex 110.003 52.201 0
      vertex 114.1 55.4 0
      vertex 110.164 52.2557 0
    endloop
  endfacet
  facet normal 0 0 -1
    outer loop
      vertex 109.85 52.1258 0
      vertex 114.1 55.4 0
      vertex 110.003 52.201 0
    endloop
  endfacet
  facet normal 0 0 -1
    outer loop
      vertex 81.15 52.1258 0
      vertex 109.85 52.1258 0
      vertex 109.709 52.0314 0
    endloop
  endfacet
  facet normal 0 0 -1
    outer loop
      vertex 81.8 51 0
      vertex 109.211 51.1697 0
      vertex 109.2 51 0
    endloop
  endfacet
  facet normal 0 0 -1
    outer loop
      vertex 81.7889 51.1697 0
      vertex 109.211 51.1697 0
      vertex 81.8 51 0
    endloop
  endfacet
  facet normal 0 0 -1
    outer loop
      vertex 109.211 51.1697 0
      vertex 81.7889 51.1697 0
      vertex 109.244 51.3365 0
    endloop
  endfacet
  facet normal 0 0 -1
    outer loop
      vertex 81.7557 51.3365 0
      vertex 109.244 51.3365 0
      vertex 81.7889 51.1697 0
    endloop
  endfacet
  facet normal 0 0 -1
    outer loop
      vertex 109.244 51.3365 0
      vertex 81.7557 51.3365 0
      vertex 109.299 51.4975 0
    endloop
  endfacet
  facet normal 0 0 -1
    outer loop
      vertex 81.701 51.4975 0
      vertex 109.299 51.4975 0
      vertex 81.7557 51.3365 0
    endloop
  endfacet
  facet normal 0 0 -1
    outer loop
      vertex 109.299 51.4975 0
      vertex 81.701 51.4975 0
      vertex 109.374 51.65 0
    endloop
  endfacet
  facet normal 0 0 -1
    outer loop
      vertex 81.6258 51.65 0
      vertex 109.374 51.65 0
      vertex 81.701 51.4975 0
    endloop
  endfacet
  facet normal 0 0 -1
    outer loop
      vertex 109.374 51.65 0
      vertex 81.6258 51.65 0
      vertex 109.469 51.7914 0
    endloop
  endfacet
  facet normal 0 0 -1
    outer loop
      vertex 81.5314 51.7914 0
      vertex 109.469 51.7914 0
      vertex 81.6258 51.65 0
    endloop
  endfacet
  facet normal 0 0 -1
    outer loop
      vertex 109.469 51.7914 0
      vertex 81.5314 51.7914 0
      vertex 109.581 51.9192 0
    endloop
  endfacet
  facet normal 0 0 -1
    outer loop
      vertex 81.4192 51.9192 0
      vertex 109.581 51.9192 0
      vertex 81.5314 51.7914 0
    endloop
  endfacet
  facet normal 0 0 -1
    outer loop
      vertex 109.581 51.9192 0
      vertex 81.4192 51.9192 0
      vertex 109.709 52.0314 0
    endloop
  endfacet
  facet normal 0 0 -1
    outer loop
      vertex 81.2914 52.0314 0
      vertex 109.709 52.0314 0
      vertex 81.4192 51.9192 0
    endloop
  endfacet
  facet normal 0 0 -1
    outer loop
      vertex 81.15 52.1258 0
      vertex 109.709 52.0314 0
      vertex 81.2914 52.0314 0
    endloop
  endfacet
  facet normal 0 0 -1
    outer loop
      vertex 109.85 52.1258 0
      vertex 81.15 52.1258 0
      vertex 114.1 55.4 0
    endloop
  endfacet
  facet normal 0 0 -1
    outer loop
      vertex 80.9975 52.201 0
      vertex 114.1 55.4 0
      vertex 81.15 52.1258 0
    endloop
  endfacet
  facet normal 0 0 -1
    outer loop
      vertex 80.8365 52.2557 0
      vertex 114.1 55.4 0
      vertex 80.9975 52.201 0
    endloop
  endfacet
  facet normal 0 0 -1
    outer loop
      vertex 80.6697 52.2889 0
      vertex 114.1 55.4 0
      vertex 80.8365 52.2557 0
    endloop
  endfacet
  facet normal 0 0 -1
    outer loop
      vertex 60.5 56 0
      vertex 80.6697 52.2889 0
      vertex 80.5 52.3 0
    endloop
  endfacet
  facet normal 0 0 -1
    outer loop
      vertex 65.8235 54.2074 0
      vertex 80.5 52.3 0
      vertex 80.3303 52.2889 0
    endloop
  endfacet
  facet normal 0 0 -1
    outer loop
      vertex 66.75 53 0
      vertex 79.2111 51.1697 0
      vertex 79.2 51 0
    endloop
  endfacet
  facet normal 0 0 -1
    outer loop
      vertex 66.75 53 0
      vertex 79.2443 51.3365 0
      vertex 79.2111 51.1697 0
    endloop
  endfacet
  facet normal 0 0 -1
    outer loop
      vertex 66.75 53 0
      vertex 79.299 51.4975 0
      vertex 79.2443 51.3365 0
    endloop
  endfacet
  facet normal 0 0 -1
    outer loop
      vertex 66.7393 53.1632 0
      vertex 79.299 51.4975 0
      vertex 66.75 53 0
    endloop
  endfacet
  facet normal 0 0 -1
    outer loop
      vertex 79.299 51.4975 0
      vertex 66.7393 53.1632 0
      vertex 79.3742 51.65 0
    endloop
  endfacet
  facet normal 0 0 -1
    outer loop
      vertex 66.7074 53.3235 0
      vertex 79.3742 51.65 0
      vertex 66.7393 53.1632 0
    endloop
  endfacet
  facet normal 0 0 -1
    outer loop
      vertex 79.3742 51.65 0
      vertex 66.7074 53.3235 0
      vertex 79.4686 51.7914 0
    endloop
  endfacet
  facet normal 0 0 -1
    outer loop
      vertex 66.6548 53.4784 0
      vertex 79.4686 51.7914 0
      vertex 66.7074 53.3235 0
    endloop
  endfacet
  facet normal 0 0 -1
    outer loop
      vertex 79.4686 51.7914 0
      vertex 66.6548 53.4784 0
      vertex 79.5808 51.9192 0
    endloop
  endfacet
  facet normal 0 0 -1
    outer loop
      vertex 66.5825 53.625 0
      vertex 79.5808 51.9192 0
      vertex 66.6548 53.4784 0
    endloop
  endfacet
  facet normal 0 0 -1
    outer loop
      vertex 79.5808 51.9192 0
      vertex 66.5825 53.625 0
      vertex 79.7086 52.0314 0
    endloop
  endfacet
  facet normal 0 0 -1
    outer loop
      vertex 66.4917 53.761 0
      vertex 79.7086 52.0314 0
      vertex 66.5825 53.625 0
    endloop
  endfacet
  facet normal 0 0 -1
    outer loop
      vertex 79.7086 52.0314 0
      vertex 66.4917 53.761 0
      vertex 79.85 52.1258 0
    endloop
  endfacet
  facet normal 0 0 -1
    outer loop
      vertex 66.3839 53.8839 0
      vertex 79.85 52.1258 0
      vertex 66.4917 53.761 0
    endloop
  endfacet
  facet normal 0 0 -1
    outer loop
      vertex 79.85 52.1258 0
      vertex 66.3839 53.8839 0
      vertex 80.0025 52.201 0
    endloop
  endfacet
  facet normal 0 0 -1
    outer loop
      vertex 66.2609 53.9917 0
      vertex 80.0025 52.201 0
      vertex 66.3839 53.8839 0
    endloop
  endfacet
  facet normal 0 0 -1
    outer loop
      vertex 80.0025 52.201 0
      vertex 66.2609 53.9917 0
      vertex 80.1635 52.2557 0
    endloop
  endfacet
  facet normal 0 0 -1
    outer loop
      vertex 66.125 54.0825 0
      vertex 80.1635 52.2557 0
      vertex 66.2609 53.9917 0
    endloop
  endfacet
  facet normal 0 0 -1
    outer loop
      vertex 80.1635 52.2557 0
      vertex 66.125 54.0825 0
      vertex 80.3303 52.2889 0
    endloop
  endfacet
  facet normal 0 0 -1
    outer loop
      vertex 65.9784 54.1549 0
      vertex 80.3303 52.2889 0
      vertex 66.125 54.0825 0
    endloop
  endfacet
  facet normal 0 0 -1
    outer loop
      vertex 65.8235 54.2074 0
      vertex 80.3303 52.2889 0
      vertex 65.9784 54.1549 0
    endloop
  endfacet
  facet normal 0 0 -1
    outer loop
      vertex 80.5 52.3 0
      vertex 65.8235 54.2074 0
      vertex 60.5 56 0
    endloop
  endfacet
  facet normal 0 0 -1
    outer loop
      vertex 80.6697 52.2889 0
      vertex 60.5 56 0
      vertex 114.1 55.4 0
    endloop
  endfacet
  facet normal 0 0 -1
    outer loop
      vertex 60.5 56 0
      vertex 65.8235 54.2074 0
      vertex 65.6632 54.2393 0
    endloop
  endfacet
  facet normal 0 0 -1
    outer loop
      vertex 60.5 56 0
      vertex 65.6632 54.2393 0
      vertex 65.5 54.25 0
    endloop
  endfacet
  facet normal 0 0 -1
    outer loop
      vertex 64.2607 52.8368 0
      vertex 60.5 56 0
      vertex 64.25 53 0
    endloop
  endfacet
  facet normal 0 0 -1
    outer loop
      vertex 64.25 53 0
      vertex 60.5 56 0
      vertex 64.2607 53.1632 0
    endloop
  endfacet
  facet normal 0 0 -1
    outer loop
      vertex 64.2607 53.1632 0
      vertex 60.5 56 0
      vertex 64.2926 53.3235 0
    endloop
  endfacet
  facet normal 0 0 -1
    outer loop
      vertex 114.1 55.4 0
      vertex 60.5 56 0
      vertex 130.5 56 0
    endloop
  endfacet
  facet normal 0 0 -1
    outer loop
      vertex 65.3368 54.2393 0
      vertex 60.5 56 0
      vertex 65.5 54.25 0
    endloop
  endfacet
  facet normal 0 0 -1
    outer loop
      vertex 65.1765 54.2074 0
      vertex 60.5 56 0
      vertex 65.3368 54.2393 0
    endloop
  endfacet
  facet normal 0 0 -1
    outer loop
      vertex 65.0216 54.1549 0
      vertex 60.5 56 0
      vertex 65.1765 54.2074 0
    endloop
  endfacet
  facet normal 0 0 -1
    outer loop
      vertex 64.875 54.0825 0
      vertex 60.5 56 0
      vertex 65.0216 54.1549 0
    endloop
  endfacet
  facet normal 0 0 -1
    outer loop
      vertex 64.739 53.9917 0
      vertex 60.5 56 0
      vertex 64.875 54.0825 0
    endloop
  endfacet
  facet normal 0 0 -1
    outer loop
      vertex 64.6161 53.8839 0
      vertex 60.5 56 0
      vertex 64.739 53.9917 0
    endloop
  endfacet
  facet normal 0 0 -1
    outer loop
      vertex 64.5083 53.761 0
      vertex 60.5 56 0
      vertex 64.6161 53.8839 0
    endloop
  endfacet
  facet normal 0 0 -1
    outer loop
      vertex 64.4175 53.625 0
      vertex 60.5 56 0
      vertex 64.5083 53.761 0
    endloop
  endfacet
  facet normal 0 0 -1
    outer loop
      vertex 64.3452 53.4784 0
      vertex 60.5 56 0
      vertex 64.4175 53.625 0
    endloop
  endfacet
  facet normal 0 0 -1
    outer loop
      vertex 64.2926 53.3235 0
      vertex 60.5 56 0
      vertex 64.3452 53.4784 0
    endloop
  endfacet
  facet normal -1 0 0
    outer loop
      vertex 60.5 44 0
      vertex 60.5 56 2.25
      vertex 60.5 56 0
    endloop
  endfacet
  facet normal -1 -0 0
    outer loop
      vertex 60.5 56 2.25
      vertex 60.5 44 0
      vertex 60.5 44 2.25
    endloop
  endfacet
  facet normal 0 1 -0
    outer loop
      vertex 130.5 56 0
      vertex 60.5 56 2.25
      vertex 130.5 56 2.25
    endloop
  endfacet
  facet normal 0 1 0
    outer loop
      vertex 60.5 56 2.25
      vertex 130.5 56 0
      vertex 60.5 56 0
    endloop
  endfacet
  facet normal 0 -1 0
    outer loop
      vertex 60.5 44 0
      vertex 130.5 44 2.25
      vertex 60.5 44 2.25
    endloop
  endfacet
  facet normal 0 -1 -0
    outer loop
      vertex 130.5 44 2.25
      vertex 60.5 44 0
      vertex 130.5 44 0
    endloop
  endfacet
  facet normal -1 0 0
    outer loop
      vertex 118.9 52.6 0
      vertex 118.9 55.4 2.25
      vertex 118.9 55.4 0
    endloop
  endfacet
  facet normal -1 -0 0
    outer loop
      vertex 118.9 55.4 2.25
      vertex 118.9 52.6 0
      vertex 118.9 52.6 2.25
    endloop
  endfacet
  facet normal 1 -0 0
    outer loop
      vertex 114.1 52.6 2.25
      vertex 114.1 55.4 0
      vertex 114.1 55.4 2.25
    endloop
  endfacet
  facet normal 1 0 0
    outer loop
      vertex 114.1 55.4 0
      vertex 114.1 52.6 2.25
      vertex 114.1 52.6 0
    endloop
  endfacet
  facet normal 0 -1 0
    outer loop
      vertex 114.1 55.4 0
      vertex 118.9 55.4 2.25
      vertex 114.1 55.4 2.25
    endloop
  endfacet
  facet normal 0 -1 -0
    outer loop
      vertex 118.9 55.4 2.25
      vertex 114.1 55.4 0
      vertex 118.9 55.4 0
    endloop
  endfacet
  facet normal 0 1 -0
    outer loop
      vertex 118.9 52.6 0
      vertex 114.1 52.6 2.25
      vertex 118.9 52.6 2.25
    endloop
  endfacet
  facet normal 0 1 0
    outer loop
      vertex 114.1 52.6 2.25
      vertex 118.9 52.6 0
      vertex 114.1 52.6 0
    endloop
  endfacet
  facet normal -0.195175 0.980768 0
    outer loop
      vertex 65.8235 51.7926 0
      vertex 65.6632 51.7607 2.25
      vertex 65.8235 51.7926 2.25
    endloop
  endfacet
  facet normal -0.195175 0.980768 0
    outer loop
      vertex 65.6632 51.7607 2.25
      vertex 65.8235 51.7926 0
      vertex 65.6632 51.7607 0
    endloop
  endfacet
  facet normal -0.980768 -0.195175 0
    outer loop
      vertex 66.7393 53.1632 0
      vertex 66.7074 53.3235 2.25
      vertex 66.7074 53.3235 0
    endloop
  endfacet
  facet normal -0.980768 -0.195175 0
    outer loop
      vertex 66.7074 53.3235 2.25
      vertex 66.7393 53.1632 0
      vertex 66.7393 53.1632 2.25
    endloop
  endfacet
  facet normal -0.997858 -0.0654233 0
    outer loop
      vertex 66.75 53 0
      vertex 66.7393 53.1632 2.25
      vertex 66.7393 53.1632 0
    endloop
  endfacet
  facet normal -0.997858 -0.0654233 0
    outer loop
      vertex 66.7393 53.1632 2.25
      vertex 66.75 53 0
      vertex 66.75 53 2.25
    endloop
  endfacet
  facet normal -0.946896 0.321541 0
    outer loop
      vertex 66.6548 52.5216 0
      vertex 66.7074 52.6765 2.25
      vertex 66.7074 52.6765 0
    endloop
  endfacet
  facet normal -0.946896 0.321541 0
    outer loop
      vertex 66.7074 52.6765 2.25
      vertex 66.6548 52.5216 0
      vertex 66.6548 52.5216 2.25
    endloop
  endfacet
  facet normal 0.980768 0.195175 0
    outer loop
      vertex 64.2926 52.6765 2.25
      vertex 64.2607 52.8368 0
      vertex 64.2607 52.8368 2.25
    endloop
  endfacet
  facet normal 0.980768 0.195175 0
    outer loop
      vertex 64.2607 52.8368 0
      vertex 64.2926 52.6765 2.25
      vertex 64.2926 52.6765 0
    endloop
  endfacet
  facet normal 0.320993 0.947082 -0
    outer loop
      vertex 65.1765 51.7926 0
      vertex 65.0216 51.8451 2.25
      vertex 65.1765 51.7926 2.25
    endloop
  endfacet
  facet normal 0.320993 0.947082 0
    outer loop
      vertex 65.0216 51.8451 2.25
      vertex 65.1765 51.7926 0
      vertex 65.0216 51.8451 0
    endloop
  endfacet
  facet normal 0.75178 0.659414 0
    outer loop
      vertex 64.6161 52.1161 2.25
      vertex 64.5083 52.239 0
      vertex 64.5083 52.239 2.25
    endloop
  endfacet
  facet normal 0.75178 0.659414 0
    outer loop
      vertex 64.5083 52.239 0
      vertex 64.6161 52.1161 2.25
      vertex 64.6161 52.1161 0
    endloop
  endfacet
  facet normal 0.195175 -0.980768 0
    outer loop
      vertex 65.1765 54.2074 0
      vertex 65.3368 54.2393 2.25
      vertex 65.1765 54.2074 2.25
    endloop
  endfacet
  facet normal 0.195175 -0.980768 0
    outer loop
      vertex 65.3368 54.2393 2.25
      vertex 65.1765 54.2074 0
      vertex 65.3368 54.2393 0
    endloop
  endfacet
  facet normal -0.946896 -0.321541 0
    outer loop
      vertex 66.7074 53.3235 0
      vertex 66.6548 53.4784 2.25
      vertex 66.6548 53.4784 0
    endloop
  endfacet
  facet normal -0.946896 -0.321541 0
    outer loop
      vertex 66.6548 53.4784 2.25
      vertex 66.7074 53.3235 0
      vertex 66.7074 53.3235 2.25
    endloop
  endfacet
  facet normal -0.831674 -0.555265 0
    outer loop
      vertex 66.5825 53.625 0
      vertex 66.4917 53.761 2.25
      vertex 66.4917 53.761 0
    endloop
  endfacet
  facet normal -0.831674 -0.555265 0
    outer loop
      vertex 66.4917 53.761 2.25
      vertex 66.5825 53.625 0
      vertex 66.5825 53.625 2.25
    endloop
  endfacet
  facet normal 0.442805 -0.896618 0
    outer loop
      vertex 64.875 54.0825 0
      vertex 65.0216 54.1549 2.25
      vertex 64.875 54.0825 2.25
    endloop
  endfacet
  facet normal 0.442805 -0.896618 0
    outer loop
      vertex 65.0216 54.1549 2.25
      vertex 64.875 54.0825 0
      vertex 65.0216 54.1549 0
    endloop
  endfacet
  facet normal -0.320993 -0.947082 0
    outer loop
      vertex 65.8235 54.2074 0
      vertex 65.9784 54.1549 2.25
      vertex 65.8235 54.2074 2.25
    endloop
  endfacet
  facet normal -0.320993 -0.947082 -0
    outer loop
      vertex 65.9784 54.1549 2.25
      vertex 65.8235 54.2074 0
      vertex 65.9784 54.1549 0
    endloop
  endfacet
  facet normal -0.65911 -0.752046 0
    outer loop
      vertex 66.2609 53.9917 0
      vertex 66.3839 53.8839 2.25
      vertex 66.2609 53.9917 2.25
    endloop
  endfacet
  facet normal -0.65911 -0.752046 -0
    outer loop
      vertex 66.3839 53.8839 2.25
      vertex 66.2609 53.9917 0
      vertex 66.3839 53.8839 0
    endloop
  endfacet
  facet normal -0.896861 0.442313 0
    outer loop
      vertex 66.5825 52.375 0
      vertex 66.6548 52.5216 2.25
      vertex 66.6548 52.5216 0
    endloop
  endfacet
  facet normal -0.896861 0.442313 0
    outer loop
      vertex 66.6548 52.5216 2.25
      vertex 66.5825 52.375 0
      vertex 66.5825 52.375 2.25
    endloop
  endfacet
  facet normal -0.997858 0.0654233 0
    outer loop
      vertex 66.7393 52.8368 0
      vertex 66.75 53 2.25
      vertex 66.75 53 0
    endloop
  endfacet
  facet normal -0.997858 0.0654233 0
    outer loop
      vertex 66.75 53 2.25
      vertex 66.7393 52.8368 0
      vertex 66.7393 52.8368 2.25
    endloop
  endfacet
  facet normal 0.75178 -0.659414 0
    outer loop
      vertex 64.5083 53.761 2.25
      vertex 64.6161 53.8839 0
      vertex 64.6161 53.8839 2.25
    endloop
  endfacet
  facet normal 0.75178 -0.659414 0
    outer loop
      vertex 64.6161 53.8839 0
      vertex 64.5083 53.761 2.25
      vertex 64.5083 53.761 0
    endloop
  endfacet
  facet normal 0.442805 0.896618 -0
    outer loop
      vertex 65.0216 51.8451 0
      vertex 64.875 51.9175 2.25
      vertex 65.0216 51.8451 2.25
    endloop
  endfacet
  facet normal 0.442805 0.896618 0
    outer loop
      vertex 64.875 51.9175 2.25
      vertex 65.0216 51.8451 0
      vertex 64.875 51.9175 0
    endloop
  endfacet
  facet normal -0.65911 0.752046 0
    outer loop
      vertex 66.3839 52.1161 0
      vertex 66.2609 52.0083 2.25
      vertex 66.3839 52.1161 2.25
    endloop
  endfacet
  facet normal -0.65911 0.752046 0
    outer loop
      vertex 66.2609 52.0083 2.25
      vertex 66.3839 52.1161 0
      vertex 66.2609 52.0083 0
    endloop
  endfacet
  facet normal 0.320993 -0.947082 0
    outer loop
      vertex 65.0216 54.1549 0
      vertex 65.1765 54.2074 2.25
      vertex 65.0216 54.1549 2.25
    endloop
  endfacet
  facet normal 0.320993 -0.947082 0
    outer loop
      vertex 65.1765 54.2074 2.25
      vertex 65.0216 54.1549 0
      vertex 65.1765 54.2074 0
    endloop
  endfacet
  facet normal -0.555547 0.831485 0
    outer loop
      vertex 66.2609 52.0083 0
      vertex 66.125 51.9175 2.25
      vertex 66.2609 52.0083 2.25
    endloop
  endfacet
  facet normal -0.555547 0.831485 0
    outer loop
      vertex 66.125 51.9175 2.25
      vertex 66.2609 52.0083 0
      vertex 66.125 51.9175 0
    endloop
  endfacet
  facet normal -0.980768 0.195175 0
    outer loop
      vertex 66.7074 52.6765 0
      vertex 66.7393 52.8368 2.25
      vertex 66.7393 52.8368 0
    endloop
  endfacet
  facet normal -0.980768 0.195175 0
    outer loop
      vertex 66.7393 52.8368 2.25
      vertex 66.7074 52.6765 0
      vertex 66.7074 52.6765 2.25
    endloop
  endfacet
  facet normal -0.0654233 -0.997858 0
    outer loop
      vertex 65.5 54.25 0
      vertex 65.6632 54.2393 2.25
      vertex 65.5 54.25 2.25
    endloop
  endfacet
  facet normal -0.0654233 -0.997858 -0
    outer loop
      vertex 65.6632 54.2393 2.25
      vertex 65.5 54.25 0
      vertex 65.6632 54.2393 0
    endloop
  endfacet
  facet normal 0.997858 0.0654233 0
    outer loop
      vertex 64.2607 52.8368 2.25
      vertex 64.25 53 0
      vertex 64.25 53 2.25
    endloop
  endfacet
  facet normal 0.997858 0.0654233 0
    outer loop
      vertex 64.25 53 0
      vertex 64.2607 52.8368 2.25
      vertex 64.2607 52.8368 0
    endloop
  endfacet
  facet normal -0.320993 0.947082 0
    outer loop
      vertex 65.9784 51.8451 0
      vertex 65.8235 51.7926 2.25
      vertex 65.9784 51.8451 2.25
    endloop
  endfacet
  facet normal -0.320993 0.947082 0
    outer loop
      vertex 65.8235 51.7926 2.25
      vertex 65.9784 51.8451 0
      vertex 65.8235 51.7926 0
    endloop
  endfacet
  facet normal 0.896861 0.442313 0
    outer loop
      vertex 64.4175 52.375 2.25
      vertex 64.3452 52.5216 0
      vertex 64.3452 52.5216 2.25
    endloop
  endfacet
  facet normal 0.896861 0.442313 0
    outer loop
      vertex 64.3452 52.5216 0
      vertex 64.4175 52.375 2.25
      vertex 64.4175 52.375 0
    endloop
  endfacet
  facet normal -0.555547 -0.831485 0
    outer loop
      vertex 66.125 54.0825 0
      vertex 66.2609 53.9917 2.25
      vertex 66.125 54.0825 2.25
    endloop
  endfacet
  facet normal -0.555547 -0.831485 -0
    outer loop
      vertex 66.2609 53.9917 2.25
      vertex 66.125 54.0825 0
      vertex 66.2609 53.9917 0
    endloop
  endfacet
  facet normal 0.831674 0.555265 0
    outer loop
      vertex 64.5083 52.239 2.25
      vertex 64.4175 52.375 0
      vertex 64.4175 52.375 2.25
    endloop
  endfacet
  facet normal 0.831674 0.555265 0
    outer loop
      vertex 64.4175 52.375 0
      vertex 64.5083 52.239 2.25
      vertex 64.5083 52.239 0
    endloop
  endfacet
  facet normal 0.0654233 -0.997858 0
    outer loop
      vertex 65.3368 54.2393 0
      vertex 65.5 54.25 2.25
      vertex 65.3368 54.2393 2.25
    endloop
  endfacet
  facet normal 0.0654233 -0.997858 0
    outer loop
      vertex 65.5 54.25 2.25
      vertex 65.3368 54.2393 0
      vertex 65.5 54.25 0
    endloop
  endfacet
  facet normal -0.195175 -0.980768 0
    outer loop
      vertex 65.6632 54.2393 0
      vertex 65.8235 54.2074 2.25
      vertex 65.6632 54.2393 2.25
    endloop
  endfacet
  facet normal -0.195175 -0.980768 -0
    outer loop
      vertex 65.8235 54.2074 2.25
      vertex 65.6632 54.2393 0
      vertex 65.8235 54.2074 0
    endloop
  endfacet
  facet normal 0.659414 0.75178 -0
    outer loop
      vertex 64.739 52.0083 0
      vertex 64.6161 52.1161 2.25
      vertex 64.739 52.0083 2.25
    endloop
  endfacet
  facet normal 0.659414 0.75178 0
    outer loop
      vertex 64.6161 52.1161 2.25
      vertex 64.739 52.0083 0
      vertex 64.6161 52.1161 0
    endloop
  endfacet
  facet normal -0.75178 0.659414 0
    outer loop
      vertex 66.3839 52.1161 0
      vertex 66.4917 52.239 2.25
      vertex 66.4917 52.239 0
    endloop
  endfacet
  facet normal -0.75178 0.659414 0
    outer loop
      vertex 66.4917 52.239 2.25
      vertex 66.3839 52.1161 0
      vertex 66.3839 52.1161 2.25
    endloop
  endfacet
  facet normal 0.555265 -0.831674 0
    outer loop
      vertex 64.739 53.9917 0
      vertex 64.875 54.0825 2.25
      vertex 64.739 53.9917 2.25
    endloop
  endfacet
  facet normal 0.555265 -0.831674 0
    outer loop
      vertex 64.875 54.0825 2.25
      vertex 64.739 53.9917 0
      vertex 64.875 54.0825 0
    endloop
  endfacet
  facet normal 0.946896 0.321541 0
    outer loop
      vertex 64.3452 52.5216 2.25
      vertex 64.2926 52.6765 0
      vertex 64.2926 52.6765 2.25
    endloop
  endfacet
  facet normal 0.946896 0.321541 0
    outer loop
      vertex 64.2926 52.6765 0
      vertex 64.3452 52.5216 2.25
      vertex 64.3452 52.5216 0
    endloop
  endfacet
  facet normal -0.831674 0.555265 0
    outer loop
      vertex 66.4917 52.239 0
      vertex 66.5825 52.375 2.25
      vertex 66.5825 52.375 0
    endloop
  endfacet
  facet normal -0.831674 0.555265 0
    outer loop
      vertex 66.5825 52.375 2.25
      vertex 66.4917 52.239 0
      vertex 66.4917 52.239 2.25
    endloop
  endfacet
  facet normal 0.980768 -0.195175 0
    outer loop
      vertex 64.2607 53.1632 2.25
      vertex 64.2926 53.3235 0
      vertex 64.2926 53.3235 2.25
    endloop
  endfacet
  facet normal 0.980768 -0.195175 0
    outer loop
      vertex 64.2926 53.3235 0
      vertex 64.2607 53.1632 2.25
      vertex 64.2607 53.1632 0
    endloop
  endfacet
  facet normal -0.442805 -0.896618 0
    outer loop
      vertex 65.9784 54.1549 0
      vertex 66.125 54.0825 2.25
      vertex 65.9784 54.1549 2.25
    endloop
  endfacet
  facet normal -0.442805 -0.896618 -0
    outer loop
      vertex 66.125 54.0825 2.25
      vertex 65.9784 54.1549 0
      vertex 66.125 54.0825 0
    endloop
  endfacet
  facet normal -0.896861 -0.442313 0
    outer loop
      vertex 66.6548 53.4784 0
      vertex 66.5825 53.625 2.25
      vertex 66.5825 53.625 0
    endloop
  endfacet
  facet normal -0.896861 -0.442313 0
    outer loop
      vertex 66.5825 53.625 2.25
      vertex 66.6548 53.4784 0
      vertex 66.6548 53.4784 2.25
    endloop
  endfacet
  facet normal -0.75178 -0.659414 0
    outer loop
      vertex 66.4917 53.761 0
      vertex 66.3839 53.8839 2.25
      vertex 66.3839 53.8839 0
    endloop
  endfacet
  facet normal -0.75178 -0.659414 0
    outer loop
      vertex 66.3839 53.8839 2.25
      vertex 66.4917 53.761 0
      vertex 66.4917 53.761 2.25
    endloop
  endfacet
  facet normal 0.997858 -0.0654233 0
    outer loop
      vertex 64.25 53 2.25
      vertex 64.2607 53.1632 0
      vertex 64.2607 53.1632 2.25
    endloop
  endfacet
  facet normal 0.997858 -0.0654233 0
    outer loop
      vertex 64.2607 53.1632 0
      vertex 64.25 53 2.25
      vertex 64.25 53 0
    endloop
  endfacet
  facet normal 0.831674 -0.555265 0
    outer loop
      vertex 64.4175 53.625 2.25
      vertex 64.5083 53.761 0
      vertex 64.5083 53.761 2.25
    endloop
  endfacet
  facet normal 0.831674 -0.555265 0
    outer loop
      vertex 64.5083 53.761 0
      vertex 64.4175 53.625 2.25
      vertex 64.4175 53.625 0
    endloop
  endfacet
  facet normal -0.442805 0.896618 0
    outer loop
      vertex 66.125 51.9175 0
      vertex 65.9784 51.8451 2.25
      vertex 66.125 51.9175 2.25
    endloop
  endfacet
  facet normal -0.442805 0.896618 0
    outer loop
      vertex 65.9784 51.8451 2.25
      vertex 66.125 51.9175 0
      vertex 65.9784 51.8451 0
    endloop
  endfacet
  facet normal -0.0654233 0.997858 0
    outer loop
      vertex 65.6632 51.7607 0
      vertex 65.5 51.75 2.25
      vertex 65.6632 51.7607 2.25
    endloop
  endfacet
  facet normal -0.0654233 0.997858 0
    outer loop
      vertex 65.5 51.75 2.25
      vertex 65.6632 51.7607 0
      vertex 65.5 51.75 0
    endloop
  endfacet
  facet normal 0.195175 0.980768 -0
    outer loop
      vertex 65.3368 51.7607 0
      vertex 65.1765 51.7926 2.25
      vertex 65.3368 51.7607 2.25
    endloop
  endfacet
  facet normal 0.195175 0.980768 0
    outer loop
      vertex 65.1765 51.7926 2.25
      vertex 65.3368 51.7607 0
      vertex 65.1765 51.7926 0
    endloop
  endfacet
  facet normal 0.659414 -0.75178 0
    outer loop
      vertex 64.6161 53.8839 0
      vertex 64.739 53.9917 2.25
      vertex 64.6161 53.8839 2.25
    endloop
  endfacet
  facet normal 0.659414 -0.75178 0
    outer loop
      vertex 64.739 53.9917 2.25
      vertex 64.6161 53.8839 0
      vertex 64.739 53.9917 0
    endloop
  endfacet
  facet normal 0.896861 -0.442313 0
    outer loop
      vertex 64.3452 53.4784 2.25
      vertex 64.4175 53.625 0
      vertex 64.4175 53.625 2.25
    endloop
  endfacet
  facet normal 0.896861 -0.442313 0
    outer loop
      vertex 64.4175 53.625 0
      vertex 64.3452 53.4784 2.25
      vertex 64.3452 53.4784 0
    endloop
  endfacet
  facet normal 0.946896 -0.321541 0
    outer loop
      vertex 64.2926 53.3235 2.25
      vertex 64.3452 53.4784 0
      vertex 64.3452 53.4784 2.25
    endloop
  endfacet
  facet normal 0.946896 -0.321541 0
    outer loop
      vertex 64.3452 53.4784 0
      vertex 64.2926 53.3235 2.25
      vertex 64.2926 53.3235 0
    endloop
  endfacet
  facet normal 0.555265 0.831674 -0
    outer loop
      vertex 64.875 51.9175 0
      vertex 64.739 52.0083 2.25
      vertex 64.875 51.9175 2.25
    endloop
  endfacet
  facet normal 0.555265 0.831674 0
    outer loop
      vertex 64.739 52.0083 2.25
      vertex 64.875 51.9175 0
      vertex 64.739 52.0083 0
    endloop
  endfacet
  facet normal 0.0654233 0.997858 -0
    outer loop
      vertex 65.5 51.75 0
      vertex 65.3368 51.7607 2.25
      vertex 65.5 51.75 2.25
    endloop
  endfacet
  facet normal 0.0654233 0.997858 0
    outer loop
      vertex 65.3368 51.7607 2.25
      vertex 65.5 51.75 0
      vertex 65.3368 51.7607 0
    endloop
  endfacet
endsolid OpenSCAD_Model
